<svg xmlns="http://www.w3.org/2000/svg" width="146.155" height="28.039" viewBox="0 0 146.155 28.039">
  <g id="Group_8989" data-name="Group 8989" transform="translate(-338.07 -5200.702)">
    <path id="Path_6684" data-name="Path 6684" d="M402.228,5231.473a35.326,35.326,0,0,1-19.977,6.112,36.132,36.132,0,0,1-24.4-9.285c-.495-.448,0-1.067.557-.727a48.42,48.42,0,0,0,42.971,2.646c.913-.387,1.671.6.79,1.253Z" transform="translate(-6.467 -8.845)" fill="#f8991d" fill-rule="evenodd"/>
    <path id="Path_6685" data-name="Path 6685" d="M424.241,5228.519c-.7-.9-4.643-.433-6.313-.217-.526,0-.6-.4-.124-.727,3.094-2.182,8.155-1.547,8.743-.82s-.155,5.8-3.1,8.232c-.449.372-.882.17-.68-.325.65-1.625,2.119-5.261,1.423-6.189Z" transform="translate(-26.236 -8.381)" fill="#f8991d" fill-rule="evenodd"/>
    <path id="Path_6686" data-name="Path 6686" d="M418.062,5204v-2.1a.509.509,0,0,1,.494-.526.257.257,0,0,1,.048,0h9.455a.541.541,0,0,1,.542.541v1.811a3.088,3.088,0,0,1-.712,1.33l-4.89,6.995a10.438,10.438,0,0,1,5.385,1.145,1.007,1.007,0,0,1,.51.836v2.244a.509.509,0,0,1-.5.52.5.5,0,0,1-.212-.041,10.834,10.834,0,0,0-9.98,0c-.325.17-.681-.185-.681-.5v-2.088a2.6,2.6,0,0,1,.356-1.455l5.679-8.14H418.6a.526.526,0,0,1-.541-.51.243.243,0,0,1,0-.031Z" transform="translate(-26.246 -0.221)" fill="#333e47" fill-rule="evenodd"/>
    <path id="Path_6687" data-name="Path 6687" d="M365.151,5217.12h-2.878a.526.526,0,0,1-.51-.479v-14.854a.541.541,0,0,1,.556-.527H365a.557.557,0,0,1,.526.5v1.935h0a3.946,3.946,0,0,1,7.52,0,4.255,4.255,0,0,1,7.3-1.13,7.874,7.874,0,0,1,.727,4.642v9.284a.542.542,0,0,1-.556.527h-2.832a.542.542,0,0,1-.511-.527v-7.8a20.563,20.563,0,0,0-.077-2.77,1.547,1.547,0,0,0-1.7-1.269,1.9,1.9,0,0,0-1.718,1.207,9.007,9.007,0,0,0-.263,2.832v7.83a.542.542,0,0,1-.556.526h-2.863a.543.543,0,0,1-.526-.526v-7.83c0-1.656.263-4.07-1.779-4.07s-1.981,2.352-1.981,4.07v7.83a.541.541,0,0,1-.556.526h0Z" transform="translate(-7.827 -0.078)" fill="#333e47" fill-rule="evenodd"/>
    <path id="Path_6688" data-name="Path 6688" d="M443.077,5203.974c-2.12,0-2.259,2.878-2.259,4.642s0,5.648,2.229,5.648,2.336-3.094,2.336-5a13.283,13.283,0,0,0-.433-3.915,1.78,1.78,0,0,0-1.872-1.424Zm0-3.018c4.271,0,6.576,3.667,6.576,8.325s-2.553,8.077-6.576,8.077-6.468-3.668-6.468-8.232S438.915,5200.956,443.077,5200.956Z" transform="translate(-32.554 -0.084)" fill="#333e47" fill-rule="evenodd"/>
    <path id="Path_6689" data-name="Path 6689" d="M462.651,5217.124h-2.863a.525.525,0,0,1-.51-.526v-14.855a.557.557,0,0,1,.557-.479H462.5a.527.527,0,0,1,.511.418v2.259h0a3.9,3.9,0,0,1,3.915-2.986,3.758,3.758,0,0,1,3.358,1.733,9.376,9.376,0,0,1,.759,4.642v9.284a.543.543,0,0,1-.5.511h-2.893a.542.542,0,0,1-.511-.464v-8.092c0-1.625.186-3.977-1.81-3.977a1.873,1.873,0,0,0-1.656,1.176,6.6,6.6,0,0,0-.464,2.8v7.953a.543.543,0,0,1-.556.526h0Z" transform="translate(-40.043 -0.082)" fill="#333e47" fill-rule="evenodd"/>
    <path id="Path_6690" data-name="Path 6690" d="M405.777,5216.948a.588.588,0,0,1-.665,0,6.951,6.951,0,0,1-1.656-1.919,5.693,5.693,0,0,1-4.75,2.089,4.086,4.086,0,0,1-4.3-4.487,4.89,4.89,0,0,1,3.1-4.643,19.474,19.474,0,0,1,5.415-1.006v-.371a3.572,3.572,0,0,0-.356-2.089,1.9,1.9,0,0,0-1.548-.743,2.166,2.166,0,0,0-2.306,1.733.65.65,0,0,1-.51.526l-2.786-.31a.51.51,0,0,1-.469-.549c0-.013,0-.025,0-.039.634-3.327,3.621-4.363,6.329-4.394h.216a6.406,6.406,0,0,1,4.225,1.424c1.408,1.315,1.269,3.094,1.269,4.951v4.487a3.916,3.916,0,0,0,1.083,2.662.542.542,0,0,1,.008.766l-.008.007c-.588.48-1.548,1.393-2.2,1.9Zm-2.893-7.025a5.61,5.61,0,0,1-.542,3.094,2.319,2.319,0,0,1-1.98,1.3c-1.114,0-1.749-.835-1.749-2.088,0-2.445,2.2-2.894,4.271-2.894v.588Z" transform="translate(-18.604 -0.014)" fill="#333e47" fill-rule="evenodd"/>
    <path id="Path_6691" data-name="Path 6691" d="M349.464,5216.948a.6.6,0,0,1-.681,0,7.166,7.166,0,0,1-1.641-1.919,5.708,5.708,0,0,1-4.75,2.089,4.086,4.086,0,0,1-4.3-4.487,4.89,4.89,0,0,1,3.1-4.643,19.474,19.474,0,0,1,5.416-1.006v-.371a3.712,3.712,0,0,0-.356-2.089,1.9,1.9,0,0,0-1.548-.743,2.2,2.2,0,0,0-2.4,1.749.6.6,0,0,1-.5.526l-2.785-.31a.51.51,0,0,1-.438-.574l0-.03c.619-3.327,3.605-4.363,6.313-4.394h.2a6.454,6.454,0,0,1,4.24,1.424c1.392,1.315,1.269,3.094,1.269,4.951v4.487a3.916,3.916,0,0,0,1.083,2.662.557.557,0,0,1,0,.773c-.588.48-1.625,1.393-2.2,1.9Zm-2.894-7.025a5.616,5.616,0,0,1-.541,3.094,2.321,2.321,0,0,1-2,1.3c-1.1,0-1.748-.835-1.748-2.088.015-2.476,2.2-2.909,4.286-2.909v.6Z" transform="translate(0 -0.014)" fill="#333e47" fill-rule="evenodd"/>
    <path id="Path_6692" data-name="Path 6692" d="M535.209,5222.486V5221.4c0-.309.155-.526.479-.495a7.093,7.093,0,0,0,2.058,0,2.414,2.414,0,0,0,1.686-1.547c.465-1.084.774-1.95.975-2.523l-5.989-14.715c-.092-.263-.124-.727.372-.727h2.1a.68.68,0,0,1,.65.51l4.333,12.039,4.147-12.039a.65.65,0,0,1,.65-.51h1.965c.5,0,.48.464.372.727l-5.926,15.288c-.774,2.027-1.8,5.276-4.1,5.833a5.88,5.88,0,0,1-3.4-.17.666.666,0,0,1-.309-.588Z" transform="translate(-64.849 -0.229)" fill="#333e47" fill-rule="evenodd"/>
    <path id="Path_6693" data-name="Path 6693" d="M525.427,5216.068a.511.511,0,0,1-.511.495h-1.47a.557.557,0,0,1-.573-.495l-.155-1.006a8.656,8.656,0,0,1-2.414,1.423,6.067,6.067,0,0,1-5.431-.248,4.35,4.35,0,0,1-1.872-3.745,4.642,4.642,0,0,1,1.1-3.187,5.894,5.894,0,0,1,4.5-1.718,13.919,13.919,0,0,1,3.931.51v-2.011c0-2.058-.867-2.956-3.1-2.956a15.1,15.1,0,0,0-4.936.851.449.449,0,0,1-.467-.43.415.415,0,0,1,0-.065v-1.161a.711.711,0,0,1,.495-.619,14.907,14.907,0,0,1,5.2-1.006c2.6,0,5.695.588,5.695,4.642v10.724Zm-2.832-2.956v-3.1a15.3,15.3,0,0,0-3.358-.34,3.777,3.777,0,0,0-2.677.851,2.49,2.49,0,0,0-.619,1.733,2.321,2.321,0,0,0,.928,2.027,3.9,3.9,0,0,0,3.1.139,6.837,6.837,0,0,0,2.569-1.315Z" transform="translate(-57.79)" fill="#333e47" fill-rule="evenodd"/>
    <path id="Path_6694" data-name="Path 6694" d="M495.565,5203.123c3.281,0,4.162,2.584,4.162,5.525a6.622,6.622,0,0,1-1.377,4.781,3.7,3.7,0,0,1-2.924.959,7.1,7.1,0,0,1-3.791-1.439v-8.371A6.8,6.8,0,0,1,495.565,5203.123Zm-4.487,19.667h-1.919a.494.494,0,0,1-.51-.479V5201.7a.51.51,0,0,1,.51-.5h1.548a.588.588,0,0,1,.588.5l.155,1.083a7.739,7.739,0,0,1,4.983-2.058c4.859,0,6.453,4.008,6.453,8.17,0,4.472-2.445,8.047-6.577,8.047a6.934,6.934,0,0,1-4.642-1.749v7.1a.5.5,0,0,1-.495.5h-.093Z" transform="translate(-49.746 -0.008)" fill="#333e47" fill-rule="evenodd"/>
  </g>
</svg>
