<svg id="Group_492" data-name="Group 492" xmlns="http://www.w3.org/2000/svg" width="51.183" height="42.966" viewBox="0 0 51.183 42.966">
  <path id="Path_1800" data-name="Path 1800" d="M292.307,204.485a18.7,18.7,0,0,1-.577,2.853c-.566,1.193-.566,1.193-.934,1.859a14.26,14.26,0,0,1-2.416,2.665c-.865.666-.865.666-1.819,1.323a33.651,33.651,0,0,1-3.559,1.73,6.576,6.576,0,0,0-1.432.5c-.01.119-.01.119.031.159a9.1,9.1,0,0,1,4.166,1.531,13.34,13.34,0,0,1,1.749,1.69,11.787,11.787,0,0,1,1.462,2.784c.089.407.179.805.269,1.2.059.647.059,1.293.059,1.939a12.03,12.03,0,0,1-1.9,5.15c-.647.9-.647.9-1.283,1.71A13.712,13.712,0,0,1,282.2,234.7a17.758,17.758,0,0,1-3.758,1.82c-.775.219-1.591.487-2.366.735a14.028,14.028,0,0,0-1.959.4,15.44,15.44,0,0,0-1.72.2c-7.845.328-15.768.179-23.613.189-.08-.159-.139-.4.069-.487,3.758-.159,7.546-.338,11.3-.467a14.3,14.3,0,0,0,2.257-.1,60.445,60.445,0,0,0,7.467-.6c.149-.07.816-.2,1.81-.467,4.882-1.58,9.336-4.683,11.383-9.544a3.832,3.832,0,0,1,.269-.7c.11-.547.219-1.094.338-1.64a17.508,17.508,0,0,0,0-1.879,8.237,8.237,0,0,0-1.432-3.688c-.338-.378-.677-.756-1-1.134a9.514,9.514,0,0,0-5.25-2.266c0-.159.05-.179.189-.259a8.333,8.333,0,0,0,1.212-.4c3.261-1.422,6.164-3.321,8-6.453.179-.418.368-.845.557-1.272a15.274,15.274,0,0,0,.607-3.2c-.04-.478-.07-.955-.1-1.441-.1-.309-.189-.626-.279-.945a6.677,6.677,0,0,0-1.5-2.227A9.38,9.38,0,0,0,280.873,197a.444.444,0,0,1,.02-.1,9.918,9.918,0,0,1,2.366.05,12.784,12.784,0,0,0,1.591.2c.418.089.835.179,1.263.269a12.117,12.117,0,0,1,3.788,1.631c.328.3.656.6.985.884.279.428.557.846.835,1.263.129.408.268.805.408,1.2.079.7.159,1.381.179,2.087Zm-11.165-1.819c-.249,1.392-.249,1.392-.448,2.287a15.559,15.559,0,0,1-1.809,3.38,1.226,1.226,0,0,0-.11.059,17.537,17.537,0,0,1-7.655,4.962c-.6.139-.6.139-.666.189v.14c.2.2.587.159.845.169a1.943,1.943,0,0,0,.6.1,14.326,14.326,0,0,1,3.162,1.362c.08.1.547.427,1.322,1.133.229.279.457.547.686.815a10.67,10.67,0,0,1,1.134,2.287c.089.418.179.835.268,1.243a14.159,14.159,0,0,1,.04,1.64c-.1.577-.2,1.143-.288,1.71-.149.338-.209.606-.478,1.292a15.81,15.81,0,0,1-2.127,3.3,29.462,29.462,0,0,1-3.41,2.983,1.883,1.883,0,0,0-.666.4,35.746,35.746,0,0,1-5.777,2.485c-1.252.258-2.505.5-3.778.666-2.346.13-2.346.13-3.012.2-2.059.06-10.022.457-10.161.428a.525.525,0,0,1,0-.527c2.127-.617,4.315-1.332,6.472-1.859.179-.08,3.808-1.124,4.175-1.263,1.621-.338,3.231-.974,4.842-1.392.358-.129,2.286-.656,4.076-1.193,1.581-.378,3.261-.875,4.793-1.4a.444.444,0,0,0,.059-.3l-.119-.09c-.149,0-2.207.537-11.831,2.853a.735.735,0,0,1-.119.07c-1.77.338-3.54.855-5.3,1.253-.139.05-.268.1-.4.139-6.681,1.591-6.681,1.591-6.831,1.65h-.189c-.14-.179-.219-.209-.189-.457A19.119,19.119,0,0,1,250,232.354c.318-.139,3.37-1.869,3.678-2.008,2.426-1.451,4.952-2.793,7.387-4.226,2.049-1.113,4.106-2.3,6.155-3.42.07-.05.139-.1.209-.159,1.561-.8,3.082-1.7,4.613-2.555a12.126,12.126,0,0,0,2.1-1.193.249.249,0,0,0-.159-.4q-2.222,1.148-4.424,2.286a1.345,1.345,0,0,0-.467.229c-4.216,2.157-4.216,2.157-4.564,2.3-.477.288-1.75.925-1.859,1.015-1.83.914-3.669,1.879-5.469,2.853a1.293,1.293,0,0,1-.168.04c-.985.656-2.177,1.094-3.192,1.72-1.76.875-3.559,1.78-5.289,2.714-.2.05-1.541.974-1.392.069.617-.576,1.233-1.163,1.849-1.749a5.447,5.447,0,0,1,.736-.666,13.812,13.812,0,0,1,2.247-2.138c.049-.069.109-.139.168-.219,1.611-1.481,3.231-3.013,4.773-4.573q6.905-6.607,13.88-13.144a1.585,1.585,0,0,1,.487-.477c2.823-2.7,3-2.913,6.343-6.1.219-.169.219-.169.3-.288,0-.546-.318-.3-.616-.08-.825.825-1.72,1.571-2.565,2.367-.318.448-.885.776-1.263,1.213a26.392,26.392,0,0,1-2.664,2.356,20.827,20.827,0,0,1-2.157,1.919c-2.645,2.535-5.538,4.842-8.163,7.4-1.293,1.014-2.406,2.307-3.718,3.3-.348.378-.348.378-2.684,2.555-.089.06-.169.119-.249.169-2.6,2.406-5.279,4.772-7.934,7.118-.288,0-.368-.069-.339-.377,3.182-4.633,6.374-9.286,9.515-13.939,1.273-1.929,2.536-3.907,3.888-5.786.955-1.411,1.034-1.571,1.372-2.028,2.455-3.649,5.031-7.308,7.437-11,.288-.288.209-.477-.179-.437-2.038,2.863-4.156,5.7-6.164,8.59-.338.427-.994,1.391-7.825,10.966-.149.258-2.6,3.609-2.784,3.808-2.2,3.082-4.4,6.184-6.651,9.216-.119.09-.239.189-.388.09v-.279c1.6-4.166,3.291-8.361,5.04-12.477,2.555-6.4,5.091-12.845,7.686-19.238a.353.353,0,0,0-.09-.249.322.322,0,0,0-.249.089c-1.968,4.434-4.016,8.859-6.015,13.283-.08.11-2.187,4.772-2.764,5.965-.258.626-.467,1-.735,1.64-1.7,3.58-3.321,7.229-4.951,10.847a.657.657,0,0,1-.607.02,31.13,31.13,0,0,1,.825-3.211c.07-.149.3-1.064.368-1.243.059-.328.129-.487.925-3.559.418-1.531.835-3.062,1.263-4.594.06-.328,3.977-14.417,4.007-14.635.13-.448.258-.9.4-1.343.5-1.969,1.024-3.8,1.432-5.379a.465.465,0,0,1,.179-.209c6.98,0,13.969.02,20.948-.02a17.232,17.232,0,0,1,6.273,1.392,3.641,3.641,0,0,0,.716.427,11.418,11.418,0,0,1,1.3,1.094c.219.318.437.636.666.955.129.328.258.656.4.984.1.478.2.955.3,1.422,0,.438.01.865.02,1.293Z" transform="translate(-241.124 -195.1)" fill="#ff5200" fill-rule="evenodd"/>
</svg>
