<svg xmlns="http://www.w3.org/2000/svg" width="64.554" height="41.725" viewBox="0 0 64.554 41.725">
  <g id="Group_1075" data-name="Group 1075" transform="translate(-722.339 -928.033)">
    <path id="Path_286" data-name="Path 286" d="M742.069,963.327l-.117.117a8.738,8.738,0,0,1-6.281,2.906,7.8,7.8,0,0,1-8.011-7.587q-.01-.362.013-.722a7.8,7.8,0,0,1,7.3-8.278q.35-.022.7-.012a8.756,8.756,0,0,1,6.261,2.926l.117.117,3-3.628h-.1a11.41,11.41,0,0,0-9.11-4.408,13.944,13.944,0,0,0-9.48,3.472,14.082,14.082,0,0,0,0,19.7,13.869,13.869,0,0,0,9.48,3.472,11.353,11.353,0,0,0,9.129-4.37h.1l-3-3.627Zm6.027,7.588h5.267V945.128H748.1Zm25.982-5.6a7.8,7.8,0,0,1-3.9,1.287c-1.716,0-2.5-.9-2.5-2.906V950.043h5.383v-4.9h-5.383v-8.036l-5.169,2.77v5.266h-4.467V950h4.467v14.552c0,3.9,2.341,6.69,5.852,6.749a8.4,8.4,0,0,0,4.7-1.17h0l1.287-4.975-.312.2Zm4.369,5.6h5.286V945.128h-5.286Z" transform="translate(0 -1.648)" fill="#1c4882" fill-rule="evenodd"/>
    <path id="Path_287" data-name="Path 287" d="M791.75,938.955a25.65,25.65,0,0,0-42,0l-.234.351h6.067a20.677,20.677,0,0,1,29.225-.951q.491.46.951.951h6.066l-.233-.351Z" transform="translate(-4.934 0)" fill="#cc2131" fill-rule="evenodd"/>
  </g>
</svg>
