<svg xmlns="http://www.w3.org/2000/svg" xmlns:xlink="http://www.w3.org/1999/xlink" width="66.993" height="66.433" viewBox="0 0 66.993 66.433">
  <defs>
    <linearGradient id="linear-gradient" x1="0.5" y1="0.635" x2="0.5" y2="-0.365" gradientUnits="objectBoundingBox">
      <stop offset="0" stop-color="#f7e830"/>
      <stop offset="1" stop-color="#fdcb06"/>
    </linearGradient>
    <radialGradient id="radial-gradient" cx="0.496" cy="3.536" r="4.378" gradientTransform="matrix(0.154, 0, 0, -1, 0.419, 4.088)" gradientUnits="objectBoundingBox">
      <stop offset="0.596" stop-color="#f29405"/>
      <stop offset="0.736" stop-color="#f7d01e"/>
      <stop offset="1" stop-color="#fdcb06"/>
    </radialGradient>
    <linearGradient id="linear-gradient-2" x1="0.491" y1="11.655" x2="0.499" y2="10.674" gradientUnits="objectBoundingBox">
      <stop offset="0" stop-color="#fada1c"/>
      <stop offset="1" stop-color="#fdcb06"/>
    </linearGradient>
    <linearGradient id="linear-gradient-3" x1="101.001" y1="11.748" x2="101.009" y2="10.768" xlink:href="#linear-gradient-2"/>
    <clipPath id="clip-path">
      <path id="Path_13776" data-name="Path 13776" d="M268.116,189.032a1,1,0,0,1-.084-.469l-.075.009a1.067,1.067,0,0,0-.91-.825c-.338-.028-.76-.019-.957.3-.375.507-.2,1.154-.216,1.726,0,.037.009.1.009.141a6.551,6.551,0,0,1-.113,1.135.807.807,0,0,0-.084.366,8.648,8.648,0,0,1-.91,2.551.947.947,0,0,0-.178.366,12.665,12.665,0,0,1-.966,1.388,1.2,1.2,0,0,0-.15.159,9.16,9.16,0,0,1-.779.816c-.066.038-.112.084-.169.122a6.11,6.11,0,0,1-1.06.835c-.047.028-.094.066-.15.1a15.082,15.082,0,0,1-8.16,2.27,15.243,15.243,0,0,1-7.016-1.482c-.037-.019-.131-.056-.169-.075a9.388,9.388,0,0,1-1.079-.61c-.075-.038-.15-.084-.234-.122a7.172,7.172,0,0,1-.985-.694c-.1-.094-.216-.169-.328-.253a7.951,7.951,0,0,1-.975-.891c-.075-.084-.15-.159-.225-.234a9.35,9.35,0,0,1-2.242-3.761,11.586,11.586,0,0,1-.394-3.508,1.258,1.258,0,0,0-1.613-.488c-.234.169-.263.478-.441.694a11.017,11.017,0,0,0,3.142,8.414.152.152,0,0,0,.1.15c.375.347.741.7,1.116,1.041a1.493,1.493,0,0,0,.225.188c.375.31.778.591,1.172.882a1.993,1.993,0,0,0,.234.15,10.551,10.551,0,0,0,1.557.863,1.223,1.223,0,0,0,.141.094A16.913,16.913,0,0,0,250.83,202a3.031,3.031,0,0,1,.647.066c.938.056,1.876.028,2.814.009a16.874,16.874,0,0,0,8.31-2.664l.028.038c.075-.066.141-.122.216-.178.385-.281.76-.582,1.135-.891a2.849,2.849,0,0,0,.263-.225,12.373,12.373,0,0,0,1.238-1.379l.056.028c.028-.047.075-.141.1-.188.319-.431.61-.882.891-1.332.019-.028.065-.075.084-.1l-.037-.038c.028-.038.094-.113.122-.15a11,11,0,0,0,1.135-3.311.161.161,0,0,0,.1-.15,8.823,8.823,0,0,0,.1-1.107,6.387,6.387,0,0,0,.074-1.4Z" transform="translate(-237.424 -187.737)"/>
    </clipPath>
  </defs>
  <g id="Group_8942" data-name="Group 8942" transform="translate(-3710.9 -5219.966)">
    <path id="Path_13762" data-name="Path 13762" d="M111.447,166.881c-.028-.094-.056-.188-.094-.281q-33.331.014-66.642.009a.388.388,0,0,0-.1.216q0,25.846-.01,51.682a4.181,4.181,0,0,0,1.323,2.382c.028.009.094.018.122.028a3.262,3.262,0,0,0,1.313.713c.347-.019.685.131,1.032.094H75.964a2.228,2.228,0,0,0,.788-.066c.01-.037.019-.1.028-.141s.019-.15.028-.206c.591-3.3,1.163-6.613,1.792-9.914l.056-.422c-2.551-.01-5.112,0-7.663-.01-.619-.019-1.257,0-1.876-.075-1.06-.047-2.129-.009-3.189-.112-1.313,0-2.617-.122-3.93-.122-1.032-.1-2.073-.066-3.114-.112-.675-.084-1.369-.047-2.054-.075-1.116-.122-2.251-.037-3.367-.159-1.182.01-2.364-.094-3.546-.122a.133.133,0,0,0,.019-.056c.394.009.779-.019,1.172-.028.872-.113,1.754-.038,2.626-.16.91,0,1.81-.122,2.72-.122.807-.113,1.623-.047,2.429-.16.948,0,1.876-.122,2.823-.131.779-.1,1.566-.047,2.345-.15.91.009,1.81-.131,2.72-.122.891-.1,1.8-.075,2.692-.169-.084-.347-.15-.694-.225-1.041-.066-.216-.328-.169-.5-.2q-3.053-.436-6.087-.863c.131-.1.31-.056.46-.075,1.576-.122,3.142-.263,4.718-.375.356-.019.7-.084,1.06-.094a12.252,12.252,0,0,0-.469-1.473c-3.367-.516-6.735-.975-10.092-1.529.872-.141,1.754-.206,2.626-.3l.075-.028c2.786-.291,5.581-.619,8.367-.891,3.536-.019,7.063-.01,10.6,0,.112-.019.31.037.328-.122.291-1.519.572-3.039.863-4.559a22.758,22.758,0,0,1,2.026-6.115,18.035,18.035,0,0,1,6.978-7.466,20.108,20.108,0,0,1,9.22-2.57,14.485,14.485,0,0,1,3.123.066,4.365,4.365,0,0,1,1.9.807,3.193,3.193,0,0,1,.9,1.407,22.394,22.394,0,0,1,.882,3.846,2.972,2.972,0,0,1-.178,1.594,2.017,2.017,0,0,1-1.285.835c-1.81.469-3.7.028-5.515.469a6.71,6.71,0,0,0-3.827,2.336,10.88,10.88,0,0,0-2.035,4.84c-.253,1.538-.572,3.076-.825,4.624,1.782.01,3.574-.009,5.365.01a1.888,1.888,0,0,1,1.735,1.069,5.158,5.158,0,0,1,.169,2.748,10,10,0,0,1-.854,2.973,3.358,3.358,0,0,1-1.895,1.81,3.782,3.782,0,0,1-1.416.141c-1.576,0-3.152.019-4.727,0-.253,1.154-.422,2.336-.647,3.508-.413,2.279-.816,4.568-1.229,6.857-.009.075-.019.235-.019.319.741.038,1.482,0,2.223.019,5.5,0,11-.01,16.508,0a3.286,3.286,0,0,0,1.707-.413c.31-.112.5-.385.769-.535s.338-.459.563-.657a3.126,3.126,0,0,0,.516-1.388.842.842,0,0,0,.141-.019C111.437,201.4,111.466,184.14,111.447,166.881Z" transform="translate(3666.354 5064.624)" stroke="#fcd109" stroke-width="0.094" fill="url(#linear-gradient)"/>
    <path id="Path_13763" data-name="Path 13763" d="M53.239,47.2a10.175,10.175,0,0,1,2.448-.141q22.975.014,45.951,0a7.732,7.732,0,0,1,2.551.741c.675.272,1.379.488,2.054.779a1.116,1.116,0,0,1,.347.281c-.009,1.238,0,2.486,0,3.733a3.161,3.161,0,0,0,.066.985c.2.028.3.178.432.3A12.705,12.705,0,0,1,108.795,55c.844.6,1.745,1.126,2.57,1.745a1.563,1.563,0,0,1-.066.722,3.9,3.9,0,0,0-.056.807q-33.331.014-66.642.009a3.262,3.262,0,0,0-.094-.91c-.019-.244-.1-.563.131-.732.938-.657,1.932-1.247,2.851-1.942.572-.366,1.126-.741,1.679-1.116a1.193,1.193,0,0,0,.075-.628c0-1.36,0-2.72.009-4.08.319-.413.872-.46,1.313-.666.891-.338,1.792-.666,2.674-1m.056.159c-1.2.46-2.411.9-3.611,1.36-.159.028-.244.169-.328.291.009.075.019.206.019.281-.01,1.126,0,2.251-.01,3.377a2.354,2.354,0,0,0,.075.816,2.327,2.327,0,0,1-.4.338c-1.36.882-2.673,1.838-4.033,2.711-.234.141-.5.328-.422.638-.047.169.038.31.216.263,2.945-.019,5.881.019,8.826-.028,4.38,0,8.751.009,13.131,0l.066-.028a2.553,2.553,0,0,0,.6.028q11.9,0,23.815,0c2.5.009,5,0,7.5,0,4.127,0,8.264.038,12.391.019.122-.028.159-.113.113-.263-.01-.15.047-.356-.113-.45-.657-.31-1.219-.788-1.848-1.163-.225-.188-.516-.291-.685-.544-.647-.366-1.247-.816-1.885-1.219a1.911,1.911,0,0,1-.319-.3,2.286,2.286,0,0,0,.075-.619c-.009-1.191,0-2.382-.009-3.574a.518.518,0,0,0-.15-.525c-1.126-.4-2.242-.835-3.358-1.247a3.836,3.836,0,0,0-1.107-.319H53.9a3.658,3.658,0,0,0-.609.159Z" transform="translate(3666.464 5172.952)" fill="#f8f3b5" stroke="#f8f3b5" stroke-width="0.094"/>
    <path id="Path_13764" data-name="Path 13764" d="M96.608,70.9c.825.347,1.707.544,2.542.882.45.178.591.666.788,1.06a3.906,3.906,0,0,1-.666.507c-.863.582-1.745,1.144-2.6,1.745a2.355,2.355,0,0,1-.075-.816c.01-1.126,0-2.251.01-3.377Zm54.542.882c.835-.328,1.707-.553,2.542-.882.009,1.191,0,2.382.009,3.574a2.285,2.285,0,0,1-.075.619c-.732-.507-1.473-.985-2.2-1.482a8.643,8.643,0,0,1-1.069-.779C150.55,72.438,150.7,71.96,151.15,71.782Z" transform="translate(3619.231 5151.347)" fill="#f7b402" stroke="#f7b402" stroke-width="0.094"/>
    <path id="Path_13765" data-name="Path 13765" d="M235.9,84a1.767,1.767,0,0,1,2.1,1.754,1.786,1.786,0,0,1-2.129,1.679,2.039,2.039,0,0,1-1.06-.722,1.76,1.76,0,0,1-.141-1.707A1.677,1.677,0,0,1,235.9,84Zm26.76.591a1.8,1.8,0,0,1,1.754-.582,1.754,1.754,0,0,1,.441,3.236,1.811,1.811,0,0,1-2.157-.366A1.785,1.785,0,0,1,262.656,84.6Z" transform="translate(3494.256 5139.508)" fill="#bda727" stroke="#bda727" stroke-width="0.094"/>
    <path id="Path_13766" data-name="Path 13766" d="M52.931,92.016a3.907,3.907,0,0,0,.666-.507l.065.066c.066.488.019.985.038,1.473-.028,1.463.028,2.936-.038,4.4-2.729,0-5.459-.019-8.188,0-.075-.31.188-.5.422-.638,1.36-.872,2.673-1.829,4.033-2.711a2.327,2.327,0,0,0,.4-.338C51.186,93.16,52.068,92.6,52.931,92.016Zm50.988-.188a.583.583,0,0,1,.094-.328,8.655,8.655,0,0,0,1.069.779c.732.5,1.473.975,2.2,1.482a1.926,1.926,0,0,0,.319.3c.638.4,1.238.854,1.885,1.219.169.253.46.356.685.544.628.375,1.191.854,1.848,1.163.159.094.1.3.113.45-2.73.009-5.45-.009-8.179.009a11.16,11.16,0,0,1-.028-1.116c0-1.5-.019-3-.009-4.5Z" transform="translate(3665.572 5132.679)" fill="#f7e62d" stroke="#f7e62d" stroke-width="0.094"/>
    <path id="Path_13767" data-name="Path 13767" d="M112.134,58.561c-2.73.009-5.45-.009-8.179.009a11.155,11.155,0,0,1-.028-1.116c0-1.5-.019-3-.01-4.5a.583.583,0,0,1,.094-.328c.2-.394.347-.872.8-1.051.835-.328,1.707-.553,2.542-.882a.518.518,0,0,0-.15-.525c-1.126-.4-2.242-.835-3.358-1.247a3.836,3.836,0,0,0-1.107-.319H54.8a3.653,3.653,0,0,0-.61.159c-1.2.46-2.411.9-3.611,1.36-.159.028-.244.169-.328.291.009.075.019.206.019.281.825.347,1.707.544,2.542.882.45.178.591.666.788,1.06l.065.066c.066.488.019.985.038,1.473-.028,1.463.028,2.936-.038,4.4-2.729,0-5.459-.019-8.188,0-.047.169.038.31.216.263,2.945-.019,5.881.019,8.826-.028,4.38,0,8.751.009,13.131,0l.066-.028a2.553,2.553,0,0,0,.6.028q11.9,0,23.815,0c2.5.009,5,0,7.5,0,4.127,0,8.264.038,12.391.019C112.143,58.8,112.181,58.711,112.134,58.561Zm-48.783-5.6a1.677,1.677,0,0,1,1.229-1,1.767,1.767,0,0,1,2.1,1.754,1.786,1.786,0,0,1-2.129,1.679,2.039,2.039,0,0,1-1.06-.722A1.761,1.761,0,0,1,63.35,52.962Zm27.989-.413a1.8,1.8,0,0,1,1.754-.582,1.754,1.754,0,0,1,.441,3.236,1.811,1.811,0,0,1-2.157-.366A1.785,1.785,0,0,1,91.339,52.549Z" transform="translate(3665.573 5171.555)" stroke="#fcd109" stroke-width="0.094" fill="url(#radial-gradient)"/>
    <path id="Path_13768" data-name="Path 13768" d="M554.823,188.844c.131.028-.684-.783-.524-.82a1.75,1.75,0,0,1,1.407-.063c.688.36.517,1.2.439,1.516a1.7,1.7,0,0,1-.517.8.9.9,0,0,1-.475.206c.084-.46-.187-.535-.206-1Z" transform="translate(3204.48 5045.395)" stroke="#fcd109" stroke-width="0.094" fill="url(#linear-gradient-2)"/>
    <path id="Path_13769" data-name="Path 13769" d="M228.087,188.144c-.019.469-.291.544-.206,1a.905.905,0,0,1-.475-.206,1.7,1.7,0,0,1-.517-.8c-.078-.313-.249-1.156.439-1.516a1.749,1.749,0,0,1,1.407.063c.159.038-.655.848-.524.82Z" transform="translate(3501.232 5046.603)" stroke="#fcd109" stroke-width="0.094" fill="url(#linear-gradient-3)"/>
    <path id="Path_13770" data-name="Path 13770" d="M290.091,261.622a.518.518,0,0,1,.422-.122,21.857,21.857,0,0,1-4.413,6.776,6.615,6.615,0,0,1-.668.523c-.226.165-.448.321-.668.479s-.43.3-.639.457a8.776,8.776,0,0,1-1.595.872,14.979,14.979,0,0,1-3.414,1.107,10.013,10.013,0,0,1-1.4.2,8.16,8.16,0,0,1-1.792.084c-.328.056-.619-.131-.938-.094q-.415-.059-.827-.141t-.829-.2c-4.3-1.341-8.521-4.624-9.75-9.064a4.991,4.991,0,0,1-.083-.907q.2.394.408.782a13.755,13.755,0,0,0,9.32,7.721c.333.152.693.1,1.012.23a2.62,2.62,0,0,1,.854.084c.966.019,1.932.009,2.9.009a1.418,1.418,0,0,0,.385-.084,12.353,12.353,0,0,0,4.657-1.16q.441-.2.868-.426.374-.2.729-.426t.677-.478a15.535,15.535,0,0,0,4.256-5.207C289.757,262.271,289.934,261.929,290.091,261.622Z" transform="translate(3467.984 4978.625)" fill="#bda727" stroke="#bda727" stroke-width="0.094"/>
    <path id="Path_13771" data-name="Path 13771" d="M248.236,326.336a20.109,20.109,0,0,1,9.22-2.57,14.484,14.484,0,0,1,3.123.066,4.365,4.365,0,0,1,1.9.807,4.038,4.038,0,0,1-.807-.141,13.98,13.98,0,0,0-2.345-.113,24.636,24.636,0,0,0-6.725.8,15.79,15.79,0,0,0-3.33,1.351,16.62,16.62,0,0,0-4.737,3.883,20.328,20.328,0,0,0-4.39,9.586c-.319,1.866-.685,3.723-.975,5.6-.469.047-.947.019-1.416.019q-3.1-.014-6.191-.037c-.441.018-.872-.084-1.313-.056-3.752.019-7.5-.009-11.256-.009l.075-.028c2.786-.291,5.581-.619,8.367-.891,3.536-.019,7.063-.01,10.6,0,.112-.019.31.037.328-.122.291-1.519.572-3.039.863-4.559a22.768,22.768,0,0,1,2.026-6.115A18.036,18.036,0,0,1,248.236,326.336Z" transform="translate(3508.31 4922.249)" fill="#0d69b3" stroke="#0d69b3" stroke-width="0.094"/>
    <path id="Path_13772" data-name="Path 13772" d="M145.952,331.7a24.637,24.637,0,0,1,6.725-.8,13.983,13.983,0,0,1,2.345.113,4.033,4.033,0,0,0,.807.141,3.194,3.194,0,0,1,.9,1.407,22.394,22.394,0,0,1,.882,3.846,2.972,2.972,0,0,1-.178,1.595,2.017,2.017,0,0,1-1.285.835c-1.81.469-3.7.028-5.515.469a6.711,6.711,0,0,0-3.827,2.336,10.881,10.881,0,0,0-2.035,4.84c-.253,1.538-.572,3.076-.825,4.624a8.342,8.342,0,0,0-.244,1.088c1.773.028,3.546,0,5.318.019.675-.019,1.35.019,2.026-.028a5.157,5.157,0,0,1,.169,2.748,10,10,0,0,1-.854,2.973,3.358,3.358,0,0,1-1.895,1.81,3.783,3.783,0,0,1-1.416.141c-1.576,0-3.152.019-4.727,0-.253,1.154-.422,2.336-.647,3.508-.413,2.279-.816,4.568-1.229,6.857-.009.075-.019.234-.019.319v.009c-4.1,0-8.188.01-12.287,0,.009-.037.019-.1.028-.141s.019-.15.028-.206c.009.075.019.216.028.281.253.028.713.159.779-.206.638-3.452,1.229-6.922,1.885-10.374a1.976,1.976,0,0,0-.779-.009c-.037.131-.075.263-.122.394l.056-.422c-2.551-.01-5.112,0-7.663-.01-.619-.018-1.257,0-1.876-.075-1.06-.047-2.129-.009-3.189-.113-1.313,0-2.617-.122-3.93-.122-1.032-.1-2.073-.066-3.114-.113-.675-.084-1.369-.047-2.054-.075-1.116-.122-2.251-.037-3.367-.16-1.182.01-2.364-.094-3.545-.122a.133.133,0,0,0,.019-.056c.394.009.779-.019,1.172-.028.872-.112,1.754-.038,2.626-.159.91,0,1.81-.122,2.72-.122.807-.112,1.623-.047,2.429-.159.948,0,1.876-.122,2.823-.131.779-.1,1.566-.047,2.345-.15.91.009,1.81-.131,2.72-.122.891-.1,1.8-.075,2.692-.169-.084-.347-.15-.694-.225-1.041-.066-.216-.328-.169-.5-.2q-3.053-.436-6.087-.863c.131-.1.31-.056.46-.075,1.576-.122,3.142-.263,4.718-.375.356-.019.7-.084,1.06-.094a12.262,12.262,0,0,0-.469-1.473c-3.367-.516-6.735-.976-10.092-1.529.872-.141,1.754-.206,2.626-.3,3.752,0,7.5.028,11.256.009.441-.028.872.075,1.313.056q3.1.028,6.191.037c.469,0,.947.028,1.416-.019.291-1.876.657-3.733.975-5.6a20.327,20.327,0,0,1,4.39-9.586,16.619,16.619,0,0,1,4.737-3.883A15.788,15.788,0,0,1,145.952,331.7Z" transform="translate(3614.965 4915.734)" fill="#107bd4" stroke="#107bd4" stroke-width="0.094"/>
    <path id="Path_13773" data-name="Path 13773" d="M403.748,546.3c1.782.01,3.574-.01,5.365.01a1.888,1.888,0,0,1,1.735,1.069c-.675.047-1.351.01-2.026.028-1.773-.019-3.546.01-5.318-.019A8.3,8.3,0,0,1,403.748,546.3Zm-13.835,8.789a1.972,1.972,0,0,1,.779.009c-.657,3.452-1.247,6.922-1.885,10.374-.066.366-.525.234-.778.206-.01-.066-.019-.206-.028-.281.591-3.3,1.163-6.613,1.792-9.914C389.838,555.35,389.876,555.219,389.913,555.088Z" transform="translate(3355.161 4720.539)" fill="#0d69b3" stroke="#0d69b3" stroke-width="0.094"/>
    <path id="Path_13774" data-name="Path 13774" d="M268.116,189.032a1,1,0,0,1-.084-.469l-.075.009a1.067,1.067,0,0,0-.91-.825c-.338-.028-.76-.019-.957.3-.375.507-.2,1.154-.216,1.726,0,.037.009.1.009.141a6.551,6.551,0,0,1-.113,1.135.807.807,0,0,0-.084.366,8.648,8.648,0,0,1-.91,2.551.947.947,0,0,0-.178.366,12.665,12.665,0,0,1-.966,1.388,1.2,1.2,0,0,0-.15.159,9.16,9.16,0,0,1-.779.816c-.066.038-.112.084-.169.122a6.11,6.11,0,0,1-1.06.835c-.047.028-.094.066-.15.1a15.082,15.082,0,0,1-8.16,2.27,15.243,15.243,0,0,1-7.016-1.482c-.037-.019-.131-.056-.169-.075a9.388,9.388,0,0,1-1.079-.61c-.075-.038-.15-.084-.234-.122a7.172,7.172,0,0,1-.985-.694c-.1-.094-.216-.169-.328-.253a7.951,7.951,0,0,1-.975-.891c-.075-.084-.15-.159-.225-.234a9.35,9.35,0,0,1-2.242-3.761,11.586,11.586,0,0,1-.394-3.508,1.258,1.258,0,0,0-1.613-.488c-.234.169-.263.478-.441.694a11.017,11.017,0,0,0,3.142,8.414.152.152,0,0,0,.1.15c.375.347.741.7,1.116,1.041a1.493,1.493,0,0,0,.225.188c.375.31.778.591,1.172.882a1.993,1.993,0,0,0,.234.15,10.551,10.551,0,0,0,1.557.863,1.223,1.223,0,0,0,.141.094A16.913,16.913,0,0,0,250.83,202a3.031,3.031,0,0,1,.647.066c.938.056,1.876.028,2.814.009a16.874,16.874,0,0,0,8.31-2.664l.028.038c.075-.066.141-.122.216-.178.385-.281.76-.582,1.135-.891a2.849,2.849,0,0,0,.263-.225,12.373,12.373,0,0,0,1.238-1.379l.056.028c.028-.047.075-.141.1-.188.319-.431.61-.882.891-1.332.019-.028.065-.075.084-.1l-.037-.038c.028-.038.094-.113.122-.15a11,11,0,0,0,1.135-3.311.161.161,0,0,0,.1-.15,8.823,8.823,0,0,0,.1-1.107,6.387,6.387,0,0,0,.074-1.4Z" transform="translate(3491.614 5045.469)" fill="#fff" stroke="#fff" stroke-width="0.094"/>
    <g id="Group_7470" data-name="Group 7470" transform="translate(3729.038 5233.206)" clip-path="url(#clip-path)">
      <path id="Path_13775" data-name="Path 13775" d="M230.167,187.9c.76.239,2.507-.362,3,.188m-2.564,2.126c.729-.254,2.291-.854,2.939-.5m-2.189,2.814c.352.114,1.046-.5,1.391-.686a5.122,5.122,0,0,1,1.61-.565m-1.876,3.689a5.3,5.3,0,0,1,1.323-1.312c.52-.363,1.943-1.334,2.554-1m-2.814,4.065c.412-.328.58-.908,1.013-1.252a8.837,8.837,0,0,1,1.863-.749m-1.11,3.3c.123-.907,1.044-2,1.923-1.923m-.563,3.189c.464-.047.857-1.086,1.171-1.438a2.99,2.99,0,0,1,1.58-.876m-.062,3.439c-.03-.656.648-2.538,1.438-2.439m.563,3.064c-.033-.775.368-3.108,1.313-3.189m.75,4.44c-.179-1.085-.168-2.653.688-3.439m1.876,3.689c-.1-.9-.994-2.731,0-3.439m2.751,2.814a5.207,5.207,0,0,1-.5-3m3.127,2.564a6.232,6.232,0,0,1-.866-1.862c-.075-.417.056-1.01-.01-1.327m3.064,2.251c-.717-.469-.917-2.194-.688-2.939m2.814,2a7.294,7.294,0,0,1-1.063-3.189m3.127,1.188c-.793-.533-1.8-1.5-1.688-2.564m3.877.875a6.733,6.733,0,0,1-3.377-2.314m4.377.25c-.869-.186-3.741-1.307-3.564-2.439m4.5.25c-1.211-.444-2.973-.843-3.939-1.688m4.565-.313a12.237,12.237,0,0,1-2.631-.438c-.861-.148-1.659-.439-2.5-.625m4.377-.875a10.935,10.935,0,0,1-4.19-.875" transform="translate(-230.848 -186.92)" fill="none" stroke="#d1d1d1" stroke-width="2"/>
    </g>
  </g>
</svg>
