<svg xmlns="http://www.w3.org/2000/svg" width="195.024" height="195.024" viewBox="0 0 195.024 195.024">
  <path id="Path_1795" data-name="Path 1795" d="M867,372.543h0c7.175-.878,7.245-11.257.083-12.233h0a6.169,6.169,0,0,1-1.476-11.832h0c6.7-2.706,4.084-12.749-3.087-11.838h0a6.169,6.169,0,0,1-4.488-11.047h0c5.774-4.348.646-13.372-6.045-10.636h0a6.168,6.168,0,0,1-7.194-9.508h0c4.451-5.7-2.838-13.084-8.593-8.709h0a6.169,6.169,0,0,1-9.41-7.323h0c2.826-6.653-6.127-11.9-10.553-6.188h0a6.169,6.169,0,0,1-10.985-4.637h0c1.008-7.157-9-9.911-11.795-3.246h0a6.169,6.169,0,0,1-11.811-1.636h0c-.879-7.175-11.258-7.245-12.234-.083h0a6.168,6.168,0,0,1-11.831,1.477h0c-2.706-6.7-12.749-4.085-11.839,3.086h0a6.168,6.168,0,0,1-11.046,4.488h0c-4.349-5.774-13.372-.645-10.636,6.046h0a6.168,6.168,0,0,1-9.508,7.194h0c-5.7-4.452-13.084,2.837-8.71,8.592h0a6.168,6.168,0,0,1-7.322,9.41h0c-6.653-2.826-11.9,6.127-6.188,10.554h0a6.168,6.168,0,0,1-4.638,10.984h0c-7.158-1.008-9.912,9-3.246,11.8h0a6.168,6.168,0,0,1-1.636,11.81h0c-7.175.879-7.245,11.258-.083,12.234h0a6.168,6.168,0,0,1,1.476,11.831h0c-6.7,2.706-4.084,12.75,3.087,11.839h0a6.168,6.168,0,0,1,4.488,11.046h0c-5.774,4.349-.645,13.372,6.045,10.636h0a6.169,6.169,0,0,1,7.2,9.509h0c-4.452,5.7,2.837,13.083,8.592,8.709h0a6.168,6.168,0,0,1,9.41,7.322h0c-2.826,6.653,6.127,11.9,10.553,6.189h0a6.168,6.168,0,0,1,10.985,4.637h0c-1.008,7.158,9,9.912,11.8,3.246h0a6.168,6.168,0,0,1,11.81,1.636h0c.879,7.175,11.258,7.246,12.234.083h0a6.168,6.168,0,0,1,11.831-1.476h0c2.706,6.7,12.75,4.084,11.839-3.087h0a6.168,6.168,0,0,1,11.046-4.488h0c4.349,5.774,13.372.646,10.636-6.045h0a6.168,6.168,0,0,1,9.508-7.194h0c5.7,4.452,13.084-2.837,8.71-8.592h0a6.168,6.168,0,0,1,7.322-9.41h0c6.653,2.826,11.9-6.127,6.189-10.554h0a6.168,6.168,0,0,1,4.637-10.985h0c7.158,1.008,9.912-9,3.246-11.795h0A6.169,6.169,0,0,1,867,372.543Zm-60.024-60.122a25.236,25.236,0,1,1-25.235,25.236A25.236,25.236,0,0,1,806.979,312.421ZM786.44,364.908l-14.952,13.371-7.463-8.345,14.952-13.371Zm-9.913-72.545A10.676,10.676,0,1,1,765.85,303.04,10.676,10.676,0,0,1,776.527,292.363Zm-32.676,20.058a25.236,25.236,0,1,1-25.235,25.236A25.236,25.236,0,0,1,743.851,312.421Zm-32.029,66A10.676,10.676,0,1,1,722.5,367.745,10.676,10.676,0,0,1,711.822,378.421Zm32.029,47.612A25.235,25.235,0,1,1,769.086,400.8,25.235,25.235,0,0,1,743.851,426.033Zm32.676,13.211A10.676,10.676,0,1,1,787.2,428.567,10.677,10.677,0,0,1,776.527,439.244Zm30.452-13.211A25.235,25.235,0,1,1,832.214,400.8,25.235,25.235,0,0,1,806.979,426.033ZM838,378.421a10.676,10.676,0,1,1,10.676-10.676A10.676,10.676,0,0,1,838,378.421Z" transform="translate(-677.397 -268.291)" fill="#e3f2fd"/>
</svg>
