<svg xmlns="http://www.w3.org/2000/svg" width="48.361" height="49.348" viewBox="0 0 48.361 49.348">
  <g id="Group_1080" data-name="Group 1080" transform="translate(-0.126)">
    <path id="Path_1811" data-name="Path 1811" d="M1269.519,1023.756a21.142,21.142,0,0,0-.521-5.044h-23.166v9.157h13.6a12.058,12.058,0,0,1-5.044,8.005l-.046.307,7.325,5.674.508.051c4.661-4.3,7.347-10.637,7.347-18.149" transform="translate(-1221.032 -998.534)" fill="#4285f4"/>
    <path id="Path_1812" data-name="Path 1812" d="M155.04,1511.874a23.517,23.517,0,0,0,16.34-5.977l-7.786-6.032a14.6,14.6,0,0,1-8.554,2.468A14.854,14.854,0,0,1,141,1492.08l-.289.025L133.1,1498l-.1.277a24.656,24.656,0,0,0,22.042,13.6" transform="translate(-130.24 -1462.526)" fill="#34a853"/>
    <path id="Path_1813" data-name="Path 1813" d="M10.763,696.534a15.19,15.19,0,0,1-.822-4.88,15.962,15.962,0,0,1,.795-4.88l-.014-.327L3.01,680.458l-.252.12a24.622,24.622,0,0,0,0,22.152l8.005-6.2" transform="translate(0 -666.98)" fill="#fbbc05"/>
    <path id="Path_1814" data-name="Path 1814" d="M155.04,9.541a13.675,13.675,0,0,1,9.541,3.674l6.963-6.8A23.706,23.706,0,0,0,155.04,0,24.656,24.656,0,0,0,133,13.6l7.978,6.2A14.915,14.915,0,0,1,155.04,9.541" transform="translate(-130.24)" fill="#eb4335"/>
  </g>
</svg>
