<svg xmlns="http://www.w3.org/2000/svg" width="52.885" height="52.797" viewBox="0 0 52.885 52.797">
  <g id="Group_1078" data-name="Group 1078" transform="translate(-2163.99 633.577)">
    <path id="Path_1836" data-name="Path 1836" d="M2187.568-633.489a3.575,3.575,0,0,1-.664.091,3.136,3.136,0,0,0-.664.091,2.661,2.661,0,0,1-.507.09,27.274,27.274,0,0,0-4.06,1.062.911.911,0,0,1-.308.084.227.227,0,0,0-.163.054.474.474,0,0,1-.223.1,1.436,1.436,0,0,0-.29.084c-.048.024-.2.09-.332.145s-.32.145-.41.193a.807.807,0,0,1-.283.084.289.289,0,0,0-.181.091.276.276,0,0,1-.181.09.277.277,0,0,0-.181.091.29.29,0,0,1-.187.09.369.369,0,0,0-.2.091.305.305,0,0,1-.181.09.176.176,0,0,0-.126.054,1.422,1.422,0,0,1-.35.217c-.169.084-.356.175-.4.211s-.332.193-.633.368a3.846,3.846,0,0,0-.561.368.1.1,0,0,1-.084.048,11.847,11.847,0,0,0-1.436.947.608.608,0,0,1-.193.139,2.774,2.774,0,0,0-.64.489.12.12,0,0,1-.108.054c-.048,0-.084.024-.084.048a.888.888,0,0,1-.265.241,15.218,15.218,0,0,0-1.876,1.731,12.311,12.311,0,0,0-1.659,1.767.09.09,0,0,1-.048.084,2.012,2.012,0,0,0-.283.32,3.286,3.286,0,0,1-.314.35.152.152,0,0,0-.079.109.316.316,0,0,1-.06.133,10.453,10.453,0,0,0-.664.917.509.509,0,0,1-.109.157,1.241,1.241,0,0,0-.2.284,2.809,2.809,0,0,1-.235.374,4.5,4.5,0,0,0-.362.573c-.036.066-.115.2-.181.3a2.138,2.138,0,0,0-.175.314.581.581,0,0,1-.121.169.192.192,0,0,0-.066.157c0,.06-.024.115-.061.115s-.073.066-.1.151a.474.474,0,0,1-.12.217.242.242,0,0,0-.084.175.275.275,0,0,1-.091.181.264.264,0,0,0-.091.163.306.306,0,0,1-.091.175.372.372,0,0,0-.09.2.291.291,0,0,1-.09.187.325.325,0,0,0-.091.217c0,.078-.024.145-.06.145s-.079.072-.1.163a1.17,1.17,0,0,1-.121.29.489.489,0,0,0-.084.247c0,.072-.03.145-.066.157a.214.214,0,0,0-.085.169,1.2,1.2,0,0,1-.115.332.778.778,0,0,0-.1.259.509.509,0,0,1-.054.181,24.41,24.41,0,0,0-.941,3.3c-.054.265-.139.639-.187.826a3,3,0,0,0-.084.573,1.756,1.756,0,0,1-.066.44,5.547,5.547,0,0,0-.115.875c-.03.362-.084.851-.115,1.086a31.824,31.824,0,0,0,0,3.861c.03.2.079.658.109,1.025a4.982,4.982,0,0,0,.121.832,1.5,1.5,0,0,1,.066.44,3.465,3.465,0,0,0,.084.645c.048.205.133.591.187.857a26.135,26.135,0,0,0,.8,2.847,1.049,1.049,0,0,1,.079.277.785.785,0,0,0,.09.259.853.853,0,0,1,.091.277c0,.06.03.109.06.109s.06.078.06.175a.37.37,0,0,0,.091.247.6.6,0,0,1,.127.278c.018.115.06.205.09.205s.055.066.055.145a.324.324,0,0,0,.091.217.291.291,0,0,1,.09.187.369.369,0,0,0,.091.2.336.336,0,0,1,.09.205.293.293,0,0,0,.09.193.274.274,0,0,1,.091.181.276.276,0,0,0,.091.181.29.29,0,0,1,.091.193.165.165,0,0,0,.09.145.173.173,0,0,1,.091.145.179.179,0,0,0,.066.151.581.581,0,0,1,.121.169,2.491,2.491,0,0,0,.175.314,2.435,2.435,0,0,1,.175.3,3,3,0,0,0,.2.332c.078.115.163.253.187.3.1.193.754,1.2.826,1.267.018.018.133.187.265.374a1.282,1.282,0,0,0,.284.35c.03,0,.054.036.054.072a.871.871,0,0,0,.2.3c.1.121.235.277.284.35.271.392,3.305,3.5,3.42,3.5.036,0,.078.042.1.09a.145.145,0,0,0,.121.091.121.121,0,0,1,.109.054,26.228,26.228,0,0,0,2.678,1.936,1.919,1.919,0,0,1,.278.181,1.02,1.02,0,0,0,.332.181c.042,0,.078.024.078.048a1.194,1.194,0,0,0,.332.217,1.614,1.614,0,0,1,.362.223.221.221,0,0,0,.157.054c.061,0,.115.024.115.048a.949.949,0,0,0,.332.2,1.016,1.016,0,0,1,.332.187c0,.03.03.048.066.048a10.269,10.269,0,0,1,1.158.519c.091.048.187.078.218.06s.084.006.126.054a.244.244,0,0,0,.145.091,6.714,6.714,0,0,1,.911.332,31.447,31.447,0,0,0,3.438,1,2.534,2.534,0,0,1,.47.115,1.609,1.609,0,0,0,.459.066.7.7,0,0,1,.35.066,1.727,1.727,0,0,0,.567.1,2.422,2.422,0,0,1,.621.1,23.949,23.949,0,0,0,3.263.181,21.831,21.831,0,0,0,3.209-.187,1.418,1.418,0,0,1,.513-.072,2.47,2.47,0,0,0,.621-.09,1.748,1.748,0,0,1,.5-.09,1.56,1.56,0,0,0,.477-.09,1.2,1.2,0,0,1,.368-.091,2.2,2.2,0,0,0,.458-.084c.169-.048.664-.187,1.092-.314a16.253,16.253,0,0,0,2.033-.664.665.665,0,0,1,.271-.084.44.44,0,0,0,.223-.09.5.5,0,0,1,.241-.09.457.457,0,0,0,.241-.091.478.478,0,0,1,.229-.09c.061,0,.109-.03.109-.06a.062.062,0,0,1,.066-.06,15.279,15.279,0,0,0,1.8-.839,2.516,2.516,0,0,1,.3-.175c.151-.078.356-.193.452-.253s.235-.145.3-.181.205-.115.3-.181a3.34,3.34,0,0,1,.32-.187c.073-.042.133-.1.133-.127a.055.055,0,0,1,.06-.048,7.815,7.815,0,0,0,1.146-.754,10.065,10.065,0,0,0,1.056-.784c.036-.036.181-.163.332-.277a15.362,15.362,0,0,0,1.773-1.665c1.436-1.436,1.665-1.683,1.665-1.755a.089.089,0,0,1,.048-.084,5.782,5.782,0,0,0,.573-.682c.024-.03.223-.308.434-.6s.47-.658.567-.8a1.157,1.157,0,0,0,.187-.32.06.06,0,0,1,.06-.06c.03,0,.073-.066.1-.151s.06-.151.09-.151.084-.06.115-.139a3.176,3.176,0,0,1,.181-.314,2.5,2.5,0,0,0,.175-.314.581.581,0,0,1,.121-.169.179.179,0,0,0,.066-.151.173.173,0,0,1,.09-.145.168.168,0,0,0,.09-.151.183.183,0,0,1,.091-.151.165.165,0,0,0,.091-.145.291.291,0,0,1,.09-.193.276.276,0,0,0,.091-.181.276.276,0,0,1,.09-.181.247.247,0,0,0,.091-.139,2.779,2.779,0,0,1,.187-.458c.193-.416.211-.452.416-.941.072-.169.151-.356.181-.422.175-.422.694-1.985.941-2.835.054-.2.139-.483.181-.627a1.808,1.808,0,0,0,.084-.434,1.252,1.252,0,0,1,.091-.374,1.56,1.56,0,0,0,.091-.489,1.128,1.128,0,0,1,.091-.434,1.526,1.526,0,0,0,.091-.543.972.972,0,0,1,.066-.428,3.5,3.5,0,0,0,.121-.845c.03-.422.079-.923.109-1.1a29.013,29.013,0,0,0,0-3.619c-.036-.181-.079-.658-.109-1.056a4.16,4.16,0,0,0-.115-.857,1.259,1.259,0,0,1-.072-.471,1.837,1.837,0,0,0-.091-.555,1.4,1.4,0,0,1-.091-.452,1.469,1.469,0,0,0-.091-.452,1.23,1.23,0,0,1-.091-.362,2.321,2.321,0,0,0-.084-.434c-.048-.151-.133-.428-.181-.609a27.789,27.789,0,0,0-1.333-3.752.682.682,0,0,1-.09-.253c0-.054-.024-.1-.061-.1s-.06-.054-.06-.115a.327.327,0,0,0-.078-.2.594.594,0,0,1-.127-.247c-.018-.09-.066-.163-.1-.163s-.06-.054-.06-.115a.366.366,0,0,0-.091-.211.313.313,0,0,1-.09-.169.245.245,0,0,0-.066-.151,1.918,1.918,0,0,1-.3-.519c-.036-.09-.091-.163-.121-.163s-.054-.054-.054-.121a.173.173,0,0,0-.084-.157.236.236,0,0,1-.12-.133,1.578,1.578,0,0,0-.157-.283,3.269,3.269,0,0,1-.187-.32c-.042-.072-.1-.133-.127-.133s-.048-.036-.048-.078a3.59,3.59,0,0,0-.392-.615c-.211-.3-.422-.591-.465-.651-.078-.109-.217-.3-.35-.446a.317.317,0,0,1-.06-.133.161.161,0,0,0-.072-.109,2.609,2.609,0,0,1-.32-.35,2.012,2.012,0,0,0-.283-.32.09.09,0,0,1-.049-.084,1.4,1.4,0,0,0-.253-.332c-.549-.573-2.2-2.208-2.455-2.419-.139-.121-.4-.344-.573-.483s-.38-.332-.471-.41a.768.768,0,0,0-.193-.145,4.722,4.722,0,0,1-.513-.35c-.67-.483-1.164-.814-1.7-1.146-.253-.157-.507-.32-.573-.362s-.175-.1-.241-.133-.2-.115-.3-.181-.4-.229-.664-.362-.525-.271-.573-.3c-.368-.2-.482-.247-.567-.247-.054,0-.1-.024-.1-.06s-.072-.078-.163-.1a.938.938,0,0,1-.229-.084.877.877,0,0,0-.241-.084.478.478,0,0,1-.217-.1c-.018-.036-.109-.066-.2-.078a.428.428,0,0,1-.229-.084.25.25,0,0,0-.156-.072.878.878,0,0,1-.271-.084,2.645,2.645,0,0,0-.314-.115c-.066-.018-.308-.1-.543-.181a25.913,25.913,0,0,0-4.916-1.134,6.835,6.835,0,0,1-.784-.109,51.589,51.589,0,0,0-5.55.024Zm2.708,12.4a3.137,3.137,0,0,1,1.007.483,2.434,2.434,0,0,1,.965,1.375,5.939,5.939,0,0,1-.006,2.015,2.837,2.837,0,0,1-1.749,1.822,4,4,0,0,1-1.448.115H2187.9l-.452-.217a2.4,2.4,0,0,1-.772-.543,2.462,2.462,0,0,1-.579-.8,3.639,3.639,0,0,1,.066-2.926,3.427,3.427,0,0,1,1.1-1.086.281.281,0,0,0,.163-.06,1.162,1.162,0,0,1,.362-.145,10.477,10.477,0,0,1,2.491-.03Zm-8.668,2.377a3.118,3.118,0,0,1,1.87.965,2.694,2.694,0,0,1,.573.808l.169.338.018,5.911c.006,4.072-.006,6.044-.054,6.334a6.557,6.557,0,0,1-.422,1.8.318.318,0,0,0-.054.175.692.692,0,0,1-.085.271c-.042.09-.181.368-.3.615a4.827,4.827,0,0,1-.712,1.146,7.008,7.008,0,0,1-3,2.262,9.166,9.166,0,0,1-3.2.609,8.93,8.93,0,0,1-6.05-1.78c-1.261-1.17-1.6-2.437-1.007-3.722a1.743,1.743,0,0,1,.247-.434.1.1,0,0,0,.054-.084,7.018,7.018,0,0,1,.983-1.206c.591-.573.688-.585,1.043-.1a4.466,4.466,0,0,0,2.015,1.4,6.4,6.4,0,0,0,.772.163,2.359,2.359,0,0,0,1.026-.018,2,2,0,0,0,1.339-.591,2.049,2.049,0,0,0,.664-1.623c.03-.386.066-3.046.09-5.918.036-5.869,0-5.483.5-6.123a3.578,3.578,0,0,1,2.184-1.206,2.948,2.948,0,0,1,1.339,0Zm22.036,4.542a6.33,6.33,0,0,1,.634.115c.115.036.374.115.573.169a8.435,8.435,0,0,1,5.091,4.222c.115.229.241.495.283.585a.691.691,0,0,1,.084.271.278.278,0,0,0,.061.175,1,1,0,0,1,.115.326c.036.151.09.392.127.543a5.866,5.866,0,0,1,.223,1.568,6.17,6.17,0,0,1-.042,1.176c-.036.229-.091.561-.121.736a3.935,3.935,0,0,1-.115.513,10.146,10.146,0,0,1-.682,1.767,9.176,9.176,0,0,1-2.817,3.052,8.544,8.544,0,0,1-1.616.839.987.987,0,0,0-.272.084,8.131,8.131,0,0,1-1.393.362,11.66,11.66,0,0,1-3.04,0,8.213,8.213,0,0,1-2.552-.863,9.029,9.029,0,0,1-3.625-3.686,3.86,3.86,0,0,1-.477-1.152.6.6,0,0,0-.072-.253,2.212,2.212,0,0,1-.121-.434c-.024-.169-.073-.422-.1-.573a12.246,12.246,0,0,1,.03-2.775,7.977,7.977,0,0,1,.362-1.315,1.08,1.08,0,0,0,.085-.253,6.67,6.67,0,0,1,.567-1.164,1.62,1.62,0,0,0,.157-.265,6.557,6.557,0,0,1,.458-.6,8.311,8.311,0,0,1,4.186-2.877c.181-.054.477-.139.658-.187a2.475,2.475,0,0,1,.6-.1,2.917,2.917,0,0,0,.459-.054,13.224,13.224,0,0,1,2.292.048Zm-13.421.332a2.79,2.79,0,0,1,2.027,1.906c.066.229.084,1.261.084,6.008,0,6.123.006,6.008-.3,6.605a3.964,3.964,0,0,1-.959,1.056,3.749,3.749,0,0,1-2.3.374c-1.068-.036-1.279-.1-1.822-.507a2.943,2.943,0,0,1-1.068-1.665c-.048-.2-.066-1.936-.066-5.833,0-6.008-.006-5.869.332-6.545a2.842,2.842,0,0,1,.844-.971,2.932,2.932,0,0,1,2.051-.495,7.721,7.721,0,0,1,1.176.066Z" fill="red"/>
    <path id="Path_1837" data-name="Path 1837" d="M3826.293,515.246a2.494,2.494,0,0,0-.887.32.251.251,0,0,1-.151.072,4.149,4.149,0,0,0-.983.971,1.716,1.716,0,0,1-.115.235,3.833,3.833,0,0,0-.283,2.594,3.048,3.048,0,0,0,2.238,2.3,3.131,3.131,0,0,0,2.841-.664,3.326,3.326,0,0,0,1.062-2.111,2.644,2.644,0,0,0-.024-1.062,3,3,0,0,0-.923-1.816,2.763,2.763,0,0,0-1.569-.851,2.468,2.468,0,0,0-1.206.006Z" transform="translate(-1624.64 -1124.426)" fill="red"/>
  </g>
</svg>
