<svg xmlns="http://www.w3.org/2000/svg" width="24.05" height="24" viewBox="0 0 24.05 24">
  <g id="Group_466" data-name="Group 466" transform="translate(-1140.339 -5376.362)">
    <path id="Path_1642" data-name="Path 1642" d="M1145.938,5384.075h-4.828a.388.388,0,0,0-.388.388v15.511a.388.388,0,0,0,.388.388h4.828a.388.388,0,0,0,.388-.388v-15.511A.388.388,0,0,0,1145.938,5384.075Z" fill="#ffb74d"/>
    <path id="Path_1643" data-name="Path 1643" d="M1143.524,5376.362a3.183,3.183,0,1,0,3.183,3.182A3.187,3.187,0,0,0,1143.524,5376.362Z" fill="#ffb74d"/>
    <path id="Path_1644" data-name="Path 1644" d="M1158.218,5383.686a5.672,5.672,0,0,0-4.242,1.781v-1.007a.389.389,0,0,0-.388-.388h-4.624a.389.389,0,0,0-.388.388v15.51a.388.388,0,0,0,.388.388h4.818a.388.388,0,0,0,.388-.388V5392.3c0-2.586.7-3.593,2.505-3.593,1.963,0,2.119,1.615,2.119,3.726v7.541a.388.388,0,0,0,.388.388H1164a.388.388,0,0,0,.388-.388v-8.507C1164.389,5387.617,1163.656,5383.686,1158.218,5383.686Z" fill="#ffb74d"/>
  </g>
</svg>
