<?xml version="1.0" encoding="utf-8"?>
<!-- Generator: Adobe Illustrator 27.5.0, SVG Export Plug-In . SVG Version: 6.00 Build 0)  -->
<svg version="1.1" id="Layer_1" xmlns="http://www.w3.org/2000/svg" xmlns:xlink="http://www.w3.org/1999/xlink" x="0px" y="0px"
	 viewBox="0 0 582.5 28.6" style="enable-background:new 0 0 582.5 28.6;" xml:space="preserve">
<style type="text/css">
	.st0{fill-rule:evenodd;clip-rule:evenodd;fill:#016FD0;}
	.st1{fill-rule:evenodd;clip-rule:evenodd;fill:#FFFFFF;}
	.st2{fill:#27397D;}
	.st3{fill:#F9B52F;}
	.st4{fill:#F17922;}
	.st5{fill:#787A7C;}
	.st6{fill:#038A45;}
	.st7{fill:#F27921;}
	.st8{fill:#29377D;}
	.st9{fill:#FF5F00;}
	.st10{fill:#EB001B;}
	.st11{fill:#F79E1B;}
	.st12{fill:#10357F;}
	.st13{fill:#FFFFFF;}
	.st14{fill:#231F20;}
	.st15{fill:#0D4E96;}
	.st16{fill:#3D3D3C;}
	.st17{fill:#70706E;}
	.st18{fill:#098041;}
	.st19{fill:#E97626;}
</style>
<g id="Group_8997_00000176739615844111441450000012011381375199181704_" transform="translate(754.521 9634.085)">
	<path id="Path_21254_00000181074104877227306990000008353627023455959464_" class="st0" d="M-315.3-9634.1h28.6v28.6h-28.6V-9634.1
		z"/>
	<path id="Path_21255_00000161626935198314323880000014377150610409891236_" class="st1" d="M-305-9610v-10.3h18.2v2.8l-2.1,2.2
		l2.1,2.3v2.9h-3.4l-1.8-2l-1.8,2L-305-9610L-305-9610z"/>
	<path id="Path_21256_00000160148756561137246200000000110511917648323775_" class="st0" d="M-303.8-9611.2v-7.9h6.8v1.8h-4.6v1.2
		h4.5v1.8h-4.5v1.2h4.6v1.9H-303.8z"/>
	<path id="Path_21257_00000074414775577519563860000009643110014784123013_" class="st0" d="M-297-9611.2l3.7-4l-3.7-4h2.9l2.3,2.5
		l2.3-2.5h2.8v0.1l-3.7,3.9l3.7,3.9v0.1h-2.8l-2.3-2.6l-2.3,2.6H-297z"/>
	<path id="Path_21258_00000106112828110320188220000017442261128453014682_" class="st1" d="M-304.1-9629.4h4.4l1.5,3.5v-3.5h5.4
		l0.9,2.6l0.9-2.6h4.1v10.3h-21.9L-304.1-9629.4L-304.1-9629.4z"/>
	<path id="Path_21259_00000003813206685308677050000009696711347588041371_" class="st0" d="M-303.3-9628.2l-3.5,8h2.4l0.7-1.6h3.6
		l0.7,1.6h2.5l-3.5-8H-303.3z M-303-9623.7l1.1-2.5l1.1,2.5H-303z"/>
	<path id="Path_21260_00000110464901435777058770000013911858176563317921_" class="st0" d="M-297-9620.3v-8h3.4l1.8,4.9l1.8-4.9
		h3.3v8h-2.1v-5.4l-2,5.5h-1.9l-2-5.5v5.5L-297-9620.3L-297-9620.3z"/>
</g>
<g>
	<path class="st2" d="M193.8,20.7v2.5h2.3c0.4,0,0.7-0.1,0.9-0.2c0.4-0.2,0.6-0.6,0.6-1.2c0-0.5-0.2-0.8-0.6-1
		c-0.2-0.1-0.5-0.2-0.9-0.2h-2.3V20.7z M193.8,17.1v2h2.3c0.4,0,0.7-0.1,1-0.2c0.3-0.2,0.4-0.4,0.4-0.8s-0.2-0.7-0.5-0.9
		c-0.3-0.1-0.7-0.1-1.1-0.1H193.8L193.8,17.1z M198.8,16.5c0.3,0.4,0.4,0.9,0.4,1.4c0,0.6-0.1,1-0.4,1.4c-0.2,0.2-0.4,0.4-0.7,0.5
		c0.5,0.2,0.8,0.4,1.1,0.8c0.2,0.4,0.4,0.8,0.4,1.4s-0.1,1-0.4,1.5c-0.2,0.3-0.4,0.5-0.7,0.7s-0.6,0.4-1,0.5s-0.8,0.1-1.3,0.1H192
		v-9.3h4.5C197.5,15.5,198.3,15.8,198.8,16.5L198.8,16.5z"/>
	<polygon class="st2" points="202.6,24.8 200.7,24.8 200.7,15.5 202.6,15.5 	"/>
	<polygon class="st2" points="204,15.5 206,15.5 206,23.1 210.6,23.1 210.6,24.8 204,24.8 	"/>
	<polygon class="st2" points="211.5,15.5 213.5,15.5 213.5,23.1 218.1,23.1 218.1,24.8 211.5,24.8 	"/>
	<path class="st2" d="M223.8,17.4c-0.2-0.2-0.6-0.3-1-0.3h-1.7v2.7h1.7c0.4,0,0.8-0.1,1-0.3c0.2-0.2,0.4-0.6,0.4-1.1
		C224.1,17.9,224,17.6,223.8,17.4L223.8,17.4z M225.3,20.7c-0.5,0.5-1.3,0.7-2.3,0.7h-1.9v3.3h-1.9v-9.2h4c0.9,0,1.7,0.2,2.2,0.7
		c0.5,0.5,0.8,1.2,0.8,2.2C226.1,19.5,225.8,20.3,225.3,20.7L225.3,20.7z"/>
	<path class="st2" d="M228.8,21.2h2.4l-1.2-3.7L228.8,21.2L228.8,21.2z M228.9,15.5h2.2l3.3,9.3h-2.1l-0.6-1.9h-3.4l-0.6,1.9h-2
		L228.9,15.5L228.9,15.5z"/>
	<polygon class="st2" points="239.3,15.5 241.5,15.5 238.4,21.3 238.4,24.8 236.5,24.8 236.5,21.3 233.3,15.5 235.6,15.5 
		237.5,19.5 	"/>
	<path class="st2" d="M196.1,12.4c0.2,0,0.4,0,0.6-0.1c0.2,0,0.3-0.1,0.5-0.2c0.1-0.1,0.2-0.2,0.3-0.4s0.1-0.4,0.1-0.6
		c0-0.5-0.1-0.8-0.4-1c-0.3-0.2-0.6-0.3-1.1-0.3h-2.2v2.6H196.1L196.1,12.4z M196,8.5c0.4,0,0.7-0.1,0.9-0.3
		c0.2-0.2,0.4-0.5,0.4-0.8c0-0.2,0-0.4-0.1-0.5s-0.2-0.2-0.3-0.3c-0.1-0.1-0.3-0.1-0.4-0.2c-0.2,0-0.3,0-0.5,0h-1.9v2.1H196L196,8.5
		z M196.3,4.7c0.4,0,0.8,0,1.2,0.1s0.7,0.2,0.9,0.4c0.3,0.2,0.5,0.4,0.6,0.7c0.1,0.3,0.2,0.7,0.2,1.1c0,0.5-0.1,0.9-0.3,1.2
		S198.4,8.8,198,9c0.6,0.2,1,0.5,1.3,0.9s0.4,0.9,0.4,1.5c0,0.5-0.1,0.9-0.3,1.2s-0.4,0.6-0.7,0.8s-0.7,0.4-1.1,0.5
		c-0.4,0.1-0.8,0.2-1.2,0.2h-4.5V4.7H196.3L196.3,4.7z"/>
	<polygon class="st2" points="202.6,4.7 202.6,8.3 206.4,8.3 206.4,4.7 208.4,4.7 208.4,14 206.4,14 206.4,10 202.6,10 202.6,14 
		200.6,14 200.6,4.7 	"/>
	<path class="st2" d="M214.7,10.4L213.5,7l0,0l-1.2,3.4H214.7L214.7,10.4z M214.6,4.7l3.5,9.3H216l-0.7-2.1h-3.5l-0.7,2.1H209
		l3.5-9.3H214.6L214.6,4.7z"/>
	<path class="st2" d="M222.9,8.9c0.5,0,0.8-0.1,1.1-0.3c0.2-0.2,0.4-0.5,0.4-1s-0.1-0.8-0.4-1c-0.2-0.2-0.6-0.3-1.1-0.3h-2.2v2.6
		H222.9L222.9,8.9z M223.6,4.7c0.4,0,0.8,0.1,1.1,0.2s0.6,0.3,0.9,0.6c0.2,0.2,0.4,0.5,0.5,0.8s0.2,0.6,0.2,1c0,0.5-0.1,1-0.3,1.4
		s-0.6,0.7-1.1,0.9l0,0c0.3,0.1,0.5,0.2,0.6,0.3c0.2,0.1,0.3,0.3,0.4,0.5c0.1,0.2,0.2,0.4,0.2,0.6c0,0.2,0.1,0.5,0.1,0.7
		c0,0.1,0,0.3,0,0.5s0,0.4,0,0.6c0,0.2,0.1,0.4,0.1,0.6c0,0.2,0.1,0.3,0.2,0.5h-2c-0.1-0.3-0.2-0.6-0.2-1.1c0-0.4-0.1-0.8-0.1-1.2
		c-0.1-0.5-0.2-0.8-0.4-1.1c-0.2-0.2-0.6-0.3-1.1-0.3h-2v3.6h-2V4.7H223.6L223.6,4.7z"/>
	<path class="st2" d="M232.5,10.4L231.3,7l0,0l-1.2,3.4H232.5L232.5,10.4z M232.4,4.7l3.5,9.3h-2.1l-0.7-2.1h-3.5l-0.7,2.1h-2.1
		l3.5-9.3H232.4L232.4,4.7z"/>
	<polygon class="st2" points="234.5,6.4 234.5,4.7 242.1,4.7 242.1,6.4 239.3,6.4 239.3,14 237.2,14 237.2,6.4 	"/>
	<path class="st3" d="M172,7.7h3.7c0.4,0,0.8,0,1.2,0.1c0.4,0.1,0.7,0.2,1,0.4c0.3,0.2,0.5,0.4,0.7,0.7s0.3,0.7,0.3,1.2
		c0,0.9-0.3,1.5-0.8,1.9c1.4,0.3,2.4,0.5,3.5,1.1c0.4-0.3,0.8-0.7,1.1-1.1c0.5-0.7,0.7-1.6,0.7-2.7c0-1-0.2-1.8-0.5-2.5
		s-0.8-1.2-1.4-1.6c-0.6-0.4-1.3-0.7-2.1-0.9c-0.8-0.2-1.7-0.3-2.7-0.3h-4.6v3.7C172.1,7.7,172,7.7,172,7.7z"/>
	<path class="st4" d="M179.5,20.2c-0.2,0.4-0.4,0.6-0.8,0.8c-0.3,0.2-0.7,0.4-1.1,0.4c-0.4,0.1-0.8,0.1-1.3,0.1h-5v-5.8h5
		c1,0,1.8,0.2,2.4,0.7c0.6,0.5,0.9,1.2,0.9,2.3C179.8,19.4,179.7,19.8,179.5,20.2L179.5,20.2z M176.1,12.7h-4.7v-5l0,0V4.1h-4.6
		v21.1H177c0.9,0,1.9-0.1,2.8-0.4c0.9-0.2,1.7-0.6,2.4-1.1s1.3-1.1,1.7-1.9s0.6-1.7,0.6-2.8c0-1.3-0.3-2.4-1-3.4
		C182.3,13.9,179.7,12.7,176.1,12.7L176.1,12.7z"/>
	<path class="st5" d="M188.2,27.2c-0.1,0-0.3-0.1-0.3-0.3V2.5c0-0.1,0.1-0.3,0.3-0.3s0.3,0.1,0.3,0.3V27
		C188.4,27.1,188.3,27.2,188.2,27.2L188.2,27.2z"/>
</g>
<g>
	<polygon class="st6" points="70.3,7.2 74.2,14.5 65.9,21.7 	"/>
	<polygon class="st7" points="67.5,7.2 71.5,14.5 63.2,21.7 	"/>
	<g>
		<path class="st8" d="M10.5,11.6h1.9c0.7,0,1.2-0.1,1.5-0.3c0.3-0.2,0.5-0.5,0.7-0.9c0.1-0.5,0.1-0.8-0.1-1
			c-0.2-0.2-0.7-0.3-1.4-0.3h-1.8L10.5,11.6z M4,19.1L8,6h6.3c2,0,3.3,0.3,4,0.9c0.7,0.6,0.8,1.5,0.4,2.9c-0.2,0.8-0.6,1.5-1.1,2
			c-0.5,0.5-1.2,0.9-2,1.3c0.7,0.2,1.1,0.5,1.3,0.9c0.2,0.5,0.2,1.1-0.1,2l-0.5,1.8l0,0c-0.1,0.5-0.1,0.8,0.1,0.8l-0.1,0.5H12
			c0-0.3,0-0.6,0.1-0.8c0-0.2,0.1-0.4,0.1-0.5l0.4-1.3c0.2-0.7,0.2-1.2,0-1.4c-0.2-0.3-0.6-0.4-1.3-0.4H9.6l-1.4,4.5H4z"/>
		<path class="st8" d="M30.4,9.4l-2.9,9.7h-3.5l0.4-1.4c-0.6,0.6-1.3,1-1.9,1.3c-0.6,0.3-1.3,0.4-2,0.4c-0.6,0-1.1-0.1-1.5-0.3
			c-0.4-0.2-0.7-0.5-0.9-0.9c-0.2-0.3-0.3-0.8-0.2-1.3c0-0.5,0.2-1.3,0.6-2.5l1.5-5h3.9l-1.5,5c-0.2,0.7-0.3,1.2-0.2,1.5
			c0.1,0.3,0.4,0.4,0.9,0.4c0.5,0,0.9-0.2,1.2-0.5c0.3-0.3,0.6-0.8,0.8-1.5l1.5-5H30.4z"/>
		<path class="st8" d="M35.4,11.9h1.4c0.9,0,1.5-0.1,1.9-0.3c0.4-0.2,0.6-0.5,0.8-1c0.2-0.5,0.1-0.9-0.1-1c-0.2-0.2-0.8-0.3-1.7-0.3
			h-1.4L35.4,11.9z M29,19.1L32.9,6h5.4c1.2,0,2.1,0.1,2.8,0.2c0.7,0.1,1.2,0.4,1.6,0.7c0.5,0.4,0.8,0.9,0.9,1.5
			c0.1,0.6,0,1.3-0.2,2.1c-0.4,1.5-1.2,2.6-2.3,3.4c-1.1,0.8-2.5,1.2-4.1,1.2h-2.5l-1.2,4H29z"/>
		<path class="st8" d="M48.9,14.8c-0.4,0.2-0.9,0.3-1.6,0.5c-1,0.3-1.6,0.6-1.8,1c-0.1,0.3-0.1,0.5,0.1,0.6c0.1,0.2,0.4,0.2,0.7,0.2
			c0.6,0,1.2-0.1,1.5-0.4c0.4-0.3,0.7-0.8,0.9-1.4c0-0.1,0.1-0.2,0.1-0.3L48.9,14.8z M47.9,19.1l0-0.9c-0.6,0.4-1.3,0.8-1.9,1
			c-0.6,0.2-1.3,0.3-2,0.3c-1.1,0-1.9-0.3-2.3-0.8c-0.4-0.5-0.5-1.3-0.2-2.3c0.3-1,0.8-1.7,1.5-2.1c0.7-0.5,1.9-0.8,3.6-1
			c0.2,0,0.5-0.1,0.9-0.1c1.3-0.1,2-0.4,2.1-0.9c0.1-0.3,0-0.5-0.2-0.6c-0.2-0.1-0.5-0.2-1-0.2c-0.4,0-0.7,0.1-1,0.2
			c-0.3,0.2-0.5,0.4-0.6,0.7h-3.8c0.3-1.1,1-1.9,2.1-2.5c1-0.6,2.4-0.8,4.1-0.8c0.8,0,1.5,0.1,2.1,0.2c0.6,0.1,1.1,0.3,1.4,0.6
			c0.4,0.3,0.6,0.7,0.7,1c0.1,0.4,0,0.9-0.2,1.7L51.7,18c-0.1,0.2-0.1,0.3,0,0.5c0,0.1,0.1,0.3,0.2,0.3l-0.1,0.3H47.9z"/>
		<path class="st8" d="M51.8,22.9l0.9-2.9h1.1c0.4,0,0.7-0.1,0.9-0.2c0.2-0.1,0.4-0.3,0.4-0.6c0-0.1,0.1-0.3,0.1-0.4
			c0-0.2,0-0.3,0-0.5l-0.6-8.8h3.9l-0.1,5.9l3.4-5.9h3.6l-6,9.6c-0.7,1.1-1.2,1.8-1.5,2.2c-0.3,0.4-0.6,0.7-0.9,0.9
			c-0.4,0.3-0.8,0.5-1.2,0.6c-0.4,0.1-1.1,0.2-2.1,0.2c-0.3,0-0.6,0-0.9,0C52.5,22.9,52.2,22.9,51.8,22.9"/>
	</g>
</g>
<g>
	<g id="XMLID_121_">
		<rect x="268.9" y="8.7" class="st9" width="6.8" height="12.2"/>
		<path id="XMLID_125_" class="st10" d="M269.3,14.7c0-2.5,1.2-4.7,3-6.1c-1.3-1-3-1.7-4.8-1.7c-4.3,0-7.7,3.5-7.7,7.7
			c0,4.3,3.5,7.7,7.7,7.7c1.8,0,3.5-0.6,4.8-1.7C270.5,19.4,269.3,17.2,269.3,14.7z"/>
		<path class="st11" d="M284.8,14.7c0,4.3-3.5,7.7-7.7,7.7c-1.8,0-3.5-0.6-4.8-1.7c1.8-1.4,3-3.6,3-6.1s-1.2-4.7-3-6.1
			c1.3-1,3-1.7,4.8-1.7C281.3,7,284.8,10.5,284.8,14.7z"/>
		<path class="st11" d="M284.1,19.5v-0.2h0.1v-0.1h-0.3v0.1h0.1L284.1,19.5L284.1,19.5z M284.6,19.5v-0.3h-0.1l-0.1,0.2l-0.1-0.2
			h-0.1v0.3h0.1v-0.2l0.1,0.2h0.1l0.1-0.2L284.6,19.5L284.6,19.5z"/>
	</g>
	<polygon points="292.7,22.5 292.4,22.5 292.4,19.9 292.4,14.7 292.4,9.5 292.4,6.9 292.7,6.9 292.7,12.1 292.7,17.3 	"/>
	<path d="M300.6,19.5h-0.8v-9.2h0.8V19.5z M306.5,10.3c0.8,0,1.5,0.1,2.1,0.3c0.6,0.2,1.1,0.5,1.6,0.9c0.4,0.4,0.8,0.9,1,1.5
		c0.2,0.6,0.3,1.2,0.3,1.9c0,0.7-0.1,1.3-0.3,1.9c-0.2,0.6-0.6,1.1-1,1.5c-0.4,0.4-1,0.7-1.6,0.9c-0.6,0.2-1.3,0.3-2.1,0.3h-3.4
		v-9.2H306.5z M303.9,11.1v7.7h2.6c0.7,0,1.3-0.1,1.8-0.3c0.5-0.2,0.9-0.4,1.3-0.8c0.4-0.3,0.6-0.7,0.8-1.2c0.2-0.5,0.3-1,0.3-1.6
		c0-0.6-0.1-1.1-0.3-1.6c-0.2-0.5-0.4-0.9-0.8-1.2c-0.4-0.3-0.8-0.6-1.3-0.8c-0.5-0.2-1.1-0.3-1.8-0.3H303.9z M320.8,10.2
		c0.4,0,0.8,0,1.1,0.1c0.4,0.1,0.7,0.2,1,0.4c0.3,0.2,0.6,0.4,0.9,0.6c0.3,0.2,0.5,0.5,0.7,0.8l-0.7,0.4c-0.2-0.2-0.3-0.5-0.6-0.7
		c-0.2-0.2-0.5-0.4-0.7-0.5c-0.3-0.1-0.5-0.2-0.8-0.3c-0.3-0.1-0.6-0.1-0.9-0.1c-0.5,0-1.1,0.1-1.5,0.3c-0.5,0.2-0.9,0.5-1.2,0.8
		c-0.3,0.3-0.6,0.8-0.8,1.2c-0.2,0.5-0.3,1-0.3,1.6c0,0.6,0.1,1.1,0.3,1.6c0.2,0.5,0.5,0.9,0.8,1.2c0.3,0.3,0.8,0.6,1.2,0.8
		c0.5,0.2,1,0.3,1.5,0.3c0.3,0,0.6,0,0.9-0.1c0.3-0.1,0.6-0.2,0.8-0.3c0.3-0.1,0.5-0.3,0.7-0.5c0.2-0.2,0.4-0.4,0.6-0.7l0.7,0.5
		c-0.2,0.3-0.4,0.5-0.7,0.8c-0.3,0.2-0.6,0.4-0.9,0.6c-0.3,0.2-0.7,0.3-1,0.4c-0.4,0.1-0.7,0.1-1.1,0.1c-0.7,0-1.3-0.1-1.9-0.3
		c-0.6-0.2-1.1-0.6-1.5-1c-0.4-0.4-0.8-0.9-1-1.5c-0.2-0.6-0.4-1.2-0.4-1.9c0-0.7,0.1-1.3,0.4-1.9c0.2-0.6,0.6-1.1,1-1.5
		c0.4-0.4,0.9-0.7,1.5-1C319.5,10.3,320.1,10.2,320.8,10.2z M327,14.4c0.1-0.2,0.3-0.4,0.4-0.5c0.2-0.1,0.3-0.3,0.5-0.4
		c0.2-0.1,0.4-0.2,0.6-0.2c0.2,0,0.4-0.1,0.6-0.1c0.4,0,0.7,0.1,1.1,0.2c0.3,0.1,0.6,0.3,0.8,0.5c0.2,0.2,0.4,0.5,0.5,0.8
		c0.1,0.3,0.2,0.7,0.2,1v3.8H331V16c0-0.3,0-0.6-0.1-0.8c-0.1-0.3-0.2-0.5-0.4-0.6c-0.2-0.2-0.4-0.3-0.6-0.4
		c-0.2-0.1-0.5-0.1-0.8-0.1c-0.3,0-0.6,0-0.8,0.1c-0.3,0.1-0.5,0.2-0.7,0.4c-0.2,0.2-0.3,0.4-0.4,0.7c-0.1,0.3-0.2,0.5-0.2,0.8v3.5
		h-0.8v-9.5h0.8V14.4z M336.2,13.2c0.4,0,0.8,0.1,1.1,0.2c0.4,0.2,0.7,0.4,0.9,0.7c0.3,0.3,0.5,0.6,0.6,1c0.1,0.4,0.2,0.8,0.2,1.3
		c0,0.1,0,0.1,0,0.2c0,0.1,0,0.1,0,0.1h-5.2c0,0.4,0.1,0.7,0.2,1c0.1,0.3,0.3,0.5,0.5,0.7c0.2,0.2,0.5,0.3,0.7,0.4
		c0.3,0.1,0.6,0.2,0.9,0.2c0.4,0,0.8-0.1,1.2-0.2c0.3-0.2,0.7-0.4,0.9-0.6l0.4,0.5c-0.2,0.2-0.4,0.4-0.6,0.5
		c-0.2,0.1-0.4,0.2-0.6,0.3c-0.2,0.1-0.4,0.1-0.6,0.2s-0.4,0-0.7,0c-0.5,0-0.9-0.1-1.3-0.2c-0.4-0.2-0.7-0.4-1-0.7
		c-0.3-0.3-0.5-0.6-0.6-1c-0.2-0.4-0.2-0.8-0.2-1.3c0-0.5,0.1-0.9,0.2-1.3c0.2-0.4,0.4-0.7,0.6-1c0.3-0.3,0.6-0.5,1-0.7
		C335.4,13.3,335.8,13.2,336.2,13.2z M336.2,13.9c-0.3,0-0.6,0.1-0.9,0.2c-0.3,0.1-0.5,0.3-0.7,0.4c-0.2,0.2-0.4,0.4-0.5,0.7
		c-0.1,0.3-0.2,0.6-0.2,0.9h4.4c0-0.3-0.1-0.6-0.2-0.9c-0.1-0.3-0.3-0.5-0.5-0.7c-0.2-0.2-0.4-0.3-0.7-0.4
		C336.8,14,336.5,13.9,336.2,13.9z M343.5,13.2c0.5,0,0.9,0.1,1.3,0.2c0.4,0.2,0.7,0.4,1,0.7l-0.5,0.5c-0.2-0.2-0.5-0.4-0.8-0.6
		c-0.3-0.1-0.6-0.2-1-0.2c-0.3,0-0.7,0.1-0.9,0.2c-0.3,0.1-0.5,0.3-0.8,0.5c-0.2,0.2-0.4,0.5-0.5,0.8c-0.1,0.3-0.2,0.6-0.2,1
		c0,0.4,0.1,0.7,0.2,1c0.1,0.3,0.3,0.6,0.5,0.8c0.2,0.2,0.5,0.4,0.8,0.5c0.3,0.1,0.6,0.2,0.9,0.2c0.4,0,0.7-0.1,1-0.2
		c0.3-0.1,0.6-0.3,0.8-0.6l0.5,0.5c-0.3,0.3-0.6,0.5-1,0.7c-0.4,0.2-0.8,0.2-1.3,0.2c-0.5,0-0.9-0.1-1.3-0.2c-0.4-0.2-0.7-0.4-1-0.7
		c-0.3-0.3-0.5-0.6-0.7-1c-0.2-0.4-0.2-0.8-0.2-1.3c0-0.5,0.1-0.9,0.2-1.3c0.2-0.4,0.4-0.7,0.7-1c0.3-0.3,0.6-0.5,1-0.7
		C342.6,13.3,343,13.2,343.5,13.2z M348,16h1l2.6-2.6h0.9l-2.9,2.9l3,3.3h-1l-2.7-2.9h-1v2.9h-0.8v-9.5h0.8V16z"/>
</g>
<g>
	<path class="st12" d="M373.1,10.2l-2.7-8.4h1.2l1.3,4.1c0.4,1.1,0.7,2.2,0.9,3.1h0c0.2-1,0.6-2,1-3.1l1.4-4.1h1.2l-3,8.4H373.1z"/>
	<path class="st12" d="M377.8,7.4c0,1.5,1,2.1,2.1,2.1c0.8,0,1.3-0.1,1.7-0.3l0.2,0.8c-0.4,0.2-1,0.4-2,0.4c-1.9,0-3-1.2-3-3
		c0-1.8,1.1-3.2,2.8-3.2c2,0,2.5,1.7,2.5,2.8c0,0.2,0,0.4,0,0.5H377.8z M381,6.6c0-0.7-0.3-1.8-1.5-1.8c-1.1,0-1.6,1-1.7,1.8H381z"
		/>
	<path class="st12" d="M382.9,6.1c0-0.7,0-1.3,0-1.9h1l0,1.2h0c0.3-0.8,0.9-1.3,1.7-1.3c0.1,0,0.2,0,0.3,0v1c-0.1,0-0.2,0-0.4,0
		c-0.8,0-1.3,0.6-1.5,1.4c0,0.2-0.1,0.3-0.1,0.5v3.2h-1.1V6.1z"/>
	<path class="st12" d="M387.8,2.5c0,0.4-0.3,0.7-0.7,0.7c-0.4,0-0.7-0.3-0.7-0.7c0-0.4,0.3-0.7,0.7-0.7
		C387.5,1.8,387.8,2.1,387.8,2.5 M386.6,4.2h1.1v6h-1.1V4.2z"/>
	<path class="st12" d="M389.1,10.2V5h-0.8V4.2h0.8V3.9c0-0.8,0.2-1.6,0.7-2.1c0.4-0.4,1-0.6,1.5-0.6c0.4,0,0.7,0.1,0.9,0.2L392,2.3
		c-0.2-0.1-0.4-0.1-0.7-0.1c-0.9,0-1.2,0.8-1.2,1.7v0.3h1.5V5h-1.5v5.2H389.1z"/>
	<path class="st12" d="M393.9,2.5c0,0.4-0.3,0.7-0.7,0.7c-0.4,0-0.7-0.3-0.7-0.7c0-0.4,0.3-0.7,0.7-0.7
		C393.7,1.8,393.9,2.1,393.9,2.5 M392.7,4.2h1.1v6h-1.1V4.2z"/>
	<path class="st12" d="M395.7,7.4c0,1.5,1,2.1,2.1,2.1c0.8,0,1.3-0.1,1.7-0.3l0.2,0.8c-0.4,0.2-1,0.4-2,0.4c-1.9,0-3-1.2-3-3
		c0-1.8,1.1-3.2,2.8-3.2c2,0,2.5,1.7,2.5,2.8c0,0.2,0,0.4,0,0.5H395.7z M398.9,6.6c0-0.7-0.3-1.8-1.5-1.8c-1.1,0-1.6,1-1.7,1.8
		H398.9z"/>
	<path class="st12" d="M406.1,1.4v7.3c0,0.5,0,1.1,0,1.6h-1l-0.1-1h0c-0.3,0.7-1.1,1.2-2.1,1.2c-1.5,0-2.6-1.2-2.6-3.1
		c0-2,1.2-3.2,2.7-3.2c0.9,0,1.5,0.4,1.8,0.9h0V1.4H406.1z M405,6.7c0-0.1,0-0.3,0-0.5c-0.2-0.7-0.8-1.3-1.6-1.3
		c-1.1,0-1.8,1-1.8,2.3c0,1.2,0.6,2.2,1.8,2.2c0.7,0,1.4-0.5,1.6-1.3c0-0.1,0-0.3,0-0.5V6.7z"/>
	<path class="st12" d="M410.1,10.2c0-0.4,0-1,0-1.6V1.4h1.1v3.8h0c0.4-0.7,1.1-1.1,2.1-1.1c1.5,0,2.5,1.2,2.5,3.1
		c0,2.2-1.4,3.2-2.7,3.2c-0.9,0-1.6-0.3-2-1.1h0l-0.1,1H410.1z M411.2,7.8c0,0.1,0,0.3,0.1,0.4c0.2,0.8,0.8,1.3,1.6,1.3
		c1.1,0,1.8-0.9,1.8-2.3c0-1.2-0.6-2.2-1.8-2.2c-0.7,0-1.4,0.5-1.7,1.3c0,0.1-0.1,0.3-0.1,0.4V7.8z"/>
	<path class="st12" d="M417,4.2l1.3,3.6c0.1,0.4,0.3,0.9,0.4,1.2h0c0.1-0.4,0.2-0.8,0.4-1.3l1.2-3.5h1.2l-1.6,4.3
		c-0.8,2.1-1.3,3.1-2.1,3.8c-0.5,0.5-1.1,0.7-1.3,0.7l-0.3-0.9c0.3-0.1,0.6-0.3,1-0.5c0.3-0.2,0.7-0.7,0.9-1.2
		c0-0.1,0.1-0.2,0.1-0.3s0-0.1-0.1-0.3l-2.2-5.5H417z"/>
	<path class="st12" d="M388.5,14.3l-3.3,8.4l-1.3-7.1c-0.2-0.8-0.8-1.3-1.5-1.3h-5.4l-0.1,0.4c1.1,0.2,2.4,0.6,3.1,1
		c0.5,0.3,0.6,0.5,0.8,1.1l2.5,9.8h3.4l5.2-12.3H388.5z"/>
	<polygon class="st12" points="393.2,14.3 390.6,26.7 393.7,26.7 396.4,14.3 	"/>
	<path class="st12" d="M400.6,17.8c0-0.4,0.4-0.9,1.4-1c0.5-0.1,1.7-0.1,3.1,0.6l0.6-2.6c-0.8-0.3-1.8-0.5-3-0.5
		c-3.2,0-5.4,1.7-5.4,4.1c0,1.8,1.6,2.8,2.8,3.4c1.2,0.6,1.7,1,1.7,1.5c0,0.8-1,1.2-1.9,1.2c-1.6,0-2.5-0.4-3.3-0.8l-0.6,2.7
		c0.7,0.3,2.1,0.6,3.5,0.7c3.3,0,5.5-1.7,5.5-4.2C405,19.4,400.5,19.2,400.6,17.8"/>
	<path class="st12" d="M409.8,22.3l1.7-4.6l1,4.6H409.8z M411,14.3c-0.6,0-1.1,0.4-1.4,0.9l-4.8,11.4h3.4l0.7-1.8h4.1l0.4,1.8h3
		l-2.6-12.3H411z"/>
</g>
<g>
	<path class="st13" d="M486,14.4c0-6.6,5.3-11.9,11.9-11.9c6.6,0,11.9,5.3,11.9,11.9s-5.3,11.9-11.9,11.9
		C491.4,26.3,486,21,486,14.4"/>
	<path class="st14" d="M518.1,7.1c0-1.2-0.6-1.1-1.2-1.1V5.7c0.5,0,1,0,1.5,0c0.5,0,1.3,0,2.2,0c3.4,0,5.2,2.2,5.2,4.5
		c0,1.3-0.8,4.5-5.4,4.5c-0.7,0-1.3,0-1.9,0c-0.6,0-1.2,0-1.7,0v-0.3c0.8-0.1,1.2-0.1,1.2-1V7.1z M519.3,13.2c0,1,0.7,1.1,1.4,1.1
		c2.8,0,3.7-2.1,3.7-4.1c0-2.4-1.6-4.2-4.1-4.2c-0.5,0-0.8,0-1,0.1V13.2z"/>
	<path class="st14" d="M526.3,14.4h0.2c0.4,0,0.6,0,0.6-0.4v-3.5c0-0.6-0.2-0.7-0.7-0.9V9.3c0.6-0.2,1.3-0.4,1.4-0.5
		c0.1-0.1,0.2-0.1,0.2-0.1c0.1,0,0.1,0.1,0.1,0.2v5c0,0.4,0.3,0.4,0.6,0.4h0.2v0.3c-0.4,0-0.9,0-1.4,0s-0.9,0-1.4,0V14.4z
		 M527.7,6.8c-0.3,0-0.6-0.3-0.6-0.6c0-0.3,0.3-0.6,0.6-0.6c0.3,0,0.6,0.3,0.6,0.6C528.3,6.5,528.1,6.8,527.7,6.8"/>
	<path class="st14" d="M530.3,10.5c0-0.5-0.1-0.6-0.8-0.9V9.4c0.6-0.2,1.1-0.4,1.7-0.6c0,0,0.1,0,0.1,0.1v0.8c0.7-0.5,1.4-1,2.3-1
		c1.1,0,1.5,0.8,1.5,1.8V14c0,0.4,0.3,0.4,0.6,0.4h0.2v0.3c-0.5,0-0.9,0-1.4,0c-0.5,0-0.9,0-1.4,0v-0.3h0.2c0.4,0,0.6,0,0.6-0.4
		v-3.4c0-0.7-0.5-1.1-1.2-1.1c-0.4,0-1.1,0.3-1.5,0.6V14c0,0.4,0.3,0.4,0.7,0.4h0.2v0.3c-0.5,0-0.9,0-1.4,0c-0.5,0-0.9,0-1.4,0v-0.3
		h0.2c0.4,0,0.6,0,0.6-0.4V10.5z"/>
	<path class="st14" d="M537,11.2c0,0.1,0,0.3,0,0.8c0.1,1.2,0.9,2.2,1.9,2.2c0.7,0,1.3-0.4,1.8-0.9l0.2,0.2
		c-0.6,0.8-1.3,1.5-2.4,1.5c-2.1,0-2.5-2-2.5-2.8c0-2.5,1.7-3.3,2.6-3.3c1.1,0,2.2,0.7,2.2,2c0,0.1,0,0.2,0,0.2l-0.1,0.1H537z
		 M539.3,10.7c0.3,0,0.4-0.2,0.4-0.3c0-0.7-0.4-1.2-1.1-1.2c-0.8,0-1.3,0.6-1.5,1.5H539.3z"/>
	<path class="st14" d="M541.1,14.4h0.4c0.4,0,0.6,0,0.6-0.4v-3.7c0-0.4-0.5-0.5-0.7-0.6V9.6c0.9-0.4,1.5-0.7,1.6-0.7
		c0.1,0,0.1,0,0.1,0.2v1.2h0c0.3-0.5,0.9-1.3,1.7-1.3c0.3,0,0.7,0.2,0.7,0.7c0,0.4-0.2,0.7-0.6,0.7c-0.4,0-0.4-0.3-0.9-0.3
		c-0.2,0-0.9,0.3-0.9,1.1V14c0,0.4,0.3,0.4,0.6,0.4h0.7v0.3c-0.7,0-1.3,0-1.8,0c-0.5,0-1.1,0-1.5,0V14.4z"/>
	<path class="st14" d="M546.1,12.9c0.2,0.9,0.7,1.6,1.6,1.6c0.8,0,1.1-0.5,1.1-0.9c0-1.5-2.8-1-2.8-3.1c0-0.7,0.6-1.7,2-1.7
		c0.4,0,1,0.1,1.5,0.4l0.1,1.3h-0.3c-0.1-0.8-0.6-1.3-1.4-1.3c-0.5,0-1,0.3-1,0.9c0,1.5,3,1.1,3,3.1c0,0.9-0.7,1.8-2.2,1.8
		c-0.5,0-1.1-0.2-1.6-0.4l-0.1-1.5L546.1,12.9z"/>
	<path class="st14" d="M561.5,8h-0.3c-0.2-1.5-1.3-2.1-2.8-2.1c-1.5,0-3.7,1-3.7,4.1c0,2.6,1.9,4.5,3.9,4.5c1.3,0,2.4-0.9,2.6-2.2
		l0.3,0.1l-0.3,1.9c-0.5,0.3-2,0.7-2.9,0.7c-3,0-5-2-5-4.9c0-2.7,2.4-4.6,4.9-4.6c1.1,0,2.1,0.3,3.1,0.7L561.5,8z"/>
	<path class="st14" d="M562,14.4h0.2c0.4,0,0.6,0,0.6-0.4V6.7c0-0.8-0.2-0.9-0.7-1V5.5c0.5-0.2,1.1-0.4,1.3-0.6
		c0.1-0.1,0.2-0.1,0.3-0.1c0.1,0,0.1,0.1,0.1,0.2v9c0,0.4,0.3,0.4,0.7,0.4h0.2v0.3c-0.4,0-0.9,0-1.4,0c-0.5,0-0.9,0-1.4,0V14.4z"/>
	<path class="st14" d="M570.4,14c0,0.2,0.1,0.2,0.4,0.2c0.2,0,0.4,0,0.5,0v0.3c-0.6,0.1-1.6,0.3-1.9,0.4l-0.1,0v-1.1
		c-0.8,0.6-1.4,1.1-2.3,1.1c-0.7,0-1.4-0.5-1.4-1.5v-3.3c0-0.3-0.1-0.7-0.8-0.7V9.1c0.5,0,1.5-0.1,1.7-0.1c0.1,0,0.1,0.1,0.1,0.4
		v3.4c0,0.4,0,1.5,1.1,1.5c0.4,0,1-0.3,1.6-0.8V10c0-0.3-0.6-0.4-1.1-0.5V9.2c1.2-0.1,1.9-0.2,2-0.2c0.1,0,0.1,0.1,0.1,0.2V14z"/>
	<path class="st14" d="M572.9,9.7c0.5-0.4,1.2-0.9,1.9-0.9c1.5,0,2.4,1.3,2.4,2.7c0,1.7-1.2,3.4-3.1,3.4c-1,0-1.5-0.3-1.8-0.5
		l-0.4,0.3l-0.3-0.1c0.1-0.8,0.2-1.5,0.2-2.3V6.7c0-0.8-0.2-0.9-0.7-1V5.5c0.5-0.2,1.1-0.4,1.3-0.6c0.1-0.1,0.2-0.1,0.3-0.1
		c0.1,0,0.1,0.1,0.1,0.2V9.7z M572.9,13.3c0,0.5,0.5,1.3,1.3,1.3c1.4,0,2-1.4,2-2.5c0-1.4-1.1-2.6-2.1-2.6c-0.5,0-0.9,0.3-1.2,0.6
		V13.3z"/>
	<path class="st14" d="M516.9,22.3L516.9,22.3c0.4,0,0.6,0,0.6-0.4v-3.7c0-0.4-0.3-0.4-0.5-0.4h-0.1v-0.2c0.3,0,0.7,0,1,0
		c0.4,0,0.8,0,1.1,0v0.2h-0.1c-0.3,0-0.5,0-0.5,0.4v3.7c0,0.4,0.3,0.4,0.5,0.4h0.1v0.2c-0.3,0-0.8,0-1.1,0c-0.3,0-0.8,0-1,0V22.3z"
		/>
	<path class="st14" d="M519,22.6c-0.3,0-0.8,0-1.1,0c-0.3,0-0.8,0-1,0h0v0v-0.2v0h0h0.1c0.3,0,0.5,0,0.5-0.4v-3.7
		c0-0.3-0.2-0.4-0.5-0.4h-0.1v0v-0.2h0c0.3,0,0.7,0,1,0c0.4,0,0.8,0,1.1,0h0v0v0.2h0h-0.1c-0.3,0-0.5,0-0.5,0.4v3.7
		c0,0.3,0.2,0.4,0.5,0.4h0.1v0L519,22.6L519,22.6z M519,22.5l0-0.2h-0.1c-0.3,0-0.6,0-0.6-0.4v-3.7c0-0.4,0.3-0.4,0.6-0.4h0.1v-0.2
		c-0.3,0-0.7,0-1.1,0c-0.3,0-0.7,0-1,0v0.2h0.1c0.3,0,0.6,0,0.6,0.4v3.7c0,0.4-0.3,0.4-0.6,0.4h-0.1v0.2c0.3,0,0.7,0,1,0
		C518.2,22.5,518.7,22.5,519,22.5"/>
	<path class="st14" d="M523.9,21.1L523.9,21.1l0-2.7c0-0.6-0.4-0.7-0.6-0.7h-0.2v-0.2c0.3,0,0.7,0,1,0c0.3,0,0.6,0,0.9,0v0.2h-0.1
		c-0.3,0-0.6,0.1-0.6,0.9v3.2c0,0.2,0,0.5,0,0.7H524l-3.6-4.1v2.9c0,0.6,0.1,0.8,0.7,0.8h0.1v0.2c-0.3,0-0.6,0-0.9,0
		c-0.3,0-0.6,0-1,0v-0.2h0.1c0.5,0,0.6-0.3,0.6-0.9v-3c0-0.4-0.3-0.6-0.6-0.6h-0.1v-0.2c0.3,0,0.5,0,0.8,0c0.2,0,0.4,0,0.6,0
		L523.9,21.1z"/>
	<path class="st14" d="M524.3,22.7l-0.3,0l-3.6-4v2.8c0,0.6,0.1,0.8,0.6,0.8h0.2v0v0.2h0c-0.3,0-0.6,0-0.9,0c-0.3,0-0.6,0-1,0h0v0
		v-0.2h0h0.1c0.5,0,0.6-0.3,0.6-0.9v-3c0-0.4-0.3-0.6-0.6-0.6h-0.1v0v-0.2h0c0.3,0,0.5,0,0.8,0c0.2,0,0.4,0,0.7,0l3.1,3.5v-2.6
		c0-0.6-0.4-0.6-0.6-0.6h-0.2v0v-0.2h0c0.3,0,0.7,0,1,0c0.3,0,0.6,0,0.9,0h0v0v0.2h0h-0.1c-0.3,0-0.6,0-0.6,0.9v3.2
		C524.3,22.2,524.3,22.4,524.3,22.7L524.3,22.7L524.3,22.7z M524,22.6h0.2c0-0.2,0-0.4,0-0.7v-3.2c0-0.8,0.4-0.9,0.7-0.9h0.1v-0.2
		c-0.3,0-0.6,0-0.8,0c-0.3,0-0.6,0-1,0v0.2h0.1c0.2,0,0.6,0.1,0.6,0.7l0,2.7l0,0l0,0l-3.1-3.6c-0.2,0-0.4,0-0.6,0
		c-0.3,0-0.5,0-0.8,0l0,0.2h0.1c0.3,0,0.7,0.3,0.7,0.7v3c0,0.6-0.2,0.9-0.7,0.9l-0.1,0v0.2c0.3,0,0.6,0,0.9,0c0.3,0,0.6,0,0.9,0
		v-0.2H521c-0.6,0-0.7-0.2-0.7-0.9v-3L524,22.6z M523.9,21.1L523.9,21.1L523.9,21.1z M523.9,21.1L523.9,21.1L523.9,21.1L523.9,21.1z
		"/>
	<path class="st14" d="M526,17.9c-0.5,0-0.6,0.1-0.7,0.6h-0.2c0-0.2,0.1-0.4,0.1-0.6c0-0.2,0-0.4,0-0.6h0.2c0.1,0.2,0.2,0.2,0.4,0.2
		h3.7c0.2,0,0.4,0,0.4-0.2l0.2,0c0,0.2-0.1,0.4-0.1,0.6c0,0.2,0,0.4,0,0.6l-0.2,0.1c0-0.3-0.1-0.7-0.5-0.7h-1.2v3.8
		c0,0.5,0.2,0.6,0.6,0.6h0.1v0.2c-0.3,0-0.8,0-1.2,0c-0.4,0-0.9,0-1.2,0v-0.2h0.1c0.4,0,0.6,0,0.6-0.6v-3.8H526z"/>
	<path class="st14" d="M528.8,22.6c-0.3,0-0.8,0-1.2,0c-0.4,0-0.9,0-1.2,0h0v0v-0.2h0h0.1c0.4,0,0.5,0,0.6-0.6V18H526v0v0h1.2v3.8
		c0,0.6-0.2,0.6-0.6,0.6h-0.1v0.1c0.3,0,0.8,0,1.2,0C528,22.5,528.5,22.5,528.8,22.6l0-0.2h-0.1c-0.3,0-0.6-0.1-0.6-0.6v-3.8h1.2
		c0.5,0,0.5,0.4,0.6,0.7l0.2-0.1c0-0.2,0-0.4,0-0.6c0-0.2,0-0.4,0.1-0.5l-0.1,0c0,0.2-0.2,0.2-0.4,0.2h-3.6h0c-0.2,0-0.3,0-0.4-0.2
		h-0.1c0,0.2,0,0.4,0,0.6c0,0.2-0.1,0.4-0.1,0.6h0.2c0.1-0.5,0.2-0.7,0.7-0.6v0v0c-0.5,0-0.5,0.1-0.6,0.6l0,0h0h-0.2l0,0
		c0-0.2,0.1-0.4,0.1-0.6c0-0.2,0-0.4,0-0.6v0h0h0.2l0,0c0,0.2,0.2,0.2,0.4,0.2h0h3.6c0.2,0,0.3,0,0.4-0.2l0,0l0,0l0.2,0l0,0
		c0,0.2-0.1,0.4-0.1,0.6c0,0.2,0,0.4,0,0.6v0l0,0l-0.3,0.1l0,0c0-0.3,0-0.7-0.5-0.7h-1.1v3.7c0,0.5,0.2,0.6,0.6,0.6h0.2v0
		L528.8,22.6L528.8,22.6z"/>
	<path class="st14" d="M530.3,22.3L530.3,22.3c0.4,0,0.6,0,0.6-0.4v-3.7c0-0.4-0.3-0.4-0.5-0.4h-0.1v-0.2c0.4,0,1.2,0,1.8,0
		c0.6,0,1.3,0,1.8,0c0,0.3,0,0.8,0,1.1l-0.2,0.1c0-0.5-0.1-0.8-0.9-0.8h-1v1.9h0.8c0.4,0,0.5-0.2,0.6-0.6h0.2c0,0.3,0,0.6,0,0.8
		c0,0.3,0,0.5,0,0.8l-0.2,0c0-0.4-0.1-0.7-0.6-0.7h-0.8v1.6c0,0.5,0.4,0.5,0.9,0.5c0.9,0,1.2-0.1,1.4-0.9l0.2,0
		c-0.1,0.4-0.2,0.7-0.2,1.1c-0.5,0-1.3,0-1.9,0c-0.6,0-1.5,0-1.9,0V22.3z"/>
	<path class="st14" d="M534.1,22.6c-0.5,0-1.3,0-1.9,0c-0.6,0-1.5,0-1.9,0h0v0v-0.2v0h0h0.1c0.3,0,0.5,0,0.5-0.4v-3.7
		c0-0.3-0.2-0.4-0.5-0.4h-0.1v0v-0.2h0c0.4,0,1.2,0,1.8,0c0.6,0,1.3,0,1.8,0h0v0c0,0.1,0,0.2,0,0.4c0,0.2,0,0.5,0,0.7v0l0,0
		l-0.2,0.1l0,0c0-0.5-0.1-0.8-0.8-0.8h-1v1.8h0.8c0.4,0,0.5-0.2,0.5-0.6l0,0h0h0.2v0c0,0.3,0,0.6,0,0.8c0,0.3,0,0.5,0,0.8v0l0,0
		l-0.2,0l0,0c0-0.4-0.1-0.7-0.5-0.7l-0.8,0v1.6c0,0.4,0.4,0.4,0.8,0.4c0.9,0,1.2,0,1.4-0.8l0,0l0,0l0.2,0.1l0,0
		C534.3,21.8,534.2,22.2,534.1,22.6L534.1,22.6L534.1,22.6z M534.1,22.5c0.1-0.4,0.1-0.7,0.2-1.1l-0.1,0c-0.2,0.8-0.6,0.9-1.5,0.9
		c-0.4,0-0.9,0-0.9-0.5v-1.7h0.9c0.5,0,0.5,0.3,0.6,0.7l0.2,0c0-0.3,0-0.5,0-0.8c0-0.3,0-0.5,0-0.8h-0.2c0,0.4-0.2,0.6-0.6,0.6h-0.9
		v-1.9h1c0.7,0,0.9,0.4,0.9,0.8l0.2,0c0-0.2,0-0.5,0-0.7c0-0.1,0-0.2,0-0.3c-0.5,0-1.2,0-1.8,0c-0.6,0-1.3,0-1.7,0v0.2h0.1
		c0.3,0,0.6,0,0.6,0.4v3.7c0,0.4-0.3,0.4-0.6,0.4h-0.1v0.1c0.4,0,1.2,0,1.9,0C532.8,22.5,533.6,22.5,534.1,22.5"/>
	<path class="st14" d="M535.3,18.3c0-0.5-0.3-0.5-0.5-0.5h-0.1v-0.2c0.2,0,0.7,0,1.1,0c0.4,0,0.8,0,1.1,0c0.9,0,1.7,0.2,1.7,1.2
		c0,0.6-0.4,1-1,1.2l1.2,1.8c0.2,0.3,0.3,0.4,0.7,0.4v0.2c-0.2,0-0.5,0-0.7,0c-0.2,0-0.4,0-0.7,0c-0.5-0.7-1-1.5-1.5-2.3h-0.5v1.5
		c0,0.5,0.3,0.6,0.6,0.6h0.1v0.2c-0.4,0-0.8,0-1.2,0c-0.3,0-0.7,0-1,0v-0.2h0.1c0.3,0,0.5-0.1,0.5-0.4V18.3z M536.2,20h0.3
		c0.7,0,1.1-0.3,1.1-1.1c0-0.6-0.4-1-1-1c-0.2,0-0.3,0-0.4,0V20z"/>
	<path class="st14" d="M539.5,22.6c-0.2,0-0.5,0-0.7,0c-0.2,0-0.4,0-0.7,0c-0.5-0.7-1-1.5-1.5-2.3h-0.4v1.5c0,0.5,0.2,0.5,0.5,0.5
		h0.2v0v0.2h0c-0.4,0-0.8,0-1.2,0c-0.3,0-0.7,0-1,0h0v0v-0.2h0h0.1c0.3,0,0.5-0.1,0.5-0.4v-3.6c0-0.5-0.3-0.5-0.5-0.5h-0.2v0v-0.2h0
		c0.2,0,0.7,0,1.1,0c0.4,0,0.8,0,1.1,0c0.9,0,1.7,0.2,1.7,1.3c0,0.6-0.4,1-1,1.3l1.2,1.8c0.2,0.3,0.3,0.4,0.7,0.4l0,0v0L539.5,22.6
		L539.5,22.6z M536.2,20.2h0.5l0,0c0.5,0.8,0.9,1.6,1.4,2.3c0.2,0,0.4,0,0.7,0c0.2,0,0.4,0,0.7,0v-0.2c-0.3,0-0.5-0.1-0.7-0.4
		l-1.2-1.8l0,0c0.6-0.2,1-0.6,1-1.2c0-1-0.8-1.2-1.7-1.2c-0.4,0-0.7,0-1.1,0c-0.4,0-0.8,0-1.1,0v0.2h0.1c0.2,0,0.5,0,0.5,0.6v3.6
		c0,0.3-0.3,0.4-0.5,0.4h-0.1v0.1c0.3,0,0.7,0,1,0c0.4,0,0.8,0,1.2,0v-0.1h-0.1c-0.3,0-0.6,0-0.6-0.6L536.2,20.2L536.2,20.2z
		 M536.2,20L536.2,20l0-2.2l0,0c0.1,0,0.2,0,0.4,0c0.6,0,1.1,0.4,1.1,1.1c0,0.8-0.4,1.1-1.1,1.1H536.2z M536.6,19.9
		c0.7,0,1.1-0.2,1.1-1.1c0-0.6-0.4-1-1-1c-0.2,0-0.3,0-0.4,0v2H536.6z"/>
	<path class="st14" d="M544.3,21.1L544.3,21.1l0-2.7c0-0.6-0.4-0.7-0.6-0.7h-0.2v-0.2c0.3,0,0.7,0,1,0c0.3,0,0.6,0,0.9,0v0.2h-0.1
		c-0.3,0-0.6,0.1-0.6,0.9v3.2c0,0.2,0,0.5,0,0.7h-0.3l-3.6-4.1v2.9c0,0.6,0.1,0.8,0.7,0.8h0.1v0.2c-0.3,0-0.6,0-0.9,0
		c-0.3,0-0.6,0-1,0v-0.2h0.1c0.5,0,0.6-0.3,0.6-0.9v-3c0-0.4-0.3-0.6-0.6-0.6h-0.1v-0.2c0.3,0,0.5,0,0.8,0c0.2,0,0.4,0,0.6,0
		L544.3,21.1z"/>
	<path class="st14" d="M544.7,22.7l-0.3,0l-3.6-4v2.8c0,0.6,0.1,0.8,0.6,0.8h0.2v0v0.2h0c-0.3,0-0.6,0-0.9,0c-0.3,0-0.6,0-1,0h0v0
		v-0.2h0h0.1c0.5,0,0.6-0.3,0.6-0.9v-3c0-0.4-0.3-0.6-0.6-0.6h-0.1v0v-0.2h0c0.3,0,0.5,0,0.8,0c0.2,0,0.4,0,0.6,0l3.1,3.5v-2.6
		c0-0.6-0.4-0.6-0.6-0.6h-0.2v0v-0.2h0c0.3,0,0.7,0,1,0c0.3,0,0.6,0,0.9,0h0v0v0.2h0h-0.1c-0.3,0-0.6,0-0.6,0.9v3.2
		C544.7,22.2,544.7,22.4,544.7,22.7L544.7,22.7L544.7,22.7z M544.4,22.6h0.2c0-0.2,0-0.4,0-0.7v-3.2c0-0.8,0.4-0.9,0.7-0.9h0.1v-0.2
		c-0.3,0-0.6,0-0.8,0c-0.3,0-0.6,0-1,0v0.2h0.1c0.2,0,0.6,0.1,0.6,0.7l0,2.7l0,0l0,0l-3.1-3.6c-0.2,0-0.4,0-0.6,0
		c-0.3,0-0.5,0-0.8,0v0.2h0.1c0.3,0,0.7,0.3,0.7,0.7v3c0,0.6-0.2,0.9-0.7,0.9h-0.1v0.1c0.3,0,0.6,0,0.9,0c0.3,0,0.6,0,0.9,0v-0.1
		h-0.1c-0.6,0-0.7-0.2-0.7-0.9v-3L544.4,22.6z M544.3,21.1L544.3,21.1L544.3,21.1z M544.3,21.1L544.3,21.1L544.3,21.1L544.3,21.1z"
		/>
	<path class="st14" d="M546.5,21.5c-0.1,0.2-0.2,0.4-0.2,0.6c0,0.2,0.3,0.2,0.5,0.2h0.1v0.2c-0.3,0-0.6,0-0.9,0c-0.3,0-0.5,0-0.8,0
		v-0.2h0c0.3,0,0.5-0.2,0.6-0.5l1.1-3.2c0.1-0.3,0.2-0.6,0.3-0.9c0.2-0.1,0.5-0.2,0.6-0.3c0,0,0,0,0.1,0c0,0,0,0,0,0
		c0,0.1,0,0.1,0.1,0.2l1.3,3.7c0.1,0.2,0.2,0.5,0.3,0.7c0.1,0.2,0.2,0.3,0.5,0.3h0v0.2c-0.3,0-0.6,0-1,0c-0.3,0-0.7,0-1.1,0v-0.2
		h0.1c0.2,0,0.4,0,0.4-0.2c0-0.1-0.1-0.3-0.1-0.5l-0.3-0.8h-1.6L546.5,21.5z M547.6,18.4L547.6,18.4l-0.7,2h1.3L547.6,18.4z"/>
	<path class="st14" d="M550.3,22.6c-0.3,0-0.6,0-1,0c-0.3,0-0.7,0-1.1,0l0,0v0v-0.2h0h0.1c0.2,0,0.4,0,0.4-0.2
		c0-0.1-0.1-0.3-0.1-0.5l-0.3-0.8h-1.6l-0.2,0.7c-0.1,0.2-0.2,0.4-0.2,0.5c0,0.2,0.3,0.2,0.5,0.2h0.1v0v0.2l0,0c-0.3,0-0.6,0-0.9,0
		c-0.3,0-0.5,0-0.8,0l0,0v0v-0.2h0h0c0.3,0,0.5-0.2,0.6-0.4l1.1-3.2c0.1-0.3,0.2-0.6,0.3-0.9c0.2-0.1,0.5-0.2,0.6-0.3c0,0,0,0,0.1,0
		c0,0,0.1,0,0.1,0c0,0.1,0,0.1,0.1,0.2l1.3,3.7c0.1,0.2,0.2,0.5,0.3,0.7c0.1,0.2,0.2,0.3,0.4,0.3h0.1v0L550.3,22.6L550.3,22.6z
		 M548.3,22.5c0.3,0,0.7,0,1,0c0.3,0,0.6,0,0.9,0v-0.1h0c-0.2,0-0.4-0.1-0.5-0.3c-0.1-0.2-0.2-0.5-0.3-0.7l-1.3-3.7
		c0-0.1,0-0.1-0.1-0.2c0,0,0,0,0,0h0c0,0,0,0,0,0c-0.1,0.1-0.4,0.2-0.6,0.3c0,0.3-0.2,0.6-0.3,0.9l-1.1,3.2
		c-0.1,0.3-0.4,0.5-0.6,0.5h0v0.1c0.2,0,0.5,0,0.7,0c0.3,0,0.6,0,0.8,0v-0.1h0c-0.2,0-0.6,0-0.6-0.3c0-0.1,0.1-0.3,0.2-0.6l0,0l0,0
		l0.2-0.8h1.6l0.3,0.8c0.1,0.2,0.1,0.4,0.1,0.5c0,0.2-0.3,0.2-0.5,0.2h0V22.5z M546.9,20.4l0.7-2.1h0h0v0l0,0l0,0v0h0l0.7,2.1H546.9
		z M546.9,20.4h1.2l-0.6-1.9L546.9,20.4z M547.5,18.4L547.5,18.4L547.5,18.4z"/>
	<path class="st14" d="M550.6,17.9c-0.5,0-0.6,0.1-0.7,0.6h-0.2c0-0.2,0.1-0.4,0.1-0.6c0-0.2,0-0.4,0-0.6h0.2
		c0.1,0.2,0.2,0.2,0.4,0.2h3.7c0.2,0,0.4,0,0.4-0.2l0.2,0c0,0.2-0.1,0.4-0.1,0.6c0,0.2,0,0.4,0,0.6l-0.2,0.1c0-0.3,0-0.7-0.5-0.7
		h-1.2v3.8c0,0.5,0.2,0.6,0.6,0.6h0.1v0.2c-0.3,0-0.8,0-1.2,0c-0.4,0-0.9,0-1.2,0v-0.2h0.1c0.4,0,0.6,0,0.6-0.6v-3.8H550.6z"/>
	<path class="st14" d="M553.4,22.6c-0.3,0-0.8,0-1.2,0c-0.4,0-0.9,0-1.2,0h0v0v-0.2h0h0.1c0.4,0,0.5,0,0.6-0.6V18h-1.1v0v0h1.2v3.8
		c0,0.6-0.2,0.6-0.6,0.6h-0.1v0.2c0.3,0,0.8,0,1.2,0C552.6,22.5,553.1,22.5,553.4,22.6l0-0.2h-0.1c-0.3,0-0.6-0.1-0.6-0.6v-3.8h1.2
		c0.5,0,0.5,0.4,0.6,0.7l0.2-0.1c0-0.2,0-0.4,0-0.6c0-0.2,0-0.4,0.1-0.5l-0.1,0c0,0.2-0.2,0.2-0.4,0.2h-3.7h0c-0.2,0-0.3,0-0.4-0.2
		h-0.1c0,0.2,0,0.4,0,0.6c0,0.2-0.1,0.4-0.1,0.6h0.2c0.1-0.5,0.2-0.7,0.7-0.6v0v0c-0.5,0-0.5,0.1-0.6,0.6l0,0h0h-0.2l0,0
		c0-0.2,0.1-0.4,0.1-0.6c0-0.2,0-0.4,0-0.6v0h0h0.2l0,0c0,0.2,0.2,0.2,0.4,0.2h0h3.7c0.2,0,0.3,0,0.4-0.2l0,0l0,0l0.2,0l0,0
		c0,0.2-0.1,0.4-0.1,0.6c0,0.2,0,0.4,0,0.6v0l0,0l-0.3,0.1v0c0-0.3,0-0.7-0.5-0.7h-1.1v3.7c0,0.5,0.2,0.6,0.6,0.6h0.2v0L553.4,22.6
		L553.4,22.6z"/>
	<path class="st14" d="M554.9,22.3L554.9,22.3c0.4,0,0.6,0,0.6-0.4v-3.7c0-0.4-0.3-0.4-0.5-0.4h-0.1v-0.2c0.3,0,0.7,0,1,0
		c0.4,0,0.8,0,1.1,0v0.2H557c-0.3,0-0.5,0-0.5,0.4v3.7c0,0.4,0.3,0.4,0.5,0.4h0.1v0.2c-0.3,0-0.8,0-1.1,0c-0.3,0-0.8,0-1,0V22.3z"/>
	<path class="st14" d="M557.1,22.6c-0.3,0-0.8,0-1.1,0c-0.3,0-0.8,0-1,0h0v0v-0.2v0h0h0.1c0.3,0,0.5,0,0.5-0.4v-3.7
		c0-0.3-0.2-0.4-0.5-0.4h-0.1v0v-0.2h0c0.3,0,0.7,0,1,0c0.4,0,0.8,0,1.1,0h0v0v0.2h0H557c-0.3,0-0.5,0-0.5,0.4v3.7
		c0,0.3,0.2,0.4,0.5,0.4h0.1v0L557.1,22.6L557.1,22.6z M557.1,22.5v-0.1H557c-0.3,0-0.6,0-0.6-0.4v-3.7c0-0.4,0.3-0.4,0.6-0.4h0.1
		v-0.2c-0.3,0-0.7,0-1.1,0c-0.3,0-0.7,0-1,0v0.2h0.1c0.3,0,0.6,0,0.6,0.4v3.7c0,0.4-0.3,0.4-0.6,0.4H555v0.1c0.3,0,0.7,0,1,0
		C556.3,22.5,556.7,22.5,557.1,22.5"/>
	<path class="st14" d="M559.9,17.5c1.5,0,2.7,0.9,2.7,2.4c0,1.6-1.2,2.7-2.7,2.7c-1.5,0-2.6-1-2.6-2.5
		C557.3,18.6,558.5,17.5,559.9,17.5 M560,22.3c1.4,0,1.6-1.2,1.6-2.2c0-1-0.6-2.3-1.7-2.3c-1.2,0-1.6,1.1-1.6,2
		C558.3,21.1,558.9,22.3,560,22.3"/>
	<path class="st14" d="M557.3,20.1c0-1.5,1.2-2.6,2.6-2.6v0v0C558.5,17.5,557.3,18.6,557.3,20.1c0.1,1.5,1.2,2.5,2.7,2.5
		c1.5,0,2.6-1.1,2.6-2.7c0-1.5-1.2-2.4-2.7-2.4v0v0c1.5,0,2.7,0.9,2.7,2.5c0,1.6-1.2,2.7-2.7,2.7C558.4,22.7,557.3,21.6,557.3,20.1
		 M558.3,19.8c0-1,0.4-2.1,1.6-2.1c1.2,0,1.8,1.3,1.8,2.3c0,1-0.2,2.3-1.6,2.3v0v0c1.3,0,1.6-1.2,1.6-2.2c0-1-0.6-2.3-1.7-2.3
		C558.7,17.8,558.3,18.9,558.3,19.8c0.1,1.3,0.6,2.4,1.8,2.4v0v0C558.9,22.3,558.3,21.1,558.3,19.8"/>
	<path class="st14" d="M567.4,21.1L567.4,21.1l0-2.7c0-0.6-0.4-0.7-0.6-0.7h-0.2v-0.2c0.3,0,0.7,0,1,0c0.3,0,0.6,0,0.9,0v0.2h-0.1
		c-0.3,0-0.6,0.1-0.6,0.9v3.2c0,0.2,0,0.5,0,0.7h-0.3l-3.6-4.1v2.9c0,0.6,0.1,0.8,0.7,0.8h0.1v0.2c-0.3,0-0.6,0-0.9,0
		c-0.3,0-0.6,0-1,0v-0.2h0.1c0.5,0,0.6-0.3,0.6-0.9v-3c0-0.4-0.3-0.6-0.6-0.6h-0.1v-0.2c0.3,0,0.5,0,0.8,0c0.2,0,0.4,0,0.6,0
		L567.4,21.1z"/>
	<path class="st14" d="M567.8,22.7l-0.3,0l-3.6-4v2.8c0,0.6,0.1,0.8,0.6,0.8h0.2v0v0.2h0c-0.3,0-0.6,0-0.9,0c-0.3,0-0.6,0-1,0h0v0
		v-0.2h0h0.1c0.5,0,0.6-0.3,0.6-0.9v-3c0-0.4-0.3-0.6-0.6-0.6h-0.1v0v-0.2h0c0.3,0,0.5,0,0.8,0c0.2,0,0.4,0,0.7,0l3.1,3.5v-2.6
		c0-0.6-0.4-0.6-0.6-0.6h-0.2v0v-0.2h0c0.3,0,0.7,0,1,0c0.3,0,0.6,0,0.9,0h0v0v0.2h0h-0.1c-0.3,0-0.6,0-0.6,0.9v3.2
		C567.8,22.2,567.8,22.4,567.8,22.7L567.8,22.7L567.8,22.7z M567.5,22.6h0.2c0-0.2,0-0.4,0-0.7v-3.2c0-0.8,0.4-0.9,0.7-0.9h0.1v-0.2
		c-0.3,0-0.6,0-0.8,0c-0.3,0-0.6,0-1,0v0.2h0.1c0.2,0,0.6,0.1,0.6,0.7l0,2.7l0,0l0,0l-3.1-3.6c-0.2,0-0.4,0-0.6,0
		c-0.3,0-0.5,0-0.8,0v0.2h0.1c0.3,0,0.7,0.3,0.7,0.7v3c0,0.6-0.2,0.9-0.7,0.9h-0.1v0.1c0.3,0,0.6,0,0.9,0c0.3,0,0.6,0,0.9,0v-0.1
		h-0.1c-0.6,0-0.7-0.2-0.7-0.9v-3L567.5,22.6z M567.4,21.1L567.4,21.1L567.4,21.1z M567.4,21.1L567.4,21.1L567.4,21.1L567.4,21.1z"
		/>
	<path class="st14" d="M569.6,21.5c-0.1,0.2-0.2,0.4-0.2,0.6c0,0.2,0.3,0.2,0.5,0.2h0.1v0.2c-0.3,0-0.6,0-0.9,0c-0.3,0-0.5,0-0.8,0
		v-0.2h0c0.3,0,0.5-0.2,0.6-0.5l1.1-3.2c0.1-0.3,0.2-0.6,0.3-0.9c0.2-0.1,0.5-0.2,0.6-0.3c0,0,0,0,0.1,0c0,0,0,0,0,0
		c0,0.1,0,0.1,0.1,0.2l1.3,3.7c0.1,0.2,0.2,0.5,0.3,0.7c0.1,0.2,0.2,0.3,0.5,0.3h0v0.2c-0.3,0-0.6,0-1,0c-0.3,0-0.7,0-1.1,0v-0.2
		h0.1c0.2,0,0.4,0,0.4-0.2c0-0.1-0.1-0.3-0.1-0.5l-0.3-0.8h-1.6L569.6,21.5z M570.7,18.4L570.7,18.4l-0.7,2h1.3L570.7,18.4z"/>
	<path class="st14" d="M573.4,22.6c-0.3,0-0.6,0-1,0c-0.3,0-0.7,0-1.1,0l0,0v0v-0.2h0h0.1c0.2,0,0.4,0,0.4-0.2
		c0-0.1-0.1-0.3-0.1-0.5l-0.3-0.8h-1.6l-0.2,0.7c-0.1,0.2-0.2,0.4-0.2,0.5c0,0.2,0.3,0.2,0.5,0.2h0.1v0v0.2l0,0c-0.3,0-0.6,0-0.9,0
		c-0.3,0-0.5,0-0.8,0l0,0v0v-0.2h0h0c0.3,0,0.5-0.2,0.6-0.4l1.1-3.2c0.1-0.3,0.2-0.6,0.3-0.9c0.2-0.1,0.5-0.2,0.6-0.3c0,0,0,0,0.1,0
		c0,0,0.1,0,0.1,0c0,0.1,0,0.1,0.1,0.2l1.3,3.7c0.1,0.2,0.2,0.5,0.3,0.7c0.1,0.2,0.2,0.3,0.4,0.3h0.1v0L573.4,22.6L573.4,22.6z
		 M571.4,22.5c0.3,0,0.7,0,1,0c0.3,0,0.6,0,0.9,0v-0.1h0c-0.2,0-0.4-0.1-0.5-0.3c-0.1-0.2-0.2-0.5-0.3-0.7l-1.3-3.7
		c0-0.1,0-0.1-0.1-0.2c0,0,0,0,0,0h0c0,0,0,0,0,0c-0.1,0.1-0.4,0.2-0.6,0.3c0,0.3-0.2,0.6-0.3,0.9l-1.1,3.2
		c-0.1,0.3-0.4,0.5-0.6,0.5h0v0.1c0.2,0,0.5,0,0.7,0c0.3,0,0.6,0,0.8,0v-0.1h0c-0.2,0-0.6,0-0.6-0.3c0-0.1,0.1-0.3,0.2-0.6l0,0l0,0
		l0.2-0.8h1.7l0.3,0.8c0.1,0.2,0.1,0.4,0.1,0.5c0,0.2-0.3,0.2-0.5,0.2h0V22.5z M570,20.4l0.7-2.1h0h0v0l0,0l0,0v0h0l0.7,2.1H570z
		 M570,20.3h1.2l-0.6-1.9L570,20.3z M570.6,18.4L570.6,18.4L570.6,18.4z"/>
	<path class="st14" d="M575.2,21.8c0,0.3,0.2,0.4,0.4,0.4c0.3,0,0.6,0,0.9,0c0.3,0,0.6-0.2,0.7-0.4c0.1-0.2,0.2-0.4,0.2-0.5h0.2
		c-0.1,0.4-0.2,0.8-0.3,1.2c-0.6,0-1.2,0-1.9,0c-0.6,0-1.2,0-1.9,0v-0.2h0.1c0.3,0,0.5,0,0.5-0.5v-3.6c0-0.4-0.3-0.4-0.5-0.4h-0.1
		v-0.2c0.4,0,0.7,0,1.1,0c0.4,0,0.7,0,1.1,0v0.2h-0.2c-0.3,0-0.5,0-0.5,0.4V21.8z"/>
	<path class="st14" d="M577.4,22.6c-0.6,0-1.2,0-1.9,0c-0.6,0-1.2,0-1.9,0h0v0v-0.2h0h0.1c0.3,0,0.5,0,0.5-0.4v-3.6
		c0-0.3-0.2-0.4-0.5-0.4h-0.1v0v-0.2h0c0.4,0,0.7,0,1.1,0c0.4,0,0.7,0,1.1,0h0v0v0.2h0h-0.2c-0.3,0-0.4,0-0.5,0.4v3.6
		c0,0.3,0.2,0.3,0.4,0.4c0.1,0,0.3,0,0.4,0c0.2,0,0.4,0,0.5,0c0.3,0,0.5-0.2,0.7-0.4c0.1-0.2,0.2-0.3,0.2-0.5l0,0h0h0.2l0,0
		C577.6,21.7,577.5,22.1,577.4,22.6L577.4,22.6L577.4,22.6z M577.4,22.5c0.1-0.4,0.2-0.8,0.2-1.1h-0.1c0,0.2-0.1,0.3-0.2,0.5
		c-0.1,0.2-0.4,0.4-0.7,0.4c-0.2,0-0.4,0-0.5,0c-0.1,0-0.3,0-0.4,0c-0.2,0-0.5-0.1-0.5-0.4v-3.6c0-0.4,0.2-0.4,0.5-0.4h0.1v-0.2
		c-0.3,0-0.7,0-1,0c-0.4,0-0.7,0-1.1,0v0.2h0.1c0.3,0,0.6,0,0.6,0.4v3.6c0,0.5-0.3,0.5-0.6,0.5h-0.1v0.1c0.6,0,1.2,0,1.8,0
		C576.1,22.5,576.8,22.5,577.4,22.5"/>
	<path class="st14" d="M577.6,17.4c0.4,0,0.7,0.3,0.7,0.7c0,0.4-0.3,0.7-0.7,0.7c-0.4,0-0.7-0.3-0.7-0.7
		C576.8,17.7,577.1,17.4,577.6,17.4 M577.6,18.7c0.3,0,0.6-0.3,0.6-0.6c0-0.3-0.3-0.6-0.6-0.6c-0.3,0-0.6,0.3-0.6,0.6
		C577,18.5,577.2,18.7,577.6,18.7 M577.2,18.5L577.2,18.5c0.1,0,0.1,0,0.1-0.1v-0.6c0-0.1,0-0.1-0.1-0.1v0h0.4
		c0.1,0,0.3,0.1,0.3,0.2c0,0.1-0.1,0.2-0.2,0.2l0.1,0.2c0.1,0.1,0.1,0.1,0.2,0.2v0h-0.1c-0.1,0-0.1-0.1-0.3-0.3h-0.1v0.2
		c0,0.1,0,0,0.1,0.1v0H577.2z M577.5,18.1L577.5,18.1c0.2,0,0.2-0.1,0.2-0.2c0-0.1-0.1-0.2-0.1-0.2h-0.1V18.1z"/>
	<path class="st15" d="M498,26.5c-6.8,0-12.5-5.5-12.5-12.3c0-7.4,5.6-12.5,12.5-12.5h3.2c6.8,0,12.9,5.1,12.9,12.5
		c0,6.7-6.2,12.3-12.9,12.3H498z M498,2.8c-6.2,0-11.3,5.1-11.3,11.3c0,6.2,5.1,11.3,11.3,11.3c6.2,0,11.3-5.1,11.3-11.3
		C509.3,7.9,504.3,2.8,498,2.8 M495.4,20.8V7.4c-2.7,1-4.6,3.6-4.6,6.7C490.8,17.2,492.7,19.8,495.4,20.8 M505.2,14.1
		c0-3.1-1.9-5.7-4.6-6.7v13.4C503.3,19.8,505.2,17.2,505.2,14.1"/>
</g>
<g id="XMLID_1_">
	<g id="XMLID_13_">
		<path id="XMLID_65_" class="st16" d="M92.4,21.9h0.4l-0.4,1.7c-0.1,0.2,0,0.4,0,0.6c0.1,0.1,0.2,0.2,0.5,0.2
			c0.2,0,0.4-0.1,0.5-0.2c0.1-0.1,0.2-0.3,0.3-0.6l0.4-1.7h0.4l-0.4,1.7c-0.1,0.4-0.2,0.6-0.5,0.8c-0.2,0.2-0.5,0.3-0.9,0.3
			c-0.4,0-0.6-0.1-0.8-0.3c-0.1-0.2-0.2-0.5-0.1-0.8L92.4,21.9z"/>
		<path id="XMLID_63_" class="st16" d="M94.5,24.6l0.7-2.8l1.3,1.7c0,0,0.1,0.1,0.1,0.1c0,0.1,0.1,0.1,0.1,0.2l0.5-1.9h0.4l-0.7,2.8
			L95.6,23c0,0-0.1-0.1-0.1-0.1c0-0.1-0.1-0.1-0.1-0.2l-0.5,1.9L94.5,24.6L94.5,24.6z"/>
		<path id="XMLID_61_" class="st16" d="M97.5,24.6l0.7-2.7h0.4L98,24.6H97.5z"/>
		<path id="XMLID_59_" class="st16" d="M98.6,24.6l0.7-2.7h1.5l-0.1,0.4h-1.1L99.4,23h1.1l-0.1,0.4h-1.1L99,24.6L98.6,24.6
			L98.6,24.6z"/>
		<path id="XMLID_57_" class="st16" d="M100.5,24.6l0.7-2.7h0.4l-0.7,2.7H100.5z"/>
		<path id="XMLID_55_" class="st16" d="M101.6,24.6l0.7-2.7h1.5l-0.1,0.4h-1.1l-0.2,0.7h1.1l-0.1,0.4h-1.1l-0.2,0.9h1.1l-0.1,0.4
			L101.6,24.6L101.6,24.6z"/>
		<path id="XMLID_52_" class="st16" d="M103.6,24.6l0.7-2.7h0.6c0.4,0,0.6,0,0.8,0.1c0.1,0,0.3,0.1,0.4,0.2c0.1,0.1,0.2,0.3,0.2,0.5
			c0,0.2,0,0.4,0,0.6c-0.1,0.2-0.1,0.5-0.3,0.6s-0.3,0.3-0.5,0.5c-0.1,0.1-0.3,0.2-0.4,0.2c-0.2,0-0.4,0.1-0.7,0.1h-0.1L103.6,24.6
			L103.6,24.6z M104.1,24.2h0.4c0.2,0,0.4,0,0.5,0c0.1,0,0.2-0.1,0.3-0.1c0.1-0.1,0.2-0.2,0.3-0.3c0.1-0.1,0.1-0.3,0.2-0.5
			c0-0.2,0.1-0.3,0-0.5c0-0.1-0.1-0.2-0.1-0.3c-0.1-0.1-0.1-0.1-0.2-0.1c-0.1,0-0.3,0-0.5,0h-0.2h-0.2L104.1,24.2z"/>
		<path id="XMLID_49_" class="st16" d="M108.2,23.4l-0.3,1.2h-0.4l0.7-2.7h0.7c0.2,0,0.3,0,0.4,0c0.1,0,0.2,0.1,0.2,0.1
			c0.1,0.1,0.1,0.1,0.1,0.3c0,0.1,0,0.2,0,0.4c0,0.1-0.1,0.3-0.2,0.4c-0.1,0.1-0.2,0.2-0.3,0.3c-0.1,0-0.2,0.1-0.3,0.1
			c-0.1,0-0.2,0-0.4,0h-0.1L108.2,23.4L108.2,23.4z M108.3,23h0.1c0.2,0,0.4,0,0.5-0.1c0.1-0.1,0.2-0.1,0.2-0.3c0-0.1,0-0.3-0.1-0.3
			c-0.1-0.1-0.2-0.1-0.4-0.1h-0.1L108.3,23z"/>
		<path id="XMLID_46_" class="st16" d="M111,24.6l-0.1-0.7h-1.1l-0.5,0.7h-0.5l2-2.8l0.6,2.8H111z M110.1,23.6h0.7l-0.1-0.6
			c0,0,0-0.1,0-0.1c0-0.1,0-0.1,0-0.2c0,0.1-0.1,0.1-0.1,0.2c0,0.1-0.1,0.1-0.1,0.1L110.1,23.6z"/>
		<path id="XMLID_44_" class="st16" d="M112.1,24.6l0.3-1.2l-0.5-1.5h0.5l0.3,0.9c0,0,0,0.1,0,0.1s0,0.1,0,0.1c0,0,0.1-0.1,0.1-0.1
			c0,0,0.1-0.1,0.1-0.1l0.8-0.9h0.4l-1.3,1.5l-0.3,1.2L112.1,24.6L112.1,24.6z"/>
		<path id="XMLID_42_" class="st16" d="M116.2,23.3c0,0,0-0.1,0-0.2c0-0.1,0-0.1,0-0.2c0,0.1-0.1,0.1-0.1,0.2c0,0.1-0.1,0.1-0.1,0.2
			l-1,1.5l-0.3-1.5c0-0.1,0-0.1,0-0.2c0-0.1,0-0.1,0-0.2c0,0.1,0,0.1-0.1,0.2c0,0.1,0,0.1-0.1,0.2l-0.6,1.3h-0.4l1.3-2.9l0.4,1.7
			c0,0,0,0.1,0,0.1c0,0.1,0,0.1,0,0.2c0-0.1,0.1-0.2,0.2-0.3c0,0,0-0.1,0-0.1l1.2-1.7l0,2.9h-0.4L116.2,23.3z"/>
		<path id="XMLID_40_" class="st16" d="M116.9,24.6l0.7-2.7h1.5l-0.1,0.4h-1.1l-0.2,0.7h1.1l-0.1,0.4h-1.1l-0.2,0.9h1.1l-0.1,0.4
			L116.9,24.6L116.9,24.6z"/>
		<path id="XMLID_38_" class="st16" d="M118.9,24.6l0.7-2.8l1.3,1.7c0,0,0.1,0.1,0.1,0.1c0,0.1,0.1,0.1,0.1,0.2l0.5-1.9h0.4
			l-0.7,2.8L120,23c0,0-0.1-0.1-0.1-0.1c0-0.1-0.1-0.1-0.1-0.2l-0.5,1.9L118.9,24.6L118.9,24.6z"/>
		<path id="XMLID_36_" class="st16" d="M123.4,22.3l-0.6,2.4h-0.4l0.6-2.4h-0.7l0.1-0.4h1.8l-0.1,0.4H123.4z"/>
		<path id="XMLID_34_" class="st16" d="M123.8,24.1l0.4-0.2c0,0.1,0,0.2,0.1,0.3s0.2,0.1,0.3,0.1c0.1,0,0.2,0,0.3-0.1
			s0.2-0.2,0.2-0.3c0-0.2-0.1-0.3-0.3-0.4c0,0-0.1,0-0.1,0c-0.3-0.1-0.4-0.3-0.5-0.4s-0.1-0.3,0-0.4c0.1-0.2,0.2-0.4,0.4-0.5
			c0.2-0.1,0.4-0.2,0.6-0.2c0.2,0,0.4,0,0.5,0.1c0.1,0.1,0.2,0.2,0.2,0.3l-0.4,0.2c0-0.1-0.1-0.1-0.1-0.2c-0.1,0-0.1-0.1-0.2-0.1
			c-0.1,0-0.2,0-0.3,0.1c-0.1,0.1-0.1,0.1-0.2,0.3c0,0.2,0.1,0.3,0.3,0.5c0,0,0,0,0,0c0.2,0.1,0.4,0.2,0.5,0.4s0.1,0.3,0,0.4
			c-0.1,0.3-0.2,0.5-0.4,0.6c-0.2,0.1-0.4,0.2-0.7,0.2c-0.2,0-0.4-0.1-0.5-0.2C123.9,24.4,123.8,24.3,123.8,24.1z"/>
		<path id="XMLID_32_" class="st16" d="M127,24.6l0.7-2.7h0.4l-0.7,2.7H127z"/>
		<path id="XMLID_30_" class="st16" d="M128.1,24.6l0.7-2.8l1.3,1.7c0,0,0.1,0.1,0.1,0.1c0,0.1,0.1,0.1,0.1,0.2l0.5-1.9h0.4
			l-0.7,2.8l-1.3-1.7c0,0-0.1-0.1-0.1-0.1c0-0.1-0.1-0.1-0.1-0.2l-0.5,1.9L128.1,24.6L128.1,24.6z"/>
		<path id="XMLID_28_" class="st16" d="M132.5,22.3l-0.6,2.4h-0.4l0.6-2.4h-0.7l0.1-0.4h1.8l-0.1,0.4H132.5z"/>
		<path id="XMLID_26_" class="st16" d="M133,24.6l0.7-2.7h1.5l-0.1,0.4H134l-0.2,0.7h1.1l-0.1,0.4h-1.1l-0.2,0.9h1.1l-0.1,0.4
			L133,24.6L133,24.6z"/>
		<path id="XMLID_23_" class="st16" d="M135.6,23.4l-0.3,1.2h-0.4l0.7-2.7h0.6c0.2,0,0.3,0,0.4,0c0.1,0,0.2,0.1,0.2,0.1
			c0.1,0.1,0.1,0.1,0.1,0.3c0,0.1,0,0.2,0,0.3c-0.1,0.2-0.1,0.4-0.3,0.5c-0.1,0.1-0.3,0.2-0.5,0.2l0.6,1.2h-0.5L135.6,23.4
			L135.6,23.4z M135.7,23.1L135.7,23.1c0.3,0,0.5,0,0.6-0.1c0.1-0.1,0.1-0.1,0.2-0.3c0-0.1,0-0.3,0-0.3c-0.1-0.1-0.2-0.1-0.4-0.1
			h-0.1L135.7,23.1z"/>
		<path id="XMLID_21_" class="st16" d="M137,24.6l0.7-2.7h1.5l-0.1,0.4H138l-0.2,0.7h1.1l-0.1,0.4h-1.1l-0.3,1.3L137,24.6L137,24.6z
			"/>
		<path id="XMLID_18_" class="st16" d="M140.6,24.6l-0.1-0.7h-1.1l-0.5,0.7h-0.5l2-2.8l0.6,2.8H140.6z M139.7,23.6h0.7l-0.1-0.6
			c0,0,0-0.1,0-0.1c0-0.1,0-0.1,0-0.2c0,0.1-0.1,0.1-0.1,0.2c0,0.1-0.1,0.1-0.1,0.1L139.7,23.6z"/>
		<path id="XMLID_16_" class="st16" d="M143.9,22.6c-0.1-0.1-0.2-0.2-0.3-0.2c-0.1-0.1-0.3-0.1-0.4-0.1c-0.3,0-0.6,0.1-0.8,0.3
			c-0.2,0.2-0.4,0.4-0.5,0.7c-0.1,0.3,0,0.5,0.1,0.7c0.1,0.2,0.3,0.3,0.6,0.3c0.2,0,0.3,0,0.5-0.1c0.2-0.1,0.3-0.1,0.5-0.3l-0.1,0.5
			c-0.1,0.1-0.3,0.1-0.4,0.2c-0.1,0-0.3,0.1-0.5,0.1c-0.2,0-0.4,0-0.5-0.1c-0.2-0.1-0.3-0.2-0.4-0.3c-0.1-0.1-0.2-0.3-0.2-0.5
			c0-0.2,0-0.4,0-0.6c0-0.2,0.1-0.4,0.2-0.6s0.3-0.3,0.4-0.5c0.2-0.1,0.3-0.2,0.5-0.3c0.2-0.1,0.4-0.1,0.6-0.1c0.2,0,0.3,0,0.4,0.1
			c0.1,0,0.3,0.1,0.4,0.2L143.9,22.6z"/>
		<path id="XMLID_14_" class="st16" d="M143.9,24.6l0.7-2.7h1.5l-0.1,0.4h-1.1l-0.2,0.7h1.1l-0.1,0.4h-1.1l-0.2,0.9h1.1l-0.1,0.4
			H143.9z"/>
	</g>
	<g id="XMLID_2_">
		<g id="XMLID_6_">
			<path id="XMLID_11_" class="st17" d="M136,19.5h-3l4.1-15h3L136,19.5z"/>
			<g id="XMLID_9_">
				<path id="XMLID_10_" class="st17" d="M134.5,5c-0.2-0.3-0.5-0.4-1-0.4h-16.4l-0.8,2.9h3l0,0h11.9l-0.9,3.1h-11.9v0h-3l-2.5,8.9
					h3l1.7-6H131c0.4,0,0.8-0.1,1.2-0.4s0.6-0.6,0.7-1.1l1.7-6C134.7,5.7,134.7,5.3,134.5,5z"/>
			</g>
			<path id="XMLID_7_" class="st17" d="M111.3,18.6c-0.2,0.6-0.7,1-1.3,1H94.6c-0.4,0-0.7-0.1-0.9-0.4c-0.2-0.3-0.3-0.6-0.1-1.1
				l3.7-13.5h3l-3.3,12.1h11.9l3.3-12.1h3L111.3,18.6z"/>
		</g>
		<g id="XMLID_3_">
			<polygon id="XMLID_5_" class="st18" points="145.3,4.6 149.1,12.1 141.2,19.6 			"/>
			<polygon id="XMLID_4_" class="st19" points="142.7,4.6 146.4,12.1 138.5,19.6 			"/>
		</g>
	</g>
</g>
</svg>
