<?xml version="1.0" encoding="UTF-8"?>
<svg id="uuid-d4a8076f-b6d1-43cc-b336-cb1337b9b9b3" data-name="Layer 1" xmlns="http://www.w3.org/2000/svg" width="100" height="100" viewBox="0 0 100 100">
  <defs>
    <style>
      .uuid-e4cd32c1-742a-463f-8331-9d13aef9aeb5 {
        fill: #ee4323;
      }

      .uuid-38a0d566-dfc0-4148-b078-c7a3740f6f33 {
        fill: #f48131;
      }

      .uuid-b0581d8f-f6da-4569-9b04-4fc46a4eb497 {
        fill: #ffcc31;
      }

      .uuid-ac526556-45f4-44cd-87ae-3567d9631c70 {
        fill: #221f1f;
      }

      .uuid-7a976bbf-c62f-4033-aa1d-240cb8835a60 {
        fill: #6d4098;
      }

      .uuid-780842a8-d0b1-463b-b452-691567a1461e {
        fill: #2c92d0;
      }

      .uuid-3bdcbe87-ce6d-4658-9856-96308b296b86 {
        fill: #50b748;
      }
    </style>
  </defs>
  <path class="uuid-ac526556-45f4-44cd-87ae-3567d9631c70" d="M100,49.99994c0,27.61385-22.38535,49.99907-49.99901,49.99907S0,77.61379,0,49.99994,22.38727,.00099,50.00099,.00099s49.99901,22.38522,49.99901,49.99895"/>
  <path class="uuid-e4cd32c1-742a-463f-8331-9d13aef9aeb5" d="M50.58584,35.23695c-8.27865,0-14.99058,6.71187-14.99058,14.99046s6.71193,14.9886,14.99058,14.9886,14.99052-6.70989,14.99052-14.9886-6.71193-14.99046-14.99052-14.99046m0,22.39936c-4.0926,0-7.41095-3.31835-7.41095-7.4089,0-4.09253,3.31835-7.41089,7.41095-7.41089s7.4089,3.31835,7.4089,7.41089c0,4.09055-3.31637,7.4089-7.4089,7.4089"/>
  <path class="uuid-38a0d566-dfc0-4148-b078-c7a3740f6f33" d="M62.84267,6.50809c-3.12128-3.17002-7.45771-5.13908-12.25745-5.13908s-9.13617,1.96906-12.25745,5.13908h24.5149Z"/>
  <path class="uuid-b0581d8f-f6da-4569-9b04-4fc46a4eb497" d="M93.58356,62.21354c3.17002-3.12115,5.13908-7.45765,5.13908-12.25739s-1.96906-9.13611-5.13908-12.25739v24.51477Z"/>
  <path class="uuid-7a976bbf-c62f-4033-aa1d-240cb8835a60" d="M7.02467,37.69951c-3.17008,3.12128-5.13914,7.45777-5.13914,12.25751s1.96906,9.13611,5.13914,12.25739v-24.5149Z"/>
  <path class="uuid-780842a8-d0b1-463b-b452-691567a1461e" d="M38.32883,93.17961c3.12121,3.17014,7.45765,5.1392,12.25739,5.1392s9.13617-1.96906,12.25745-5.1392h-24.51484Z"/>
  <path class="uuid-780842a8-d0b1-463b-b452-691567a1461e" d="M65.11144,15.23839c-3.05015-4.80979-8.40869-8.01242-14.52523-8.01242-6.11859,0-11.47508,3.20264-14.52728,8.01242h29.0525Z"/>
  <path class="uuid-7a976bbf-c62f-4033-aa1d-240cb8835a60" d="M84.85302,64.48213c4.80979-3.05008,8.01242-8.40857,8.01242-14.52511,0-6.11865-3.20264-11.47515-8.01242-14.52523v29.05033Z"/>
  <path class="uuid-b0581d8f-f6da-4569-9b04-4fc46a4eb497" d="M15.75521,35.43093c-4.80991,3.05021-8.01248,8.40869-8.01248,14.52523,0,6.11865,3.20258,11.47515,8.01248,14.52523v-29.05046Z"/>
  <path class="uuid-3bdcbe87-ce6d-4658-9856-96308b296b86" d="M36.06006,84.44894c3.05008,4.80991,8.40863,8.01255,14.52517,8.01255,6.11859,0,11.47508-3.20264,14.52728-8.01255h-29.05244Z"/>
  <path class="uuid-7a976bbf-c62f-4033-aa1d-240cb8835a60" d="M33.51694,74.25252c-4.12311-.24384-7.45368-3.41782-7.93118-7.47588h-8.71349c.51205,8.84353,7.68524,15.8806,16.5857,16.17318l.05898-8.6973Z"/>
  <path class="uuid-38a0d566-dfc0-4148-b078-c7a3740f6f33" d="M74.77033,66.54074c-.24396,4.12317-3.41795,7.45368-7.476,7.93118v8.71355c8.84353-.51211,15.8806-7.68524,16.17318-16.5857l-8.69718-.05904Z"/>
  <path class="uuid-b0581d8f-f6da-4569-9b04-4fc46a4eb497" d="M66.82265,25.11829c4.12305,.24396,7.45355,3.41795,7.93106,7.476h8.71355c-.51211-8.84353-7.68524-15.8806-16.5857-16.17318l-.05891,8.69718Z"/>
  <path class="uuid-e4cd32c1-742a-463f-8331-9d13aef9aeb5" d="M25.56932,32.83007c.24384-4.12305,3.41789-7.45355,7.47594-7.93106v-8.71355c-8.84353,.51211-15.8806,7.68524-16.17324,16.5857l8.6973,.05891Z"/>
  <path class="uuid-b0581d8f-f6da-4569-9b04-4fc46a4eb497" d="M16.23377,18.37864l-.33735,14.06806-8.11202,.29469,.16868-4.13942s2.83068-6.54729,8.28069-10.22334"/>
  <path class="uuid-780842a8-d0b1-463b-b452-691567a1461e" d="M84.38829,18.26627l.33723,14.06806,8.11202,.29469-.16868-4.13942s-2.83068-6.54729-8.28057-10.22334"/>
  <path class="uuid-b0581d8f-f6da-4569-9b04-4fc46a4eb497" d="M84.38829,80.28075l.33723-14.06794,8.11202-.29469-.16868,4.13942s-2.83068,6.54729-8.28057,10.22321"/>
  <path class="uuid-780842a8-d0b1-463b-b452-691567a1461e" d="M16.23377,80.39361l-.33735-14.06794-8.11202-.29469,.16868,4.13942s2.83068,6.54729,8.28069,10.22321"/>
  <path class="uuid-3bdcbe87-ce6d-4658-9856-96308b296b86" d="M19.23313,15.2947s6.33594-7.0553,10.39195-8.10991h4.69004l-.04273,8.10991h-15.03926Z"/>
  <path class="uuid-7a976bbf-c62f-4033-aa1d-240cb8835a60" d="M82.19164,15.52005s-6.33607-7.0553-10.39201-8.11189h-4.69004l.04273,8.11189h15.03932Z"/>
  <path class="uuid-e4cd32c1-742a-463f-8331-9d13aef9aeb5" d="M82.19164,83.78738s-6.33607,7.05543-10.39201,8.11003h-4.69004l.04273-8.11003h15.03932Z"/>
  <path class="uuid-38a0d566-dfc0-4148-b078-c7a3740f6f33" d="M19.23313,83.56202s6.33594,7.05543,10.39195,8.11003h4.69004l-.04273-8.11003h-15.03926Z"/>
  <rect class="uuid-e4cd32c1-742a-463f-8331-9d13aef9aeb5" x="35.70893" y="50.85461" width="7.36215" height="29.25362"/>
  <path class="uuid-38a0d566-dfc0-4148-b078-c7a3740f6f33" d="M42.1046,32.53054c.24179-4.48062,3.94017-8.04281,8.4818-8.04281,4.53965,0,8.24001,3.56219,8.47982,8.04281h8.70133c-.24793-9.28643-7.83568-16.7421-17.18115-16.7421-9.34752,0-16.93521,7.45566-17.18109,16.7421h8.69929Z"/>
  <path class="uuid-3bdcbe87-ce6d-4658-9856-96308b296b86" d="M67.56093,41.47528c4.48068,.24185,8.04287,3.94023,8.04287,8.48187,0,4.53965-3.56219,8.24001-8.04287,8.47988v8.70127c9.28649-.24793,16.74216-7.83568,16.74216-17.18115,0-9.34745-7.45566-16.93521-16.74216-17.18103v8.69916Z"/>
  <path class="uuid-780842a8-d0b1-463b-b452-691567a1461e" d="M33.04731,58.43777c-4.48074-.24173-8.04293-3.9401-8.04293-8.48174,0-4.53965,3.56219-8.24001,8.04293-8.47988v-8.70127c-9.28656,.24793-16.74222,7.83568-16.74222,17.18115,0,9.34745,7.45566,16.93521,16.74222,17.18103v-8.69929Z"/>
  <path class="uuid-b0581d8f-f6da-4569-9b04-4fc46a4eb497" d="M58.71349,66.54074c-.2439,4.12317-3.41795,7.45368-7.476,7.93118v8.71355c8.84353-.51211,15.8806-7.68524,16.17324-16.5857l-8.69724-.05904Z"/>
</svg>