<?xml version="1.0" encoding="utf-8"?>
<!-- Generator: Adobe Illustrator 26.0.3, SVG Export Plug-In . SVG Version: 6.00 Build 0)  -->
<svg version="1.1" id="Layer_1" xmlns="http://www.w3.org/2000/svg" xmlns:xlink="http://www.w3.org/1999/xlink" x="0px" y="0px"
	 width="100.807106px" height="28.6000004px" viewBox="0 0 100.807106 28.6000004"
	 style="enable-background:new 0 0 100.807106 28.6000004;" xml:space="preserve">
<style type="text/css">
	.st0{fill:#038A45;}
	.st1{fill:#F27921;}
	.st2{fill:#29377D;}
	.st3{fill-rule:evenodd;clip-rule:evenodd;fill:#2E3188;}
	.st4{fill-rule:evenodd;clip-rule:evenodd;fill:#231F20;}
	.st5{fill:#FF5F00;}
	.st6{fill:#EB001B;}
	.st7{fill:#F79E1B;}
	.st8{fill-rule:evenodd;clip-rule:evenodd;fill:#3A57A6;}
	.st9{fill-rule:evenodd;clip-rule:evenodd;fill:#F7971D;}
	.st10{fill:#231F20;}
	.st11{fill:#6E7071;}
	.st12{fill:#0B8041;}
	.st13{fill:#E77826;}
	.st14{fill-rule:evenodd;clip-rule:evenodd;fill:#016FD0;}
	.st15{fill-rule:evenodd;clip-rule:evenodd;fill:#FFFFFF;}
	.st16{fill:#27397D;}
	.st17{fill:#F9B52F;}
	.st18{fill:#F17922;}
	.st19{fill:#787A7C;}
</style>
<g>
	<path d="M76.0150986,19.2105331c0.1821976,0.0034561,0.3630905-0.0315361,0.5308151-0.1028156l-0.0504379-0.2043343
		c-0.1406097,0.055727-0.2910538,0.0825119-0.4423599,0.0786228c-0.0286179,0.002161-0.0573502,0.0017281-0.085968-0.000864
		c-0.2787476-0.025919-0.4835129-0.2734528-0.4572678-0.5520897l0.0008621,0.0025921h1.1183319
		c0.0073471-0.0453606,0.010582-0.0915833,0.0097198-0.1378059c0.0024872-0.0216007,0.0039978-0.0431995,0.004425-0.0648003
		c0.0072403-0.3723812-0.2885666-0.6799622-0.6608429-0.6873055c-0.021492,0.000433-0.042984,0.002161-0.0643692,0.0043201
		c-0.4273529,0.0479507-0.7352524,0.4328594-0.6876297,0.8601036c-0.0028076,0.0341282-0.0032349,0.0686874-0.001297,0.1028156
		C75.2524109,18.9197998,75.6043777,19.23386,76.0150986,19.2105331z M75.9602356,17.7521152
		c0.01577,0.0004311,0.0314255,0.0017281,0.0469818,0.0038872c0.2258224,0.0324001,0.382637,0.2419186,0.3502426,0.4678516
		h-0.8395844C75.519928,17.9754562,75.7123795,17.7702579,75.9602356,17.7521152z"/>
	<path d="M77.6738586,19.2105331c0.1574554,0.0017281,0.3136292-0.028513,0.4592056-0.0885601L78.13134,19.121542
		l-0.0504379-0.2185898c-0.1109161,0.0514069-0.2317657,0.0777588-0.3539124,0.0768948
		c-0.0196533,0.0004311-0.0391998-0.000433-0.058754-0.002161c-0.3017426-0.0272141-0.5242233-0.2941875-0.4969025-0.5957203
		c-0.0019379-0.0207367-0.0026932-0.0419044-0.0022659-0.0626411c0.0061569-0.3067169,0.2598495-0.5503616,0.5666733-0.5443134
		c0.116745-0.0030251,0.2324142,0.0233269,0.3361969,0.0768948l0.0645828-0.2211819
		c-0.1249542-0.0600471-0.2621078-0.0902863-0.4007797-0.0885582c-0.0275421-0.0017281-0.0550842-0.0017281-0.0825119-0.000433
		c-0.4490585,0.0207367-0.7963867,0.4017563-0.77565,0.8505993c-0.002594,0.0324001-0.0030212,0.0652313-0.001297,0.0976315
		C76.8975601,18.9094315,77.254715,19.2317009,77.6738586,19.2105331z"/>
	<path d="M80.2882919,18.0739517v1.0981331h0.2893295v-0.8501682c-0.0002136-0.0462227,0.0033493-0.0924473,0.010582-0.1378059
		c0.0177155-0.2034702,0.1842499-0.3620129,0.3883667-0.3697891c0.0343475,0,0.0685806,0.0025921,0.1026001,0.0069122V17.549509
		c-0.0263519-0.0060482-0.0533524-0.0090714-0.0804596-0.0086403c-0.2084351,0.0099354-0.3867416,0.1529274-0.4423676,0.3538055
		h-0.0097198l-0.0132828-0.3140621h-0.2539062c0.0132904,0.1442871,0.0132904,0.309742,0.0132904,0.4980907L80.2882919,18.0739517z"
		/>
	<path d="M81.5179672,17.2877197h0.0044327c0.0042114,0,0.0084229,0,0.0125275,0
		c0.1001129-0.0038872,0.1780853-0.0881271,0.174202-0.1883507c0.0002136-0.0047512,0.0002136-0.0095043,0-0.0142555
		c-0.0039978-0.0980625-0.0864029-0.1736622-0.1840286-0.169775c-0.1028214-0.0021591-0.1878128,0.0799198-0.1897583,0.1827354
		C81.3333969,17.2008877,81.4151535,17.2855587,81.5179672,17.2877197z"/>
	<rect x="81.3799438" y="17.5840683" width="0.2893291" height="1.5923361"/>
	<path d="M82.2151031,18.6726971c-0.0139313,0.1490383,0.0266724,0.2980785,0.114151,0.4194679
		c0.081543,0.0833759,0.1949387,0.1278706,0.31147,0.1222553c0.0873718,0.000864,0.1744232-0.0125275,0.2574692-0.0397434
		l-0.0124207-0.2211819c-0.054863,0.0159836-0.1119919,0.0224628-0.169014,0.0203037
		c-0.161026,0-0.2176208-0.112318-0.2176208-0.3097401V17.803091h0.4149323v-0.2203178h-0.4149323v-0.3831806l-0.2840347,0.0885582
		v0.2946224h-0.2468872v0.2203178h0.2468872V18.6726971z"/>
	<path d="M82.8086624,22.0923748v-0.5970173c0-0.3201084-0.1184692-0.6518822-0.610405-0.6518822
		c-0.1858673-0.0025921-0.3690338,0.0444965-0.5308151,0.1360798l0.0672836,0.195694
		c0.1249542-0.0790558,0.2698898-0.1200943,0.4176254-0.1183662c0.02668-0.0030251,0.0535736-0.0030251,0.0801392,0.000864
		c0.1797104,0.0233269,0.306282,0.1883488,0.2826309,0.3680592v0.0336952
		c-0.6166687-0.0034561-0.9598923,0.2077904-0.9598923,0.5935631c-0.0001068,0.0120964,0.0003204,0.0246239,0.0011902,0.0367203
		c0.0185699,0.250988,0.2370529,0.4393387,0.4880447,0.420763c0.1911545,0.0043201,0.3728104-0.082943,0.4883728-0.2354374
		h0.0097198l0.0265656,0.2000141h0.2600632c-0.0169601-0.1265755-0.0247345-0.254446-0.0230026-0.3823166L82.8086624,22.0923748z
		 M82.5255966,21.9377213c-0.0008621,0.029808-0.0056152,0.0596161-0.0141449,0.0885582
		c-0.0594025,0.1641598-0.2176208,0.2708626-0.3919296,0.2652454c-0.0134964,0.000864-0.0271072,0.000864-0.0406036-0.0004311
		c-0.1400757-0.0125275-0.2435379-0.1365108-0.2310104-0.2764778c0-0.3041248,0.3609314-0.3607159,0.6776886-0.3538036V21.9377213z"
		/>
	<path d="M86.76931,21.5835934c0.0487061-0.0801907,0.1053009-0.162323,0.1506577-0.2411613
		c0.0211639-0.0319691,0.0397415-0.0600491,0.0565872-0.0885601l0.0132904-0.0371513
		c0.7742386-1.3651066,1.3055954-2.8541965,1.5704117-4.4007397c0.0052872-0.0194397,0.0097198-0.0388794,0.0141449-0.0583191
		l0.004425-0.0423374c0.2529373-1.5482712,0.2343597-3.1285114-0.054863-4.6703043
		c-0.0168457-0.0928793-0.0362854-0.1900778-0.0557251-0.2786369c-0.2984009-1.4424343-0.8300781-2.8265486-1.5739746-4.0979114
		l-0.0388794-0.0647993c-0.7616119-1.2838912-1.7304688-2.4325681-2.8673706-3.3998065l-0.1441803-0.1222544
		c-0.0241928-0.0254879-0.0498962-0.0492477-0.0770035-0.0717115l-0.0344543-0.0185757
		c-0.5254135-0.4268119-1.081604-0.814312-1.6641541-1.1590445V2.826232l-0.0335846-0.0194397
		c-0.3396606-0.2008781-0.6954041-0.3840442-1.0616302-0.5546825c-0.2654648-0.1239829-0.5308151-0.2406216-0.7962799-0.3460286
		c-0.0393066-0.0203038-0.0798111-0.0384476-0.12117-0.0539995l-0.0362854-0.0077759
		c-1.0353928-0.400028-2.1161346-0.6713213-3.21772-0.8078319l-0.2530441-0.0272157l-0.0637207-0.006912
		c-0.4438782-0.0444955-0.889801-0.0665273-1.3359451-0.0665273c-0.1247406,0-0.2530441,0.0060479-0.3901978,0.0060479
		c-0.4735794,0.0133919-0.9460754,0.0514075-1.4155426,0.1149108l-0.0955811,0.0151199
		c-0.1230087,0.0177118-0.2460251,0.0371516-0.3680649,0.0574554l-0.2256088,0.0388796
		c-0.0743027,0.0138239-0.1486053,0.0280796-0.2220459,0.0449275c-0.1230087,0.0237598-0.2441864,0.0501115-0.38134,0.0803512
		l-0.0787354,0.0194398C71.5092773,1.423542,71.053093,1.5587566,70.6047897,1.717299
		c-0.5406494,0.1905102-1.0684357,0.4160118-1.5801392,0.6743453l-0.0274277,0.013392l-0.0344543,0.0168478l-0.1123199,0.0591834
		l-0.1070251,0.0565915c-0.9768524,0.5227146-1.8860931,1.1629324-2.7073135,1.9063971l-0.0282974,0.0254874
		c-0.0371552,0.0328317-0.0690155,0.0660954-0.0964432,0.0954714c-0.212326,0.196126-0.4202271,0.4026198-0.6192627,0.6130018
		c-0.2786407,0.2877088-0.5441055,0.590106-0.7882843,0.8972549l-0.0185776,0.0336957
		c-0.4188232,0.5317864-0.7978973,1.0933809-1.1342049,1.6808953H63.346611l-0.0194397,0.0328317
		c-0.0173874,0.0280795-0.0325089,0.0578871-0.0451431,0.0885592c-0.7617188,1.3581939-1.2845421,2.8369155-1.5455742,4.3722281
		l-0.0061569,0.0388794v0.0470877c-0.0120926,0.0747356-0.0155487,0.1499023-0.0264587,0.2246914l-11.6733856,0.6554995
		L55.00877,26.7857933l17.0663109-5.3654957l-4.1271744-9.1767759l-0.3480835,0.0195484
		c0.0842438-1.1076374,0.2522888-2.2078762,0.5044632-3.2908354h0.005722
		c1.1280518-0.0652313,2.3568649-0.1926699,3.6569519-0.3810205c0.0354233,1.348259,0.1318665,2.7876682,0.2893295,4.2802134
		c-1.2379913,0.178792-2.4168015,0.3122253-3.5216293,0.4002981l0.0516281,0.1146946
		c1.0953217-0.0869389,2.2624664-0.2190218,3.4824219-0.3953295c0.0725784,0.6795292,0.1574631,1.3733139,0.2539062,2.0614834
		c0.1123199,0.7927122,0.2380295,1.5910397,0.3777771,2.3720875c-0.7470245,0.1077843-1.4700775,0.1971531-2.1746597,0.2740479
		l0.0518341,0.1153965c0.696167-0.075491,1.4096069-0.1630249,2.1459427-0.2689171
		c0.2618942,1.4471855,0.5635376,2.8256836,0.8988724,4.0953197c-1.1788101,0.168478-2.3016739,0.294836-3.3606033,0.3813438
		l-0.4974442,0.1564369c1.2119675-0.0841312,2.5124893-0.2232342,3.8848343-0.4215736
		c0.035965,0.1380768,0.0817566,0.273344,0.1197662,0.410881c-0.0319672-0.0152283-0.0664139-0.0240288-0.0966568-0.0428219
		l0.0002136-0.0047512l-0.0770035,0.2406216c0.0820847,0.0458984,0.1698837,0.0795403,0.2600632,0.1038952
		c0.2503433,0.8724155,0.5279007,1.736784,0.8552475,2.5835495c-1.3633804,0.1926708-2.6436005,0.3192444-3.8043747,0.3758373
		c-0.0513-0.0639362-0.1026001-0.1283035-0.1530304-0.1948318c-0.6533966-0.8817024-1.1925278-1.8414345-1.6137238-2.8544655
		l-0.1179352,0.0370979c0.427681,1.0273399,0.9750137,2.0007877,1.6386719,2.8946953
		c0.0328293,0.0406075,0.0655518,0.086832,0.099144,0.1291676c-0.8087006,0.0375824-1.6186905,0.0324001-2.4268494-0.0151196
		c-0.1804657-0.168911-0.3387909-0.3239975-0.4812393-0.4760609c-0.5037079-0.5369701-0.9508209-1.1224327-1.3470688-1.7412663
		l-0.1195602,0.0375843c0.4043503,0.6344395,0.8609695,1.2346439,1.3764496,1.7848988
		c0.1194458,0.1257095,0.2406235,0.2462368,0.3636322,0.363739c-0.466774-0.026783-0.9249039-0.1365108-1.3527985-0.3248596
		c-0.5432281-0.4478722-1.0456467-0.9410496-1.5026932-1.4731064l-0.1892166,0.0595074
		c0.44841,0.4944191,0.9255524,0.9632969,1.443512,1.3881111h-0.004425l0.0309982,0.0246239
		c0.0239716,0.0194397,0.0504303,0.0380154,0.099144,0.0725746l0.0309906,0.0254879
		c0.2026062,0.1607018,0.4220581,0.3252926,0.6529617,0.4872913c0.2990494,0.2177258,0.6104126,0.420332,0.9183197,0.6017704
		l0.0362854,0.0142555c0.6191559,0.3628769,1.2657471,0.6769371,1.9340439,0.9387264v0.0060482l0.0344543,0.0133915
		c0.0380096,0.0151196,0.0840225,0.028944,0.1264648,0.0423355c1.019722,0.3831806,2.0815735,0.6432419,3.1628571,0.7749996
		l0.0743027,0.0077763l0.0947113,0.0107994l0.1034622,0.0108013c0.4432297,0.0436306,0.8953171,0.0656624,1.337677,0.0656624
		l-0.0037766,0.001297c0.6238022-0.000433,1.2468414-0.0427685,1.8650284-0.1265755l0.0415802-0.0077763
		c0.1954803-0.027216,0.3796158-0.055727,0.5856781-0.0954704s0.4078064-0.0812149,0.6095505-0.1283035l0.0380096-0.0086384
		c1.0379791-0.2458057,2.0434494-0.6125698,2.9956741-1.0933819l0.1415863-0.0734386l0.1088638-0.057457
		c0.955574-0.5088902,1.8466797-1.1305313,2.6541824-1.851532c0.0389862-0.028513,0.0761414-0.058321,0.1088638-0.0885601
		l0.0247345-0.0311031c0.5266037-0.4834042,1.0146484-1.0069828,1.459816-1.5659847h0.0052948l0.0230026-0.0293751
		c0.1321945-0.1671295,0.2552032-0.3516998,0.3815613-0.5307064c0.1068115,0.0400124,0.2178345,0.0671196,0.3325272,0.0658779
		c0.3724899,0,0.5928116-0.1982861,0.5928116-0.4812431C87.1209564,21.8158989,86.9953537,21.6828442,86.76931,21.5835934z
		 M65.6740952,24.1728668l0.0114517-0.0095043c0.1150131,0.1200962,0.2335968,0.2380295,0.3539124,0.3538055
		C65.9147186,24.4048481,65.793541,24.289505,65.6740952,24.1728668z M84.9798737,22.2833176
		c-0.3104935,0-0.4706573-0.2669735-0.4706573-0.5926971c0-0.3542366,0.1770096-0.619482,0.4777832-0.619482
		c0.2003403,0,0.374115,0.1382389,0.4193649,0.3334999c0.0089645,0.0414715,0.013176,0.0833759,0.0124207,0.1257114v0.281229
		c0.0009689,0.0423355-0.0031357,0.084671-0.0124207,0.1257095C85.3616486,22.1377354,85.1850739,22.2807255,84.9798737,22.2833176z
		 M85.437355,22.1990795h0.0052948l0.0008621,0.0177116c-0.0130692,0.006155-0.0266724,0.0111237-0.0398483,0.0172787
		C85.412735,22.2200298,85.4295807,22.2139816,85.437355,22.1990795z M85.4187851,20.135004v0.9503899h-0.0114517
		c-0.1050797-0.1619987-0.28965-0.2540131-0.4822159-0.2406216c-0.0180359,0.000864-0.035965,0.0025921-0.0538864,0.0047512
		c-0.4173126,0.0531368-0.7129059,0.4341564-0.6600952,0.8514633c-0.0017242,0.0146885-0.0030212,0.029808-0.0037766,0.0449276
		c-0.020195,0.3720036,0.2474213,0.6828232,0.6057663,0.7451935c-0.5378342,0.2313328-1.0823669,0.446846-1.6390991,0.6285534
		c0.0158768-0.0509758,0.0318604-0.1032467,0.0468674-0.1563816c0.0450363-0.1623764,0.080246-0.3269672,0.1191254-0.4907475
		h0.2172928V21.6215c-0.0001068-0.0466557,0.0032425-0.0928783,0.0097198-0.1391029
		c0.0192261-0.2026062,0.1850052-0.3602829,0.3883667-0.3689232c0.0345612,0.0004311,0.0691147,0.0025921,0.1034622,0.0069122
		v-0.2717266c-0.0258102-0.0060482-0.052269-0.0086403-0.0787354-0.0077763
		c-0.1707458,0.0071297-0.3046646,0.1165867-0.3843689,0.2620068c0.0686874-0.5208244,0.1091919-1.0453224,0.1172943-1.5715466
		c0.0168457-0.0227337,0.0328293-0.0457916,0.0490265-0.0690651c0.9403458-0.3050442,1.8621216-0.6646252,2.759697-1.0790176
		c-0.1189041,1.1097965-0.3919296,2.1975613-0.8112869,3.23176c-0.0009689,0.0023766-0.0022659,0.0050755-0.0032425,0.007452
		V20.135004H85.4187851z M79.11586,26.5410671l0.0009689-0.0017281c0.9051361-0.2112465,1.7358704-0.4358826,2.483223-0.6803932
		c-0.3616943,0.4268112-0.7937927,0.789257-1.2775192,1.0704861c-0.4529495,0.1585426-0.9696198,0.306284-1.5358582,0.4423637
		l0.0132828-0.0220318C78.9466248,27.098341,79.0531082,26.8253212,79.11586,26.5410671z M79.0159607,26.4330692
		c-0.527359,0.1213894-1.0581741,0.2302532-1.5837021,0.3300438c-0.5255203,0.0997906-1.0661621,0.1892147-1.5969772,0.2652454
		c-0.3798294-0.591835-0.6982117-1.2208195-0.9501724-1.8774529l0.0009689-0.000433
		c0.7122574-0.1045418,1.4465408-0.2367325,2.1782303-0.3684921c0.7316971-0.1317577,1.458847-0.281229,2.1622467-0.4423637
		C79.228714,25.0429058,79.1581955,25.7444668,79.0159607,26.4330692z M79.1476059,26.4054203
		c0.1343536-0.6886005,0.2015305-1.3880024,0.200882-2.0895634l0.0002136-0.0004311
		c1.3252563-0.3054218,2.5480194-0.6415138,3.6368637-0.9944553c-0.269455,0.8488731-0.6827698,1.6446075-1.2217941,2.3535137
		C80.9843445,25.9358406,80.1049118,26.1816463,79.1476059,26.4054203z M79.345787,24.1832352
		c0.0005417-0.5696945-0.01577-1.1391182-0.0477371-1.7076797h0.0505447v-0.9529819
		c0-0.251421-0.0760345-0.4073181-0.1752853-0.5107269c-0.0098267-0.0928249-0.0132828-0.1861897-0.0239716-0.2789612
		l0.0037766,0.0017281c0.6052246-0.1392117,1.1871262-0.2847939,1.7561722-0.43367v0.7844505h-0.0071259
		c-0.104866-0.1615658-0.2890091-0.253582-0.4812469-0.2406216c-0.0170593,0.000864-0.0340195,0.0025921-0.050972,0.0047512
		c-0.4184952,0.0518398-0.7157135,0.4328594-0.6638718,0.8514633c-0.0017242,0.0146885-0.0029144,0.029808-0.0037766,0.0449276
		c-0.0212784,0.4017563,0.287384,0.7451935,0.6894608,0.7663612c0.2253952,0.0090714,0.4357758-0.112751,0.5396729-0.3131962
		h0.0071259l0.0141525,0.2769089h0.2591934c-0.0114441-0.1088638-0.0114441-0.2687016-0.0114441-0.4112606v-1.8399773
		c0.6935654-0.1857586,1.3550568-0.3794537,1.9845886-0.5808182c-0.0119934,0.0043201-0.0207367,0.014904-0.0329437,0.0184669
		l0.0725784,0.2432137c0.1315384-0.0311031,0.2531509-0.0946064,0.3539124-0.1848946
		c0.0021591-0.0023746,0.0033493-0.0053997,0.0055084-0.0077744c-0.0114517,0.388958-0.0414734,0.7765121-0.0862961,1.1625004
		h-0.2368393c0.0088577,0.1442852,0.0132828,0.3106041,0.0132828,0.4980907h-0.0035629l-0.0035629,0.8806229
		c-0.0502167,0.225502-0.1020584,0.4507866-0.1638336,0.6736965c-0.0230026,0.0794888-0.0469818,0.1594067-0.0717163,0.2371674
		C81.9248047,23.530489,80.6852951,23.8726292,79.345787,24.1832352z M79.8069458,18.7413845l-0.0052948,0.0082092v-1.1607723
		h-0.2893295v0.9732857c0.0009689,0.0509758-0.0081024,0.1010876-0.0265656,0.1486073
		c-0.0618896,0.1581097-0.2133026,0.2630844-0.3830719,0.2652435c-0.0806808,0-0.1407242-0.0262966-0.1918106-0.0636654
		c-0.0487061-0.3324738-0.1055145-0.6716976-0.1621017-1.0122738v-0.3194065h-0.0552979
		c-0.0637207-0.371191-0.1198807-0.7351475-0.1926727-1.1141167l0.003891,0.001297
		c1.7048721-0.3900928,3.2867279-0.8212242,4.6913605-1.2830276c0.1948318,0.9563293,0.3138504,1.9254036,0.3664474,2.898798
		l-0.1847916-0.5029507l0.0018387-0.0004311h-0.3167648l0.5249863,1.3182335
		c0.0016174,0.1245232,0.0062637,0.2489376,0.0056152,0.3735161c-0.0334778,0.0571842-0.0740891,0.108593-0.1189041,0.157299
		c-0.7556686,0.2444019-1.5656662,0.479948-2.4168015,0.7057743h-0.1483917v0.0389328
		c-0.5744476,0.150713-1.1619568,0.2981319-1.7732315,0.4384212c-0.0503311-0.4548912-0.1196671-0.9330559-0.186409-1.4080887
		c0.0200882,0.0018883,0.0404968,0.0097198,0.0601578,0.0097198c0.2178345,0.0051823,0.421196-0.1088638,0.5308151-0.2972145
		h0.0071259l0.0141449,0.2600613h0.2583389C79.8113708,19.0524216,79.8069458,18.9072723,79.8069458,18.7413845z
		 M72.0621262,2.027472c0.1226807-0.011178,0.2496872-0.0271077,0.3792877-0.0456296
		c-0.1494675,0.3766462-0.2630844,0.7664143-0.3394394,1.1640664c-0.4803772,0.0704153-0.9440155,0.1218228-1.3783875,0.1546545
		C71.1161575,2.8232081,71.5656509,2.3955324,72.0621262,2.027472z M71.9744263,1.9142891l0.1358643-0.0596695
		c-0.0241928,0.0172259-0.0479507,0.0344517-0.0659866,0.0536215L71.9744263,1.9142891z M72.5716629,1.9609447
		c0.0787277-0.0116639,0.1567078-0.0237598,0.2336044-0.0367197c0.076889-0.0129598,0.1538925-0.0289437,0.2317657-0.0449276
		c0.2825241,0.2933251,0.5337296,0.615162,0.7494049,0.9607586c-0.2504501,0.0557272-0.5140762,0.1101587-0.7812653,0.1594062
		c-0.267189,0.0492477-0.529953,0.0937431-0.7865601,0.1326227c0.0780869-0.400028,0.1966705-0.7909839,0.3539124-1.1668203
		L72.5716629,1.9609447z M72.639595,1.8283219c0.0342331-0.0682553,0.0722504-0.1343507,0.1135025-0.1987721
		c0.057457,0.0419576,0.1157761,0.0898552,0.17939,0.1439086l-0.1468811,0.0293757L72.639595,1.8283219z M73.0669479,1.7449467
		c-0.039856-0.0388795-0.0805664-0.0751672-0.1194458-0.1079988l-0.0033493-0.000864
		c0.1087494,0.0159838,0.218483,0.0354236,0.3325272,0.0600474C73.2093964,1.7129791,73.1395187,1.7289629,73.0669479,1.7449467z
		 M73.5324173,1.7579067c0.6000443,0.1602703,1.1770859,0.3961401,1.7172928,0.702425
		c-0.4184952,0.1283026-0.8687439,0.2466695-1.3421021,0.3538043c-0.2143784-0.3443005-0.4611511-0.6670012-0.7369843-0.9642143
		L73.165329,1.8460338C73.2900696,1.820978,73.4112473,1.7872823,73.5324173,1.7579067z M72.5051346,1.8512177l-0.2131882,0.0311036
		c0.0913696-0.0622073,0.1848907-0.1187987,0.2771225-0.1723123C72.5459595,1.7541807,72.5222015,1.8001342,72.5051346,1.8512177z
		 M72.1930161,3.2560678c0.2716217-0.0406077,0.550148-0.0933111,0.8350525-0.1464467
		c0.2848969-0.0531354,0.5635376-0.1088629,0.8289948-0.1689103c0.3323135,0.5378346,0.6334152,1.0946772,0.9015808,1.6675036
		c-0.4627762,0.1028147-0.9281464,0.1982861-1.3988037,0.2859812c-0.470665,0.0876951-0.9430466,0.167182-1.4066849,0.2371655
		C71.9971085,4.5022674,72.0770264,3.8761435,72.1930161,3.2560678z M73.97435,2.919435
		c0.5086746-0.1156127,0.985817-0.2411616,1.4213791-0.3787522c0.6747742,0.400028,1.3050537,0.8704712,1.880043,1.403986
		C76.5432129,4.1731944,75.73452,4.3878965,74.871933,4.5844545C74.6050644,4.0124922,74.3053665,3.4564598,73.97435,2.919435z
		 M77.1634521,1.7730265c1.0019073,0.2056299,1.97789,0.5222828,2.9098129,0.9439106
		c-0.2968903,0.2211819-0.6191559,0.4056439-0.9598923,0.5503626c-0.7865524-0.4816754-1.6226807-0.8773832-2.4940186-1.1802123
		l-0.0009689-0.000432C76.81073,2.0019841,76.9934616,1.8965772,77.1634521,1.7730265z M77.1366653,1.6481798
		c-0.7577133-0.1537905-1.5273209-0.2427816-2.3002625-0.2652454l-0.0033493-0.0043199
		c0.8106384-0.0241917,1.6219254,0.0241917,2.4239273,0.1447185C77.2227402,1.5704205,77.1822433,1.6123241,77.1366653,1.6481798z
		 M86.4659424,14.120327c-0.0123138-0.0643673-0.0247345-0.1283026-0.0380173-0.1918058l0.0038834,0.000864
		c0.6164627-0.2712936,1.1890717-0.6324415,1.6992569-1.0722132c0.2651367,1.4229937,0.2906265,2.8805475,0.0751724,4.3121815
		c-0.4508972,0.4272423-0.9727478,0.7724075-1.5421219,1.0208054C86.7878876,16.8311005,86.7212524,15.4612417,86.4659424,14.120327
		z M84.2554169,17.5806122l-0.317627,0.9378624c-0.0380096,0.114912-0.0725708,0.2371655-0.1008682,0.3326378h-0.0071259
		c-0.0274353-0.0954723-0.0654526-0.2211819-0.1053009-0.3265896l-0.0220337-0.0597763
		c-0.0382309-1.1144962-0.1656647-2.2242928-0.3887939-3.3179979l0.003891,0.000864
		c1.0217743-0.3274527,2.0227051-0.7171125,2.9971848-1.1663876c0.0106888,0.0539989,0.0212708,0.1079988,0.0309906,0.1611338
		c0.2580109,1.3525791,0.3220596,2.7353973,0.1901855,4.1061192c-0.8628006,0.4013233-1.7500076,0.7470818-2.6537476,1.0446205
		c0.1036835-0.1808987,0.1888885-0.372057,0.2440796-0.5746098l0.4362106-1.1378765H84.2554169z M79.8449554,6.7703528
		c0.7817001-0.2496939,1.5484924-0.5443149,2.2964935-0.8821354c1.0359268,1.0985651,1.9153595,2.3345046,2.6134644,3.6732593
		c-0.9182053,0.4155798-1.8602829,0.7767286-2.8213654,1.0804214c-0.5662384-1.3581944-1.2674713-2.6559095-2.0932312-3.8741374
		L79.8449554,6.7703528z M79.7714081,6.6675377c-0.6573868-0.9649162-1.4146729-1.8580675-2.2587967-2.6648192
		c0.5410767-0.1711245,1.0722122-0.3722186,1.5908279-0.6023643c1.0838776,0.6713216,2.0775757,1.4787214,2.9567947,2.4018962
		C81.3139572,6.1331592,80.5498657,6.422164,79.7714081,6.6675377z M81.9807434,10.7568092
		c0.9616241-0.308877,1.9042358-0.674346,2.8226624-1.0946779c0.6856842,1.3283873,1.1858292,2.7444687,1.4863892,4.2085028
		c-0.9758835,0.448411-1.9783249,0.8363438-3.0018311,1.1616364l-0.0097198-0.0522718
		c-0.0141449-0.0673914-0.0274353-0.1343508-0.0415802-0.2008781c-0.2998047-1.377202-0.7219696-2.725029-1.2616425-4.0270634
		L81.9807434,10.7568092z M86.4030838,13.8157701c-0.3029327-1.4631691-0.8042679-2.8783875-1.4898453-4.2059097l0.005722-0.0030241
		c0.5928116-0.2583332,1.1441422-0.6030664,1.6362915-1.0225334c0.7395782,1.2851868,1.2624054,2.6835566,1.5474091,4.1389503
		C87.6001434,13.1785765,87.0259171,13.5475006,86.4030838,13.8157701z M84.8656082,9.5092049
		c-0.6978836-1.3369179-1.5746231-2.572804-2.6060104-3.673367c0.4903183-0.2142158,0.9482269-0.4958768,1.3602448-0.8370996
		c1.1425247,0.9987741,2.1159134,2.1755304,2.8824921,3.4849091C86.0129929,8.9078674,85.4608994,9.2538958,84.8656082,9.5092049z
		 M82.1761169,5.748251c-0.8736038-0.9226351-1.8604965-1.7307911-2.9367065-2.4060543
		c0.3401947-0.1493623,0.6593323-0.3426266,0.9496307-0.5747161c1.2109909,0.5594344,2.3376389,1.286051,3.3468857,2.1586826
		C83.1238022,5.2631197,82.6660004,5.540029,82.1761169,5.748251z M78.9789124,3.326915
		c-0.5130997,0.2203178-1.0372162,0.4134197-1.5704117,0.5793061c-0.5693665-0.5326507-1.1919861-1.0056858-1.8579025-1.41133
		l-0.0009766-0.0004318c0.3459244-0.1105909,0.6512375-0.223774,0.9087067-0.3335009
		C77.3387375,2.4560118,78.1839371,2.8469677,78.9789124,3.326915z M74.9250641,4.7015252
		c0.8837585-0.2013102,1.7101669-0.4216275,2.4533081-0.6600895c0.8493042,0.8052402,1.6114502,1.6977429,2.2736969,2.6628218
		c-1.0670242,0.3408442-2.2516632,0.660089-3.5238953,0.9495263c-0.3946304-1.096837-0.7998352-2.093019-1.2050476-2.9548507
		L74.9250641,4.7015252z M76.1715927,7.7717185c1.2846451-0.293757,2.4781418-0.617322,3.5492706-0.9650784
		c0.8278122,1.2169318,1.5303497,2.514215,2.0968018,3.8724093c-1.3156433,0.4246521-2.7842102,0.8233843-4.3767624,1.1862602
		c-0.3919296-1.4489136-0.8184204-2.8265476-1.2713623-4.0961833L76.1715927,7.7717185z M77.4739532,11.985837
		c1.5898514-0.3646049,3.0673828-0.7663612,4.3851852-1.1957645c0.5381546,1.2981472,0.9592438,2.641654,1.2580795,4.0149679
		c0.0132828,0.0626392,0.0265656,0.1274385,0.0398483,0.1909418l0.0141525,0.0743036
		c-1.4119797,0.4592113-2.9921112,0.8890467-4.6952591,1.2782745c-0.1486053-0.7693834-0.3176193-1.5603676-0.5025177-2.3487597
		c-0.1513062-0.6670017-0.3283157-1.3448029-0.5052185-2.0143957L77.4739532,11.985837z M79.0440369,20.9171314
		c-0.0883408-0.0459003-0.1801376-0.0732231-0.2589798-0.0732231c-0.2181549-0.0073433-0.4223862,0.1067028-0.5308151,0.2963486
		H78.248085l-0.013176-0.2039013c0.2664337-0.0572929,0.5352402-0.1135063,0.7959518-0.1732311
		C79.0366974,20.8143158,79.0384216,20.8658867,79.0440369,20.9171314z M80.9092865,21.5303497v0.281229
		c0.0011902,0.0423355-0.0032425,0.084671-0.0132828,0.1257095c-0.0444946,0.1991501-0.2195587,0.3421421-0.42379,0.3460293
		c-0.31147,0-0.4733582-0.2669735-0.4733582-0.5926971c0-0.3542366,0.1778717-0.619482,0.478653-0.619482
		c0.2004471-0.000864,0.3744278,0.1378059,0.4184952,0.3334999C80.9057236,21.4456787,80.9101486,21.4880142,80.9092865,21.5303497z
		 M85.7072449,22.0647278v-0.1396427c0.0389862-0.0873699,0.079277-0.1737156,0.1164246-0.2629776
		c0.4327545-1.0691891,0.7112808-2.1941051,0.8272705-3.341486l0.006485,0.0012951
		c0.5444183-0.2471008,1.0526657-0.5667782,1.5107956-0.9508209c-0.2099533,1.2342644-0.6169968,2.4239807-1.1860428,3.5371799
		c-0.0980682-0.0416336-0.2017441-0.0683632-0.3088837-0.0656643c-0.0102539-0.0012951-0.0206223-0.0021591-0.0309906-0.0025921
		c-0.2728043-0.0133915-0.5048981,0.196991-0.5183945,0.4695797c0,0.1440716,0.0760269,0.2674599,0.2358704,0.3646584
		c-0.2044449,0.1553574-0.4208755,0.2927322-0.6524277,0.4054832
		C85.7073517,22.0747719,85.7072449,22.0696411,85.7072449,22.0647278z M86.40168,21.2784958
		c0-0.1187992,0.0947189-0.2177258,0.2654648-0.2177258c0.0735474,0,0.1403961,0.0324535,0.2091904,0.056591
		c-0.0384445,0.071928-0.0704117,0.146986-0.1103745,0.2181587c-0.0573502,0.0572395-0.1252823,0.101572-0.1859741,0.1550312
		C86.4708023,21.4350948,86.40168,21.3772068,86.40168,21.2784958z M87.2524948,20.5557671
		c0.0681458-0.1477432,0.1344604-0.2972126,0.1981812-0.4466839l0.0115509,0.0043201
		C87.3949432,20.2620106,87.3250732,20.4097519,87.2524948,20.5557671z M88.1310654,18.1443672
		c0.0716019-0.3036938,0.1308975-0.6086826,0.1769028-0.9141026c0.0221405-0.0237598,0.0415802-0.0488167,0.0610199-0.0725765
		l0.003891,0.000864C88.306778,17.49119,88.2262115,17.8195057,88.1310654,18.1443672z M88.4361649,16.791357
		c-0.020195,0.0673904-0.0500031,0.1317577-0.0884552,0.1909409c0.1904068-1.3823853,0.1563873-2.7868032-0.1008682-4.15839
		l-0.0141449-0.0760307l0.005722,0.000432c0.0886688-0.0963354,0.1625366-0.2051983,0.2190247-0.3231325
		C88.6893158,13.8719301,88.6820755,15.3467627,88.4361649,16.791357z M86.9268799,8.0460358
		c0.7133331,1.2480354,1.2116394,2.6075258,1.4739685,4.0210161c0.0179291,0.1995821-0.052597,0.3965721-0.1928864,0.5395622
		c-0.2942963-1.4467535-0.8210068-2.836051-1.5597229-4.1138945l0.0020523,0.0025921
		C86.777626,8.3704643,86.8725586,8.2162418,86.9268799,8.0460358z M86.6200562,7.3790345
		c0.0619888,0.098063,0.1221466,0.197422,0.1822968,0.2980771l0.0230103,0.0319676V7.715991
		c0.0185699,0.0316978,0.0355301,0.0637193,0.0537796,0.0954714h-0.0042114
		c-0.088562-0.1434226-0.1770096-0.2855492-0.2654648-0.4255161L86.6200562,7.3790345z M84.1686935,4.5235429
		C84.1049728,4.4686794,84.04039,4.41468,83.9758072,4.3615446l-0.0008621-0.0086398L84.1686935,4.5235429z M86.8246078,7.8611417
		c-0.0011902,0.2017417-0.0860825,0.3939805-0.2344666,0.5309224c-0.7687378-1.3046265-1.7411652-2.4774408-2.8803329-3.4750271
		c0.1179352-0.1117249,0.2045517-0.2524476,0.2508774-0.4081817C85.0972672,5.4570856,86.0654831,6.5906425,86.8246078,7.8611417z
		 M83.8546371,4.4190001c-0.0234375,0.1632943-0.1044388,0.3131967-0.2283096,0.4220595
		c-1.0070953-0.8720911-2.130394-1.600004-3.3377075-2.1627862c0.0809937-0.0782993,0.1429901-0.1737702,0.1801376-0.2801492
		C81.6903381,2.9022632,82.8312378,3.5830884,83.8546371,4.4190001z M80.9251633,2.3622687
		c0.5108337,0.2432134,1.0061188,0.5179627,1.4828262,0.8229518c0.1238708,0.0786231,0.2460175,0.1581104,0.3671951,0.2414856
		l0.0212784-0.0319679l0.0097198,0.0539997c0.3283157,0.2237737,0.6449661,0.4661233,0.9475784,0.7166808
		c0.0132828,0.014256,0.0257034,0.0293756,0.0371552,0.0449276c-1.0045013-0.7978961-2.1166763-1.4497776-3.3035812-1.9366367
		l-0.0008621,0.0030239c-0.0001068-0.0155518-0.0014038-0.0311036-0.0036774-0.0462234
		c-0.0051804-0.0246239-0.0126343-0.0483837-0.0221329-0.0717113C80.616394,2.223166,80.7721252,2.2905574,80.9251633,2.3622687z
		 M78.8574142,1.5380208c0.1300354,0.0380156,0.264595,0.0777591,0.3954926,0.1192307
		c-0.1326218-0.0380156-0.2644882-0.0743033-0.3980865-0.1088629L78.8574142,1.5380208z M79.993454,1.9790884l0.2106018,0.0786232
		c0.0668488,0.0367196,0.1196594,0.0946071,0.150444,0.1645904c-0.9471512-0.3767002-1.9331818-0.6466975-2.939949-0.8052399
		l-0.005188-0.001296c0.0023804-0.0125278,0.0032425-0.0254877,0.0024872-0.0380156
		c-0.0016174-0.0112319-0.0045395-0.0224638-0.0088577-0.0328317C78.2869644,1.4611256,79.1556015,1.6740994,79.993454,1.9790884z
		 M80.3616257,2.3575168c-0.0357513,0.1054068-0.0993576,0.1991498-0.1840286,0.2717252
		c-0.9273911-0.4229238-1.8979721-0.7438966-2.8948059-0.9564384l-0.0034561-0.001296
		c0.0421219-0.0388796,0.077652-0.0846711,0.1051941-0.1352147C78.4048996,1.6956992,79.4037857,1.9713125,80.3616257,2.3575168z
		 M77.2349472,1.320727c0.0268936,0.0203038,0.0462265,0.0488155,0.054863,0.0812151
		c-0.661705-0.098495-1.3296814-0.1481745-1.9986267-0.1486064l-0.0034561-0.003888
		C75.9376678,1.2274159,76.588356,1.2516077,77.2349472,1.320727z M75.4955139,1.0204901l-0.2441788,0.0107999V1.0170341
		L75.2444229,1.01617C75.3258514,1.01617,75.4081497,1.017898,75.4955139,1.0204901z M76.4828415,1.1284889l0.2203217,0.0228958
		l0.0354233,0.0051839c-0.7494049-0.0561595-1.5022659-0.0462235-2.2498322,0.0302397l-0.0034561-0.00432
		C75.1468964,1.0883133,75.8171387,1.0701694,76.4828415,1.1284889z M74.234848,1.4991412
		c0.9298706-0.0159838,1.8588715,0.0647993,2.7718964,0.2414856c-0.1740952,0.1092949-0.3548813,0.206926-0.5415039,0.2928932
		c-0.7469177-0.2471017-1.5180359-0.41342-2.3002701-0.4972272L74.15979,1.5354289
		C74.1854935,1.525061,74.2105484,1.5125331,74.234848,1.4991412z M74.1578445,1.0585057v0.0406076
		c-0.0529251-0.006048-0.1060562-0.009504-0.1593018-0.009936l0.0044327,0.0272158l-0.0044327-0.0107999l-0.0008621-0.0082079
		v-0.007776V1.0779455l-0.004425-0.0051841L74.1578445,1.0585057z M73.9728394,1.0727614v0.0159839
		c-0.061882,0.0129598-0.1238708,0.0272157-0.1857605,0.0431995l-0.0061493-0.0406076L73.9728394,1.0727614z M73.9199219,1.6356518
		c0.8011322,0.0678234,1.5922241,0.2246377,2.358696,0.4669874c-0.2513123,0.1010871-0.5440979,0.205198-0.8705826,0.308013
		c-0.5209808-0.3045571-1.0764236-0.5460426-1.6544342-0.7192729l-0.0052872-0.001296
		C73.8067398,1.6715075,73.8616028,1.6529317,73.9199219,1.6356518z M73.5385742,1.6352198l-0.1044312-0.0254877
		l0.1592941,0.0069119L73.5385742,1.6352198z M73.5818863,1.4028062l-0.0495758,0.006048v0.0440636
		c-0.1150131,0.0082079-0.2291718,0.0185758-0.3441925,0.0293757v0.0440636h-0.1769028v0.0440636
		c-0.0645828-0.009504-0.1281891-0.0185758-0.1910477-0.0263517l-0.0495682-0.006912l0.0319672-0.0384476l0.0212708,0.0272157
		c0.0795975-0.0397435,0.1593018-0.0768952,0.2397614-0.1123189l0.0158768,0.0423356l0.1441727-0.0431995l0.0114517,0.0431995
		c0.1131821-0.0241917,0.2300339-0.0453596,0.3467865-0.0656633V1.4028062z M73.232399,1.2088401
		c0.0642624-0.0079379,0.1272202-0.0144719,0.1884613-0.0201958c-0.1163177,0.0386096-0.2297134,0.0813773-0.3353424,0.1316507
		l-0.118576,0.0522715C73.041893,1.2986952,73.1327133,1.2425358,73.232399,1.2088401z M72.4768372,1.3328229l0.4273529-0.0794872
		h0.0168457c-0.0738678,0.0647993-0.1400681,0.1378065-0.1973114,0.2177258
		c-0.0817566-0.0539994-0.169342-0.098495-0.2610321-0.1326226L72.4768372,1.3328229z M72.1486282,1.4079901
		c0.1082153-0.0069119,0.2164307,0.0116639,0.3159027,0.0548635c-0.0415802-0.0051839-0.0857544-0.0051839-0.1300354-0.0051839
		h-0.1548691l-0.0034561-0.0038879c-0.0743027,0-0.1494675,0.0017279-0.2212906,0.0056159L72.1486282,1.4079901z
		 M71.8998032,1.7013152c0.1158829-0.0228957,0.2326279-0.0440636,0.3467789-0.0635034l-0.0052872-0.0440634l0.1513062-0.0125279
		l-0.0052948-0.0051839V1.5432048v-0.006912c0.088562,0.00432,0.1770096,0.0108,0.2654648,0.0185759l0.0114441-0.0328317
		c0.0132828,0.0077759,0.0265732,0.0155518,0.039856,0.0254877L72.660759,1.5704205
		c-0.056694,0.0298077-0.1132889,0.0617753-0.169014,0.0946071l-0.0194397-0.0406077l-0.1654587,0.0647994l-0.015007-0.0414716
		c-0.1105957,0.0306717-0.2211838,0.0635034-0.3317719,0.097199L71.948616,1.7017472l-0.0488129,0.0120959V1.7013152z
		 M71.8426666,2.0456157c-0.4768143,0.3702204-0.9080505,0.7953041-1.2846451,1.2670434
		c-0.3387909,0.0254879-0.651123,0.0298078-0.9227448,0.0254879l-0.0008621-0.000864
		c0.6259613-0.499819,1.3044128-0.9305186,2.0233612-1.2838912C71.7179337,2.0516636,71.7780838,2.0499358,71.8426666,2.0456157z
		 M62.4754906,12.5508327c0.2602768-1.3443708,0.7047997-2.6467295,1.3413467-3.8611231
		c0.5079231,0.169342,1.03722,0.2661095,1.5721397,0.2877092c-0.4524078,1.1164923-0.7757568,2.2789392-0.9766312,3.4646587
		L62.4754906,12.5508327z M63.8761292,8.5898647c0.626503-1.1776204,1.4148941-2.2611737,2.3420639-3.2200422
		c0.3553162,0.1110229,0.7234879,0.1753902,1.0953293,0.1918063c-0.7624741,1.0182137-1.3931885,2.1288748-1.8773499,3.3051991
		C64.9056854,8.8483057,64.3804855,8.7552109,63.8761292,8.5898647z M66.3135605,5.2751074
		c0.7179718-0.7286148,1.5143585-1.3756902,2.3748932-1.9287527c0.2022781,0.0548635,0.4099655,0.0872631,0.6192627,0.0971992
		c-0.7038269,0.5965858-1.3418808,1.2670431-1.9030457,1.9992762C67.0356369,5.4298701,66.6695175,5.3736567,66.3135605,5.2751074z
		 M68.6665268,3.2232361c-0.0551834-0.0172799-0.1076736-0.0423357-0.1557312-0.0743034l-0.0009689-0.000864
		c0.7053375-0.3974359,1.4445877-0.7313685,2.2092209-0.99791C70.0056076,2.4490998,69.3190613,2.8080881,68.6665268,3.2232361z
		 M71.3136902,2.0438879l0.0884552,0.006048C70.7099762,2.4041722,70.0596085,2.83444,69.4628067,3.332963
		c-0.213623-0.0056159-0.426384-0.0285118-0.636116-0.0691195l-0.0009689-0.000864
		C69.6105499,2.7713685,70.4442978,2.3627007,71.3136902,2.0438879z M69.4820328,3.4560816
		c0.2804718,0.0103679,0.607811,0.006048,0.9670181-0.0142558c-0.4751968,0.618186-0.8858032,1.2834592-1.2253571,1.9854522
		c-0.5554352,0.0366116-1.1123886,0.0447116-1.6688004,0.0245695C68.1226501,4.718049,68.7688065,4.0488877,69.4820328,3.4560816z
		 M71.6036682,1.4961172l0.0097198,0.0397437c-0.0637207,0.0086398-0.1264648,0.0164158-0.1893234,0.0272157l-0.0071259-0.0151199
		L71.6036682,1.4961172z M71.396637,1.5535727l0.0061493,0.0159838c-0.059288,0.0233278-0.1044312,0.0453596-0.1477356,0.0673914
		l-0.0132904-0.0371517l-0.0033417-0.0034559C71.2905807,1.5794924,71.3418808,1.5652366,71.396637,1.5535727z
		 M70.2075653,1.9557607l0.0061569,0.0099359l-0.2326279,0.0786233L70.2075653,1.9557607z M68.8947296,2.6063461
		l0.1999054-0.1028149c0.5999374-0.2928932,1.2311935-0.5158029,1.8817749-0.6652734l0.0001068,0.0021601
		c-0.724884,0.197422-1.4306564,0.4592113-2.1092148,0.7819121L68.8947296,2.6063461z M68.4426498,2.9709506
		c0.5497131-0.2900851,1.1216736-0.5352428,1.7085419-0.7400627c-0.5893478,0.2343576-1.163147,0.505975-1.7146988,0.8195498
		C68.4343338,3.023654,68.4363861,2.9968703,68.4426498,2.9709506z M68.5442734,3.2936513
		c-0.8536224,0.5568423-1.643959,1.2057002-2.3568573,1.9340446c-0.1044388-0.0363417-0.1965637-0.100925-0.2680588-0.185596
		c0.7545929-0.7042069,1.5864029-1.3202329,2.4798737-1.8370078C68.4423218,3.2422438,68.4913559,3.2724836,68.5442734,3.2936513z
		 M67.0253754,3.733423l0.0071335,0.0112319c-0.1168594,0.0825112-0.2318802,0.1654541-0.3441925,0.2540133
		C66.7989044,3.9105411,66.9112244,3.8219821,67.0253754,3.733423z M65.9476547,4.710165
		c0.0601578-0.0518394,0.1184769-0.1032467,0.1769028-0.1546545c0.6712112-0.5870819,1.4049606-1.0981328,2.1879501-1.5245125
		l-0.0008621,0.0047519c0,0.0095038,0.0006485,0.0194397,0.0018387,0.0289438
		c0.0025864,0.0133917,0.0064774,0.0263517,0.0114441,0.0388794C67.441391,3.614624,66.6175766,4.2224422,65.868927,4.9162273
		C65.8725967,4.8410597,65.9001389,4.7689166,65.9476547,4.710165z M66.0971298,5.3201432
		c-0.9237213,0.9607582-1.7102737,2.0446353-2.3374252,3.2205281c-0.1530342-0.0566454-0.2809029-0.1657248-0.3616867-0.3073654
		c0.6536102-1.1503506,1.4737549-2.1974001,2.4336472-3.1079931C65.9041367,5.2095523,65.994957,5.2765117,66.0971298,5.3201432z
		 M63.3978004,7.9609327c0.5506897-0.9819264,1.2211418-1.8917093,1.9959297-2.7081809
		c0.114151-0.1200948,0.2336044-0.2388935,0.3539124-0.3538046l0.0018387,0.0025921
		c0,0.0241919,0.0029144,0.0483832,0.0087433,0.0717111c0.0023804,0.014688,0.0061569,0.029376,0.0114517,0.0431995
		c-0.9338684,0.8808393-1.7381363,1.8899813-2.3887215,2.9967546C63.3863525,7.9954925,63.3916473,7.9786444,63.3978004,7.9609327z
		 M63.3267403,8.3527527l0.0021591,0.0030241c0.0993576,0.1261425,0.2301445,0.224206,0.3791847,0.2838211
		c-0.6463737,1.2319975-1.0984573,2.5537424-1.3615456,3.9184713l-0.4447365,0.0249472
		c-0.0110168-0.0196552-0.0291595-0.0341816-0.0384483-0.0550251C62.1101303,11.0630941,62.6050911,9.6513319,63.3267403,8.3527527z
		 M63.2607498,8.2114906l0.0017281,0.0082073c-0.0397415,0.0704155-0.0787315,0.141263-0.116745,0.2112465
		C63.1828842,8.3583689,63.2209015,8.2840652,63.2607498,8.2114906z M61.8068695,12.3720407v-0.0069122l0.0045357-0.0354233
		c0.0177116-0.1153431,0.0388794-0.2285261,0.0610199-0.3417091h0.0150108
		c-0.0348816,0.1667509-0.0664177,0.3343649-0.0947151,0.5024118v-0.0069122l-0.0170631,0.106595l-0.0006485,0.0000534
		C61.7855949,12.5174074,61.7948837,12.4446697,61.8068695,12.3720407z M58.9421997,19.6116409
		c-0.1560593,0.2669735-0.3758392,0.4907475-0.639679,0.6518803c-0.3064995,0.1874866-0.6433487,0.3205414-0.9953194,0.3926849
		c-0.4236794,0.0902863-0.8558884,0.1339188-1.2890739,0.1300297h-0.3467827v1.7439671h-2.2198105V16.718565h2.5993156
		c0.7931442-0.0410385,1.5828323,0.1291676,2.2888222,0.4929066c0.5385895,0.3002377,0.8607521,0.8791122,0.8315926,1.4951382
		h0.0001068C59.1783905,19.023262,59.0992279,19.3364601,58.9421997,19.6116409z M65.3706207,22.3435802
		c-0.2353287,0.0781918-0.476059,0.1391029-0.7201385,0.1823025h0.004425
		c-0.3827438,0.0682564-0.7711105,0.1010876-1.1599045,0.0972004c-0.5549011,0.0077744-1.1080704-0.0630722-1.6429901-0.2103825
		c-0.441391-0.1200943-0.855999-0.3231335-1.2217903-0.5978813c-0.3257256-0.2488308-0.5869751-0.5723953-0.7617188-0.9430466
		c-0.1793861-0.3879337-0.2701035-0.8112888-0.265461-1.238533c-0.0049667-0.4263802,0.0901794-0.8480072,0.2777748-1.2307549
		c0.1871605-0.3719482,0.4553223-0.6972408,0.7847214-0.9521198c0.360714-0.2764759,0.7695999-0.4834023,1.2059135-0.6104088
		c0.4994965-0.1481743,1.0184288-0.2207508,1.5394173-0.2151337c0.3965721-0.0116634,0.7933617,0.0181427,1.183773,0.0885582
		c0.218811,0.0419044,0.4330826,0.1049747,0.639679,0.1883507v1.5599365
		c-0.2341385-0.1295986-0.4818878-0.2328453-0.7387085-0.3080139c-0.284256-0.08251-0.5789833-0.1235504-0.8750076-0.1222534
		c-0.4448509-0.0190086-0.8809471,0.1278706-1.223629,0.4121227c-0.3258324,0.3032608-0.498848,0.7361221-0.4715233,1.180212
		c-0.0050774,0.2401905,0.0451431,0.47822,0.1468773,0.6955147c0.0947151,0.1931019,0.2310104,0.362875,0.3990555,0.4972267
		c0.1743126,0.1360779,0.3731384,0.2371655,0.5856781,0.2980766c0.2343597,0.0695515,0.4775734,0.1036797,0.7219734,0.1019516
		c0.2621155,0,0.523468-0.02808,0.7794266-0.08424c0.2759399-0.0635033,0.5472336-0.1451511,0.8121567-0.2449417V22.3435802z
		 M68.5132751,22.529501h-2.2295227v-5.8118h2.2295227V22.529501z M68.3638077,13.9632969
		c0.2651367,0.2354374,0.4084549,0.5793066,0.3892288,0.9335423c0.0177155,0.3507805-0.1256027,0.6898975-0.3892288,0.9218788
		c-0.5640793,0.4445248-1.3592758,0.4445248-1.9233551,0c-0.2636261-0.2319813-0.4069366-0.5710983-0.3892288-0.9218788
		c-0.0196533-0.3542356,0.1237717-0.6981049,0.3892288-0.9335423C67.0034561,13.515749,67.8008118,13.515749,68.3638077,13.9632969z
		 M67.4771347,12.2699814l-2.9362717,0.1648607c0.2003403-1.1806984,0.5235748-2.3377447,0.9755554-3.4487839
		c0.8204651,0.0444956,1.6428757,0.0419035,2.4631271-0.0077753C67.7286682,10.0616198,67.5611572,11.162075,67.4771347,12.2699814z
		 M68.0116272,8.8573236c-0.8133469,0.0517855-1.6291656,0.0573473-2.4432602,0.017766
		c0.4860992-1.1779442,1.1213531-2.2882271,1.8903046-3.304389c0.5675354,0.0259194,1.1361465,0.0207357,1.7031403-0.01512
		C68.6640472,6.6131063,68.278595,7.7194471,68.0116272,8.8573236z M71.7638321,8.4667997
		c-1.2916718,0.1874857-2.511734,0.3166523-3.6273651,0.3840437c0.2701111-1.1391721,0.6600952-2.246377,1.1633682-3.3034706
		l0.0018387,0.0030241c0.7776947-0.0488157,1.6269989-0.1416945,2.5214462-0.2747493
		C71.7558365,6.225606,71.7355347,7.2999792,71.7638321,8.4667997z M69.3652802,5.4173422
		c0.3446274-0.7050171,0.7631226-1.3711543,1.2483597-1.9880443l-0.0007553,0.0047519
		c0.4538116-0.0311036,0.9457474-0.085103,1.4631729-0.1658864c-0.1152344,0.6212099-0.1950455,1.2488997-0.2388992,1.8791811
		C70.9578323,5.2765117,70.1296997,5.3667984,69.3652802,5.4173422z M71.9425659,5.2575035l0.0018387,0.0025921
		c0.478653-0.070847,0.9535217-0.1529264,1.4357376-0.2432137c0.4822159-0.0902867,0.9625931-0.1883497,1.4288254-0.2920289
		c0.4060745,0.8622632,0.8095627,1.8558536,1.2023544,2.9557147c-0.6705704,0.1511984-1.3589554,0.2920289-2.0560837,0.42206
		c-0.6971359,0.1300306-1.3934021,0.2471008-2.0710983,0.3468924C71.8541183,7.2818356,71.8752823,6.2096224,71.9425659,5.2575035z
		 M71.8865204,8.5713425l0.0021591,0.0030241c0.6927032-0.1019506,1.3903732-0.2233419,2.0919342-0.3542366
		s1.4005356-0.2751813,2.0755234-0.4272437c0.4521942,1.2657475,0.8785706,2.6477017,1.2696381,4.0970473
		c-0.8431473,0.1931019-1.6978531,0.3663321-2.5657272,0.5309229c-0.8678818,0.1645899-1.7367325,0.3058529-2.5816116,0.4298353
		C72.0201111,11.3572826,71.9228058,9.9178734,71.8865204,8.5713425z M72.4420624,15.0365896
		c-0.0954666-0.6847124-0.1813278-1.3784981-0.2547684-2.0632105l0.005722,0.000432
		c0.8501663-0.1235514,1.7177277-0.2695656,2.5847397-0.4307003c0.8670197-0.1611347,1.7314377-0.3399801,2.5718842-0.5309229
		c0.1761475,0.6562014,0.3459244,1.3348665,0.5052185,2.0161238c0.1821976,0.7801847,0.3512192,1.5694408,0.5025253,2.3478975
		c-0.9015808,0.2043343-1.8331757,0.3974361-2.7594833,0.5698013c-0.2555237,0.0475731-0.5102921,0.0822411-0.7666855,0.1271687
		l0.0169601-0.0498409c-0.1510925-0.0768948-0.3190308-0.1140461-0.4883728-0.1079998
		c-0.01577-0.0021591-0.0315399-0.0034542-0.0473022-0.0038872c-0.2582321-0.0126362-0.4855652,0.1313801-0.5971298,0.346838
		c-0.2987213,0.0474129-0.6004715,0.1058941-0.8963928,0.1486607
		C72.6800919,16.6289253,72.5535202,15.8327579,72.4420624,15.0365896z M74.2888489,17.1631432
		c-0.0449295,0.0075054-0.0894241,0.014904-0.1343536,0.0223007C74.1917572,17.1718369,74.2408905,17.1679497,74.2888489,17.1631432
		z M72.8420944,17.5261822l0.0037766,0.0012951c0.2722626-0.0403919,0.5537109-0.0949306,0.8294296-0.1391029
		c-0.0116577,0.0434151-0.030777,0.0837002-0.0330429,0.1304626c0,0.309309,0.2237701,0.5006828,0.5865402,0.6324425
		c0.2999115,0.1157742,0.4176331,0.2380295,0.4176331,0.4423637c0,0.2276611-0.1698837,0.3797245-0.4645081,0.3797245
		c-0.1800308-0.000433-0.3564987-0.0505447-0.5096436-0.1451511l0.0002136-0.0038891l-0.0770035,0.2414856
		c0.1736679,0.0954723,0.3688202,0.1451511,0.5671082,0.1442871c0.5246582,0,0.7749939-0.3006687,0.7749939-0.6432419
		c0-0.3270206-0.1874847-0.5032749-0.5635376-0.6527443c-0.3070374-0.1183681-0.4423599-0.2211819-0.4423599-0.4289722
		c0-0.0495167,0.0171738-0.0994663,0.0433044-0.1470413c0.2334976-0.0383396,0.465477-0.0766792,0.6999435-0.1173935
		c0.0312119,0.0126896,0.0640411,0.020628,0.0936356,0.0372047l0.0190048-0.0560513
		c0.2799377-0.0490322,0.5555496-0.087965,0.8351593-0.1400738c0.9298706-0.1732311,1.8579025-0.3646049,2.7594757-0.5706673
		c0.0719299,0.3711376,0.1262512,0.726347,0.189003,1.0894928h-0.112648v0.9335423
		c0,0.4237347,0.1739883,0.6063061,0.3675232,0.6701336c0.0691223,0.490963,0.1397476,0.9840336,0.1913757,1.4526939
		c-0.5486374,0.1249008-1.1212463,0.2351131-1.6884537,0.3489456c-0.0933151-0.0818634-0.216217-0.1424522-0.4098587-0.1424522
		c-0.1858673-0.0025921-0.3691406,0.0440636-0.5308151,0.1360798l0.0628586,0.1877556
		c-0.0207367,0.0039425-0.0406113,0.008749-0.061348,0.0126896c-0.2445068,0.046278-0.4851303,0.0786781-0.7296371,0.1218777
		v-0.2017956h0.4149323v-0.2211819h-0.4149323V20.497448l-0.2840424,0.0885582v0.2928944h-0.2468796v0.2211819h0.2468796v0.2492599
		c-0.2021713,0.0347767-0.4029388,0.0683098-0.6043549,0.1009254c-0.0933151-0.0937424-0.2231293-0.1710167-0.3977661-0.2404594
		c-0.3070374-0.1183662-0.4423599-0.2203178-0.4423599-0.4281082c0-0.1546535,0.1158829-0.3317719,0.4202194-0.3317719
		c0.1456909-0.0030251,0.2895508,0.0332642,0.4166641,0.1045418l0.0795975-0.2337093
		c-0.1507721-0.0773258-0.318924-0.1149101-0.4883728-0.1088619c-0.0160904-0.002161-0.0321884-0.0034561-0.0483856-0.0043201
		c-0.3522949-0.0172806-0.6519928,0.254446-0.6691589,0.6069546c0,0.310173,0.2237701,0.5024109,0.5865402,0.6333046
		c0.057457,0.0223026,0.1023865,0.0453606,0.1468811,0.068634c-0.2103882,0.0327225-0.4255219,0.0755997-0.6338501,0.1058922
		C73.4064941,20.357481,73.1075516,18.9763908,72.8420944,17.5261822z M76.9639816,21.0613632
		c-0.1599503,0.0313206-0.3142776,0.0674992-0.4743347,0.0980091c0.1175003-0.0655003,0.2485046-0.1036777,0.3835068-0.1024895
		c0.0266724-0.0030251,0.053566-0.0030251,0.0801315,0.000864C76.9571762,21.0582314,76.9600906,21.0607166,76.9639816,21.0613632z
		 M73.772934,21.7398663l0.0036697,0.0017281c0.2500229-0.0361786,0.4979858-0.0844536,0.7485428-0.124197
		c0.0814285,0.0751667,0.1212845,0.1612949,0.1212845,0.2728043c0,0.2276611-0.1698837,0.3797245-0.4645081,0.3797245
		c-0.0902863,0.0002155-0.1794891-0.0124207-0.2654572-0.0369892C73.8705673,22.0680218,73.8160248,21.905592,73.772934,21.7398663z
		 M73.9896851,22.4847889c0.0575638,0.0083714,0.1143723,0.021492,0.1729126,0.0210075
		c0.5246582,0,0.7749939-0.2989426,0.7749939-0.6423779c0-0.1197166-0.0340195-0.2147026-0.0845566-0.3003998
		c0.1749573-0.0286732,0.3486176-0.0569153,0.52314-0.0867767v0.4943104
		c-0.01371,0.1486073,0.0261383,0.2967815,0.1123199,0.4186039c0.0824051,0.0833759,0.1962357,0.1274395,0.3132019,0.1222553
		c0.0874786,0.0012951,0.1745224-0.0120964,0.2574692-0.0397434l-0.0132828-0.2211819
		c-0.0545425,0.0155506-0.111351,0.0224628-0.1680527,0.0203037c-0.161026,0-0.2176132-0.1123199-0.2176132-0.310606v-0.5310307
		c0.2501221-0.0436306,0.5043564-0.0797558,0.7518845-0.1247387c0.2465668-0.0457363,0.4890213-0.0955791,0.7333145-0.1437454
		c0.0656662,0.0692806,0.1038971,0.1631851,0.0904999,0.2651367v0.0336952
		c-0.6166687-0.0034561-0.9590302,0.2077904-0.9590302,0.5935631c-0.0001068,0.0129604,0.0003281,0.025919,0.0011902,0.0384464
		c0.0186844,0.2501259,0.2363052,0.4376125,0.4863205,0.4190369c0.1913757,0.0056152,0.3734589-0.0820789,0.4883728-0.2354374
		h0.0097198l0.0265656,0.2000141h0.2600632c-0.0165253-0.1265755-0.0241928-0.254446-0.0230026-0.3823166l0.0025864-0.000433
		v-0.5970173c0-0.1390476-0.0301285-0.2757759-0.0955734-0.3910637c0.1833801-0.0369892,0.3652496-0.0741425,0.5466843-0.1123734
		c0.005188,0.0971451,0.0072403,0.197422,0.0072403,0.3181114h0.0035629v1.1650925h0.2901917v-0.9624863
		c-0.0002136-0.0462246,0.0063705-0.0920162,0.0194397-0.1360798c0.0530319-0.1719341,0.2096252-0.2907333,0.3892288-0.2954845
		c0.2724838,0,0.3697891,0.2177258,0.3697891,0.4743309v0.9201508h0.1181488
		c0.0329437,0.5786037,0.0495758,1.1581268,0.0489273,1.7379189c-0.7246704,0.1654549-1.4483719,0.3149242-2.187088,0.4531631
		c-0.7387085,0.1382389-1.4801254,0.2600613-2.204689,0.365469C74.511322,24.1972752,74.2372208,23.3448925,73.9896851,22.4847889z
		 M77.245636,21.6608124v0.2769089c-0.0001068,0.029808-0.0045319,0.0600471-0.0132828,0.0885582
		c-0.0597229,0.1641598-0.2182617,0.2712936-0.3927917,0.2652454c-0.0134964,0.000864-0.0271072,0.000864-0.0406036-0.0004311
		c-0.1396408-0.0129604-0.2423477-0.1369419-0.2292862-0.2764778C76.5696716,21.7104912,76.9288788,21.6539001,77.245636,21.6608124
		z M71.0118332,25.5513649c1.1413345-0.0604782,2.402977-0.1887817,3.7511292-0.3814526
		c0.2513123,0.6553383,0.5660172,1.2843246,0.9395905,1.8783188c-0.9740448,0.1343498-1.8870697,0.222908-2.683342,0.2652435
		c-0.7678757-0.4643936-1.4477234-1.0609798-2.0083466-1.7616768L71.0118332,25.5513649z M70.4180527,27.1506138
		c-1.0682144-0.4039173-2.0812454-0.9408875-3.0151138-1.5979519c-0.1007614-0.0734406-0.2024918-0.1477432-0.3016357-0.223774
		l0.0036697-0.000433c0.3804779,0.1071358,0.7713318,0.1736622,1.1658478,0.197855
		c0.733963,0.6903286,1.5694427,1.264019,2.4772797,1.7011986C70.6368637,27.2076359,70.5267029,27.1817169,70.4180527,27.1506138z
		 M68.4752655,25.5517979l0.0009689-0.001297c0.7935791,0.0509758,1.5894241,0.0544319,2.3833237,0.0103683
		c0.5429077,0.6868725,1.1946793,1.2800026,1.9296112,1.7560616c-0.5380478,0.0233288-1.0769653,0.0129604-1.6137161-0.0302391
		C70.1847763,26.8633366,69.2720795,26.2766857,68.4752655,25.5517979z M72.0309143,27.6927681l0.0035629-0.0142555
		c0.0813217,0.0250549,0.16362,0.0488148,0.2459106,0.0708466L72.0309143,27.6927681z M73.8339539,27.9502373
		c-0.1123199-0.0107994-0.2247467-0.0237598-0.3362045-0.0371513c-0.6623535-0.08424-1.3129425-0.2432137-1.9393311-0.4743309
		l0.0002136-0.001297c0.4723892,0.0254879,0.9458542,0.0233288,1.4180298-0.0064793
		c0.3988342,0.2328453,0.8257599,0.4138508,1.2704926,0.5386982C74.0994186,27.9670849,73.9595566,27.9610367,73.8339539,27.9502373
		z M74.7514038,28.054348l-0.2061691-0.0077763l0.0292664-0.0012951v-0.0440636
		c0.0610199,0.0116634,0.1184769,0.0224628,0.1769028,0.0311031V28.054348z M75.0584488,28.0608273l-0.2380295-0.0043182
		l0.0009689-0.0069122l-0.0079956-0.0099373l0.2450562-0.0133915V28.0608273z M74.8018417,27.9623337
		c-0.5551147-0.0872631-1.0911179-0.2695656-1.5845642-0.5387001l0.0002213-0.0012951
		c0.7882843-0.0431995,1.6464386-0.1317596,2.5629196-0.2609253c0.161026,0.2427807,0.3586655,0.4592113,0.5856781,0.6415138
		c0.0063705,0.0056152,0.013176,0.0107994,0.0203018,0.0151196C75.8130341,27.8940773,75.278656,27.943758,74.8018417,27.9623337z
		 M76.0059204,27.9882526c0.1775513-0.0203037,0.3583374-0.0436306,0.5423737-0.0699825l0.0388794,0.0194397
		C76.3925552,27.9588776,76.1988068,27.9757252,76.0059204,27.9882526z M78.2681732,27.6495686
		c-0.2131882,0.0492477-0.428215,0.0980625-0.6458359,0.1378059c-0.2176132,0.0397434-0.4352341,0.0743027-0.6502609,0.1045437
		c-0.0568085,0.0043201-0.1139374,0.000864-0.1698837-0.0099354l0.0002213-0.001297
		c0.2654572-0.0406075,0.5431213-0.0859661,0.8120422-0.1356468c0.2689209-0.0496788,0.543129-0.1054058,0.8085861-0.1645908
		C78.3750916,27.6111202,78.3229294,27.634016,78.2681732,27.6495686z M77.5949097,27.6219196
		c-0.3467865,0.0682564-0.6944351,0.1248474-1.0103302,0.1771183c-0.0495758-0.0280781-0.0975266-0.0591831-0.1433182-0.0928783
		c-0.2013092-0.1611347-0.3777771-0.3512115-0.5237961-0.563755l-0.0023727-0.0012951
		c0.5059738-0.0734386,1.0304184-0.1637268,1.5417938-0.2583332c0.5113754-0.0946083,1.0254517-0.2008781,1.5296936-0.3157902
		c-0.0598297,0.2509899-0.1557312,0.4924755-0.2848969,0.7158184c-0.0327225,0.0505428-0.0663147,0.0963345-0.0804596,0.1248455
		C78.2911758,27.4849777,77.9416962,27.5536652,77.5949097,27.6219196z M78.6399078,27.5566883l0.0238647-0.0302391
		c0.1580048-0.0380154,0.3076935-0.0749512,0.4575958-0.1130199C78.9610977,27.4633236,78.8006058,27.5119228,78.6399078,27.5566883
		z M80.1103134,27.1186447l-0.0124207-0.0319672l0.2256088-0.0734386l0.007988,0.0168476L80.1103134,27.1186447z
		 M80.3952103,27.0024395l-0.0071259-0.0203037l0.0009689-0.000433c0.0504379-0.028944,0.1008759-0.0600471,0.1494751-0.0915833
		l0.0203018,0.0397434l0.0301285-0.0116634C80.5243759,26.9475746,80.4597931,26.9752235,80.3952103,27.0024395z
		 M82.5972061,25.8252506c0.0681458-0.0501118,0.1362915-0.1015186,0.2017365-0.1537914l0.0088577,0.0112324L82.5972061,25.8252506z
		 M81.5222855,26.4140606c-0.1043243,0.056591-0.2024918,0.109726-0.3149185,0.1637268
		c-0.1124268,0.0539989-0.2363052,0.109726-0.3716278,0.1637268c0.3655777-0.2708626,0.6930313-0.5896759,0.9731827-0.9482307
		c0.5096436-0.170639,0.9608612-0.3434372,1.3439331-0.5149403l0.0009766-0.0004311
		C82.6547623,25.7172508,82.1073227,26.0982723,81.5222855,26.4140606z M81.9592514,25.60882
		c0.5155869-0.7084732,0.9105377-1.4977283,1.1687622-2.3349361l0.0010834-0.000864
		c0.7562103-0.2445087,1.4970779-0.5343781,2.2186203-0.8678799c-0.4807053,0.9598942-1.117569,1.8329582-1.8844681,2.584198
		C82.9759521,25.2282314,82.4735413,25.4351578,81.9592514,25.60882z M84.1153412,24.5931988
		c-0.0899582,0.0704155-0.1842422,0.1352139-0.282196,0.1939659c0.6548996-0.6977272,1.1987839-1.4904385,1.6210632-2.3487072
		l0.0017242,0.0375309h0.2654648c-0.0090714-0.0700912-0.0116653-0.1616211-0.0128555-0.2557964
		c0.2741013-0.1415863,0.5389175-0.3000202,0.7884979-0.4815121c0.0095062,0.0039406,0.0166321,0.008585,0.0264664,0.0123653
		c-0.054863,0.0889378-0.1103745,0.177496-0.1680527,0.2631397c-0.0448151,0.0672283-0.1007614,0.1260338-0.1467667,0.1924
		c-0.0190048-0.0093422-0.039856-0.0143642-0.0582123-0.025219l-0.0019455,0.0038891l-0.056694,0.1744175
		C85.5119858,23.1709061,84.859993,23.9286804,84.1153412,24.5931988z M86.5353851,22.2936859
		c-0.0694427-0.00243-0.1378098-0.0142555-0.20401-0.0339661c0.0385513-0.0568066,0.0811081-0.1075134,0.1187973-0.165184
		c0.0643692-0.0961723,0.1179352-0.1906185,0.1790619-0.2867374c0.1368332,0.0665283,0.2122192,0.138401,0.2122192,0.2487221
		C86.8414536,22.1908703,86.7432785,22.2936859,86.5353851,22.2936859z"/>
	<path d="M89.2487488,20.4607277c0.1521683-0.0038872,0.3033676,0.0263519,0.4423599,0.0885601l0.0725784-0.2337112
		c-0.1669693-0.0734386-0.3486176-0.1075668-0.5308151-0.0989265c-0.0412521-0.0021591-0.0825119-0.0021591-0.1236572,0.000433
		c-0.6082535,0.0358543-1.0722122,0.5581379-1.0362549,1.1663876c-0.0045319,0.0509758-0.0052872,0.1023827-0.0022659,0.1537914
		c0.0340195,0.5715294,0.5250931,1.0074139,1.0967331,0.9732857c0.2007675,0.0073433,0.4006729-0.028511,0.5865402-0.1045437
		l0.0052948,0.0090733l-0.054863-0.2319832c-0.1497955,0.0626392-0.3111496,0.0928802-0.4733658,0.0885601
		c-0.0469742,0.0030231-0.0941696,0.0017281-0.1409378-0.0034561c-0.4412842-0.0501118-0.7584763-0.4484119-0.7083664-0.8899117
		c-0.0051804-0.0457916-0.0064774-0.0920143-0.0038834-0.1382389
		C88.4031143,20.7842922,88.7930984,20.4352398,89.2487488,20.4607277z"/>
	<path d="M90.7448578,20.8439083c-0.028511-0.000864-0.0570221,0-0.0854263,0.0025921
		c-0.4294052,0.0367203-0.7476807,0.4147148-0.7108536,0.84412c-0.0018311,0.0224628-0.0025864,0.0449276-0.0023727,0.0678234
		c0.0043182,0.4194679,0.3479691,0.756424,0.7676544,0.7521038h0.0079956
		c0.0273209,0.0004311,0.0546417-0.000433,0.0818634-0.0030251c0.429184-0.0380154,0.7462692-0.4168758,0.7081451-0.8462791
		c0.0022659-0.0263519,0.0031357-0.0531349,0.0024872-0.0794868C91.5056,21.1653137,91.161087,20.835268,90.7448578,20.8439083z
		 M90.731575,22.2936859l-0.0035629-0.000864c-0.2796097,0-0.478653-0.2591972-0.478653-0.6130028
		c0-0.3036919,0.1450424-0.619482,0.4883728-0.619482c0.3433228,0,0.4786453,0.33955,0.4786453,0.6095467
		C91.2163773,22.0336246,91.009346,22.2936859,90.731575,22.2936859z"/>
	<path d="M93.2055054,22.0487442v-1.1616364h-0.2901917v0.9732857c0.0009689,0.0505447-0.007782,0.1010876-0.0257034,0.1486073
		c-0.0624237,0.1572456-0.2129745,0.2617893-0.3822098,0.2652454c-0.259201,0-0.3539124-0.2069263-0.3539124-0.5114841v-0.8847256
		h-0.2910614v0.9335423c0,0.5572739,0.3007812,0.6989689,0.5502548,0.6989689
		c0.2177277,0.0056152,0.421196-0.1079998,0.5308151-0.2963486h0.0052948l0.0177078,0.2600613h0.2556381
		c-0.0124207-0.1248474-0.0124207-0.2691345-0.0124207-0.4345875L93.2055054,22.0487442z"/>
	<path d="M94.48983,20.8439083c-0.2181625-0.0073433-0.4223862,0.1067028-0.5308151,0.2963486h-0.0071335l-0.0177078-0.2609253
		h-0.2556305c0.012413,0.1326237,0.012413,0.2635174,0.012413,0.4307003h0.0035706v1.1650925h0.2910538v-0.9624863
		c-0.0004349-0.0462246,0.0058289-0.0920162,0.0185776-0.1360798c0.0532455-0.1715012,0.2096252-0.2903004,0.3892288-0.2954845
		c0.2742081,0,0.3706512,0.2177258,0.3706512,0.4743309v0.9201508h0.2893295v-0.9529819
		C95.0533676,20.974802,94.7110062,20.8439083,94.48983,20.8439083z"/>
	<polygon points="96.6547775,22.4193954 96.6519623,22.4199371 96.6520767,22.4206924 	"/>
	<path d="M96.2601471,21.0750256c0.1164246-0.0021591,0.2315521,0.0241928,0.3353348,0.0768948l0.0645828-0.2229099
		c-0.1249542-0.0591831-0.2616806-0.0894222-0.3999176-0.0885582c-0.0284042-0.0017281-0.0569153-0.0017281-0.0853195-0.000433
		c-0.4485168,0.0211697-0.7949829,0.4021893-0.7737045,0.8506012c-0.002594,0.0328312-0.0030212,0.0656624-0.001297,0.0989265
		c0.0218124,0.4186039,0.3788605,0.7400074,0.7975693,0.7184086c0.1560593,0.0030231,0.3108215-0.0274315,0.454567-0.0880184
		l-0.0494614-0.2169704c-0.1111298,0.0505428-0.2318726,0.0760307-0.3539124,0.0751667
		c-0.0193329,0.000433-0.0385513-0.0004311-0.0577774-0.0021591c-0.3013153-0.0267849-0.5236893-0.2928944-0.4969025-0.5939941
		c-0.0019455-0.0216007-0.0027008-0.0431995-0.0022659-0.0643673
		C95.6988754,21.3108959,95.9534302,21.0676823,96.2601471,21.0750256z"/>
	<path d="M97.1448746,20.2118988c-0.103035-0.002161-0.1882401,0.0799179-0.1901855,0.1831665
		c-0.0019455,0.1028137,0.0801315,0.1883488,0.1831665,0.1900768h0.0017242c0.0042114,0,0.008316,0,0.0125275,0
		c0.1005478-0.0034561,0.17939-0.0876942,0.1759338-0.1883488C97.3270645,20.2957058,97.2459564,20.2136269,97.1448746,20.2118988z"
		/>
	<rect x="96.9998322" y="20.8814926" width="0.2901931" height="1.5923361"/>
	<rect x="97.7705078" y="20.133276" width="0.2901931" height="2.3419027"/>
	<polygon points="72.1964722,21.4136028 72.1974487,21.4158707 72.1974487,21.4132786 	"/>
	<path d="M55.9199562,17.9739456h-0.2716179v1.5582085h0.2503433c0.2955933,0.0181427,0.590107-0.0492477,0.8484383-0.1939678
		c0.200016-0.1360245,0.31147-0.3686543,0.2934341-0.6095448C57.0394745,18.2257977,56.6662292,17.9739456,55.9199562,17.9739456z"
		/>
	<polygon points="72.0760574,21.4199753 72.0750809,21.4202976 72.0760574,21.4225655 	"/>
	<polygon points="96.9909744,16.9667473 96.2539902,16.9667473 96.2539902,17.1481857 96.5096207,17.1481857 96.5096207,17.9249134 
		96.7255096,17.9249134 96.7255096,17.1481857 96.9909744,17.1481857 	"/>
	<path d="M97.9005432,17.1633053c0,0.1412621,0.004425,0.279501,0.0088577,0.3935471h-0.0016251l0.0158768,0.3680611h0.2106018
		l-0.0504379-0.9590302H97.798912l-0.1000061,0.3183804c-0.0309906,0.1079998-0.0627441,0.2337093-0.0884476,0.3434372h-0.0052948
		c-0.0211639-0.1114559-0.0494614-0.2306862-0.0804596-0.340414l-0.0947113-0.3209724h-0.2893295l-0.0592957,0.9590302h0.1990433
		l0.0185776-0.364603c0.0054016-0.1196632,0.0106888-0.2682705,0.0168457-0.3974361
		c0.0265656,0.1261425,0.057457,0.2617893,0.0884552,0.3758354l0.1025925,0.3689251h0.1680527l0.1185837-0.3732452
		C97.8298035,17.4225025,97.869545,17.2855587,97.9005432,17.1633053z"/>
</g>
<g id="Group_472_00000130634083795224460560000003598252063263507117_" transform="translate(-1113.948 -5745.672)">
	<g id="Group_470_00000101813224903445945620000009005417556496415363_">
		<path id="Path_1650_00000170237690915157855020000009769571886654264486_" d="M1143.1083984,5755.1933594
			c-0.3017578-0.722168-0.8146973-1.3359375-1.4714355-1.7617188c-2.083252-1.2177734-4.6425781-1.2944336-6.7947998-0.203125
			c-1.0474854,0.5673828-1.7827148,1.578125-2.0007324,2.7490234c-0.3984375,1.8344727-0.2961426,4.0166016,1.1174316,5.3911133
			c1.7359619,1.3955078,4.0522461,1.8359375,6.1790771,1.1743164c0.2227783-0.0463867,0.4390869-0.1196289,0.644165-0.2177734
			l0.0621338-0.0273438c0.6916504-0.284668,1.2982178-0.7426758,1.7614746-1.3300781
			c1.0371094-1.7460938,1.2224121-3.8691406,0.503418-5.7680664 M1139.6361084,5759.3183594
			c-0.0692139,0.3764648-0.3243408,0.6923828-0.6777344,0.8388672c-0.6292725,0.2446289-1.3338623,0.2021484-1.9294434-0.1157227
			c-0.3835449-0.3452148-0.5938721-0.8432617-0.5737305-1.3588867c-0.1099854-0.9902344-0.0550537-1.9921875,0.1627197-2.9638672
			c0.2675781-0.4995117,0.8032227-0.7949219,1.3681641-0.7548828c0.5549316-0.0664062,1.1079102,0.1376953,1.4855957,0.5498047
			c0.1733398,0.3603516,0.2596436,0.7563477,0.251709,1.15625c0.0360107,0.8823242,0.0062256,1.7666016-0.0888672,2.6445312
			 M1122.1994629,5760.2128906c-0.4855957-0.0302734-1.0301514,0.0126953-1.4997559-0.0454102l0.0141602-5.0751953
			l0.0294189-0.0424805l1.4561768-0.0136719c0.0151367-0.8242188,0.0302734-1.7080078-0.0150146-2.4589844l-5.5456543-0.0151367
			l-0.9135742,0.0161133c-0.0141602,0.7651367-0.0141602,1.6611328,0,2.4418945
			c0.5032959,0.0161133,0.9714355,0,1.4571533,0.0458984v4.9155273l-0.0141602,0.2021484l-1.4571533,0.0297852
			c-0.0302734,0.7949219-0.0302734,1.590332,0,2.3857422h6.4885254v-2.3857422L1122.1994629,5760.2128906z
			 M1138.5305176,5763.6811523c-0.628418,0.9052734-1.3861084,1.7138672-2.2490234,2.3989258
			c-0.0310059,0.0458984-0.1190186,0.027832-0.1468506-0.0131836c-0.3690186-0.230957-0.7666016-0.4194336-1.119873-0.6503906
			c0.479248-0.543457,0.907959-1.1293945,1.2810059-1.7504883h-0.4580078
			c-0.3585205,0.5649414-0.7722168,1.0922852-1.2348633,1.5751953c-0.6179199-0.2612305-1.251709-0.4829102-1.8974609-0.6650391
			l-0.0738525-0.0551758c0.1359863-0.2773438,0.2536621-0.5634766,0.3522949-0.8554688h-0.3967285l-0.3977051,0.7807617
			c-0.892334-0.1811523-1.796875-0.2973633-2.7060547-0.347168c-0.0444336-0.1289062,0.0134277-0.3178711-0.0444336-0.4335938
			h-0.3825684c-0.0311279,0.1733398,0.0435791,0.3041992-0.0444336,0.4487305
			c-0.8895264,0.0366211-1.7747803,0.1435547-2.6474609,0.3193359l-0.3984375-0.7680664
			c-0.1369629-0.0175781-0.2758789-0.0126953-0.4111328,0.0151367l0.3665771,0.8530273l-0.0435791,0.0424805
			c-0.6594238,0.1904297-1.3077393,0.4179688-1.9418945,0.6801758l-0.0587158-0.0292969
			c-0.4146729-0.4448242-0.7939453-0.921875-1.1341553-1.4262695c-0.072998-0.2475586-0.3674316-0.1030273-0.5292969-0.1318359
			c0.37854,0.6298828,0.8117676,1.2250977,1.2943115,1.7792969c-0.397583,0.2314453-0.7927246,0.4907227-1.2070312,0.6801758
			c-0.8999023-0.6855469-1.6842041-1.5102539-2.3237305-2.4433594c-0.1563721-0.0224609-0.3150635-0.0224609-0.4714355,0
			c1.1071777,1.6791992,2.6340332,3.0395508,4.4291992,3.9467773c0.0003662-0.0078125,0.0070801-0.0136719,0.0148926-0.0136719
			c0.0003662,0,0.0007324,0,0.0010986,0c0.0125732,0,0.0419922,0.0273438,0.0125732,0.0419922
			c1.1668701,0.5771484,2.4187012,0.9628906,3.7078857,1.1430664c4.4490967,0.6367188,8.8651123-1.3579102,11.3288574-5.1171875
			c-0.15625-0.015625-0.3137207-0.015625-0.4698486,0 M1132.3968506,5764.9873047l0.0428467-0.0297852
			c0.6206055,0.137207,1.2233887,0.3457031,1.7960205,0.6220703c-0.4890137,0.5234375-1.0371094,0.9892578-1.6333008,1.387207
			c-0.3355713,0.2011719-0.6778564,0.4194336-1.0310059,0.5927734l-0.6317139-0.2744141l0.0435791-0.1005859
			c0.5257568-0.6958008,0.998291-1.4306641,1.4135742-2.1977539 M1129.4968262,5764.5527344
			c0.8270264,0.0087891,1.6507568,0.105957,2.4570312,0.2895508l0.0150146,0.043457
			c-0.4259033,0.7900391-0.9229736,1.5400391-1.4847412,2.2407227c-0.2473145-0.0053711-0.4935303-0.0336914-0.7357178-0.0839844
			l-0.2515869-0.0292969c-0.0285645-0.8535156-0.0444336-1.6049805,0-2.4580078 M1126.6588135,5764.8149414
			c0.7841797-0.1611328,1.5817871-0.2485352,2.3823242-0.2597656l0.0151367,2.4453125
			c-0.3095703,0.0703125-0.647583,0.0703125-0.9421387,0.144043c-0.5894775-0.7006836-1.1021729-1.4628906-1.5291748-2.2724609
			l0.0737305-0.0571289H1126.6588135z M1124.288208,5765.5961914c0.5761719-0.2705078,1.1773682-0.4833984,1.795166-0.6367188
			l0.0595703,0.0151367c0.447876,0.7958984,0.9440918,1.5634766,1.4855957,2.2988281
			c-0.2047119,0.1166992-0.4562988,0.1865234-0.6617432,0.3037109c-0.994751-0.4916992-1.8999023-1.1464844-2.6777344-1.9379883
			v-0.0424805L1124.288208,5765.5961914z M1126.1873779,5768.0678711c-1.2359619-0.3242188-2.4017334-0.8730469-3.4393311-1.6191406
			v-0.0444336c0.3480225-0.2294922,0.7125244-0.4321289,1.0905762-0.6074219
			c0.8040771,0.7763672,1.6922607,1.4604492,2.6483154,2.0395508c-0.0845947,0.0922852-0.1837158,0.1704102-0.2935791,0.2314453
			 M1131.651001,5768.2548828c-1.600708,0.3457031-3.2578125,0.3359375-4.8544922-0.027832
			c-0.0302734-0.0722656,0.072998-0.0839844,0.1174316-0.1298828c1.496582-0.8959961,3.3712158-0.8691406,4.8410645,0.0703125
			c0.0435791,0.0839844-0.074585,0.0595703-0.1040039,0.0839844 M1133.0635986,5767.8481445l-0.6911621,0.2163086
			c-0.1171875-0.0639648-0.2261963-0.1416016-0.324707-0.2314453l0.0302734-0.0444336
			c0.9482422-0.559082,1.8218994-1.2358398,2.6004639-2.0136719c0.4003906,0.1645508,0.7811279,0.3730469,1.1350098,0.6220703
			c-0.8361816,0.6235352-1.7652588,1.1118164-2.7531738,1.4472656 M1119.951416,5751.4619141
			c0.3638916-0.503418,0.7618408-0.9814453,1.1911621-1.4301758c0.3508301-0.359375,0.7353516-0.684082,1.1484375-0.9697266
			c0.3825684,0.2460938,0.8087158,0.449707,1.1744385,0.6806641c-0.4700928,0.5405273-0.8933105,1.1206055-1.2650146,1.7329102
			c0.1445312,0.0385742,0.2966309,0.0385742,0.4412842,0c0.3652344-0.5512695,0.7790527-1.0688477,1.2364502-1.5458984
			c0.6307373,0.2314453,1.2498779,0.4765625,1.8983154,0.6508789l0.0570068,0.0571289l-0.3665771,0.8388672
			c0.1411133,0.0234375,0.2850342,0.0234375,0.4261475,0c0.1317139-0.2441406,0.2341309-0.5185547,0.3817139-0.7651367
			c0.8762207,0.1879883,1.7681885,0.2944336,2.6641846,0.3168945c0.1166992,0.1025391,0.0285645,0.3183594,0.072998,0.4482422
			h0.3977051c0.0427246-0.1420898-0.0151367-0.3027344,0.0427246-0.4321289
			c0.8677979-0.0322266,1.730835-0.1445312,2.5778809-0.3354492l0.0721436,0.0151367l0.3968506,0.75
			c0.1376953,0.0214844,0.2785645,0.0112305,0.4118652-0.0297852l-0.3682861-0.8388672l0.0302734-0.0292969
			c0.666748-0.1884766,1.3204346-0.4199219,1.9570312-0.6933594c0.4614258,0.4970703,0.8848877,1.027832,1.2667236,1.5883789
			c0.1474609,0.0146484,0.2963867,0.0043945,0.4404297-0.0302734c-0.1816406-0.3227539-0.3934326-0.6279297-0.6325684-0.9101562
			c-0.194458-0.2768555-0.411377-0.5375977-0.6484375-0.7788086v-0.074707l1.0301514-0.5922852l0.1485596-0.0566406
			c0.8956299,0.6777344,1.6794434,1.4916992,2.322876,2.4125977c0.177002,0,0.324585,0.0610352,0.472168-0.012207
			c-1.9815674-2.9477539-5.1988525-4.831543-8.7392578-5.1171875l-0.0158691,0.0288086l-0.0302734-0.0288086
			c-0.4349365-0.0483398-0.8734131-0.0541992-1.3094482-0.0166016c-0.1816406-0.0087891-0.3637695-0.003418-0.5445557,0.0166016
			c-3.5805664,0.2548828-6.838501,2.1621094-8.8129883,5.1601562c0.1569824,0.0170898,0.3156738,0.0126953,0.4714355-0.0146484
			 M1126.0560303,5750.1870117l-0.0587158,0.0126953c-0.5987549-0.1513672-1.1846924-0.3491211-1.7523193-0.5922852
			l0.0285645-0.0839844c0.7738037-0.75,1.649292-1.387207,2.6004639-1.8930664
			c0.2214355,0.0839844,0.4420166,0.1582031,0.6627197,0.2607422l-0.0428467,0.1132812
			c-0.5314941,0.6914062-1.0131836,1.4208984-1.4411621,2.1806641 M1128.9794922,5750.5742188
			c-0.3979492,0.0297852-0.7980957,0.0146484-1.192749-0.0454102c-0.4368896-0.0410156-0.8695068-0.1186523-1.2935791-0.2314453
			c0.4285889-0.8066406,0.9415283-1.565918,1.5300293-2.2651367l0.9421387,0.128418
			c0.0435791,0.75,0.0141602,1.6181641,0.0141602,2.4140625 M1129.4350586,5750.5898438
			c-0.0285645-0.7680664-0.0134277-1.6196289,0-2.4155273l0.9127197-0.1293945
			c0.5860596,0.6938477,1.0947266,1.4492188,1.5166016,2.253418c-0.7966309,0.1923828-1.6132812,0.2905273-2.4327393,0.2919922
			 M1134.1292725,5749.5771484c-0.5771484,0.2617188-1.1787109,0.4658203-1.7960205,0.6088867
			c-0.4625244-0.7851562-0.9688721-1.5439453-1.5166016-2.2724609c0.2062988-0.112793,0.4580078-0.2001953,0.6777344-0.3154297
			c0.9848633,0.4990234,1.8840332,1.1518555,2.6634521,1.9335938L1134.1292725,5749.5771484z M1132.2443848,5747.1049805
			c1.2419434,0.3237305,2.4139404,0.8725586,3.4577637,1.6191406l-0.0294189,0.0581055l-1.0141602,0.5625h-0.074585
			c-0.7836914-0.7739258-1.6639404-1.4443359-2.6188965-1.9931641
			C1131.9943848,5747.25,1132.1429443,5747.1772461,1132.2443848,5747.1049805 M1131.6572266,5746.9599609v0.03125
			c-1.4140625,0.9360352-3.2344971,0.996582-4.7077637,0.1567383c-0.0762939-0.0576172-0.2214355-0.0839844-0.2374268-0.1879883
			c1.6286621-0.3740234,3.3208008-0.3740234,4.9493408,0 M1122.6855469,5748.7539062
			c0.9260254-0.671875,1.9545898-1.1894531,3.0460205-1.5322266c0.045166-0.0454102,0.072998-0.0839844,0.1315918-0.0839844
			v0.0302734c0.1174316,0.0288086,0.2055664-0.1030273,0.3087158-0.0166016
			c0.0889893,0.074707,0.1929932,0.1318359,0.2651367,0.2041016c-0.9508057,0.5786133-1.8341064,1.2617188-2.6331787,2.0366211
			c-0.3978271-0.1513672-0.7738037-0.3554688-1.1182861-0.6054688v-0.0288086V5748.7539062z M1128.9980469,5760.3183594
			c-1.371582,0.4204102-2.8632812,0.0541992-3.8847656-0.953125c-0.1174316-0.144043-0.1912842-0.3168945-0.3095703-0.4604492
			l-1.9854736,0.0136719c-0.0310059,1.1743164-0.0452881,2.5166016,0,3.6723633l2.2061768-0.0136719l0.0294189-0.6943359
			c0.251709,0.1147461,0.5032959,0.2592773,0.7550049,0.3891602c1.5965576,0.7094727,3.4189453,0.7094727,5.0155029,0
			c1.0966797-0.5913086,1.7078857-1.8037109,1.5308838-3.0371094c-0.2756348-1.2885742-1.2541504-2.3110352-2.5291748-2.644043
			l-3.5617676-1.0273438l-0.2633057-0.1308594c-0.1229248-0.0893555-0.185791-0.2397461-0.1627197-0.3896484
			c0.2792969-0.4755859,0.9277344-0.3354492,1.4134521-0.3178711c1.0650635,0.0546875,2.0510254,0.5795898,2.6918945,1.4316406
			c0.6468506,0,1.3967285,0.0126953,2.1030273-0.0151367c0.0294189-1.1850586-0.0117188-2.2250977-0.0294189-3.4257812
			c-0.6617432-0.0151367-1.4713135-0.0151367-2.1323242,0.0151367c0.0061035,0.1982422-0.0090332,0.3964844-0.0452881,0.5913086
			l-0.677002-0.3623047c-1.7288818-0.7729492-3.7253418-0.6591797-5.3553467,0.3051758
			c-0.9088135,0.722168-1.3017578,1.9150391-0.9998779,3.0361328c0.3070068,1.0366211,1.1135254,1.8505859,2.147583,2.1665039
			c1.3094482,0.4619141,2.6767578,0.7973633,4.0029297,1.2441406c0.1317139,0.0585938,0.3078613,0.1904297,0.2794189,0.3486328
			c0,0.128418-0.1325684,0.2026367-0.2348633,0.2578125"/>
	</g>
	<g id="Group_471_00000064346937025362255590000012817697804518673333_">
		<path id="Path_1651_00000129182792861273356540000012833175003402251966_" d="M1114.8193359,5773.0981445h-0.2634277v-2.2456055
			h0.2634277V5773.0981445z"/>
		<path id="Path_1652_00000106106734405966712510000009707520182408697257_" d="M1115.3041992,5773.0073242v-0.3095703
			c0.0391846,0.0332031,0.0822754,0.0615234,0.1282959,0.0839844c0.050293,0.0253906,0.1025391,0.046875,0.1560059,0.0639648
			c0.0551758,0.0166016,0.111084,0.0297852,0.1677246,0.0400391c0.0511475,0.0083008,0.1026611,0.0126953,0.1544189,0.0136719
			c0.1271973,0.0092773,0.2541504-0.0219727,0.3623047-0.0898438c0.0799561-0.0615234,0.1245117-0.1582031,0.1191406-0.2592773
			c0.001709-0.0551758-0.0118408-0.1098633-0.0394287-0.1577148c-0.0288086-0.0473633-0.06604-0.0893555-0.1098633-0.1230469
			c-0.0523682-0.0410156-0.1085205-0.0766602-0.1677246-0.1064453c-0.0638428-0.034668-0.1334229-0.0708008-0.2071533-0.1074219
			c-0.0737305-0.0371094-0.151123-0.0800781-0.2189941-0.1210938c-0.0643311-0.0371094-0.1237793-0.0820312-0.177002-0.1342773
			c-0.0495605-0.0483398-0.0895996-0.1049805-0.1182861-0.1679688c-0.0302734-0.0683594-0.0450439-0.1425781-0.0435791-0.2167969
			c-0.0018311-0.09375,0.0213623-0.1860352,0.0670166-0.2675781c0.0440674-0.0751953,0.1046143-0.1391602,0.177002-0.1870117
			c0.0770264-0.0512695,0.1621094-0.0878906,0.251709-0.1098633c0.0933838-0.0244141,0.1895752-0.0366211,0.2860107-0.0361328
			c0.1656494-0.0092773,0.3311768,0.0195312,0.4841309,0.0839844v0.2958984
			c-0.1518555-0.0966797-0.3299561-0.1450195-0.5101318-0.1376953c-0.0577393,0-0.1153564,0.0058594-0.171875,0.0180664
			c-0.0545654,0.0102539-0.1068115,0.0302734-0.1542969,0.059082c-0.0444336,0.0258789-0.0820312,0.0620117-0.1098633,0.1049805
			c-0.0291748,0.046875-0.0437012,0.1010742-0.0419922,0.15625c-0.0013428,0.0507812,0.0095215,0.1015625,0.0317383,0.1479492
			c0.0238037,0.0444336,0.0563965,0.0834961,0.0957031,0.1152344c0.0471191,0.0385742,0.0980225,0.0717773,0.1518555,0.1000977
			c0.0604248,0.0327148,0.1300049,0.0678711,0.2071533,0.1064453s0.1577148,0.0839844,0.2298584,0.125
			c0.0681152,0.0410156,0.1314697,0.090332,0.1887207,0.1455078c0.0531006,0.0512695,0.097168,0.1113281,0.130127,0.1772461
			c0.0324707,0.0693359,0.048584,0.1459961,0.0469971,0.2231445c0.0026855,0.097168-0.0195312,0.1943359-0.0646973,0.2807617
			c-0.0427246,0.0756836-0.1031494,0.1396484-0.1760254,0.1875c-0.0769043,0.0493164-0.1622314,0.0844727-0.251709,0.1040039
			c-0.0999756,0.0219727-0.2021484,0.0327148-0.3045654,0.0317383c-0.0360107,0-0.0797119,0-0.1317139-0.0083008
			c-0.052002-0.0078125-0.1057129-0.0141602-0.1593018-0.0249023c-0.0523682-0.0102539-0.1040039-0.0234375-0.1542969-0.0410156
			C1115.3839111,5773.0522461,1115.3425293,5773.0322266,1115.3041992,5773.0073242z"/>
		<path id="Path_1653_00000010294906938200563620000017673149965966887610_" d="M1118.0196533,5773.1357422
			c-0.2889404,0.0126953-0.5686035-0.1025391-0.7650146-0.3144531c-0.1977539-0.2260742-0.3007812-0.519043-0.2878418-0.8188477
			c-0.0162354-0.3149414,0.0882568-0.6245117,0.2919922-0.8647461c0.2061768-0.2197266,0.4979248-0.3374023,0.798584-0.3227539
			c0.2834473-0.0112305,0.557373,0.1040039,0.748291,0.3134766c0.1966553,0.2265625,0.2987061,0.5195312,0.2851562,0.8188477
			c0.0174561,0.3168945-0.0870361,0.6279297-0.2918701,0.8701172
			C1118.5981445,5773.0322266,1118.3133545,5773.1484375,1118.0196533,5773.1357422z M1118.0380859,5771.0527344
			c-0.2205811-0.0068359-0.432373,0.0874023-0.574707,0.2563477c-0.293335,0.3964844-0.2958984,0.9379883-0.0058594,1.3369141
			c0.1384277,0.1665039,0.3459473,0.2592773,0.5621338,0.2519531c0.2202148,0.0102539,0.4337158-0.078125,0.5821533-0.2412109
			c0.1519775-0.190918,0.2279053-0.4316406,0.2130127-0.675293c0.0157471-0.246582-0.0574951-0.4907227-0.2062988-0.6875
			c-0.1434326-0.1630859-0.3530273-0.2514648-0.5697021-0.2412109H1118.0380859z"/>
		<path id="Path_1654_00000038408780554731795360000002857512303195539631_" d="M1120.5118408,5770.8525391l-1.0780029,2.6191406
			h-0.2398682l1.074585-2.6191406H1120.5118408z"/>
		<path id="Path_1655_00000057137473282515999420000001872896742697924268_" d="M1121.0454102,5773.0981445h-0.2634277v-2.2456055
			h0.2634277V5773.0981445z"/>
		<path id="Path_1656_00000030473674915271058340000010623898427423195296_" d="M1122.8271484,5773.0981445h-1.1912842v-2.2456055
			h1.1408691v0.2382812h-0.8791504v0.7475586h0.8103027v0.2368164h-0.8103027v0.7851562h0.9227295L1122.8271484,5773.0981445z"/>
		<path id="Path_1657_00000090262906905127283560000001735388435046726314_" d="M1124.7875977,5773.0043945
			c-0.1929932,0.0942383-0.4061279,0.1391602-0.6207275,0.1318359c-0.288208,0.0126953-0.567749-0.1000977-0.7667236-0.309082
			c-0.1986084-0.2216797-0.3022461-0.5117188-0.2885742-0.809082c-0.0141602-0.3227539,0.1030273-0.6367188,0.324585-0.8710938
			c0.2144775-0.222168,0.5125732-0.34375,0.8212891-0.3354492c0.1811523-0.0058594,0.3615723,0.0253906,0.5301514,0.0922852
			v0.2802734c-0.1630859-0.0898438-0.3465576-0.1362305-0.5327148-0.1342773
			c-0.2366943-0.0087891-0.4655762,0.0854492-0.6274414,0.2583008c-0.1669922,0.1904297-0.253418,0.4379883-0.2408447,0.6914062
			c-0.012207,0.2387695,0.0686035,0.4731445,0.225708,0.6533203c0.1512451,0.1621094,0.3654785,0.2509766,0.5871582,0.2431641
			c0.2059326,0.0058594,0.4093018-0.0463867,0.5871582-0.1503906L1124.7875977,5773.0043945z"/>
		<path id="Path_1658_00000005255230354602769850000007169611479372615300_" d="M1127.0390625,5771.4414062
			c0.0010986-0.0615234-0.0097656-0.1230469-0.0318604-0.1806641c-0.0186768-0.0478516-0.0472412-0.0913086-0.0838623-0.1269531
			c-0.0377197-0.0341797-0.0823975-0.0600586-0.1308594-0.0756836c-0.0540771-0.0180664-0.1108398-0.0263672-0.1677246-0.0249023
			c-0.0493164-0.0004883-0.0985107,0.0063477-0.145874,0.0200195c-0.0489502,0.0136719-0.0961914,0.0322266-0.1409912,0.0561523
			c-0.0462646,0.0244141-0.090332,0.0522461-0.1317139,0.0839844c-0.0424805,0.0336914-0.0819092,0.0708008-0.1181641,0.1113281
			v-0.2758789c0.0698242-0.0683594,0.1519775-0.1235352,0.2423096-0.1611328
			c0.1044922-0.0395508,0.2155762-0.0585938,0.3271484-0.0551758c0.0856934-0.0009766,0.1707764,0.0126953,0.251709,0.0400391
			c0.0751953,0.0244141,0.1445312,0.0639648,0.2038574,0.1157227c0.0584717,0.0537109,0.1047363,0.1181641,0.1359863,0.190918
			c0.0336914,0.0810547,0.050293,0.1689453,0.048584,0.2573242c0.0010986,0.0820312-0.0091553,0.1635742-0.0301514,0.2426758
			c-0.0202637,0.0717773-0.0513916,0.140625-0.0922852,0.203125c-0.0443115,0.0673828-0.0966797,0.1293945-0.1561279,0.184082
			c-0.0697021,0.0639648-0.1436768,0.1235352-0.2214355,0.1777344c-0.1048584,0.0751953-0.1912842,0.1391602-0.2601318,0.1928711
			c-0.0592041,0.0439453-0.1137695,0.0942383-0.1627197,0.1503906c-0.0369873,0.0400391-0.0655518,0.0874023-0.0838623,0.1391602
			c-0.017334,0.0512695-0.0255127,0.1054688-0.024292,0.1601562h1.1190186v0.2294922h-1.3875732v-0.1103516
			c-0.0009766-0.0849609,0.0097656-0.1694336,0.0318604-0.2514648c0.0218506-0.0751953,0.0568848-0.1455078,0.1032715-0.2080078
			c0.0552979-0.0732422,0.1185303-0.1396484,0.1887207-0.1982422c0.0782471-0.0649414,0.173584-0.1396484,0.2860107-0.2211914
			c0.0722656-0.0507812,0.140625-0.1069336,0.2045898-0.1679688c0.0500488-0.0478516,0.0942383-0.1020508,0.1317139-0.1601562
			c0.0323486-0.0498047,0.0563965-0.1044922,0.0712891-0.1621094
			C1127.03125,5771.5595703,1127.0391846,5771.5004883,1127.0390625,5771.4414062z"/>
		<path id="Path_1659_00000127013594414187578080000015787825067065290383_" d="M1129.1403809,5771.0009766
			c-0.0344238,0.059082-0.0754395,0.1342773-0.1240234,0.222168c-0.0487061,0.0883789-0.0998535,0.1889648-0.1544189,0.2993164
			c-0.0544434,0.1108398-0.1090088,0.2299805-0.1677246,0.3564453c-0.0585938,0.1264648-0.1090088,0.2602539-0.1575928,0.3955078
			c-0.0487061,0.1352539-0.0922852,0.2734375-0.130127,0.4125977c-0.0375977,0.1347656-0.0656738,0.2724609-0.0838623,0.4116211
			h-0.276001c0.019043-0.1381836,0.0469971-0.2749023,0.0838623-0.4091797
			c0.0391846-0.1396484,0.0837402-0.2763672,0.1334229-0.4101562c0.0499268-0.1337891,0.102417-0.2631836,0.1577148-0.3876953
			c0.0559082-0.1245117,0.1096191-0.2387695,0.1611328-0.3432617c0.0528564-0.1040039,0.0998535-0.1967773,0.1434326-0.2758789
			s0.0780029-0.1425781,0.1040039-0.1879883h-1.1265869v-0.2314453h1.4260254L1129.1403809,5771.0009766z"/>
		<path id="Path_1660_00000131365452905809231560000006490715506787753636_" d="M1130.8852539,5771.9663086
			c0.0024414,0.1689453-0.0147705,0.3383789-0.0512695,0.503418c-0.02771,0.1298828-0.0776367,0.2539062-0.147583,0.3666992
			c-0.0583496,0.0942383-0.1394043,0.1723633-0.2357178,0.2270508c-0.0980225,0.0527344-0.2077637,0.0791016-0.3188477,0.0771484
			c-0.1052246,0.0024414-0.2092285-0.0234375-0.3011475-0.074707c-0.0916748-0.0517578-0.1687012-0.1264648-0.223877-0.2163086
			c-0.0655518-0.1074219-0.1120605-0.2260742-0.1375732-0.3496094c-0.0333252-0.15625-0.0493164-0.3164062-0.0478516-0.4765625
			c-0.001709-0.1743164,0.0151367-0.3486328,0.050415-0.519043c0.026123-0.1337891,0.0751953-0.2617188,0.1451416-0.378418
			c0.057251-0.0961914,0.138916-0.175293,0.2364502-0.2299805c0.1000977-0.0532227,0.2121582-0.0800781,0.3254395-0.0776367
			C1130.6497803,5770.815918,1130.8852539,5771.1982422,1130.8852539,5771.9663086z M1130.6218262,5771.9902344
			c0-0.6391602-0.1518555-0.9584961-0.4554443-0.9580078c-0.3212891,0-0.4807129,0.3251953-0.4807129,0.9755859
			c0,0.6069336,0.1568604,0.9106445,0.4707031,0.9101562c0.3111572,0.0004883,0.4654541-0.309082,0.4654541-0.9272461V5771.9902344z
			"/>
		<path id="Path_1661_00000154425653685289170560000012095030502725890229_" d="M1132.6141357,5771.9663086
			c0.0026855,0.1689453-0.0141602,0.3378906-0.050415,0.503418c-0.0280762,0.1298828-0.078125,0.253418-0.147583,0.3666992
			c-0.0583496,0.0942383-0.1397705,0.1728516-0.2365723,0.2270508c-0.0976562,0.0527344-0.2071533,0.0786133-0.3179932,0.0771484
			c-0.1054688,0.0024414-0.2097168-0.0234375-0.302002-0.074707c-0.0910645-0.0522461-0.1677246-0.1264648-0.2230225-0.2163086
			c-0.06604-0.1074219-0.1124268-0.2260742-0.1375732-0.3496094c-0.0336914-0.15625-0.0498047-0.3164062-0.0478516-0.4765625
			c-0.0020752-0.1743164,0.0147705-0.3486328,0.050415-0.519043c0.0257568-0.1337891,0.074707-0.2617188,0.1442871-0.378418
			c0.0576172-0.0961914,0.1394043-0.175293,0.2373047-0.2299805c0.0998535-0.0532227,0.2116699-0.0800781,0.324707-0.0776367
			C1132.3792725,5770.815918,1132.614624,5771.1982422,1132.6141357,5771.9663086z M1132.3515625,5771.9902344
			c0-0.6391602-0.1518555-0.9584961-0.4554443-0.9580078c-0.3215332-0.0004883-0.4820557,0.3251953-0.4814453,0.9755859
			c0,0.6069336,0.1571045,0.9106445,0.4714355,0.9101562c0.3143311,0.0004883,0.4693604-0.3085938,0.4654541-0.9272461V5771.9902344
			z"/>
		<path id="Path_1662_00000013170468991479523270000018401786164203882175_" d="M1133.8800049,5773.0981445h-0.2567139v-1.9404297
			c-0.0256348,0.0253906-0.053833,0.0478516-0.0838623,0.0678711c-0.0385742,0.0249023-0.0838623,0.0512695-0.1292725,0.0761719
			c-0.0452881,0.0249023-0.097168,0.0478516-0.1500244,0.0708008c-0.0499268,0.0209961-0.1015625,0.0380859-0.1542969,0.0507812
			v-0.2592773c0.0609131-0.0175781,0.1208496-0.0390625,0.1794434-0.0634766
			c0.0632324-0.0268555,0.1253662-0.0571289,0.1862793-0.0898438c0.0612793-0.0327148,0.1182861-0.0673828,0.1737061-0.1035156
			c0.0489502-0.0322266,0.0960693-0.0673828,0.1408691-0.1054688h0.0964355L1133.8800049,5773.0981445z"/>
		<path id="Path_1663_00000096764137252543382930000015601645015789709954_" d="M1135.5561523,5772.3022461h-0.8557129v-0.2016602
			h0.8557129V5772.3022461z"/>
		<path id="Path_1664_00000150098660889015431750000008118535105037123260_" d="M1136.9678955,5771.4414062
			c0.0013428-0.0620117-0.0097656-0.1230469-0.0325928-0.1806641c-0.0383301-0.0966797-0.1185303-0.171875-0.2181396-0.203125
			c-0.0527344-0.0175781-0.1080322-0.0258789-0.1635742-0.0249023c-0.0493164-0.0004883-0.0985107,0.0063477-0.145874,0.0200195
			c-0.0488281,0.0136719-0.0961914,0.0327148-0.1409912,0.0561523c-0.0462646,0.0244141-0.09021,0.0522461-0.1315918,0.0839844
			c-0.0424805,0.0336914-0.0820312,0.0708008-0.1182861,0.1113281v-0.2758789
			c0.0698242-0.0683594,0.1519775-0.1235352,0.2423096-0.1611328c0.104126-0.0395508,0.2150879-0.0581055,0.326416-0.0551758
			c0.0855713-0.0009766,0.1706543,0.0126953,0.251709,0.0400391c0.0750732,0.0244141,0.1444092,0.0639648,0.2038574,0.1162109
			c0.0583496,0.0527344,0.1044922,0.1176758,0.1350098,0.1904297c0.0344238,0.081543,0.0513916,0.1689453,0.0495605,0.2573242
			c0.0009766,0.0820312-0.0091553,0.1635742-0.0302734,0.2426758c-0.0201416,0.0722656-0.0512695,0.140625-0.0922852,0.203125
			c-0.0441895,0.0673828-0.0966797,0.1293945-0.1560059,0.184082c-0.0697021,0.0639648-0.1437988,0.1235352-0.2215576,0.1777344
			c-0.1048584,0.0751953-0.1912842,0.1391602-0.2600098,0.1928711c-0.0593262,0.0444336-0.1141357,0.0947266-0.1635742,0.1503906
			c-0.0367432,0.0405273-0.0651855,0.0874023-0.0838623,0.1391602c-0.0174561,0.0517578-0.0256348,0.1054688-0.0244141,0.1601562
			h1.1190186v0.2299805h-1.3874512v-0.1108398c-0.0010986-0.0849609,0.0097656-0.1694336,0.0318604-0.2514648
			c0.0218506-0.0751953,0.0567627-0.1455078,0.1031494-0.2080078c0.0552979-0.0727539,0.1186523-0.1391602,0.1887207-0.1977539
			c0.078125-0.065918,0.1737061-0.1396484,0.2860107-0.2216797c0.0722656-0.0512695,0.140625-0.1074219,0.2047119-0.1679688
			c0.0500488-0.0478516,0.0942383-0.1015625,0.1317139-0.1601562c0.0323486-0.0498047,0.0563965-0.1044922,0.0712891-0.1616211
			C1136.9589844,5771.5595703,1136.9674072,5771.5004883,1136.9678955,5771.4414062z"/>
		<path id="Path_1665_00000026141669501597894400000013606376853431587739_" d="M1139.085083,5771.9663086
			c0.0024414,0.1689453-0.0147705,0.3383789-0.0511475,0.503418c-0.0275879,0.1298828-0.0771484,0.253418-0.1468506,0.3666992
			c-0.0585938,0.0942383-0.1398926,0.1723633-0.2365723,0.2270508c-0.0979004,0.0527344-0.2076416,0.0791016-0.3187256,0.0771484
			c-0.1052246,0.0019531-0.2091064-0.0234375-0.3011475-0.074707c-0.0911865-0.0522461-0.1678467-0.1264648-0.2231445-0.2163086
			c-0.0657959-0.1074219-0.112793-0.2260742-0.1384277-0.3496094c-0.032959-0.15625-0.0487061-0.3164062-0.0469971-0.4765625
			c-0.0020752-0.1743164,0.0145264-0.3486328,0.0494385-0.519043c0.026123-0.1337891,0.0751953-0.2617188,0.1451416-0.378418
			c0.057251-0.0961914,0.138916-0.175293,0.2364502-0.2299805c0.1002197-0.0527344,0.2121582-0.0800781,0.3254395-0.0776367
			C1138.8500977,5770.815918,1139.0856934,5771.1982422,1139.085083,5771.9663086z M1138.8217773,5771.9902344
			c0-0.6391602-0.1518555-0.9584961-0.4554443-0.9580078c-0.3204346-0.0004883-0.4807129,0.3251953-0.4807129,0.9755859
			c0,0.6069336,0.1572266,0.9106445,0.4714355,0.9101562c0.3143311,0.0004883,0.4692383-0.3085938,0.4647217-0.9272461V5771.9902344
			z"/>
		<path id="Path_1666_00000034068024921696755530000008389992514618822300_" d="M1140.8140869,5771.9663086
			c0.0026855,0.1689453-0.0142822,0.3378906-0.050415,0.503418c-0.02771,0.1298828-0.0777588,0.2539062-0.147583,0.3666992
			c-0.0583496,0.0942383-0.1394043,0.1723633-0.2358398,0.2270508c-0.0979004,0.0527344-0.2076416,0.0791016-0.3187256,0.0771484
			c-0.1052246,0.0024414-0.2092285-0.0234375-0.3011475-0.074707c-0.0916748-0.0517578-0.1687012-0.1264648-0.223999-0.2163086
			c-0.0655518-0.1074219-0.1119385-0.2260742-0.1374512-0.3496094c-0.0333252-0.15625-0.0494385-0.3164062-0.0478516-0.4765625
			c-0.001709-0.1743164,0.0151367-0.3486328,0.050415-0.519043c0.026123-0.1337891,0.0750732-0.2617188,0.1450195-0.378418
			c0.057373-0.0961914,0.1390381-0.175293,0.2365723-0.2299805c0.1000977-0.0532227,0.2120361-0.0800781,0.3254395-0.0776367
			C1140.5788574,5770.815918,1140.8140869,5771.1982422,1140.8140869,5771.9663086z M1140.5515137,5771.9902344
			c0-0.6391602-0.1518555-0.9584961-0.4554443-0.9580078c-0.3214111,0-0.4807129,0.3251953-0.4807129,0.9755859
			c0,0.6069336,0.1568604,0.9106445,0.4707031,0.9101562c0.3137207,0.0004883,0.4688721-0.3085938,0.4654541-0.9272461V5771.9902344
			z"/>
		<path id="Path_1667_00000048458896436806285340000015584858785122717607_" d="M1142.4641113,5772.4125977
			c0.0014648,0.1020508-0.0177002,0.203125-0.0561523,0.2978516c-0.0367432,0.0869141-0.0916748,0.1645508-0.1611328,0.2280273
			c-0.0727539,0.065918-0.1584473,0.1166992-0.251709,0.1474609c-0.1055908,0.0356445-0.2165527,0.0532227-0.3280029,0.0512695
			c-0.1604004,0.0112305-0.3209229-0.0209961-0.4645996-0.09375v-0.2729492
			c0.1381836,0.0942383,0.3009033,0.1450195,0.4680176,0.1474609c0.0750732,0.0009766,0.1497803-0.0112305,0.2205811-0.0356445
			c0.0620117-0.0224609,0.1190186-0.0566406,0.1677246-0.1010742c0.0465088-0.0429688,0.0826416-0.0961914,0.1057129-0.1552734
			c0.0250244-0.0629883,0.0375977-0.1298828,0.0368652-0.1977539c0.0064697-0.1313477-0.0479736-0.2587891-0.1477051-0.3447266
			c-0.1234131-0.0908203-0.2750244-0.1342773-0.4278564-0.1240234h-0.0955811h-0.0998535l-0.0981445,0.0048828l-0.0838623,0.0073242
			l0.0772705-1.1254883h1.0385742v0.2314453h-0.8162842l-0.0452881,0.6591797l0.1065674-0.0058594h0.0998535
			c0.1083984-0.0009766,0.2163086,0.0151367,0.3195801,0.0483398c0.0877686,0.027832,0.1690674,0.0732422,0.2390137,0.1333008
			c0.0654297,0.0585938,0.116333,0.1313477,0.149292,0.2128906
			C1142.4510498,5772.2172852,1142.467041,5772.3149414,1142.4641113,5772.4125977z"/>
	</g>
</g>
</svg>
