<svg id="Layer_1-2" data-name="Layer 1-2" xmlns="http://www.w3.org/2000/svg" width="52.413" height="52.413" viewBox="0 0 52.413 52.413">
  <g id="Page-1" transform="translate(0)">
    <g id="_0-homepage" data-name=" 0-homepage">
      <g id="header">
        <g id="Group-39">
          <g id="Group-6">
            <g id="Group-5">
              <path id="Fill-16" d="M52.943,26.857A26.207,26.207,0,1,1,26.737.65,26.206,26.206,0,0,1,52.943,26.857" transform="translate(-0.53 -0.65)" fill="#673ab7"/>
              <path id="Fill-18" d="M25.6,28.354a4.353,4.353,0,0,1-.216,1.341,1.728,1.728,0,0,1-.678,1.017,2.283,2.283,0,0,1-1.125.663,5.381,5.381,0,0,1-1.542.231h-1a3.174,3.174,0,0,1-2.359-.786,3.284,3.284,0,0,1-.786-2.467V19.6c0-.108,0-.324.108-.324a.4.4,0,0,1,.339-.123H25.08a.4.4,0,0,1,.447.447v8.756Zm6.952-12.518H27.408a.82.82,0,0,1-.57-.231,1.08,1.08,0,0,1-.447-.555l-3.083-4.7L20.332,5.477a.8.8,0,0,0-.447-.432,1.289,1.289,0,0,0-.678-.123H16.74c-.216,0-.324,0-.447.123s-.108.216-.108.447v.324c0,.123.108.231.108.339L17.48,7.82l1.125,1.7c.786,1.11,1.542,2.235,2.359,3.253a33.214,33.214,0,0,0,2.574,2.914H11.206a.883.883,0,0,0-.57.216.912.912,0,0,0-.216.57v1.788a1.653,1.653,0,0,0,.216.678c.108.216.339.216.57.216h2.467a.374.374,0,0,1,.216.123A1.1,1.1,0,0,1,14,19.6v9.249a6.162,6.162,0,0,0,.462,2.574A4.7,4.7,0,0,0,15.8,33.441a4.494,4.494,0,0,0,2.019,1.233,6.158,6.158,0,0,0,2.574.447h1.233a5.211,5.211,0,0,0,2.359-.447,3.367,3.367,0,0,0,1.464-1.341h.216v7.631a.8.8,0,0,0,.231.555.877.877,0,0,0,.555.231H28.7a.786.786,0,0,0,.786-.786h0V19.6c0-.108,0-.324.108-.324a.39.39,0,0,1,.339-.123h2.682a.739.739,0,0,0,.786-.691c0-.032,0-.063,0-.1V16.576a.771.771,0,0,0-.755-.786h-.031Z" transform="translate(4.826 1.661)" fill="#fff"/>
            </g>
          </g>
        </g>
      </g>
    </g>
  </g>
</svg>
