<svg xmlns="http://www.w3.org/2000/svg" width="465.969" height="30.226" viewBox="0 0 465.969 30.226">
  <g id="Group_538" data-name="Group 538" transform="translate(-654.707 -2609.501)">
    <g id="Group_321" data-name="Group 321" transform="translate(-35.475 6.378)">
      <path id="Path_749" data-name="Path 749" d="M1155.61,2610.289l.541.081C1155.009,2610.192,1155.639,2610.295,1155.61,2610.289Z" fill="#ef8d46"/>
      <path id="Path_750" data-name="Path 750" d="M1144.3,2608.808h.2l-1.678-.121Z" fill="#ef8d46"/>
      <path id="Path_751" data-name="Path 751" d="M1133.687,2607.733c.995.211,3.851.332,5.738.584l.309.06.861-.006Z" fill="#ef8d46"/>
      <path id="Path_752" data-name="Path 752" d="M1128.045,2606.858c.344.108-1.231-.049,1.32.146l-.238-.04Z" fill="#ef8d46"/>
      <path id="Path_753" data-name="Path 753" d="M1129.127,2606.964c1.12.1-.729-.13,0,0Z" fill="#ef8d46"/>
      <path id="Path_754" data-name="Path 754" d="M1123.951,2606.534l1.48.061c-.305-.076-1.618-.212-1.128-.2C1122.787,2606.29,1123.095,2606.374,1123.951,2606.534Z" fill="#ef8d46"/>
      <path id="Path_755" data-name="Path 755" d="M1122.542,2606.584l.767.021A2.474,2.474,0,0,0,1122.542,2606.584Z" fill="#ef8d46"/>
      <path id="Path_756" data-name="Path 756" d="M1124.935,2606.681l-1.626-.076a1.12,1.12,0,0,0,.746.041C1123.919,2606.7,1124.243,2606.664,1124.935,2606.681Z" fill="#ef8d46"/>
      <path id="Path_757" data-name="Path 757" d="M1125.851,2606.795c.825.119,1.892.235.407.179C1129.083,2607.185,1128.676,2607.019,1125.851,2606.795Z" fill="#ef8d46"/>
      <path id="Path_758" data-name="Path 758" d="M1133.132,2607.857l1.1.128.961.02C1134.715,2608,1133.067,2607.8,1133.132,2607.857Z" fill="#ef8d46"/>
      <path id="Path_759" data-name="Path 759" d="M1114.755,2605.727c-.095.051.49.187.6.266l1.094.012A10.2,10.2,0,0,1,1114.755,2605.727Z" fill="#ef8d46"/>
      <path id="Path_760" data-name="Path 760" d="M1115.352,2605.993l-1.638-.012C1115.172,2606.09,1115.441,2606.062,1115.352,2605.993Z" fill="#ef8d46"/>
      <path id="Path_761" data-name="Path 761" d="M1122.264,2606.818c.9-.01,1.794.014,2.69.035-1.068-.04-2.137-.066-3.207-.064Z" fill="#ef8d46"/>
      <path id="Path_762" data-name="Path 762" d="M1108.516,2605.29l.933-.093-1.659.128Z" fill="#ef8d46"/>
      <path id="Path_763" data-name="Path 763" d="M1104.375,2605.083c.69-.09-.932-.276-.2-.315a27.1,27.1,0,0,0-2.958.072A21.067,21.067,0,0,1,1104.375,2605.083Z" fill="#ef8d46"/>
      <path id="Path_764" data-name="Path 764" d="M1099.754,2604.916c.46-.009.938-.043,1.458-.076A14.461,14.461,0,0,0,1099.754,2604.916Z" fill="#ef8d46"/>
      <path id="Path_765" data-name="Path 765" d="M1110.933,2605.766a4.217,4.217,0,0,0-1.278-.258l.635.212Z" fill="#ef8d46"/>
      <path id="Path_766" data-name="Path 766" d="M1110.313,2605.727l-.023-.007-1.388-.085Z" fill="#ef8d46"/>
      <path id="Path_767" data-name="Path 767" d="M1111.095,2605.778l-.162-.012A.239.239,0,0,0,1111.095,2605.778Z" fill="#ef8d46"/>
      <path id="Path_768" data-name="Path 768" d="M1117.992,2606.421c-.964.019-2.968,0-1.04.243C1117.646,2606.6,1116.542,2606.457,1117.992,2606.421Z" fill="#ef8d46"/>
      <path id="Path_769" data-name="Path 769" d="M1111.884,2606.042l1.733.148c-.032-.046-.342-.129.135-.144Z" fill="#ef8d46"/>
      <path id="Path_770" data-name="Path 770" d="M1111.032,2606.043h.852l-.643-.055Z" fill="#ef8d46"/>
      <path id="Path_771" data-name="Path 771" d="M1102.722,2605.26c-.752.047-1.573.014-2.5-.018.992.089,2.018.161,2.993.208C1103.355,2605.4,1103.787,2605.308,1102.722,2605.26Z" fill="#ef8d46"/>
      <path id="Path_772" data-name="Path 772" d="M1106.411,2605.5l-.167,0C1106.346,2605.526,1106.428,2605.535,1106.411,2605.5Z" fill="#ef8d46"/>
      <path id="Path_773" data-name="Path 773" d="M1091.1,2604.853l.145.047a.316.316,0,0,1,.035-.038Z" fill="#ef8d46"/>
      <path id="Path_774" data-name="Path 774" d="M1103.38,2605.494a7.948,7.948,0,0,0,1.62.011c-.559-.009-1.15-.026-1.785-.055C1103.152,2605.474,1103.14,2605.492,1103.38,2605.494Z" fill="#ef8d46"/>
      <path id="Path_775" data-name="Path 775" d="M1097.206,2604.878c.387.065.827.125,1.289.182A5.711,5.711,0,0,0,1097.206,2604.878Z" fill="#ef8d46"/>
      <path id="Path_776" data-name="Path 776" d="M1105.994,2605.44l.112,0C1105.863,2605.385,1105.893,2605.406,1105.994,2605.44Z" fill="#ef8d46"/>
      <path id="Path_777" data-name="Path 777" d="M1105.994,2605.44c-.385.007-.689.038-.994.065.455.008.878.009,1.244,0A2.1,2.1,0,0,1,1105.994,2605.44Z" fill="#ef8d46"/>
      <path id="Path_778" data-name="Path 778" d="M1088.3,2606.264c.136-.219,2.1-.368,3.791-.1,1.671-.121.6-.816-.848-1.259-.054.09-.056.173-1.775.244.6.14,3.8.386,2.349.534a9.072,9.072,0,0,1-2.963-.271c.933.293-2.9.319-2.413.742l2-.1C1088.471,2606.111,1087.747,2606.2,1088.3,2606.264Z" fill="#ef8d46"/>
      <path id="Path_779" data-name="Path 779" d="M1094.512,2605.037h.707a20.036,20.036,0,0,1-2.436-.369c-1.177.056-1.423.126-1.506.194l3.477.153Z" fill="#ef8d46"/>
      <path id="Path_780" data-name="Path 780" d="M1098.389,2605.183c-.558.181-2.256.2-1.224.476a15.255,15.255,0,0,0,2.7-.148c-3.345-.1.964-.07-1.448-.3.658,0,1.25.015,1.808.034-.6-.055-1.181-.115-1.727-.182l.077.017h.015l0,0c.143.033.19.051.028.028h-.07a.378.378,0,0,1-.153.071c-.967-.091-.151-.062.153-.071.012-.01.038-.019.042-.029l-.012,0-3.353-.04C1095.927,2605.087,1096.815,2605.131,1098.389,2605.183Z" fill="#ef8d46"/>
      <path id="Path_781" data-name="Path 781" d="M1115.151,2606.906c-.1-.019-.1-.031-.1-.043C1114.829,2606.872,1114.746,2606.882,1115.151,2606.906Z" fill="#ef8d46"/>
      <path id="Path_782" data-name="Path 782" d="M1113.78,2606.737a6.439,6.439,0,0,1,1.24-.005c.683.085-.007.076.026.131.478-.019,1.673-.025.183-.183l-.238.009a17.136,17.136,0,0,1-2.829-.448A6.954,6.954,0,0,0,1113.78,2606.737Z" fill="#ef8d46"/>
      <path id="Path_783" data-name="Path 783" d="M1105.989,2606.024,1103.2,2606l1.414.225-.069-.1C1106.127,2606.226,1105.789,2606.091,1105.989,2606.024Z" fill="#ef8d46"/>
      <path id="Path_784" data-name="Path 784" d="M1090.78,2604.727l.376-.229-1.62.284Z" fill="#ef8d46"/>
      <path id="Path_785" data-name="Path 785" d="M1087.154,2604.623l.138-.216-.96.1Z" fill="#ef8d46"/>
      <path id="Path_786" data-name="Path 786" d="M882.861,2613.622l-.811.157A6.882,6.882,0,0,0,882.861,2613.622Z" fill="#ef8d46"/>
      <path id="Path_787" data-name="Path 787" d="M888.782,2613.317l.134-.2C888.648,2613.238,888.54,2613.322,888.782,2613.317Z" fill="#ef8d46"/>
      <path id="Path_788" data-name="Path 788" d="M998.068,2604.155c-1.2-.318-2.551-.825-2.4-.417l.376.391A8.253,8.253,0,0,1,998.068,2604.155Z" fill="#ef8d46"/>
      <path id="Path_789" data-name="Path 789" d="M937.2,2608.608l.354.115.788-.449Z" fill="#ef8d46"/>
      <path id="Path_790" data-name="Path 790" d="M936.441,2610.435l-1.584-.208A11.6,11.6,0,0,0,936.441,2610.435Z" fill="#ef8d46"/>
      <path id="Path_791" data-name="Path 791" d="M850.569,2615.988l-.925.463C851.136,2616.36,850.465,2616.2,850.569,2615.988Z" fill="#ef8d46"/>
      <path id="Path_792" data-name="Path 792" d="M1050,2603.945a22.839,22.839,0,0,0-2.573-.217C1048.673,2603.918,1049.676,2604.212,1050,2603.945Z" fill="#ef8d46"/>
      <path id="Path_793" data-name="Path 793" d="M884.926,2608.988c-.5.109-.705.209-.685.3C884.753,2609.185,885.039,2609.086,884.926,2608.988Z" fill="#ef8d46"/>
      <path id="Path_794" data-name="Path 794" d="M1044.452,2603.717l.546.081a24.109,24.109,0,0,1,2.432-.07A8.067,8.067,0,0,0,1044.452,2603.717Z" fill="#ef8d46"/>
      <path id="Path_795" data-name="Path 795" d="M733.57,2625.6l-.267.011C733.28,2625.636,733.4,2625.623,733.57,2625.6Z" fill="#ef8d46"/>
      <path id="Path_796" data-name="Path 796" d="M699.685,2630.371l1.359-.372Z" fill="#ef8d46"/>
      <path id="Path_797" data-name="Path 797" d="M1072.562,2604.073c.77,0,.122-.028,0,0Z" fill="#ef8d46"/>
      <path id="Path_798" data-name="Path 798" d="M1076.29,2605.228c-.164.028-.289.065-.309.126A.571.571,0,0,1,1076.29,2605.228Z" fill="#ef8d46"/>
      <path id="Path_799" data-name="Path 799" d="M1036.807,2605.847h-.067C1036.969,2605.912,1036.93,2605.9,1036.807,2605.847Z" fill="#ef8d46"/>
      <path id="Path_800" data-name="Path 800" d="M1073.718,2604.227c-.288-.041-.621-.077-.983-.106C1072.894,2604.146,1073.193,2604.18,1073.718,2604.227Z" fill="#ef8d46"/>
      <path id="Path_801" data-name="Path 801" d="M1073.564,2604.093l.672.044C1074.334,2604.094,1074.248,2604.063,1073.564,2604.093Z" fill="#ef8d46"/>
      <path id="Path_802" data-name="Path 802" d="M1071.49,2604.062c.44.006.85.029,1.245.059-.15-.023-.214-.04-.173-.048Z" fill="#ef8d46"/>
      <path id="Path_803" data-name="Path 803" d="M796.1,2618.689l-.167-.016C795.174,2618.874,795.511,2618.823,796.1,2618.689Z" fill="#ef8d46"/>
      <path id="Path_804" data-name="Path 804" d="M978.184,2608.9l.087-.022-.114-.011Z" fill="#ef8d46"/>
      <path id="Path_805" data-name="Path 805" d="M975.436,2609.309a4.387,4.387,0,0,1,2.721-.444l-.95-1.163Z" fill="#ef8d46"/>
      <path id="Path_806" data-name="Path 806" d="M868.7,2614.563l1.958.261c-2.3.747-4,.625-2.149,1.049.191-1.309,7.508-.555,7.7-1.877l1.292.2c-.366.008-.42.089-.782.1,2.518.487,1.784-1.056,4.991-1.057,1.12.036,1.908.182,1.158.384l2.462-.475c.723-.013.56.226-.16.241l3.779-.31-.026.04a23.81,23.81,0,0,1,2.324-.8c.972.139-.475.167-.219.321l2.078-.438c.873.3-.845.731-2.295.759,2.032,1.228,1.72-.429,5.987.123l-1.969.276c1.318.694,2.847.333,5.109.689-.543-.221-4.544-.955-2.288-1.413a6.975,6.975,0,0,0,2.707-.269c.037.478,1.229.3,2.726.186l-.068.64c1.611-.27,1.466-.581,2.405-.916,1.81-.027,2.211.448,2.657.843,2.9-.04-2.039-.693,1.38-.981a27.328,27.328,0,0,0,6.956-.748c1.7.136-.276.405.337.557l1.469-.583c.366-.007.255.156.2.238,1.249-.261.073-.643,2.043-.916.5-.736,4.111.834,6.522-.075.611.154-.274.4-.077.643a37.725,37.725,0,0,0,5.589-1.342l2.369.312c-1.748-.4.433-1.067,2.347-1.619-.623-.2-1.156-.382-1.512-.463l3.072-.48c.377.087.076.32-.418.609l.559-.178c1.113.185.557.578-.218.97l-1.129-.343c-.745.422-1.439.883-1.264,1.249a4.57,4.57,0,0,1,1-.218c-.194.114-.317.213-.222.273s.423-.093.92-.279l.732.677.158-.29,4.054.269c2.857-.832,5.327-1.979,9.9-2.45-1.117.56-.211.852-.249,1.465-1.276-.6-3.539.42-5.92.385,1.243.018.982.322.671.437l4.212-.764c-.076.5.915.338,2.029.5-.875-.953,3.132-.788,4.845-1.16.119.326-.281.679-2.387.687,2.347.645,2.955-1.283,5.256-.732-.513.027-.792-.014-.989.16,1.189-.334,4.131-.206,3.451.1l-.512.025c3.414-.007,10.379-.371,10.862-1.2a3.268,3.268,0,0,1-.616,1.174c2-.988,4-1.983,6-2.939-.514.712,1.594,2.3-1.222,2.785a12,12,0,0,0,3.526-.142c-.556-.081-1.41-.96-.655-1.046a23.782,23.782,0,0,0,4.035.944c-.834-.121.057-1.229,1.371-1.232-.2.167.139,1.058-.338,1.185l3.237-1.152c-.81.213-.119.895.619,1.167-.344-.2,2.823-.073,3.691-.205l-1.39-.2c3.69.036,3.6-1.573,7.267-1.595-.438.22-1.063,1.33.8,1.411a17.582,17.582,0,0,1,6.953-3.046l.627.282,2.48-.377a69.929,69.929,0,0,1-8.2,3.219c1.385.2.392.34,2.458.257.735.256-1.117.452-1.725.486l4.814.038c-.227-.593,3.666-.7,3.473-1.189l-5.213.76c-.225-.6,2.987-1.78,6.4-1.75.872.213-.629,1.066-.554,1.262a12.222,12.222,0,0,1,3.544-.33l-1.44.343c1.9.177,3.084-.834,5.374-.327.788.022,2.361.687,2.492.346-1.293-.622-1.576-2.648-.727-3.147.277.043,4.148.576,5.051.876,1.3.48-1.931,1.231-.821,1.645.045-.155.759-.358,1.057-.424.828.114-.336.481,1.46.375.292-.571,3.655-.024.843-.493a36.758,36.758,0,0,1,3.933.025c-.661-.353,1.841-1.235,3.6-1.4-.1.14.294.317.487.4,3.6.024,5.542.248,8.9.222.31.124,1.932.258,1.242.487a7.937,7.937,0,0,1,1.964-.3c2.007.429-2.311.085-.78.607.129-.307,2.679-.423,4.155-.609-.455-.445-3.412-.095-4.89.117-.009-.646,2.563-1.315,6.079-1.57,2.794-.132,1.211.4,1.7.319,5.246.125,4.474-1.008,8.83-.544,1.727.38.074.727.456.994-2.275.135-3.491-.244-5.034-.237l1.9.184a13.282,13.282,0,0,1-3.07.1c1.447.333,8.862.078,12.906.43.719-.11,1.962-.216,1.376-.36l-1.281.034c-1.174-.3,2.414-.354.8-.506a31.01,31.01,0,0,1,6.067-.233l.449.38a6.5,6.5,0,0,0-2.259-.144c1.01-.145,3.7.554,4.813.1l-1.692-.285a32.811,32.811,0,0,1,6.01-.273c-.969-.38-.495.025-2.011-.439,1.312.548-5.486-.2-3.373.414-1.556-.529-2.7-.268-4.741-.754.062.127.721.259-1.079.152a2.66,2.66,0,0,1-.4.1l-.122-.012.1.017c-.078.018-.085.021.037.006a3.9,3.9,0,0,1,.915.215c-.9.271-3.759.207-4.728.345-1.068-.082.448-.142-.134-.294l-1.448.207c-.141-.3-2.835-.556-.316-.672l-2.266-.067a20.119,20.119,0,0,0-4.3-.181c-1.069-.083-2.7.312-1.769.078l-3.554.152-.032-.081c-3.506-.088-7.216.458-11.225-.154a31.165,31.165,0,0,1-4.374.085l-.387-.305c-1.514.1-4.554-.327-5.2-.006-1.644-.864-7.359-.189-10.025-.323l-.095.426c-1.835-.015-3.592.119-5.866.31l.146.383c-1.957.339-5.051-.242-8.155-.148a3.244,3.244,0,0,1,1.556-.044c-3.727-.842-7.811.779-11.189.174a5.5,5.5,0,0,1-2.033.029,1.119,1.119,0,0,0,.208-.025h-.345c-.371-.064-.754-.139-1.169-.2a7.044,7.044,0,0,0,.985.2c-.647.019-1.626.086-2.584.205l-.421-.435-.222.017c-.947-.142-.752.227-.241.549a8.82,8.82,0,0,0-1.264.3c-.784-.7-2.514.3-3.579-.442-.638.39-4.823.4-5.312,1.212-.035-.1-.32-.146.2-.166a10.126,10.126,0,0,0-3.1.123l-.472-.568-2.315.841c-1.431-.318-2.026-.512-.629-.995-3.385.779-2.756.34-5.63,1.118l.129-.385c-1.035.047-2.672.611-3.307.316-2.34-.652-11.46.251-17.428-.191,1.2,1.107-2.783-.412-2.984.49-.357-.259-1.191-.381-.238-.655-3.022.384-4.575-.26-6.638.576-.359-.261.632-.426.317-.577a2.456,2.456,0,0,1-1.277.124c-.316-.151.435-.247.91-.384-3.1.16-3.374,1.029-3.566,1.829a4.568,4.568,0,0,0-3.477.354c-.557-.235-1.481-.467.44-.646-1.085.01-6.631-.085-6.713.557a4.628,4.628,0,0,0-1.8.107c-2.43.071-2.647.023-5.029.191l.666.074c-.905.811-1.974.264-3.892.456l.051-.082c-4.435-.331-1.889.362-6.27-.05l.261.466c-.353,1.049-3.883-.411-6.387.112l.925.226c-1.359.422-3.926-1.2-5.317-1.249-.307-.071.468-.171.886-.259-3.656-.4-.436.65-3.129.949-.516-.308.6-.891-1.225-.849-.921-.218-5.212,1.39-7.728.894.562.225,1.119.451-.125.716-1.916.2-5.253-.669-6.941.242-.249-.054-.345-.115-.359-.178-1.456.3-4.753.648-5.612,1.136-1.455-1.512-9.082,1.352-9.141-.116l-4.512.382.108-.156a11.706,11.706,0,0,0-4.883.94c-.674-.051-.2-.218-.145-.3a21.925,21.925,0,0,0-8.141,1.053l-.4-.43c-.94.319-6.147-.256-10.244.593.037-.053.116-.146.44-.234-4.614.868-11.229-.328-12.813,1.4l-3.038.637c3.979-.207-.539.717,1.114.84-1.554.212-4.072-.14-2.16-.373l.306.052c.642-.857-4.955.123-4.891-.421-7.809.678-15.45,1-22.763,1.675l.891.465-2.552.221c-.68-.06-.936-.333.884-.5a6.1,6.1,0,0,0-3.067.685c-3.58.142,1.333-.764.24-.668l-1.479.193.34.028a11.138,11.138,0,0,1-3.455.773c-1.392.035-.739-.249-1.285-.213,0-.037-.186-.035-.836.071l-3.215.288,1.322.268c-1.4.341-3.021.281-1.5.584-2.241-.467-11.992,1.05-13.346.992a48.871,48.871,0,0,1-6.365.96c.612,0,1.016.34-1.087.533.682-.864-3.879.113-5.635-.211,1.554.154-5.952.831-3.519,1.013-1.755.17-.137-.249-1.483-.237-4.127.832-9.194,1.018-14.312,1.908-.07.086.8.074-.282.345l-2.758.042c-1.009.191-.878.538-2.763.578.269.017.672.046-.005.166-2.528.267-5.062.7-7.613,1.113-2.548.436-5.117.838-7.673,1.358l-7.685,1.462-7.619,1.6c1.373-.269.458-.089-.57.205.673-.172,0,.055.134.047l-4.191,1.056c-.367.153-1.507.373-2.553.774l-2.282.8,1.293-.448c-1.714.611,2.427-.768,2.211-.555,1.97-.513,5.228-1.2,8.487-1.911.73-.11-.607.162-.213.12.819-.214,1.818-.427,3.684-.75l-.207.058c2.6-.533,4.49-.787,6.451-1.076,1.964-.27,4-.594,6.968-.955l-.46-.077c1.274-.158,1.549-.151,2.151-.2,1.425-.42-3.575.48-2.282.067,1.734.055,8.966-1.279,10.164-1.035,1.962-.232-.6-.132,1.357-.368l.535.049.475-.206a4.444,4.444,0,0,1,2.02.028c-.314.025-.883.133-1.216.18,1.687-.055,4.694-.6,5.273-.625l-1.894.148c5.329-.805,11.906-1.254,17.043-2.151l-.407-.073c3.93-.648,3.185-.2,7.518-.745l-.155.046a22.217,22.217,0,0,1,3.2-.506c-1.081.263,2.1.09.676.4,4.263-.689,2.1-.426,4.882-1.206l.678.167a11.5,11.5,0,0,1,3.18-.691c-1.76.373,1.423.229-.545.684,4.611.111,6.713-1.172,8.883-.572,2.025-.892-3.982-.015-2.824-.272-1-.127,1.676-.678,3.113-.751,1.457-.136,2.565.674,6.228.353-.365.028-.384.085-.748.112,1.389.072,2.664-.48,4.374-.315.9-.532,2.187-.159,2.406-.763l-3.35.426c1.892-.31,3.617-1.155,6.787-1.1a10.168,10.168,0,0,1-1.788.524c.934.094,1.757-.271,2.725-.174-.218.618-4.074.484-6.075,1.1,1.008.164,3.824-.748,2.856-.028,1.4-.936,3.619-.2,6.047-1.016l-.131.376a12.053,12.053,0,0,1,1.91-.37l-1.267.574c1.975-.559,3.907.063,5.816-.3-4.037.317-.945-.38-2.676-.518,4.937-.9,2.948.756,8.508.156-.751.11-2.853-.014-1.687-.281a18.049,18.049,0,0,1,3.149.189c3.689-.338-.6-.359.953-.708,1.3.385,1.8-.323,3.407-.6l.044.4c4.232-.042,1.049-.921,4.866-.888l-1.558.683,1.965-.29-.371.5a17.062,17.062,0,0,1,4.917-.479c-.513-.258.217-.774,2.081-.927,1.291.157-.683.445,1.958.206a2.877,2.877,0,0,1-2.387.371c-.107.145-.568.3-.679.448a23.56,23.56,0,0,0,4.406-.235,6.236,6.236,0,0,1-1.043-.03l3.79-.846c.616.12.146.282-.319.439.774-.1,1.3-.331,2.436-.445-.27.369-.173.726-1.777.994l3.624-.627c.255.137,1.905.3,1.44.459,2.04.085,4.918-1.022,7.623-.912a3.136,3.136,0,0,1,.978-.249c2.53-.075,4.8.242,7.754-.447l1.741.555c2.333-.3-2.353-.689,1.532-1.183,2.749-.386,1.068.5,2.049.627a13.535,13.535,0,0,1,6.27-.852C870.144,2614.53,869.479,2614.468,868.7,2614.563Zm28.89-1.93c-.554.13-1.654.5-2.079.241C896.116,2612.293,896.624,2612.527,897.587,2612.633Zm43.917-3.293a3.374,3.374,0,0,1-1.794-.023A6.742,6.742,0,0,1,941.5,2609.34Zm122.623-5.2-.06.015C1062.815,2604.015,1063.259,2604.071,1064.127,2604.144Zm2.6.189c.262-.04.244-.084.134-.132a5.06,5.06,0,0,1-1.432.033A2.686,2.686,0,0,0,1066.729,2604.333Zm-279.021,12.778.513.038C787.092,2617.362,787.4,2617.242,787.708,2617.111Z" fill="#ef8d46"/>
      <path id="Path_807" data-name="Path 807" d="M936.545,2610.222a.446.446,0,0,1-.251-.25C936.077,2610.063,936.076,2610.156,936.545,2610.222Z" fill="#ef8d46"/>
      <path id="Path_808" data-name="Path 808" d="M850.741,2615.9h-.089a.217.217,0,0,0-.083.085Z" fill="#ef8d46"/>
      <path id="Path_809" data-name="Path 809" d="M1026.458,2607.549a4.148,4.148,0,0,1-1.034-.187C1025.4,2607.462,1025.64,2607.54,1026.458,2607.549Z" fill="#ef8d46"/>
      <path id="Path_810" data-name="Path 810" d="M1080.527,2604.145l-1.669.031a8.611,8.611,0,0,1,1.5.134C1080.322,2604.242,1080.005,2604.136,1080.527,2604.145Z" fill="#ef8d46"/>
      <path id="Path_811" data-name="Path 811" d="M1094.954,2606.226c.244-.025.516.008.757-.017l-.063-.115C1094.611,2606.077,1093.884,2606.155,1094.954,2606.226Z" fill="#ef8d46"/>
      <path id="Path_812" data-name="Path 812" d="M1082.055,2605.141c.127.242,1.174.189,2.342.179l-.207-.006C1084.54,2605,1083.3,2605.067,1082.055,2605.141Z" fill="#ef8d46"/>
      <path id="Path_813" data-name="Path 813" d="M1084.668,2605.32c.359,0,.727,0,1.078.024C1085.886,2605.22,1085.31,2605.3,1084.668,2605.32Z" fill="#ef8d46"/>
      <path id="Path_814" data-name="Path 814" d="M1070.032,2604.228c.553.08.35-.329.663-.214C1071.316,2603.691,1067,2604.335,1070.032,2604.228Z" fill="#ef8d46"/>
      <path id="Path_815" data-name="Path 815" d="M1082.986,2605.946l-.413-.3-.658.221Z" fill="#ef8d46"/>
      <path id="Path_816" data-name="Path 816" d="M1073.776,2605.591l1.863.11c-.027-.052.21-.08.5-.1A14.083,14.083,0,0,0,1073.776,2605.591Z" fill="#ef8d46"/>
      <path id="Path_817" data-name="Path 817" d="M1076.14,2605.6a11.48,11.48,0,0,0,1.5-.032C1077.318,2605.569,1076.621,2605.57,1076.14,2605.6Z" fill="#ef8d46"/>
      <path id="Path_818" data-name="Path 818" d="M1080.436,2605.985l-.55-.068-1.316-.036Z" fill="#ef8d46"/>
      <path id="Path_819" data-name="Path 819" d="M1053.731,2605.378l-2.035.1c-.207.127.347.2,1.1.156C1053.288,2605.546,1054.043,2605.5,1053.731,2605.378Z" fill="#ef8d46"/>
      <path id="Path_820" data-name="Path 820" d="M1059.883,2606.36a2.565,2.565,0,0,1-.9-.266l-.063.438Z" fill="#ef8d46"/>
      <path id="Path_821" data-name="Path 821" d="M1053.951,2606.483c-.2.125-2.952.375-.374.333C1053.783,2606.69,1055.82,2606.579,1053.951,2606.483Z" fill="#ef8d46"/>
      <path id="Path_822" data-name="Path 822" d="M1023.294,2606.177l.517-.015-.086-.857Z" fill="#ef8d46"/>
      <path id="Path_823" data-name="Path 823" d="M996.334,2608.951c2.413.157.557-.591,2.741-.371.56-.234-1.785-.18-1.21-.385C996.417,2608.464,995.65,2608.355,996.334,2608.951Z" fill="#ef8d46"/>
      <path id="Path_824" data-name="Path 824" d="M997.865,2608.2c.232-.043.478-.094.739-.161A4.716,4.716,0,0,0,997.865,2608.2Z" fill="#ef8d46"/>
      <path id="Path_825" data-name="Path 825" d="M694.21,2631.909l-1.466.516.948-.326Z" fill="#ef8d46"/>
      <path id="Path_826" data-name="Path 826" d="M691.406,2632.922l-.348.114-.876.313Z" fill="#ef8d46"/>
      <path id="Path_827" data-name="Path 827" d="M901.956,2613.694l.109-.161a2.663,2.663,0,0,0-1.338-.135Z" fill="#ef8d46"/>
      <path id="Path_828" data-name="Path 828" d="M880.949,2614.352l.362-.008-.709-.531Z" fill="#ef8d46"/>
      <path id="Path_829" data-name="Path 829" d="M863.391,2616.079c.72-.02,1.556-.2,2.279-.215C864.111,2616.058,863.151,2615.4,863.391,2616.079Z" fill="#ef8d46"/>
    </g>
    <g id="Group_322" data-name="Group 322" transform="translate(-35.475 6.378)">
      <path id="Path_830" data-name="Path 830" d="M1118.957,2619.467l.428.059C1118.481,2619.4,1118.98,2619.472,1118.957,2619.467Z" fill="#ef8d46"/>
      <path id="Path_831" data-name="Path 831" d="M1110.017,2618.35l.16.007-1.322-.131Z" fill="#ef8d46"/>
      <path id="Path_832" data-name="Path 832" d="M1101.652,2617.311c.782.189,3.033.358,4.521.574l.243.047.679.026C1105.283,2617.736,1102.926,2617.493,1101.652,2617.311Z" fill="#ef8d46"/>
      <path id="Path_833" data-name="Path 833" d="M1097.2,2616.614c.272.071-.971-.049,1.043.11l-.189-.029Z" fill="#ef8d46"/>
      <path id="Path_834" data-name="Path 834" d="M1098.057,2616.7c.885.079-.575-.09,0,0Z" fill="#ef8d46"/>
      <path id="Path_835" data-name="Path 835" d="M1093.972,2616.353l1.168.061c-.241-.051-1.277-.154-.89-.14C1093.053,2616.187,1093.3,2616.242,1093.972,2616.353Z" fill="#ef8d46"/>
      <path id="Path_836" data-name="Path 836" d="M1092.859,2616.352l.606.033A2.632,2.632,0,0,0,1092.859,2616.352Z" fill="#ef8d46"/>
      <path id="Path_837" data-name="Path 837" d="M1094.748,2616.457l-1.283-.072a1.147,1.147,0,0,0,.589.037C1093.946,2616.451,1094.2,2616.435,1094.748,2616.457Z" fill="#ef8d46"/>
      <path id="Path_838" data-name="Path 838" d="M1095.472,2616.54c.651.085,1.493.173.321.115C1098.023,2616.827,1097.7,2616.722,1095.472,2616.54Z" fill="#ef8d46"/>
      <path id="Path_839" data-name="Path 839" d="M1101.215,2617.359l.868.13.756.059C1102.462,2617.519,1101.164,2617.322,1101.215,2617.359Z" fill="#ef8d46"/>
      <path id="Path_840" data-name="Path 840" d="M1086.719,2615.624c-.075.028.385.125.469.176l.864.037A10.4,10.4,0,0,1,1086.719,2615.624Z" fill="#ef8d46"/>
      <path id="Path_841" data-name="Path 841" d="M1087.188,2615.8l-1.292-.052C1087.046,2615.853,1087.258,2615.843,1087.188,2615.8Z" fill="#ef8d46"/>
      <path id="Path_842" data-name="Path 842" d="M1092.64,2616.485l2.123.076-2.531-.107Z" fill="#ef8d46"/>
      <path id="Path_843" data-name="Path 843" d="M1081.8,2615.177l.736-.022-1.31.017Z" fill="#ef8d46"/>
      <path id="Path_844" data-name="Path 844" d="M1078.534,2614.9c.545-.029-.734-.2-.16-.2a18.774,18.774,0,0,0-2.336-.018A15.96,15.96,0,0,1,1078.534,2614.9Z" fill="#ef8d46"/>
      <path id="Path_845" data-name="Path 845" d="M1074.887,2614.714l1.151-.027C1075.652,2614.683,1075.271,2614.688,1074.887,2614.714Z" fill="#ef8d46"/>
      <path id="Path_846" data-name="Path 846" d="M1083.7,2615.542a4.584,4.584,0,0,0-1.007-.194l.5.149Z" fill="#ef8d46"/>
      <path id="Path_847" data-name="Path 847" d="M1083.213,2615.5l-.017,0-1.1-.1Z" fill="#ef8d46"/>
      <path id="Path_848" data-name="Path 848" d="M1083.831,2615.554l-.128-.012A.243.243,0,0,0,1083.831,2615.554Z" fill="#ef8d46"/>
      <path id="Path_849" data-name="Path 849" d="M1089.269,2616.129c-.76-.015-2.342-.082-.821.117C1089,2616.227,1088.125,2616.111,1089.269,2616.129Z" fill="#ef8d46"/>
      <path id="Path_850" data-name="Path 850" d="M1084.451,2615.734l1.367.136c-.025-.028-.269-.087.108-.082Z" fill="#ef8d46"/>
      <path id="Path_851" data-name="Path 851" d="M1083.779,2615.712l.672.023-.507-.051Z" fill="#ef8d46"/>
      <path id="Path_852" data-name="Path 852" d="M1077.229,2614.958c-.595.019-1.243-.012-1.975-.043.782.067,1.593.121,2.363.164C1077.727,2615.056,1078.069,2615,1077.229,2614.958Z" fill="#ef8d46"/>
      <path id="Path_853" data-name="Path 853" d="M1080.137,2615.227l-.132,0C1080.085,2615.239,1080.15,2615.248,1080.137,2615.227Z" fill="#ef8d46"/>
      <path id="Path_854" data-name="Path 854" d="M1068.05,2614.53l.115.031.028-.022Z" fill="#ef8d46"/>
      <path id="Path_855" data-name="Path 855" d="M1077.747,2615.112a8.172,8.172,0,0,0,1.277.065l-1.407-.1C1077.567,2615.091,1077.557,2615.1,1077.747,2615.112Z" fill="#ef8d46"/>
      <path id="Path_856" data-name="Path 856" d="M1072.874,2614.659l1.017.125A5.9,5.9,0,0,0,1072.874,2614.659Z" fill="#ef8d46"/>
      <path id="Path_857" data-name="Path 857" d="M1079.808,2615.175l.089,0C1079.7,2615.137,1079.729,2615.15,1079.808,2615.175Z" fill="#ef8d46"/>
      <path id="Path_858" data-name="Path 858" d="M1079.808,2615.175c-.3-.01-.543,0-.784,0l.981.046C1079.933,2615.208,1079.86,2615.19,1079.808,2615.175Z" fill="#ef8d46"/>
      <path id="Path_859" data-name="Path 859" d="M1065.828,2615.32a8.694,8.694,0,0,1,3,.014c1.32-.039.479-.478-.66-.773-.043.053-.046.1-1.4.111.472.1,3,.308,1.851.367a9.356,9.356,0,0,1-2.338-.222c.734.194-2.293.133-1.913.4l1.577-.019C1065.965,2615.232,1065.392,2615.268,1065.828,2615.32Z" fill="#ef8d46"/>
      <path id="Path_860" data-name="Path 860" d="M1070.745,2614.709l.558.015c-.634-.055-1.087-.127-1.92-.271a3.718,3.718,0,0,0-1.191.086l2.745.162Z" fill="#ef8d46"/>
      <path id="Path_861" data-name="Path 861" d="M1073.806,2614.856c-.441.1-1.783.091-.97.271a16,16,0,0,0,2.132-.055c-2.642-.1.762-.03-1.142-.2l1.428.043-1.363-.131.06.012h.013l0,0c.113.022.15.033.022.017h-.055a.356.356,0,0,1-.122.041c-.763-.067-.118-.04.122-.041.009-.006.03-.011.033-.017l-.01,0-2.648-.072C1071.862,2614.771,1072.563,2614.8,1073.806,2614.856Z" fill="#ef8d46"/>
      <path id="Path_862" data-name="Path 862" d="M1087.026,2616.342c-.082-.014-.077-.021-.083-.028C1086.771,2616.313,1086.706,2616.317,1087.026,2616.342Z" fill="#ef8d46"/>
      <path id="Path_863" data-name="Path 863" d="M1085.944,2616.2a6.5,6.5,0,0,1,.978.03c.54.07-.005.046.021.08.378,0,1.321.031.145-.1l-.188,0a17.485,17.485,0,0,1-2.23-.346A7.006,7.006,0,0,0,1085.944,2616.2Z" fill="#ef8d46"/>
      <path id="Path_864" data-name="Path 864" d="M1079.8,2615.525l-2.2-.115,1.113.186-.053-.064C1079.909,2615.651,1079.643,2615.558,1079.8,2615.525Z" fill="#ef8d46"/>
      <path id="Path_865" data-name="Path 865" d="M1067.8,2614.448l.3-.13-1.282.138Z" fill="#ef8d46"/>
      <path id="Path_866" data-name="Path 866" d="M1064.938,2614.312l.111-.127-.759.039Z" fill="#ef8d46"/>
      <path id="Path_867" data-name="Path 867" d="M903.452,2618.844l-.642.1C903.115,2618.908,903.31,2618.875,903.452,2618.844Z" fill="#ef8d46"/>
      <path id="Path_868" data-name="Path 868" d="M908.132,2618.611l.108-.121C908.027,2618.565,907.941,2618.616,908.132,2618.611Z" fill="#ef8d46"/>
      <path id="Path_869" data-name="Path 869" d="M994.568,2612.937c-.946-.191-2.005-.5-1.888-.252l.293.236A8.488,8.488,0,0,1,994.568,2612.937Z" fill="#ef8d46"/>
      <path id="Path_870" data-name="Path 870" d="M946.433,2615.521l.279.07.628-.267Z" fill="#ef8d46"/>
      <path id="Path_871" data-name="Path 871" d="M945.807,2616.615l-1.248-.128A12.484,12.484,0,0,0,945.807,2616.615Z" fill="#ef8d46"/>
      <path id="Path_872" data-name="Path 872" d="M877.924,2620.563l-.738.289C878.365,2620.779,877.838,2620.688,877.924,2620.563Z" fill="#ef8d46"/>
      <path id="Path_873" data-name="Path 873" d="M1035.6,2613.284c-.813-.1-1.461-.147-2.03-.172A5.585,5.585,0,0,0,1035.6,2613.284Z" fill="#ef8d46"/>
      <path id="Path_874" data-name="Path 874" d="M905.147,2616.048c-.393.068-.56.13-.545.186C905.007,2616.167,905.235,2616.1,905.147,2616.048Z" fill="#ef8d46"/>
      <path id="Path_875" data-name="Path 875" d="M1031.218,2613.049l.43.059c.6-.018,1.2-.028,1.923,0A8.314,8.314,0,0,0,1031.218,2613.049Z" fill="#ef8d46"/>
      <path id="Path_876" data-name="Path 876" d="M785.451,2628.126l-.21.012C785.222,2628.154,785.315,2628.144,785.451,2628.126Z" fill="#ef8d46"/>
      <path id="Path_877" data-name="Path 877" d="M758.632,2631.61l1.084-.247Z" fill="#ef8d46"/>
      <path id="Path_878" data-name="Path 878" d="M1053.42,2613.633c.608.021.1-.013,0,0Z" fill="#ef8d46"/>
      <path id="Path_879" data-name="Path 879" d="M1056.353,2614.426c-.13.012-.228.031-.245.067A.523.523,0,0,1,1056.353,2614.426Z" fill="#ef8d46"/>
      <path id="Path_880" data-name="Path 880" d="M1025.155,2614.226h-.053C1025.283,2614.266,1025.252,2614.258,1025.155,2614.226Z" fill="#ef8d46"/>
      <path id="Path_881" data-name="Path 881" d="M1054.332,2613.756c-.227-.032-.489-.063-.775-.09Z" fill="#ef8d46"/>
      <path id="Path_882" data-name="Path 882" d="M1054.212,2613.672l.53.044C1054.819,2613.693,1054.752,2613.672,1054.212,2613.672Z" fill="#ef8d46"/>
      <path id="Path_883" data-name="Path 883" d="M1052.574,2613.616c.347.009.671.019.983.05-.119-.017-.169-.029-.137-.033Z" fill="#ef8d46"/>
      <path id="Path_884" data-name="Path 884" d="M834.894,2622.861l-.131-.007C834.16,2622.989,834.427,2622.952,834.894,2622.861Z" fill="#ef8d46"/>
      <path id="Path_885" data-name="Path 885" d="M978.8,2615.716l.069-.013-.089-.007Z" fill="#ef8d46"/>
      <path id="Path_886" data-name="Path 886" d="M976.627,2615.943a4.474,4.474,0,0,1,2.155-.247l-.737-.7Z" fill="#ef8d46"/>
      <path id="Path_887" data-name="Path 887" d="M892.254,2619.5l1.542.144c-1.823.464-3.166.4-1.712.644.17-.787,5.937-.383,6.105-1.178l1.017.113c-.289.007-.333.056-.619.063,1.981.275,1.424-.647,3.956-.668.884.013,1.5.1.909.222l1.951-.3c.571-.015.439.131-.129.145l2.987-.223-.021.025c.42-.149,1.378-.394,1.846-.5.765.074-.377.106-.178.195l1.647-.283c.685.172-.677.447-1.823.479,1.588.717,1.364-.275,4.726.014l-1.558.186c1.031.4,2.243.17,4.024.364-.426-.13-3.575-.529-1.787-.828a7.49,7.49,0,0,0,2.14-.182c.024.286.967.176,2.152.11l-.063.384a6.887,6.887,0,0,0,1.912-.556,2.814,2.814,0,0,1,2.088.5c2.29-.035-1.6-.408,1.1-.594a28.261,28.261,0,0,0,5.5-.475c1.337.075-.223.244.26.333l1.167-.356c.289,0,.2.093.155.142.989-.16.065-.386,1.625-.557.4-.44,3.235.479,5.151-.085.481.088-.221.245-.069.387a38.345,38.345,0,0,0,4.431-.844l1.867.17c-1.376-.229.355-.648,1.874-.966-.489-.124-.908-.233-1.188-.282l2.433-.279c.3.054.056.192-.338.364l.444-.1c.877.115.433.349-.185.581l-.887-.209c-.594.251-1.148.526-1.015.746a4.711,4.711,0,0,1,.8-.128c-.155.068-.254.127-.179.163a2.191,2.191,0,0,0,.73-.164l.57.408.129-.173,3.2.166a45.747,45.747,0,0,1,7.853-1.473c-.89.337-.178.512-.216.88-1-.357-2.8.253-4.68.233.981.01.771.192.524.261l3.337-.459c-.066.3.718.2,1.6.3-.679-.572,2.485-.474,3.842-.7.09.195-.231.407-1.894.412,1.846.385,2.35-.767,4.161-.447-.406.018-.625-.006-.783.1.943-.205,3.265-.139,2.724.049l-.4.017c2.7-.031,8.2-.247,8.6-.722a1.892,1.892,0,0,1-.5.7l4.776-1.724c-.415.425,1.231,1.388-1,1.666a12.492,12.492,0,0,0,2.789-.072c-.439-.051-1.1-.581-.506-.63a23.679,23.679,0,0,0,3.177.581c-.658-.076.06-.737,1.1-.734-.161.1.1.636-.281.71l2.571-.679c-.643.125-.1.536.475.7-.27-.117,2.231-.033,2.918-.109l-1.1-.123c2.916.036,2.868-.929,5.761-.944-.349.133-.856.8.616.847a15.839,15.839,0,0,1,5.528-1.8l.493.177,1.963-.2c-1.221.45-4.645,1.424-6.513,1.87a5.768,5.768,0,0,0,1.939.154c.578.153-.888.271-1.369.292,1.268,0,2.536.016,3.8.051-.172-.359,2.905-.376,2.758-.67l-4.127.39c-.171-.362,2.38-1.03,5.076-.969.687.139-.509.631-.452.75a12.983,12.983,0,0,1,2.8-.159l-1.142.193c1.5.122,2.446-.474,4.25-.151.622.02,1.858.432,1.965.229-1.014-.384-1.215-1.6-.538-1.894.218.028,3.27.38,3.98.568,1.025.3-1.539.722-.667.98.038-.093.6-.209.84-.246.653.076-.271.286,1.149.237.238-.339,2.888.017.672-.288,1.389-.1,1.476.064,3.107.043-.518-.215,1.469-.734,2.862-.823-.082.083.23.191.381.24,2.849.011,4.375.219,7.031.257.244.08,1.524.192.976.316a8.231,8.231,0,0,1,1.554-.142c1.581.289-1.826.013-.622.351a18.507,18.507,0,0,1,3.289-.305c-.354-.276-2.7-.1-3.864,0,0-.384,2.039-.745,4.819-.851,2.209-.041.953.258,1.337.215,4.143.147,3.544-.543,6.981-.2,1.361.252.051.437.35.6-1.8.05-2.756-.194-3.974-.211l1.5.136a13.764,13.764,0,0,1-2.426.02c1.14.224,7,.172,10.192.4.57-.065,1.552-.106,1.091-.2l-1.012.008c-.925-.188,1.911-.192.632-.3a30.588,30.588,0,0,1,4.794.015l.351.24a6.711,6.711,0,0,0-1.783-.147c.8-.061,2.917.433,3.8.185l-1.333-.215a36.364,36.364,0,0,1,4.748-.033c-.762-.247-.391,0-1.584-.3,1.031.362-4.33-.243-2.667.175-1.224-.359-2.132-.233-3.737-.579.047.078.567.174-.853.062a2.861,2.861,0,0,1-.314.051l-.1-.011.078.013c-.062.009-.067.011.029,0a3.87,3.87,0,0,1,.721.153c-.711.124-2.971.037-3.739.126-.842-.058.356-.082-.1-.178l-1.146.113c-.108-.179-2.234-.357-.243-.407l-1.79-.058a21.736,21.736,0,0,0-3.394-.164c-.843-.065-2.137.149-1.4.022l-2.809.042-.025-.049c-2.769-.1-5.705.185-8.866-.266a32.474,32.474,0,0,1-3.456-.032l-.3-.19a39.141,39.141,0,0,0-4.109-.032c-1.289-.517-5.811-.157-7.916-.262l-.08.254c-1.45-.024-2.84.041-4.638.137l.111.231c-1.55.185-3.988-.182-6.441-.169a3.342,3.342,0,0,1,1.229-.008c-2.935-.553-6.181.359-8.841.016a5.692,5.692,0,0,1-1.607.017,1.106,1.106,0,0,0,.165-.014h-.272l-.922-.119a7.256,7.256,0,0,0,.776.122c-.511.011-1.285.052-2.044.123l-.327-.261-.175.01c-.747-.09-.6.133-.2.328a9.123,9.123,0,0,0-1,.174c-.611-.423-1.989.173-2.822-.279-.508.232-3.815.221-4.211.708-.027-.062-.251-.089.159-.1a10.5,10.5,0,0,0-2.45.062l-.366-.342-1.839.5c-1.127-.2-1.595-.314-.485-.6-2.684.452-2.182.186-4.462.634l.107-.23a12.567,12.567,0,0,1-2.617.166c-1.84-.385-9.054.2-13.763-.072.932.664-2.193-.246-2.363.3-.279-.155-.936-.228-.18-.393-2.392.231-3.611-.155-5.251.348-.28-.157.505-.256.258-.347a2.514,2.514,0,0,1-1.01.075c-.247-.091.346-.148.723-.231-2.448.1-2.678.613-2.839,1.095a4.652,4.652,0,0,0-2.752.2c-.437-.142-1.164-.284.355-.386-.857-.016-5.235-.014-5.307.367a4.8,4.8,0,0,0-1.421.076c-1.92.06-2.09.032-3.974.15l.525.04c-.725.494-1.562.171-3.079.292l.041-.049c-3.5-.182-1.5.224-4.951-.006l.2.278c-.293.631-3.061-.232-5.046.091l.728.132c-1.079.258-3.084-.7-4.183-.731-.241-.043.373-.1.7-.157-2.883-.235-.353.39-2.484.571-.4-.184.482-.535-.956-.508-.725-.122-4.134.887-6.113.614.44.13.877.26-.108.431-1.516.14-4.137-.347-5.483.213-.2-.031-.271-.067-.281-.1a36.853,36.853,0,0,0-4.446.72c-1.128-.9-7.191.872-7.216-.009l-3.569.253.088-.094a11.9,11.9,0,0,0-3.867.625c-.531-.023-.151-.129-.11-.177a22.662,22.662,0,0,0-6.44.736l-.308-.254c-.747.21-4.847-.088-8.1.459.03-.033.094-.089.352-.145-3.656.567-8.858-.1-10.134.972l-2.407.429c3.142-.184-.437.44.865.488-1.229.152-3.21-.021-1.7-.191l.241.027c.52-.525-3.91.149-3.851-.179-6.169.547-12.208.766-17.985,1.306l.694.264-2.016.177c-.535-.024-.732-.184.706-.313a6.219,6.219,0,0,0-2.431.466c-2.825.147,1.066-.483.2-.407l-1.169.142.267.011a11.39,11.39,0,0,1-2.738.526c-1.1.045-.578-.137-1.009-.106,0-.022-.146-.018-.66.057l-2.54.23,1.037.138c-1.114.229-2.387.222-1.191.377-1.757-.243-9.479.777-10.544.775a46.161,46.161,0,0,1-5.033.713c.482-.013.792.186-.869.343.557-.534-3.058.143-4.433-.018,1.22.069-4.708.607-2.8.674-1.387.125-.1-.148-1.162-.124-1.637.274-3.454.459-5.369.65-1.914.208-3.921.461-5.948.765-.057.053.631.028-.232.214l-2.17.083a8.044,8.044,0,0,1-2.19.406c.211.005.527.014-.009.1-3.988.46-8.05,1.025-12.1,1.776l-6.091,1.034c-2.026.357-4.065.6-6.052,1.076,1.083-.22.365-.053-.458.133.537-.115-.006.034.1.027l-3.339.705c-.6.163-3.569.808-3.913.9l1.054-.236c-1.4.317,1.975-.384,1.779-.294,1.567-.365,4.173-.757,6.745-1.343.579-.072-.486.1-.175.075.655-.136,1.453-.265,2.937-.467l-.166.035c4.157-.631,5.949-.848,10.627-1.483l-.358-.031c1.005-.138,1.22-.143,1.693-.19,1.134-.3-2.82.408-1.791.116,1.348-.085,7.1-.9,8.035-.791,1.551-.181-.471-.066,1.079-.25l.42.018.38-.134a4.5,4.5,0,0,1,1.588-.025c-.247.022-.7.1-.962.134,1.329-.068,3.713-.462,4.169-.487l-1.495.128c2.111-.281,4.46-.562,6.791-.83,2.337-.234,4.654-.477,6.691-.778l-.319-.038c3.113-.452,2.514-.176,5.942-.588l-.123.031a22.842,22.842,0,0,1,2.533-.368c-.858.18,1.65.014.524.231a17.872,17.872,0,0,0,3.872-.828l.531.084a10.7,10.7,0,0,1,2.522-.466c-1.4.246,1.118.12-.445.418,3.636.009,5.321-.789,7.02-.455,1.615-.562-3.141.04-2.223-.129-.788-.063,1.337-.428,2.472-.49,1.152-.1,2.008.364,4.9.109-.289.023-.3.057-.593.08,1.094.019,2.11-.335,3.456-.266.721-.335,1.727-.133,1.911-.5l-2.649.315a28.835,28.835,0,0,1,5.372-.784,10.2,10.2,0,0,1-1.42.347c.735.04,1.391-.193,2.152-.152-.183.376-3.221.362-4.811.768.792.08,3.03-.517,2.253-.067,1.123-.581,2.857-.195,4.788-.715l-.111.227a12.52,12.52,0,0,1,1.515-.244l-1.011.36c1.569-.359,3.082-.007,4.595-.248-3.191.235-.738-.218-2.1-.282,3.913-.594,2.313.421,6.712,0-.594.075-2.251.024-1.327-.15a18.732,18.732,0,0,1,2.483.079c2.916-.26-.467-.207.764-.441,1.017.212,1.425-.221,2.7-.41l.028.24c3.339-.09.843-.57,3.853-.608l-1.24.434,1.555-.2-.3.3a17.713,17.713,0,0,1,3.887-.363c-.4-.147.184-.469,1.657-.589,1.017.082-.546.273,1.542.106a2.949,2.949,0,0,1-1.889.248c-.087.089-.454.192-.544.28a26.02,26.02,0,0,0,3.482-.19,6.342,6.342,0,0,1-.823-.008l3.005-.543c.484.066.111.168-.258.266.612-.065,1.028-.21,1.929-.289-.219.224-.147.437-1.418.613l2.871-.409c.2.079,1.5.161,1.13.262,1.609.03,3.9-.656,6.032-.623a3.206,3.206,0,0,1,.776-.161,35.6,35.6,0,0,0,6.126-.368l1.367.311c1.845-.206-1.848-.383,1.226-.73,2.175-.266.836.288,1.608.351a14.021,14.021,0,0,1,4.963-.549C893.4,2619.475,892.873,2619.443,892.254,2619.5Zm22.839-1.392a4.133,4.133,0,0,1-1.645.165C913.935,2617.923,914.333,2618.058,915.093,2618.112Zm34.728-2.141a3.408,3.408,0,0,1-1.416-.017A7.281,7.281,0,0,1,949.821,2615.971Zm96.935-2.372-.047.008C1045.721,2613.5,1046.071,2613.543,1046.756,2613.6Zm2.054.14c.207-.021.194-.048.107-.078a5.283,5.283,0,0,1-1.132.008A2.757,2.757,0,0,0,1048.81,2613.739Zm-220.5,8.319.4.014C827.817,2622.22,828.064,2622.142,828.308,2622.058Z" fill="#ef8d46"/>
      <path id="Path_888" data-name="Path 888" d="M945.893,2616.488a.313.313,0,0,1-.2-.151C945.525,2616.391,945.523,2616.447,945.893,2616.488Z" fill="#ef8d46"/>
      <path id="Path_889" data-name="Path 889" d="M878.06,2620.509h-.07a.152.152,0,0,0-.066.053Z" fill="#ef8d46"/>
      <path id="Path_890" data-name="Path 890" d="M1016.959,2615.183a4.168,4.168,0,0,1-.815-.12C1016.121,2615.122,1016.313,2615.171,1016.959,2615.183Z" fill="#ef8d46"/>
      <path id="Path_891" data-name="Path 891" d="M1059.709,2613.889l-1.318-.026a9.079,9.079,0,0,1,1.183.12C1059.547,2613.942,1059.3,2613.87,1059.709,2613.889Z" fill="#ef8d46"/>
      <path id="Path_892" data-name="Path 892" d="M1071.085,2615.432c.193-.01.408.015.6.005l-.049-.07C1070.815,2615.336,1070.24,2615.368,1071.085,2615.432Z" fill="#ef8d46"/>
      <path id="Path_893" data-name="Path 893" d="M1060.906,2614.519a5.2,5.2,0,0,0,1.848.156l-.163-.008C1062.871,2614.485,1061.886,2614.5,1060.906,2614.519Z" fill="#ef8d46"/>
      <path id="Path_894" data-name="Path 894" d="M1062.968,2614.68c.285.007.574.017.852.036C1063.931,2614.644,1063.475,2614.684,1062.968,2614.68Z" fill="#ef8d46"/>
      <path id="Path_895" data-name="Path 895" d="M1051.42,2613.7c.436.053.28-.194.526-.122C1052.44,2613.392,1049.023,2613.742,1051.42,2613.7Z" fill="#ef8d46"/>
      <path id="Path_896" data-name="Path 896" d="M1061.634,2615.021l-.323-.189-.522.119Z" fill="#ef8d46"/>
      <path id="Path_897" data-name="Path 897" d="M1054.365,2614.577l1.47.115c-.021-.032.167-.042.4-.046A14.479,14.479,0,0,0,1054.365,2614.577Z" fill="#ef8d46"/>
      <path id="Path_898" data-name="Path 898" d="M1056.232,2614.646c.472.024.922.039,1.186.021C1057.162,2614.658,1056.611,2614.64,1056.232,2614.646Z" fill="#ef8d46"/>
      <path id="Path_899" data-name="Path 899" d="M1059.62,2614.991l-.434-.056-1.039-.057Z" fill="#ef8d46"/>
      <path id="Path_900" data-name="Path 900" d="M1038.53,2614.2l-1.609.031c-.165.073.272.128.872.109C1038.178,2614.289,1038.775,2614.272,1038.53,2614.2Z" fill="#ef8d46"/>
      <path id="Path_901" data-name="Path 901" d="M1043.38,2614.869a2.479,2.479,0,0,1-.7-.172l-.055.262Z" fill="#ef8d46"/>
      <path id="Path_902" data-name="Path 902" d="M1038.692,2614.861c-.161.072-2.336.184-.3.195C1038.557,2614.983,1040.168,2614.944,1038.692,2614.861Z" fill="#ef8d46"/>
      <path id="Path_903" data-name="Path 903" d="M1014.475,2614.334l.409,0-.058-.515Z" fill="#ef8d46"/>
      <path id="Path_904" data-name="Path 904" d="M993.141,2615.815c1.905.094.448-.355,2.17-.223.446-.141-1.407-.108-.951-.231C993.213,2615.523,992.609,2615.457,993.141,2615.815Z" fill="#ef8d46"/>
      <path id="Path_905" data-name="Path 905" d="M994.36,2615.361c.184-.026.379-.056.586-.1A4.922,4.922,0,0,0,994.36,2615.361Z" fill="#ef8d46"/>
      <path id="Path_906" data-name="Path 906" d="M754.248,2632.585l-1.2.273.772-.172Z" fill="#ef8d46"/>
      <path id="Path_907" data-name="Path 907" d="M751.958,2633.123l-.282.059-.717.167Z" fill="#ef8d46"/>
      <path id="Path_908" data-name="Path 908" d="M918.528,2618.726l.089-.1a2.736,2.736,0,0,0-1.055-.08Z" fill="#ef8d46"/>
      <path id="Path_909" data-name="Path 909" d="M901.932,2619.3l.286-.007-.552-.314Z" fill="#ef8d46"/>
      <path id="Path_910" data-name="Path 910" d="M888.042,2620.454c.569-.019,1.231-.141,1.8-.154C888.61,2620.429,887.863,2620.051,888.042,2620.454Z" fill="#ef8d46"/>
    </g>
  </g>
</svg>
