<svg xmlns="http://www.w3.org/2000/svg" width="91.091" height="31.167" viewBox="0 0 91.091 31.167">
  <g id="SBI" transform="translate(-0.464 -1.58)">
    <g id="g9996" transform="translate(0.464 1.58)">
      <path id="path2868" d="M55.511,17.4a22.078,22.078,0,0,0-5.7-3.048c-2.623-1.084-4.839-2.023-4.839-3.745a2.448,2.448,0,0,1,.968-1.936,4.313,4.313,0,0,1,2.69-.871,9.956,9.956,0,0,1,5.9,2.332l.639.59,2.9-5.439-.329-.348c-.126-.135-3.174-3.29-9.068-3.29a11.15,11.15,0,0,0-7.365,2.574A8.429,8.429,0,0,0,38.334,10.7a7.478,7.478,0,0,0,2.9,6.039,22.978,22.978,0,0,0,5.652,3.087c2.69,1.161,5.013,2.168,5.013,3.948,0,1.355-.919,2.806-3.5,2.806a10.974,10.974,0,0,1-6.7-2.845l-.552-.542-3.61,4.994.368.406a12,12,0,0,0,2.719,2.09,15.208,15.208,0,0,0,7.742,2.061,10.557,10.557,0,0,0,7.384-2.69,8.71,8.71,0,0,0,2.7-6.416,7.655,7.655,0,0,0-2.9-6.232" transform="translate(-1.659 -1.582)" fill="#292075"/>
      <path id="path2870" d="M87.59,32.286h6.774V2.14H87.59Z" transform="translate(-3.273 -1.598)" fill="#292075"/>
      <path id="path2874" d="M73.615,26.643H68.428V7.81h4.529a2.9,2.9,0,0,1,3.2,2.578,2.854,2.854,0,0,1,.008.538c0,2-1.055,3.01-3.116,3.01H71.476v5.487h2.139a3.743,3.743,0,0,1,2.748,1.026,3.155,3.155,0,0,1,.968,2.429,3.465,3.465,0,0,1-3.716,3.765m8.961-7.907a6.841,6.841,0,0,0-2.671-2.448,7.568,7.568,0,0,0,2.758-6.039A7.439,7.439,0,0,0,79.905,4.22a10.73,10.73,0,0,0-6.774-2.09H62.05V32.285H73.16a12.133,12.133,0,0,0,7.374-2.158,8.247,8.247,0,0,0,3.252-6.89,8.332,8.332,0,0,0-1.258-4.5" transform="translate(-2.45 -1.597)" fill="#292075"/>
      <path id="path2878" d="M16.147,1.58a15.62,15.62,0,0,0-1.616,31.162V21.39a4.491,4.491,0,1,1,3.194,0V32.742a15.62,15.62,0,0,0-1.6-31.162" transform="translate(-0.464 -1.58)" fill="#00b5ef"/>
    </g>
  </g>
</svg>
