<?xml version="1.0" encoding="utf-8"?>
<!-- Generator: Adobe Illustrator 25.4.1, SVG Export Plug-In . SVG Version: 6.00 Build 0)  -->
<svg version="1.1" id="Layer_1" xmlns="http://www.w3.org/2000/svg" xmlns:xlink="http://www.w3.org/1999/xlink" x="0px" y="0px"
	 width="458.8px" height="392.8px" viewBox="0 0 458.8 392.8" style="enable-background:new 0 0 458.8 392.8;" xml:space="preserve"
	>
<style type="text/css">
	.st0{fill:#344154;fill-opacity:0;}
	.st1{fill:#A9CCED;fill-opacity:0;}
	.st2{fill:#FFFFFF;}
	.st3{opacity:0;}
	.st4{fill:#A9CCED;}
	.st5{fill:#2672AB;}
	.st6{opacity:0.2;fill:#03336E;enable-background:new    ;}
	.st7{fill:#F0F8FF;}
	.st8{fill:#D1EBFF;}
	.st9{fill:#A8CFF0;}
	.st10{fill:#084C94;}
	.st11{fill:#03336E;}
	.st12{fill:#3F92D1;}
	.st13{fill:#72B5E8;}
	.st14{fill:#F07322;}
	.st15{fill:#FFCC00;}
	.st16{fill:#FFDE17;}
	.st17{fill:#FFD70F;}
	.st18{fill:#E6E7E8;}
	.st19{opacity:0.2;fill:#FFFFFF;enable-background:new    ;}
	.st20{fill:#FF9900;}
	.st21{fill:#ED7D2B;}
	.st22{fill:#EB4680;}
	.st23{fill:url(#Path_1337_00000061454486248717553400000002885797812613818267_);}
	.st24{fill:#0BA19F;}
	.st25{fill:#0FBAB8;}
	.st26{fill:#3ECFCD;}
	.st27{fill:#26264F;}
	.st28{fill:#2B478B;}
	.st29{opacity:0.35;fill:#D4EEFF;enable-background:new    ;}
	.st30{fill:#E04403;}
	.st31{enable-background:new    ;}
	.st32{fill:#BFCEE8;}
	.st33{fill:#53575A;}
	.st34{fill:none;}
	.st35{fill:#1C468A;}
	.st36{fill:#F4B37A;}
	.st37{fill:#CF9766;}
	.st38{fill:#222B55;}
	.st39{fill:#222B54;}
	.st40{fill:#CFCFCF;}
	.st41{fill:#FCFCFB;}
	.st42{fill:#5762C9;}
	.st43{fill:#494949;}
	.st44{fill:#22BBBE;}
	.st45{fill:#7DAD41;}
	.st46{fill:#F4B719;}
	.st47{fill:#E55824;}
	.st48{fill:#B52C80;}
	.st49{fill:#FEFEFE;}
	.st50{fill:#020303;}
</style>
<g id="Group_9009" transform="translate(-715.484 -3065.139)">
	<path id="Mutual_Funds" class="st0" d="M781.8,3202.4l-0.9,0l0.4-4.6c0-0.4,0.1-0.8,0.2-1.4h0c-0.1,0.3-0.2,0.5-0.2,0.7l-2.2,5.2
		l-0.7,0l-1.2-5.3c0-0.2-0.1-0.4-0.1-0.7h0c0,0.3,0,0.7-0.1,1.4l-0.4,4.6l-0.9,0l0.7-7.1l1.3,0.1l1.1,4.8c0.1,0.4,0.1,0.6,0.1,0.8h0
		c0.1-0.4,0.2-0.6,0.3-0.8l2-4.6l1.3,0L781.8,3202.4z M786.7,3202.6l-0.9,0l0.1-0.8h0c-0.3,0.6-0.8,0.9-1.3,0.9
		c-1,0-1.4-0.8-1.2-2.2l0.3-3l0.9,0l-0.3,2.9c-0.1,0.9,0.1,1.4,0.7,1.4c0.3,0,0.5-0.1,0.7-0.4c0.2-0.2,0.3-0.6,0.4-1l0.3-2.9l0.9,0
		L786.7,3202.6z M790,3202.6c-0.2,0.1-0.4,0.2-0.7,0.1c-0.8,0-1.1-0.5-1-1.4l0.3-2.8l-0.7,0l0.1-0.9l0.7,0l0.1-1.2l0.9-0.3l-0.1,1.5
		l1,0l-0.1,0.9l-1,0l-0.2,2.5c0,0.3,0,0.5,0.1,0.6c0.1,0.1,0.2,0.2,0.4,0.2c0.2,0,0.3,0,0.4-0.2L790,3202.6z M794.3,3202.8l-0.9,0
		l0.1-0.8h0c-0.3,0.6-0.8,0.9-1.3,0.9c-0.9,0-1.4-0.8-1.2-2.2l0.3-3l0.9,0l-0.3,2.9c-0.1,0.9,0.1,1.4,0.7,1.4c0.3,0,0.5-0.1,0.7-0.4
		c0.2-0.2,0.3-0.6,0.4-1l0.3-2.9l0.9,0L794.3,3202.8z M798.5,3202.9l-0.9,0l0.1-0.8h0c-0.3,0.6-0.8,0.9-1.3,0.9
		c-0.4,0-0.7-0.2-0.9-0.4c-0.2-0.3-0.3-0.6-0.2-1.1c0.1-0.9,0.6-1.5,1.5-1.6l1.2-0.2c0.1-0.7-0.2-1.1-0.7-1.1
		c-0.5,0-0.9,0.2-1.3,0.6l0.1-1c0.4-0.3,0.9-0.4,1.5-0.4c1,0,1.4,0.7,1.3,1.9L798.5,3202.9z M797.8,3200.5l-0.8,0.1
		c-0.3,0-0.5,0.1-0.6,0.2s-0.2,0.3-0.3,0.6c0,0.2,0,0.4,0.1,0.5c0.1,0.1,0.3,0.2,0.5,0.2c0.3,0,0.5-0.1,0.7-0.3
		c0.2-0.2,0.3-0.5,0.4-0.9L797.8,3200.5z M800.5,3203l-0.9,0l0.7-7.3l0.9,0L800.5,3203z M807.4,3197.3l-2-0.1l-0.2,2.1l1.9,0.1
		l-0.1,1l-1.9-0.1l-0.3,2.9l-0.9,0l0.7-6.9l2.9,0.1L807.4,3197.3z M811.1,3203.3l-0.9,0l0.1-0.8h0c-0.3,0.6-0.7,0.9-1.3,0.9
		c-0.9,0-1.3-0.7-1.2-2.1l0.3-2.9l0.9,0l-0.3,2.8c-0.1,0.9,0.1,1.3,0.7,1.3c0.3,0,0.5-0.1,0.7-0.3s0.3-0.6,0.3-0.9l0.3-2.8l0.9,0
		L811.1,3203.3z M815.6,3203.5l-0.9,0l0.3-2.8c0.1-0.9-0.1-1.4-0.6-1.4c-0.3,0-0.5,0.1-0.7,0.4c-0.2,0.2-0.3,0.6-0.4,0.9l-0.3,2.8
		l-0.9,0l0.5-4.9l0.9,0l-0.1,0.8h0c0.3-0.6,0.8-0.9,1.3-0.9c0.4,0,0.7,0.2,0.9,0.6c0.2,0.4,0.2,0.9,0.2,1.5L815.6,3203.5z
		 M820.1,3203.6l-0.9,0l0.1-0.8h0c-0.3,0.6-0.8,0.9-1.4,0.9c-0.5,0-0.8-0.2-1.1-0.7c-0.2-0.4-0.3-1-0.2-1.8c0.1-0.8,0.3-1.4,0.7-1.9
		s0.8-0.7,1.3-0.7c0.5,0,0.9,0.3,1,0.8h0l0.3-3l0.9,0L820.1,3203.6z M819.5,3201.4l0.1-0.6c0-0.3,0-0.6-0.2-0.9
		c-0.2-0.2-0.4-0.4-0.6-0.4c-0.3,0-0.6,0.1-0.8,0.4s-0.4,0.7-0.4,1.3c0,0.5,0,0.9,0.1,1.2c0.1,0.3,0.4,0.4,0.7,0.5
		c0.3,0,0.5-0.1,0.8-0.4C819.3,3202.1,819.4,3201.8,819.5,3201.4L819.5,3201.4z M821,3203.5l0.1-1c0.3,0.3,0.6,0.5,1,0.5
		c0.5,0,0.8-0.2,0.8-0.6c0-0.1,0-0.2,0-0.3c0-0.1-0.1-0.1-0.2-0.2c-0.1-0.1-0.1-0.1-0.2-0.2c-0.1-0.1-0.2-0.1-0.3-0.2
		c-0.1-0.1-0.3-0.2-0.4-0.3c-0.1-0.1-0.2-0.2-0.3-0.3c-0.1-0.1-0.1-0.2-0.1-0.4s0-0.3,0-0.5c0-0.2,0.1-0.4,0.2-0.6s0.2-0.3,0.4-0.4
		c0.2-0.1,0.3-0.2,0.5-0.3c0.2-0.1,0.4-0.1,0.6-0.1c0.3,0,0.7,0.1,0.9,0.2l-0.1,1c-0.2-0.2-0.5-0.4-0.9-0.4c-0.1,0-0.2,0-0.3,0
		c-0.1,0-0.2,0.1-0.2,0.1c-0.1,0-0.1,0.1-0.2,0.2c0,0.1-0.1,0.1-0.1,0.2c0,0.1,0,0.2,0,0.3c0,0.1,0.1,0.1,0.1,0.2
		c0.1,0.1,0.1,0.1,0.2,0.2c0.1,0,0.2,0.1,0.3,0.2c0.2,0.1,0.3,0.2,0.4,0.3c0.1,0.1,0.2,0.2,0.3,0.3c0.1,0.1,0.1,0.2,0.2,0.4
		s0,0.3,0,0.5c0,0.2-0.1,0.5-0.2,0.6c-0.1,0.2-0.2,0.3-0.4,0.4c-0.2,0.1-0.3,0.2-0.5,0.3s-0.4,0.1-0.6,0.1
		C821.6,3203.8,821.3,3203.7,821,3203.5L821,3203.5z"/>
	
		<ellipse id="Ellipse_27" transform="matrix(0.5036 -0.8639 0.8639 0.5036 -2219.0962 2341.3362)" class="st1" cx="927.9" cy="3101.8" rx="28.5" ry="23.8"/>
	<g id="Group_379" transform="translate(914.299 3085.227)">
		<g id="Group_372" transform="translate(3.215 14.081)">
			<g id="Group_371">
				<path id="Path_1207" class="st2" d="M0.7,0C0.3,0,0,0.4,0,0.8c-0.1,0.3,0.1,0.6,0.5,0.7c0,0,0.1,0,0.1,0c0.4,0,0.7-0.4,0.7-0.8
					C1.4,0.4,1.2,0.1,0.9,0C0.8,0,0.8,0,0.7,0z"/>
			</g>
		</g>
		<g id="Group_374" transform="translate(6.605 10.546)">
			<g id="Group_373">
				<path id="Path_1208" class="st2" d="M13.1,4.2L9.8,4.3l0.4-3.6C10.2,0.4,10,0.1,9.7,0c0,0-0.1,0-0.1,0l-4,0.2
					C5.2,0.3,4.9,0.6,4.9,1L4.5,4.6L1.2,4.8c-0.4,0-0.7,0.4-0.7,0.8L0,9.9c-0.1,0.3,0.1,0.6,0.5,0.7c0,0,0.1,0,0.1,0l3.3-0.2
					l-0.4,3.6c-0.1,0.3,0.1,0.6,0.5,0.7c0,0,0.1,0,0.1,0l4-0.2c0.4,0,0.7-0.4,0.7-0.8l0.4-3.6l3.3-0.2c0.4,0,0.7-0.4,0.7-0.8
					l0.4-4.4c0.1-0.3-0.1-0.6-0.5-0.7C13.2,4.2,13.2,4.2,13.1,4.2z M12,8.6L8.7,8.8C8.3,8.8,8,9.1,8,9.5l-0.4,3.6l-2.7,0.1l0.4-3.6
					C5.4,9.3,5.2,9,4.9,9c0,0-0.1,0-0.1,0L1.4,9.1l0.3-2.9L5,6c0.4,0,0.7-0.4,0.7-0.8l0.4-3.6l2.7-0.1L8.4,5.1
					C8.4,5.5,8.6,5.8,8.9,5.8c0,0,0.1,0,0.1,0l3.3-0.2L12,8.6z"/>
			</g>
		</g>
		<g id="Group_376">
			<g id="Group_375">
				<path id="Path_1209" class="st2" d="M25.3,1.7c-1.1,0.8-2.4,1.3-3.7,1.4c-1.9,0.1-3.7-0.8-4.8-2.3l0,0C16.4,0.2,15.9,0,15.3,0
					c-0.6,0.1-1.2,0.4-1.6,0.9c-1.3,1.7-3.2,2.7-5.4,2.9c-1.2,0.1-2.5-0.3-3.5-1c-1.2-0.9-3,0.3-3.2,2L0.1,19.7
					c-0.4,3.1,0.3,6.2,1.8,9c2.2,3.7,5.5,6.7,9.4,8.7c0.1,0,0.2,0.1,0.3,0c0.1,0,0.2,0,0.3-0.1c4.4-2.4,8.2-5.7,11.2-9.7
					c2-2.7,3.3-5.9,3.6-9.2l1.5-14.9c0.2-0.9-0.4-1.9-1.4-2.1C26.3,1.2,25.7,1.4,25.3,1.7z M22,26.7c-2.8,3.7-6.3,6.8-10.4,9.1
					c-3.5-1.9-6.5-4.7-8.6-8.1c-1.4-2.5-2-5.3-1.6-8.1L2.9,4.7C3,4.2,3.6,3.8,4,4c1.2,0.9,2.7,1.3,4.2,1.2C10.7,5,13,3.8,14.6,1.8
					c0.1-0.2,0.3-0.3,0.6-0.3c0.2,0,0.4,0.1,0.5,0.3c1.3,1.9,3.5,3,5.8,2.8c1.6-0.1,3.2-0.7,4.5-1.6c0.3-0.2,0.6-0.1,0.8,0.1
					c0.1,0.1,0.1,0.3,0.1,0.5l-1.5,14.9l0,0C25,21.4,23.9,24.3,22,26.7L22,26.7z"/>
			</g>
		</g>
		<g id="Group_378" transform="translate(2.672 3.541)">
			<g id="Group_377">
				<path id="Path_1210" class="st2" d="M22.4,1.8c-0.2-0.1-0.4-0.2-0.6-0.1c-1,0.4-2.1,0.7-3.2,0.7c-2.2,0.1-4.4-0.7-5.9-2.3
					c-0.3-0.2-0.6-0.2-0.9,0c0,0,0,0,0,0c-1.7,1.7-4,2.7-6.5,2.9c-1,0.1-2.1-0.1-3-0.4c-0.2-0.1-0.4,0-0.6,0.1
					C1.5,3,1.4,3.2,1.3,3.4L0.8,8.4C0.8,8.7,1,9,1.3,9.1c0,0,0.1,0,0.1,0c0.4,0,0.7-0.4,0.7-0.8l0.4-4c0.9,0.2,1.7,0.3,2.6,0.2
					c2.6-0.2,5-1.2,6.9-2.9c1.7,1.6,4,2.4,6.4,2.2c0.9-0.1,1.8-0.2,2.7-0.5L20,15c-0.2,2.4-1.1,4.7-2.6,6.6c-2.2,2.9-5,5.4-8.1,7.4
					c-2.7-1.7-5-4-6.7-6.7c-1.1-1.9-1.5-4.2-1.3-6.4l0.2-1.8c0.1-0.3-0.1-0.6-0.5-0.7c0,0-0.1,0-0.1,0c-0.4,0-0.7,0.4-0.7,0.8
					L0.1,16c-0.3,2.5,0.2,5,1.4,7.2c1.8,3,4.3,5.5,7.3,7.2c0.1,0.1,0.2,0.1,0.3,0.1c0.1,0,0.2,0,0.3-0.1c3.4-2.1,6.4-4.9,8.9-8.1
					c1.6-2.2,2.7-4.8,2.9-7.5l1.3-12.6C22.6,2.1,22.5,1.9,22.4,1.8z"/>
			</g>
		</g>
	</g>
	<g id="Group_7167" transform="translate(774.199 3133.288)" class="st3">
		<path id="Ellipse_28" class="st4" d="M14.8,22.1c2-2.9,4.4-5.5,7.3-7.6c2.6-1.9,5.6-3.4,8.8-4.3c3-0.8,6.1-1.1,9.2-0.7
			c6.2,0.8,11.6,4.5,14.7,9.9c1.5,2.7,2.5,5.7,2.8,8.8c0.4,3.3,0.1,6.5-0.7,9.7C55,44.7,50.9,50.8,45.2,55c-2.6,1.9-5.6,3.4-8.7,4.3
			c-3,0.8-6.1,1.1-9.2,0.7c-6.2-0.8-11.6-4.4-14.7-9.8c-1.5-2.7-2.5-5.7-2.8-8.7c-0.4-3.3-0.1-6.5,0.7-9.7
			C11.4,28.2,12.8,25,14.8,22.1z"/>
		<g id="Group_380" transform="translate(19.345 20.762)">
			<path id="Path_1211" class="st2" d="M21.8,11l-0.8,0L20.8,12c-0.2,0-0.3,0-0.5,0.1c-0.2,0.1-0.3,0.2-0.4,0.3
				c-0.1,0.1-0.2,0.3-0.3,0.4c-0.1,0.2-0.1,0.3-0.2,0.5c0,0.2,0,0.4,0,0.5c0,0.2,0.1,0.3,0.2,0.4c0.1,0.1,0.2,0.2,0.4,0.3
				c0.2,0.1,0.3,0.1,0.5,0.1l0.8,0c0.1,0,0.1,0,0.2,0c0,0,0.1,0.1,0.1,0.1c0,0,0.1,0.1,0.1,0.1c0,0.1,0,0.1,0,0.2
				c0,0.1,0,0.1-0.1,0.2c0,0.1-0.1,0.1-0.1,0.1c0,0-0.1,0.1-0.1,0.1c-0.1,0-0.1,0-0.2,0l-1.3,0l0-0.4l-0.8,0l-0.1,1.3l1.3,0
				l-0.1,0.9l0.8,0l0.1-0.9c0.2,0,0.3,0,0.5-0.1c0.2-0.1,0.3-0.2,0.4-0.3c0.1-0.1,0.2-0.3,0.3-0.4c0.1-0.2,0.1-0.3,0.2-0.5
				c0-0.2,0-0.4,0-0.5c0-0.2-0.1-0.3-0.2-0.4c-0.1-0.1-0.2-0.2-0.4-0.3c-0.2-0.1-0.3-0.1-0.5-0.1l-0.8,0c-0.1,0-0.1,0-0.2,0
				c0,0-0.1-0.1-0.1-0.1c0,0-0.1-0.1-0.1-0.1c0-0.1,0-0.1,0-0.2c0-0.1,0-0.1,0.1-0.2c0-0.1,0.1-0.1,0.1-0.1c0,0,0.1-0.1,0.1-0.1
				c0.1,0,0.1,0,0.2,0l1.3,0l0,0.4l0.8,0l0.1-1.3l-1.3,0L21.8,11z"/>
			<path id="Path_1212" class="st2" d="M25.1,23.4l-6.7,0.2c0,0-0.1,0-0.1,0c0,0-0.1,0-0.1,0c0,0-0.1,0-0.1,0.1c0,0-0.1,0-0.1,0.1
				c0,0,0-0.1,0.1-0.1s0-0.1,0.1-0.1c0,0,0-0.1,0-0.2c0-0.1,0-0.1,0-0.2l0.1-0.9c0-0.2,0-0.4,0-0.5c0-0.2-0.1-0.3-0.2-0.4
				c-0.1-0.1-0.2-0.2-0.4-0.3c-0.2-0.1-0.3-0.1-0.5-0.1l-6.7,0.2c0,0-0.1,0-0.1,0c0,0-0.1,0-0.1,0c0,0-0.1,0-0.1,0.1
				c0,0-0.1,0-0.1,0.1c0,0,0-0.1,0.1-0.1s0-0.1,0.1-0.1c0-0.1,0-0.1,0-0.2c0-0.1,0-0.1,0-0.2L9.9,20c0-0.2,0-0.4,0-0.5
				c0-0.2-0.1-0.3-0.2-0.4c-0.1-0.1-0.2-0.2-0.4-0.3c-0.2-0.1-0.3-0.1-0.5-0.1l-6.7,0.2c-0.2,0-0.3,0-0.5,0.1
				c-0.2,0.1-0.3,0.2-0.4,0.3c-0.1,0.1-0.2,0.3-0.3,0.4c-0.1,0.2-0.1,0.3-0.2,0.5l-0.1,0.9c0,0.1,0,0.2,0,0.3c0,0.1,0,0.2,0,0.2
				c0,0.1,0,0.1,0.1,0.2c0,0.1,0.1,0.1,0.1,0.2c-0.1,0.1-0.1,0.1-0.2,0.2c0,0.1-0.1,0.1-0.1,0.2c0,0.1-0.1,0.2-0.1,0.2
				c0,0.1,0,0.2,0,0.3l-0.1,0.9c0,0.1,0,0.2,0,0.3c0,0.1,0,0.2,0,0.2c0,0.1,0,0.1,0.1,0.2c0,0.1,0.1,0.1,0.1,0.2
				c-0.1,0.1-0.1,0.1-0.2,0.2c0,0.1-0.1,0.1-0.1,0.2c0,0.1-0.1,0.2-0.1,0.2c0,0.1,0,0.2,0,0.3L0,26.6c0,0.2,0,0.4,0,0.5
				c0,0.2,0.1,0.3,0.2,0.4c0.1,0.1,0.2,0.2,0.4,0.3c0.2,0.1,0.3,0.1,0.5,0.1l6.7-0.2c0.1,0,0.2,0,0.2,0c0.1,0,0.2,0,0.2-0.1
				c0.1,0,0.1-0.1,0.2-0.1c0.1,0,0.1-0.1,0.2-0.2c0.1,0.1,0.1,0.1,0.2,0.1c0.1,0.1,0.3,0.1,0.4,0.2c0.1,0,0.2,0,0.2,0l6.7-0.2
				c0.1,0,0.2,0,0.2,0c0.1,0,0.2,0,0.2-0.1c0.1,0,0.1-0.1,0.2-0.1c0.1,0,0.1-0.1,0.2-0.2c0.1,0.1,0.1,0.1,0.2,0.1
				c0.1,0.1,0.3,0.1,0.4,0.2c0.1,0,0.2,0,0.2,0l6.7-0.2c0.2,0,0.3,0,0.5-0.1c0.2-0.1,0.3-0.2,0.4-0.3c0.1-0.1,0.2-0.3,0.3-0.4
				c0.1-0.2,0.1-0.3,0.2-0.5l0.1-0.9c0-0.2,0-0.4,0-0.5c0-0.2-0.1-0.3-0.2-0.4c-0.1-0.1-0.2-0.2-0.4-0.3
				C25.4,23.5,25.2,23.4,25.1,23.4z M10.1,22.2l0.4,0l-0.1,0.9l0.8,0l0.1-0.9l0.8,0L12.1,23l0.8,0l0.1-0.9l0.8,0l-0.1,0.9l0.8,0
				l0.1-0.9l0.8,0l-0.1,0.9l0.8,0l0.1-0.9l0.4,0c0.1,0,0.1,0,0.2,0c0,0,0.1,0.1,0.1,0.1c0,0,0.1,0.1,0.1,0.1c0,0.1,0,0.1,0,0.2
				l-0.1,0.9c0,0.1,0,0.1-0.1,0.2c0,0.1-0.1,0.1-0.1,0.1c0,0-0.1,0.1-0.1,0.1c-0.1,0-0.1,0-0.2,0L9.9,24c-0.1,0-0.1,0-0.2,0
				c0,0-0.1-0.1-0.1-0.1c0,0-0.1-0.1-0.1-0.1c0-0.1,0-0.1,0-0.2l0.1-0.9c0-0.1,0-0.1,0.1-0.2c0-0.1,0.1-0.1,0.1-0.1
				c0,0,0.1-0.1,0.1-0.1C10,22.2,10.1,22.2,10.1,22.2z M1.5,24.3c-0.1,0-0.1,0-0.2,0c0,0-0.1-0.1-0.1-0.1c0,0-0.1-0.1-0.1-0.1
				c0-0.1,0-0.1,0-0.2L1.2,23c0-0.1,0-0.1,0.1-0.2c0-0.1,0.1-0.1,0.1-0.1c0,0,0.1-0.1,0.1-0.1c0.1,0,0.1,0,0.2,0l0.4,0L2,23.4l0.8,0
				L3,22.4l0.8,0l-0.1,0.9l0.8,0l0.1-0.9l0.8,0l-0.1,0.9l0.8,0l0.1-0.9l0.8,0l-0.1,0.9l0.8,0L8,22.3l0.4,0c0.1,0,0.1,0,0.2,0
				c0,0,0.1,0.1,0.1,0.1c0,0,0.1,0.1,0.1,0.1c0,0.1,0,0.1,0,0.2l-0.1,0.9c0,0.1,0,0.1-0.1,0.2c0,0.1-0.1,0.1-0.1,0.1
				c0,0-0.1,0.1-0.1,0.1c-0.1,0-0.1,0-0.2,0L1.5,24.3z M1.5,20.3c0-0.1,0-0.1,0.1-0.2c0-0.1,0.1-0.1,0.1-0.1c0,0,0.1-0.1,0.1-0.1
				c0.1,0,0.1,0,0.2,0l0.4,0l-0.1,0.9l0.8,0l0.1-0.9l0.8,0L4,20.6l0.8,0l0.1-0.9l0.8,0l-0.1,0.9l0.8,0l0.1-0.9l0.8,0l-0.1,0.9l0.8,0
				l0.1-0.9l0.4,0c0.1,0,0.1,0,0.2,0c0,0,0.1,0.1,0.1,0.1c0,0,0.1,0.1,0.1,0.1c0,0.1,0,0.1,0,0.2L9,20.9C9,21,9,21,8.9,21.1
				c0,0.1-0.1,0.1-0.1,0.1c0,0-0.1,0.1-0.1,0.1c-0.1,0-0.1,0-0.2,0l-6.7,0.2c-0.1,0-0.1,0-0.2,0c0,0-0.1-0.1-0.1-0.1
				c0,0-0.1-0.1-0.1-0.1c0-0.1,0-0.1,0-0.2L1.5,20.3z M8,26.7L1.2,27c-0.1,0-0.1,0-0.2,0c0,0-0.1-0.1-0.1-0.1c0,0-0.1-0.1-0.1-0.1
				c0-0.1,0-0.1,0-0.2l0.1-0.9c0-0.1,0-0.1,0.1-0.2c0-0.1,0.1-0.1,0.1-0.1c0,0,0.1-0.1,0.1-0.1c0.1,0,0.1,0,0.2,0l0.4,0l-0.1,0.9
				l0.8,0l0.1-0.9l0.8,0L3.4,26l0.8,0l0.1-0.9l0.8,0l-0.1,0.9l0.8,0L6,25l0.8,0l-0.1,0.9l0.8,0L7.7,25l0.4,0c0.1,0,0.1,0,0.2,0
				c0,0,0.1,0.1,0.1,0.1c0,0,0.1,0.1,0.1,0.1c0,0.1,0,0.1,0,0.2l-0.1,0.9c0,0.1,0,0.1-0.1,0.2c0,0.1-0.1,0.1-0.1,0.1
				c0,0-0.1,0.1-0.1,0.1C8.1,26.7,8,26.7,8,26.7z M16.4,26.4l-6.7,0.2c-0.1,0-0.1,0-0.2,0c0,0-0.1-0.1-0.1-0.1c0,0-0.1-0.1-0.1-0.1
				c0-0.1,0-0.1,0-0.2l0.1-0.9c0-0.1,0-0.1,0.1-0.2c0-0.1,0.1-0.1,0.1-0.1c0,0,0.1-0.1,0.1-0.1c0.1,0,0.1,0,0.2,0l0.4,0l-0.1,0.9
				l0.8,0l0.1-0.9l0.8,0l-0.1,0.9l0.8,0l0.1-0.9l0.8,0l-0.1,0.9l0.8,0l0.1-0.9l0.8,0l-0.1,0.9l0.8,0l0.1-0.9l0.4,0
				c0.1,0,0.1,0,0.2,0c0,0,0.1,0.1,0.1,0.1c0,0,0.1,0.1,0.1,0.1c0,0.1,0,0.1,0,0.2L16.8,26c0,0.1,0,0.1-0.1,0.2
				c0,0.1-0.1,0.1-0.1,0.1c0,0-0.1,0.1-0.1,0.1C16.5,26.4,16.4,26.4,16.4,26.4z M25.2,25.7c0,0.1,0,0.1-0.1,0.2
				c0,0.1-0.1,0.1-0.1,0.1c0,0-0.1,0.1-0.1,0.1c-0.1,0-0.1,0-0.2,0L18,26.4c-0.1,0-0.1,0-0.2,0c0,0-0.1-0.1-0.1-0.1
				c0,0-0.1-0.1-0.1-0.1c0-0.1,0-0.1,0-0.2l0.1-0.9c0-0.1,0-0.1,0.1-0.2c0-0.1,0.1-0.1,0.1-0.1c0,0,0.1-0.1,0.1-0.1
				c0.1,0,0.1,0,0.2,0l0.4,0l-0.1,0.9l0.8,0l0.1-0.9l0.8,0l-0.1,0.9l0.8,0l0.1-0.9l0.8,0l-0.1,0.9l0.8,0l0.1-0.9l0.8,0l-0.1,0.9
				l0.8,0l0.1-0.9l0.4,0c0.1,0,0.1,0,0.2,0c0,0,0.1,0.1,0.1,0.1c0,0,0.1,0.1,0.1,0.1c0,0.1,0,0.1,0,0.2L25.2,25.7z"/>
			<path id="Path_1213" class="st2" d="M28.2,5.4l0.5-4.9l-4.6,0.2L24,1.6l3.2-0.1L22.7,6l-2.3-1.7l-6.1,6.4l-0.5,5.1L7.8,16L8,14.2
				l0-0.4l0.1-1.3l2.1-0.1c0.5,0,1-0.1,1.5-0.4c0.5-0.2,0.9-0.5,1.3-0.9c0.4-0.4,0.7-0.8,0.9-1.3c0.2-0.5,0.4-1,0.5-1.6l0-0.4
				l-2.9,0.1c-0.3,0-0.6,0.1-0.9,0.1c-0.3,0.1-0.6,0.2-0.8,0.3C9.6,8.5,9.4,8.6,9.2,8.8C8.9,9,8.7,9.2,8.5,9.5l0.3-3.3L11,6.1
				c0.5,0,1-0.2,1.5-0.4c0.5-0.2,0.9-0.5,1.3-0.9c0.4-0.4,0.7-0.8,0.9-1.3c0.2-0.5,0.4-1,0.5-1.6l0-0.4l-2.9,0.1
				c-0.3,0-0.6,0.1-0.9,0.1c-0.3,0.1-0.6,0.2-0.8,0.3C10.3,2.2,10,2.4,9.8,2.6C9.5,2.8,9.3,3,9.1,3.2c0-0.5-0.1-0.9-0.3-1.3
				c-0.2-0.4-0.4-0.7-0.7-1C7.8,0.6,7.4,0.4,7,0.2C6.6,0.1,6.2,0,5.7,0L2.8,0.1l0,0.4c-0.1,0.5,0,1.1,0.1,1.6C3,2.6,3.2,3,3.5,3.4
				C3.8,3.7,4.2,4,4.7,4.2c0.5,0.2,0.9,0.3,1.4,0.3l2.1-0.1L8.1,5.7l0,0.4l-0.5,5.1c-0.1-0.2-0.3-0.4-0.5-0.6
				c-0.2-0.2-0.4-0.3-0.7-0.4C6.1,10.1,5.8,10,5.5,10C5.3,9.9,5,9.9,4.7,9.9L1.7,10l0,0.4c-0.1,0.5,0,1.1,0.1,1.6
				c0.1,0.5,0.4,0.9,0.7,1.3c0.3,0.4,0.7,0.6,1.1,0.8c0.5,0.2,0.9,0.3,1.4,0.3l2.1-0.1L7,16l-5.9,0.2L1,17.2l15.7-0.6
				c0.1,0.4,0.3,0.7,0.6,1.1c0.2,0.3,0.5,0.6,0.9,0.8c0.3,0.2,0.7,0.4,1.1,0.5c0.4,0.1,0.8,0.2,1.3,0.1c0.4,0,0.9-0.1,1.3-0.2
				c0.4-0.1,0.8-0.3,1.2-0.6c0.4-0.3,0.7-0.5,1-0.9c0.3-0.3,0.6-0.7,0.8-1.1l2.2-0.1l0.1-0.9l-1.9,0.1c0-0.1,0.1-0.2,0.1-0.3
				c0-0.1,0.1-0.2,0.1-0.3c0-0.1,0.1-0.2,0.1-0.3c0-0.1,0-0.2,0-0.3c0-0.3,0-0.5,0-0.8c0-0.2,0-0.5-0.1-0.7c0-0.2-0.1-0.5-0.2-0.7
				c-0.1-0.2-0.2-0.4-0.3-0.6l0.8-7.3l1.9-1.9l-0.4,3.4L28.2,5.4z M11.5,8.7l2.1-0.1c-0.1,0.4-0.2,0.7-0.4,1.1
				c-0.2,0.3-0.4,0.6-0.7,0.9c-0.3,0.2-0.6,0.5-0.9,0.6c-0.3,0.1-0.7,0.2-1.1,0.2l-2.1,0.1c0.1-0.4,0.2-0.7,0.4-1.1
				C9,10.1,9.2,9.8,9.5,9.6c0.3-0.2,0.6-0.5,0.9-0.6C10.8,8.8,11.1,8.8,11.5,8.7L11.5,8.7z M12.2,2.5l2.1-0.1
				c-0.1,0.4-0.2,0.7-0.4,1.1c-0.2,0.3-0.4,0.6-0.7,0.9c-0.3,0.2-0.6,0.5-0.9,0.6c-0.3,0.1-0.7,0.2-1.1,0.2L9,5.2
				c0.1-0.4,0.2-0.7,0.4-1.1c0.2-0.3,0.4-0.6,0.7-0.9c0.3-0.2,0.6-0.5,0.9-0.6C11.4,2.6,11.8,2.5,12.2,2.5L12.2,2.5z M6.2,3.6
				c-0.4,0-0.7,0-1-0.2C4.8,3.3,4.6,3.1,4.3,2.9C4.1,2.6,3.9,2.3,3.8,2C3.6,1.7,3.6,1.3,3.6,1l2.1-0.1c0.4,0,0.7,0,1,0.2
				C7,1.2,7.2,1.4,7.5,1.6C7.7,1.8,7.9,2.1,8,2.4c0.1,0.3,0.2,0.7,0.2,1L6.2,3.6z M5.2,13.4c-0.4,0-0.7,0-1-0.2
				c-0.3-0.1-0.6-0.3-0.8-0.5c-0.2-0.2-0.4-0.5-0.6-0.8c-0.1-0.3-0.2-0.7-0.2-1.1l2.1-0.1c0.4,0,0.7,0,1,0.2
				c0.3,0.1,0.6,0.3,0.8,0.5C6.7,11.7,6.9,12,7,12.3c0.1,0.3,0.2,0.7,0.2,1.1L5.2,13.4z M21.5,9.3c-0.1,0-0.2,0-0.3,0
				c-0.1,0-0.2,0-0.3,0c-0.1,0-0.2,0-0.3,0.1c-0.1,0-0.2,0.1-0.3,0.1l0.4-3.8l1.6,1.1l-0.3,2.5l-0.1,0h-0.1h-0.1L21.5,9.3L21.5,9.3z
				 M19.4,9.9c-0.2,0.1-0.4,0.2-0.5,0.3c-0.2,0.1-0.3,0.2-0.5,0.4c-0.3,0.3-0.6,0.6-0.8,0.9L17.9,8l1.9-2L19.4,9.9z M14.6,15.8
				l0.5-4.8l1.9-2l-0.6,5.4c0,0.1,0,0.2,0,0.3c0,0.1,0,0.2,0,0.3c0,0.1,0,0.2,0,0.3c0,0.1,0,0.2,0,0.3L14.6,15.8z M20.6,18.2
				c-0.5,0-1-0.1-1.4-0.3c-0.4-0.2-0.8-0.5-1.1-0.8c-0.3-0.4-0.5-0.8-0.7-1.3c-0.1-0.5-0.2-1-0.1-1.6c0.1-0.6,0.2-1.1,0.5-1.6
				c0.2-0.5,0.6-0.9,0.9-1.3c0.4-0.4,0.8-0.7,1.3-0.9c0.5-0.2,1-0.3,1.5-0.4c0.5,0,1,0.1,1.4,0.3c0.4,0.2,0.8,0.5,1.1,0.8
				c0.3,0.4,0.5,0.8,0.7,1.3c0.1,0.5,0.2,1,0.1,1.6c-0.1,0.6-0.2,1.1-0.5,1.6c-0.2,0.5-0.6,0.9-0.9,1.3c-0.4,0.4-0.8,0.7-1.3,0.9
				C21.6,18.1,21.1,18.2,20.6,18.2L20.6,18.2z M24.3,10.3c-0.2-0.2-0.5-0.4-0.7-0.5c-0.3-0.1-0.6-0.3-0.9-0.3L23,6.7l1.9-1.9
				L24.3,10.3z"/>
		</g>
	</g>
	<path id="Loans" class="st0" d="M799.8,3302.9l-3.6-0.1l0.2-7l1.1,0l-0.2,6l2.5,0.1L799.8,3302.9z M802.7,3303.1
		c-0.7,0-1.3-0.3-1.7-0.8c-0.4-0.5-0.6-1.1-0.6-1.9c0-0.8,0.3-1.5,0.7-1.9c0.5-0.5,1.1-0.7,1.8-0.6c0.7,0,1.3,0.3,1.7,0.7
		c0.4,0.5,0.6,1.1,0.5,1.9c0,0.8-0.3,1.4-0.7,1.9C804.1,3302.9,803.5,3303.1,802.7,3303.1z M802.9,3298.8c-0.4,0-0.7,0.1-1,0.4
		s-0.4,0.7-0.4,1.3c0,0.5,0.1,0.9,0.3,1.2s0.6,0.5,1,0.5c0.4,0,0.7-0.1,1-0.4s0.4-0.7,0.4-1.2c0-0.5-0.1-1-0.3-1.3
		S803.3,3298.8,802.9,3298.8L802.9,3298.8z M809.7,3303.2l-1,0l0-0.8h0c-0.3,0.6-0.8,0.9-1.5,0.8c-0.5,0-0.8-0.2-1.1-0.4
		c-0.3-0.3-0.4-0.6-0.4-1.1c0-0.9,0.6-1.5,1.6-1.6l1.4-0.2c0-0.7-0.3-1.1-0.9-1.1c-0.6,0-1.1,0.2-1.5,0.6l0-1
		c0.5-0.3,1.1-0.4,1.7-0.4c1.2,0,1.8,0.7,1.7,1.9L809.7,3303.2z M808.8,3300.7l-1,0.1c-0.3,0-0.5,0.1-0.7,0.2
		c-0.2,0.1-0.2,0.3-0.3,0.6c0,0.2,0.1,0.4,0.2,0.5c0.1,0.1,0.3,0.2,0.6,0.2c0.3,0,0.6-0.1,0.8-0.3c0.2-0.2,0.3-0.5,0.4-0.9
		L808.8,3300.7z M815.2,3303.4l-1.1,0l0.1-2.8c0-0.9-0.3-1.4-0.9-1.4c-0.3,0-0.6,0.1-0.8,0.4s-0.3,0.6-0.4,1l-0.1,2.9l-1.1,0l0.2-5
		l1.1,0l0,0.8h0c0.4-0.6,0.9-0.9,1.6-0.9c0.5,0,0.9,0.2,1.2,0.6c0.3,0.4,0.4,0.9,0.4,1.5L815.2,3303.4z M816.3,3303.3l0-1
		c0.4,0.3,0.8,0.5,1.3,0.5c0.6,0,1-0.2,1-0.6c0-0.1,0-0.2-0.1-0.3s-0.1-0.2-0.2-0.2c-0.1-0.1-0.2-0.1-0.3-0.2
		c-0.1-0.1-0.3-0.1-0.4-0.2c-0.2-0.1-0.4-0.2-0.5-0.3c-0.2-0.1-0.3-0.2-0.4-0.3c-0.1-0.1-0.2-0.3-0.2-0.4c0-0.1-0.1-0.3-0.1-0.5
		c0-0.2,0.1-0.5,0.2-0.6s0.3-0.3,0.5-0.5c0.2-0.1,0.4-0.2,0.6-0.3c0.2-0.1,0.5-0.1,0.7-0.1c0.4,0,0.8,0.1,1.2,0.2l0,1
		c-0.3-0.3-0.7-0.4-1.1-0.4c-0.1,0-0.3,0-0.4,0c-0.1,0-0.2,0.1-0.3,0.1c-0.1,0-0.1,0.1-0.2,0.2c0,0.1-0.1,0.2-0.1,0.2
		c0,0.1,0,0.2,0.1,0.3s0.1,0.1,0.2,0.2s0.2,0.1,0.3,0.2c0.1,0.1,0.3,0.1,0.4,0.2c0.2,0.1,0.4,0.2,0.5,0.3c0.2,0.1,0.3,0.2,0.4,0.3
		c0.1,0.1,0.2,0.3,0.2,0.4c0.1,0.2,0.1,0.3,0.1,0.5c0,0.3-0.1,0.5-0.2,0.7c-0.1,0.2-0.3,0.3-0.5,0.5c-0.2,0.1-0.4,0.2-0.7,0.3
		c-0.2,0.1-0.5,0.1-0.8,0.1C817.1,3303.6,816.6,3303.5,816.3,3303.3L816.3,3303.3z"/>
	<g id="Group_421" transform="translate(976.504 3269.744)">
		<g id="Group_419">
			<path id="Path_1214" class="st5" d="M29.2,11.2L0,148.9L138.1,159l29.2-138.7L29.2,11.2z"/>
			<path id="Path_1215" class="st6" d="M138.3,147.2L163,23.9L31.9,15.2L7,138.6L138.3,147.2z"/>
			<path id="Path_1216" class="st7" d="M137.3,146.3L163,23.9L31.9,15.2L5.9,137.6L137.3,146.3z"/>
			<path id="Path_1217" class="st6" d="M135.1,148.5L163,23.9L31.9,15.2L3.8,139.8L135.1,148.5z"/>
			<path id="Path_1218" class="st2" d="M134.5,147L163,23.9L31.9,15.2L3.2,138.3L134.5,147z"/>
			<g id="Group_400" transform="translate(11.681 42.309)">
				<g id="Group_381" transform="translate(16.958 0.753)">
					<path id="Path_1219" class="st8" d="M0,17.2l50,3.3l3.6-17.2L3.9,0L0,17.2z"/>
				</g>
				<g id="Group_382" transform="translate(83.959 76.654)">
					<path id="Path_1220" class="st8" d="M0,17.5l33.5,2l3.8-17.5L4.1,0L0,17.5z"/>
				</g>
				<g id="Group_383" transform="translate(0 0.269)">
					<path id="Path_1221" class="st9" d="M117.8,96.6L0,88.8L20.6,0l117.7,7.8l-0.1,0.3L117.8,96.6z M1.1,87.8l116.1,7.7l20-86.8
						L21.3,1L1.1,87.8z"/>
				</g>
				<g id="Group_392" transform="translate(0.079)">
					<g id="Group_384" transform="translate(116.958 7.731)">
						<path id="Path_1222" class="st9" d="M0.9,88.5L0,88.7L20.2,0.2L21.1,0L0.9,88.5z"/>
					</g>
					<g id="Group_385" transform="translate(100.25 6.626)">
						<path id="Path_1223" class="st9" d="M1,88.5L0,88.7L20.2,0.2L21.2,0L1,88.5z"/>
					</g>
					<g id="Group_386" transform="translate(83.541 5.522)">
						<path id="Path_1224" class="st9" d="M0.9,88.5L0,88.7L20.2,0.2L21.2,0L0.9,88.5z"/>
					</g>
					<g id="Group_387" transform="translate(66.833 4.417)">
						<path id="Path_1225" class="st9" d="M0.9,88.5L0,88.7L20.2,0.2L21.2,0L0.9,88.5z"/>
					</g>
					<g id="Group_388" transform="translate(50.125 3.313)">
						<path id="Path_1226" class="st9" d="M1,88.5L0,88.7L20.3,0.2L21.2,0L1,88.5z"/>
					</g>
					<g id="Group_389" transform="translate(33.416 2.209)">
						<path id="Path_1227" class="st9" d="M0.9,88.5L0,88.7L20.3,0.2L21.2,0L0.9,88.5z"/>
					</g>
					<g id="Group_390" transform="translate(16.708 1.104)">
						<path id="Path_1228" class="st9" d="M0.9,88.5L0,88.7L20.3,0.2L21.2,0L0.9,88.5z"/>
					</g>
					<g id="Group_391">
						<path id="Path_1229" class="st9" d="M1,88.5L0,88.7L20.3,0.2L21.3,0L1,88.5z"/>
					</g>
				</g>
				<g id="Group_399" transform="translate(0.311 0.29)">
					<g id="Group_393" transform="translate(0 87.801)">
						<path id="Path_1230" class="st9" d="M117,8.7L0,1l0.5-1l117,7.7L117,8.7z"/>
					</g>
					<g id="Group_394" transform="translate(3.931 70.241)">
						<path id="Path_1231" class="st9" d="M116.9,8.7L0,1l0.5-1l116.9,7.7L116.9,8.7z"/>
					</g>
					<g id="Group_395" transform="translate(7.863 52.681)">
						<path id="Path_1232" class="st9" d="M116.9,8.7L0,1l0.5-1l116.9,7.7L116.9,8.7z"/>
					</g>
					<g id="Group_396" transform="translate(11.794 35.12)">
						<path id="Path_1233" class="st9" d="M116.9,8.7L0,0.9l0.5-1l116.9,7.7L116.9,8.7z"/>
					</g>
					<g id="Group_397" transform="translate(15.726 17.56)">
						<path id="Path_1234" class="st9" d="M116.8,8.7L0,1l0.5-1l116.8,7.7L116.8,8.7z"/>
					</g>
					<g id="Group_398" transform="translate(19.657)">
						<path id="Path_1235" class="st9" d="M116.8,8.7L0,1l0.5-1l116.8,7.7L116.8,8.7z"/>
					</g>
				</g>
			</g>
			<path id="Path_1236" class="st10" d="M167.3,20.3L138.1,159l34.2-27.6l25.5-6.3L167.3,20.3z"/>
			<path id="Path_1237" class="st11" d="M197.4,125.4l0.4-0.3L167.3,20.3l-18.8,89.5L197.4,125.4z"/>
			<path id="Path_1238" class="st11" d="M172.8,131l-26.1-9l-8.6,36.9l34.2-27.6L172.8,131z"/>
			<path id="Path_1239" class="st12" d="M167.3,20.3L138.1,159l34.2-27.6l25.5-6.3L167.3,20.3z M172,130.9l-32.6,26.4l28-133.3
				l29.4,101L172,130.9z"/>
			<g id="Group_401" transform="translate(35.49 21.348)">
				<path id="Path_1240" class="st5" d="M120.2,7.9l-7.5-0.5l-1,4.9l7.5,0.5L120.2,7.9z"/>
				<path id="Path_1241" class="st5" d="M101.6,6.7l-7.5-0.5l-1,4.9l7.5,0.5L101.6,6.7z"/>
				<path id="Path_1242" class="st5" d="M83,5.4L75.5,5l-1,4.9l7.5,0.5L83,5.4z"/>
				<path id="Path_1243" class="st5" d="M64.4,4.2l-7.5-0.5l-1,4.9l7.5,0.5L64.4,4.2z"/>
				<path id="Path_1244" class="st5" d="M45.7,3l-7.5-0.5l-1,4.9l7.5,0.5L45.7,3z"/>
				<path id="Path_1245" class="st5" d="M27.1,1.7l-7.5-0.5l-1,4.9l7.5,0.5L27.1,1.7z"/>
				<path id="Path_1246" class="st5" d="M8.5,0.5L1,0L0,4.9l7.5,0.5L8.5,0.5z"/>
			</g>
			<g id="Group_402" transform="translate(37.496)">
				<path id="Path_1247" class="st9" d="M128,7.4c-2-0.1-4.6,1.2-7.3,3.7c-5,4.7-8.9,12.3-8.9,17.4c0,2.2,0.8,3.7,2.2,4.2
					c1.2,0.3,2.4,0.2,3.5-0.3l0.7-3.1c-0.6,0.4-1.3,0.5-2,0.4c-0.8-0.3-1.2-1.2-1.2-2.6c0-4,3.3-10.5,7.3-14.3
					c1.6-1.5,3.2-2.4,4.2-2.3s1.6,1,1.6,2.7c-0.2,2.4-0.8,4.7-2,6.8l2.8,0.1c1.4-2.6,2.2-5.4,2.4-8.4C131.1,9.1,130,7.6,128,7.4z"/>
				<path id="Path_1248" class="st9" d="M109.3,6.2c-2-0.1-4.6,1.2-7.3,3.7c-5,4.7-8.9,12.3-8.9,17.4c0,2.2,0.8,3.7,2.2,4.2
					c1.2,0.3,2.4,0.2,3.5-0.3l0.6-3.1c-0.6,0.4-1.3,0.5-2,0.4c-0.8-0.3-1.2-1.2-1.2-2.6c0-4,3.3-10.5,7.3-14.3
					c1.6-1.6,3.2-2.4,4.2-2.3s1.6,1,1.6,2.7c-0.2,2.4-0.8,4.7-2,6.8l2.8,0.1c1.4-2.6,2.2-5.4,2.4-8.4C112.5,7.9,111.4,6.3,109.3,6.2
					z"/>
				<path id="Path_1249" class="st9" d="M90.7,5c-2-0.1-4.6,1.2-7.3,3.7c-5,4.7-8.9,12.3-8.9,17.4c0,2.2,0.8,3.7,2.2,4.2
					c1.2,0.3,2.4,0.2,3.5-0.3l0.7-3.1c-0.6,0.4-1.3,0.5-2,0.4c-0.7-0.3-1.2-1.2-1.2-2.6c0-4,3.3-10.5,7.3-14.3
					c1.6-1.6,3.2-2.4,4.2-2.3c1,0.1,1.6,1,1.6,2.7c-0.2,2.4-0.8,4.7-2,6.8l2.8,0.1c1.4-2.6,2.2-5.4,2.4-8.4
					C93.9,6.7,92.7,5.1,90.7,5z"/>
				<path id="Path_1250" class="st9" d="M72.1,3.7c-2-0.1-4.6,1.2-7.3,3.7c-5,4.7-8.9,12.3-8.9,17.4c0,2.2,0.8,3.7,2.2,4.2
					c1.2,0.3,2.4,0.2,3.5-0.3l0.7-3.1c-0.6,0.4-1.3,0.5-2,0.4c-0.8-0.3-1.2-1.2-1.2-2.6c0-4,3.3-10.5,7.3-14.3
					c1.6-1.5,3.2-2.4,4.2-2.3s1.6,1,1.6,2.7c-0.2,2.4-0.8,4.7-2,6.8l2.8,0.1c1.4-2.6,2.2-5.4,2.4-8.4C75.2,5.4,74.1,3.9,72.1,3.7z"
					/>
				<path id="Path_1251" class="st9" d="M53.5,2.5c-2-0.1-4.6,1.2-7.3,3.7c-5,4.7-8.9,12.3-8.9,17.4c0,2.2,0.8,3.7,2.2,4.2
					c1.2,0.3,2.4,0.2,3.5-0.3l0.6-3.1c-0.6,0.4-1.3,0.5-2,0.4c-0.8-0.3-1.2-1.2-1.2-2.6c0-4,3.3-10.5,7.3-14.3
					c1.6-1.6,3.2-2.4,4.2-2.3s1.6,1,1.6,2.7c-0.2,2.4-0.8,4.7-2,6.8l2.8,0.1c1.4-2.6,2.2-5.4,2.4-8.4C56.6,4.2,55.5,2.6,53.5,2.5z"
					/>
				<path id="Path_1252" class="st9" d="M34.8,1.2c-2-0.1-4.6,1.2-7.3,3.7c-5,4.7-8.9,12.3-8.9,17.4c0,2.2,0.8,3.7,2.2,4.2
					c1.2,0.3,2.4,0.2,3.5-0.3l0.7-3.1c-0.6,0.4-1.3,0.5-2,0.4c-0.8-0.3-1.2-1.2-1.2-2.6c0-4,3.3-10.5,7.3-14.3
					c1.6-1.6,3.2-2.4,4.2-2.3s1.6,1,1.6,2.7c-0.2,2.4-0.8,4.7-2,6.8l2.8,0.1c1.4-2.6,2.2-5.4,2.4-8.4C38,2.9,36.9,1.4,34.8,1.2z"/>
				<path id="Path_1253" class="st9" d="M16.2,0c-2-0.1-4.6,1.2-7.3,3.7C3.9,8.4,0,16.1,0,21.1c0,2.2,0.8,3.7,2.2,4.2
					c1.2,0.3,2.4,0.2,3.5-0.3l0.7-3.1c-0.6,0.4-1.3,0.5-2,0.4c-0.7-0.3-1.2-1.2-1.2-2.6c0-4,3.3-10.5,7.3-14.3
					c1.6-1.5,3.2-2.4,4.2-2.3s1.6,1,1.6,2.7c-0.2,2.4-0.8,4.7-2,6.8l2.8,0.1c1.4-2.6,2.2-5.4,2.4-8.4C19.3,1.7,18.2,0.2,16.2,0z"/>
			</g>
			<g id="Group_403" transform="translate(32.825 38.381)">
				<path id="Path_1254" class="st13" d="M14.8,0.8L2.6,0c-1,0.1-1.9,0.8-2.1,1.8L0,4.2l16.2,1.1l0.4-1.9c0.4-1-0.2-2.1-1.2-2.5
					C15.2,0.9,15,0.8,14.8,0.8z"/>
				<path id="Path_1255" class="st13" d="M31.4,1.9L19.2,1.1c-1,0.1-1.9,0.8-2.1,1.8l-0.5,2.4l16.2,1.1l0.4-1.9
					C33.5,3.5,33,2.4,32,2C31.8,1.9,31.6,1.9,31.4,1.9z"/>
				<path id="Path_1256" class="st13" d="M48,3L35.8,2.2C34.8,2.3,34,3,33.7,4l-0.5,2.4l16.2,1.1l0.4-1.9c0.3-1-0.2-2.1-1.2-2.5
					C48.4,3,48.2,3,48,3z"/>
				<path id="Path_1257" class="st13" d="M64.7,4.1L52.5,3.3c-1,0.1-1.9,0.8-2.1,1.8l-0.5,2.4l16.2,1.1l0.4-1.9
					c0.3-1-0.2-2.1-1.2-2.5C65.1,4.1,64.9,4.1,64.7,4.1z"/>
				<path id="Path_1258" class="st13" d="M81.3,5.2L69.1,4.3c-1,0.1-1.9,0.8-2.1,1.8l-0.5,2.4l16.2,1.1l0.4-1.9
					c0.3-1-0.2-2.1-1.2-2.5C81.7,5.2,81.5,5.2,81.3,5.2z"/>
				<path id="Path_1259" class="st13" d="M98,6.2L85.8,5.4c-1,0.1-1.9,0.8-2.1,1.8l-0.5,2.4l16.2,1.1l0.4-1.9c0.4-1-0.2-2.1-1.2-2.5
					C98.4,6.3,98.2,6.2,98,6.2z"/>
				<path id="Path_1260" class="st13" d="M114.6,7.3l-12.2-0.8c-1,0.1-1.9,0.8-2.1,1.8l-0.5,2.4l16.2,1.1l0.4-1.9
					c0.3-1-0.2-2.1-1.2-2.5C115,7.4,114.8,7.3,114.6,7.3z"/>
			</g>
			<g id="Group_408" transform="translate(104.96 53.622)">
				<path id="Path_1262" class="st14" d="M23.7,14.3l-4,16.6L2.8,29.5l3.8-16L23.7,14.3z"/>
				<path id="Path_1263" class="st14" d="M6.7,12.7l-4,16.8V15.7L6.7,12.7z"/>
				<g id="Group_407" transform="translate(0 0)">
					<path id="Path_1264" class="st15" d="M23,9.9c0,2.1-0.8,4.2-2.4,5.7c0,0-2.5,2.4-2.5,2.5c-1.5,1.4-0.5-0.7-2.8-0.9
						c-4.7-0.4-8.3-4.3-8.4-9.1c0-2.3-2.4-1.3-0.9-2.7c0,0,2.8-2.6,2.8-2.6c1.6-1.4,3.7-2.2,5.9-2C19.3,1.2,22.9,5.1,23,9.9z"/>
					
						<ellipse id="Ellipse_30" transform="matrix(0.7609 -0.6489 0.6489 0.7609 -4.9041 10.5479)" class="st16" cx="11.9" cy="11.9" rx="8.1" ry="8.7"/>
					
						<ellipse id="Ellipse_31" transform="matrix(0.7609 -0.6489 0.6489 0.7609 -4.9037 10.5468)" class="st17" cx="11.9" cy="11.9" rx="6" ry="6.5"/>
					<path id="Path_1265" class="st15" d="M12.4,17.5c-3.5-0.3-6.2-3.2-6.2-6.7c0-1.2,0.3-2.3,1-3.3c-1,1.1-1.6,2.5-1.5,4
						c0,3.5,2.7,6.4,6.2,6.7c2.1,0.2,4.1-0.8,5.2-2.5C15.9,16.9,14.2,17.6,12.4,17.5z"/>
					<g id="Group_404" transform="translate(8.934 0.819)">
						<path id="Path_1266" class="st18" d="M5.9,0C5.8,0,5.7,0,5.7,0S5.6,0,5.5,0L2.7,2.6c0.1,0,0.1,0,0.2,0c0,0,0.1,0,0.1,0L5.9,0z
							"/>
						<path id="Path_1267" class="st18" d="M2.8,0.3L0,3c0.2-0.1,0.3-0.1,0.5-0.1l2.8-2.7C3.2,0.2,3,0.3,2.8,0.3z"/>
						<path id="Path_1268" class="st18" d="M7.5,0.3L4.7,3C4.8,3,4.9,3,5,3.1l2.8-2.6C7.7,0.4,7.6,0.4,7.5,0.3z"/>
						<path id="Path_1269" class="st18" d="M10.5,1.9L7.8,4.5C7.8,4.6,7.9,4.6,8,4.7l2.8-2.6C10.7,2,10.6,2,10.5,1.9z"/>
						<path id="Path_1270" class="st18" d="M9.1,1L6.4,3.6c0.1,0,0.2,0.1,0.2,0.1l2.8-2.6C9.3,1.1,9.2,1.1,9.1,1z"/>
						<path id="Path_1271" class="st18" d="M11.7,3L9,5.6C9,5.7,9.1,5.8,9.1,5.8l2.8-2.6C11.8,3.2,11.8,3.1,11.7,3z"/>
						<path id="Path_1272" class="st18" d="M13.6,11.8l-2.7,2.6c-0.1,0.2-0.1,0.4-0.2,0.6l2.7-2.6C13.4,12.2,13.5,12,13.6,11.8z"/>
						<path id="Path_1273" class="st18" d="M11.3,11.9c0,0.1,0,0.2,0,0.4L14,9.7c0-0.1,0-0.2,0-0.4L11.3,11.9z"/>
						<path id="Path_1274" class="st18" d="M13.9,7.6c0-0.1,0-0.2,0-0.3l-2.8,2.6c0,0.1,0,0.2,0,0.3L13.9,7.6z"/>
						<path id="Path_1275" class="st18" d="M10.6,8.3c0,0.1,0.1,0.2,0.1,0.3L13.5,6c0-0.1-0.1-0.2-0.1-0.3L10.6,8.3z"/>
						<path id="Path_1276" class="st18" d="M12.8,4.5c0-0.1-0.1-0.2-0.1-0.2L9.9,6.9C10,7,10,7.1,10,7.1L12.8,4.5z"/>
					</g>
					<path id="Path_1277" class="st19" d="M12.2,3.1C10.1,2.9,8.1,3.6,6.5,5c1.5-1,3.2-1.5,5-1.3c4.7,0.4,8.3,4.3,8.4,9.1
						c0,2.3-0.9,4.5-2.7,6c2.1-1.5,3.4-4,3.3-6.6C20.6,7.4,16.9,3.5,12.2,3.1z"/>
					<g id="Group_406" transform="translate(8.268 6.349)">
						<path id="Path_1278" class="st15" d="M4.1,10.2l3.6-4.8L4.1,0L0.5,4.8L4.1,10.2z"/>
						<path id="Path_1279" class="st16" d="M3.6,10.4l3.6-4.8L3.6,0.2L0,5.1L3.6,10.4z"/>
						<g id="Group_405" transform="translate(0 0.241)">
							<path id="Path_1280" class="st15" d="M0,4.8l3.6,0.2V0L0,4.8z"/>
							<path id="Path_1281" class="st15" d="M7.1,5.3L3.6,5.1v5.1L7.1,5.3z"/>
						</g>
					</g>
				</g>
				<path id="Path_1282" class="st20" d="M19.6,31L2.6,29.6V15.8l17.1,1.4V31z"/>
				<path id="Path_1283" class="st14" d="M23.7,14.3l-4,16.8V17.3L23.7,14.3z"/>
				<path id="Path_1284" class="st21" d="M2.6,15.8l17.1,1.4l4-3l-4,2.7L2.6,15.8z"/>
			</g>
			<g id="Group_413" transform="translate(63.659 86.375)">
				<path id="Path_1285" class="st22" d="M23.7,14.3l-4,16.6L2.8,29.5l3.8-16L23.7,14.3z"/>
				<path id="Path_1286" class="st14" d="M6.7,12.7l-4,16.8V15.7L6.7,12.7z"/>
				<g id="Group_412" transform="translate(0 0)">
					<path id="Path_1287" class="st15" d="M23,9.9c0,2.1-0.8,4.2-2.4,5.7c0,0-2.5,2.4-2.5,2.5c-1.5,1.4-0.5-0.7-2.9-0.9
						c-4.7-0.4-8.3-4.3-8.4-9.1c0-2.3-2.4-1.3-0.9-2.7l2.8-2.6c1.6-1.4,3.7-2.2,5.9-2C19.3,1.2,23,5.1,23,9.9z"/>
					
						<ellipse id="Ellipse_32" transform="matrix(0.7606 -0.6492 0.6492 0.7606 -4.902 10.552)" class="st16" cx="11.9" cy="11.9" rx="8.1" ry="8.7"/>
					<path id="Path_1288" class="st17" d="M18.1,12.4c0.1,3.2-2.5,5.8-5.6,5.8c-0.2,0-0.4,0-0.6,0c-3.5-0.3-6.2-3.2-6.2-6.7
						c-0.1-3.2,2.5-5.8,5.6-5.8c0.2,0,0.4,0,0.6,0C15.3,6,18,8.9,18.1,12.4z"/>
					<path id="Path_1289" class="st15" d="M12.4,17.5c-3.5-0.3-6.2-3.2-6.2-6.7c0-1.2,0.3-2.3,1-3.3c-1,1.1-1.6,2.5-1.5,4
						c0,3.5,2.7,6.4,6.2,6.7c2.1,0.2,4.1-0.8,5.2-2.5C15.9,16.9,14.2,17.6,12.4,17.5z"/>
					<g id="Group_409" transform="translate(8.934 0.819)">
						<path id="Path_1290" class="st18" d="M5.9,0C5.8,0,5.7,0,5.7,0S5.6,0,5.5,0L2.7,2.6c0.1,0,0.1,0,0.2,0c0,0,0.1,0,0.1,0L5.9,0z
							"/>
						<path id="Path_1291" class="st18" d="M2.8,0.3L0,3c0.2-0.1,0.3-0.1,0.5-0.1l2.8-2.7C3.2,0.2,3,0.3,2.8,0.3z"/>
						<path id="Path_1292" class="st18" d="M7.5,0.3L4.7,3C4.8,3,4.9,3,5,3.1l2.8-2.6C7.7,0.4,7.6,0.4,7.5,0.3z"/>
						<path id="Path_1293" class="st18" d="M10.5,1.9L7.8,4.5C7.8,4.6,7.9,4.6,8,4.7l2.8-2.6C10.7,2,10.6,2,10.5,1.9z"/>
						<path id="Path_1294" class="st18" d="M9.1,1L6.4,3.6c0.1,0,0.2,0.1,0.2,0.1l2.8-2.6C9.3,1.1,9.2,1.1,9.1,1z"/>
						<path id="Path_1295" class="st18" d="M11.7,3L9,5.6C9,5.7,9.1,5.8,9.1,5.8l2.8-2.6C11.8,3.2,11.8,3.1,11.7,3z"/>
						<path id="Path_1296" class="st18" d="M13.6,11.8l-2.7,2.6c-0.1,0.2-0.1,0.4-0.2,0.6l2.7-2.6C13.4,12.2,13.5,12,13.6,11.8z"/>
						<path id="Path_1297" class="st18" d="M11.3,11.9c0,0.1,0,0.2,0,0.4L14,9.7c0-0.1,0-0.2,0-0.4L11.3,11.9z"/>
						<path id="Path_1298" class="st18" d="M13.9,7.6c0-0.1,0-0.2,0-0.3l-2.8,2.6c0,0.1,0,0.2,0.1,0.3L13.9,7.6z"/>
						<path id="Path_1299" class="st18" d="M10.6,8.3c0,0.1,0.1,0.2,0.1,0.3L13.5,6c0-0.1-0.1-0.2-0.1-0.3L10.6,8.3z"/>
						<path id="Path_1300" class="st18" d="M12.8,4.5c0-0.1-0.1-0.2-0.1-0.2L9.9,6.9C10,7,10,7.1,10,7.1L12.8,4.5z"/>
					</g>
					<path id="Path_1301" class="st19" d="M12.2,3.1C10.1,2.9,8.1,3.6,6.5,5c1.5-1,3.2-1.5,5-1.3c4.7,0.4,8.3,4.3,8.4,9.1
						c0,2.3-0.9,4.5-2.7,6c2.1-1.5,3.4-4,3.3-6.6C20.6,7.4,16.9,3.5,12.2,3.1z"/>
					<g id="Group_411" transform="translate(8.268 6.349)">
						<path id="Path_1302" class="st15" d="M4.1,10.2l3.6-4.8L4.1,0L0.6,4.8L4.1,10.2z"/>
						<path id="Path_1303" class="st16" d="M3.6,10.4l3.6-4.8L3.6,0.2L0,5.1L3.6,10.4z"/>
						<g id="Group_410" transform="translate(0 0.241)">
							<path id="Path_1304" class="st15" d="M0,4.8l3.6,0.2V0L0,4.8z"/>
							<path id="Path_1305" class="st15" d="M7.1,5.3L3.6,5.1v5.1L7.1,5.3z"/>
						</g>
					</g>
				</g>
				<path id="Path_1306" class="st20" d="M19.6,31L2.6,29.6V15.8l17.1,1.4V31z"/>
				<path id="Path_1307" class="st14" d="M23.7,14.3l-4,16.8V17.3L23.7,14.3z"/>
				<path id="Path_1308" class="st21" d="M2.6,15.8l17.1,1.4l4-3l-4,2.7L2.6,15.8z"/>
			</g>
			<g id="Group_418" transform="translate(37.038 67.454)">
				<path id="Path_1309" class="st14" d="M21.1,13.5l-4,16.6L0.2,28.7l3.8-16L21.1,13.5z"/>
				<path id="Path_1310" class="st14" d="M4.1,11.9l-4,16.8V14.9L4.1,11.9z"/>
				<g id="Group_417" transform="translate(0.904)">
					<path id="Path_1311" class="st15" d="M19.5,9.1c0,2.1-0.8,4.2-2.4,5.7c0,0-2.5,2.4-2.5,2.5c-1.5,1.4-0.5-0.7-2.9-0.9
						C7.1,16,3.4,12.1,3.4,7.4C3.4,5,1,6.1,2.5,4.7L5.3,2C6.9,0.6,9-0.2,11.1,0C15.9,0.4,19.5,4.3,19.5,9.1z"/>
					<path id="Path_1312" class="st16" d="M16.8,11.7c0.1,4.3-3.3,7.8-7.6,7.9c-0.3,0-0.5,0-0.8,0C3.7,19.2,0,15.3,0,10.5
						c-0.1-4.3,3.3-7.8,7.6-7.9c0.3,0,0.5,0,0.8,0C13.1,3.1,16.7,7,16.8,11.7z"/>
					<path id="Path_1313" class="st17" d="M14.6,11.6c0.1,3.2-2.5,5.8-5.6,5.8c-0.2,0-0.4,0-0.6,0c-3.5-0.3-6.2-3.2-6.2-6.7
						C2.1,7.5,4.6,4.9,7.8,4.8c0.2,0,0.4,0,0.6,0C11.9,5.2,14.6,8.1,14.6,11.6z"/>
					<path id="Path_1314" class="st15" d="M9,16.7c-3.5-0.3-6.2-3.2-6.2-6.7c0-1.2,0.3-2.3,1-3.3c-1,1.1-1.6,2.5-1.5,4
						c0,3.5,2.7,6.4,6.2,6.7c2.1,0.2,4.1-0.8,5.2-2.5C12.4,16.1,10.7,16.8,9,16.7z"/>
					<g id="Group_414" transform="translate(5.469 0.017)">
						<path id="Path_1315" class="st18" d="M5.9,0C5.8,0,5.7,0,5.7,0S5.6,0,5.5,0L2.7,2.6c0.1,0,0.1,0,0.2,0c0,0,0.1,0,0.1,0L5.9,0z
							"/>
						<path id="Path_1316" class="st18" d="M2.8,0.3L0,3c0.2-0.1,0.3-0.1,0.5-0.1l2.8-2.7C3.2,0.2,3,0.3,2.8,0.3z"/>
						<path id="Path_1317" class="st18" d="M7.5,0.3L4.7,3C4.8,3,4.9,3,5,3.1l2.8-2.6C7.7,0.4,7.6,0.4,7.5,0.3z"/>
						<path id="Path_1318" class="st18" d="M10.5,1.9L7.8,4.5C7.8,4.6,7.9,4.6,8,4.7l2.8-2.6C10.7,2,10.6,2,10.5,1.9z"/>
						<path id="Path_1319" class="st18" d="M9.1,1L6.4,3.6c0.1,0,0.2,0.1,0.2,0.1l2.8-2.6C9.3,1.1,9.2,1.1,9.1,1z"/>
						<path id="Path_1320" class="st18" d="M11.7,3L9,5.6C9,5.7,9.1,5.8,9.1,5.8l2.8-2.6C11.8,3.2,11.8,3.1,11.7,3z"/>
						<path id="Path_1321" class="st18" d="M13.6,11.8l-2.7,2.6c-0.1,0.2-0.1,0.4-0.2,0.6l2.7-2.6C13.4,12.2,13.5,12,13.6,11.8z"/>
						<path id="Path_1322" class="st18" d="M11.3,11.9c0,0.1,0,0.3,0,0.4L14,9.6c0-0.1,0-0.2,0-0.4L11.3,11.9z"/>
						<path id="Path_1323" class="st18" d="M13.9,7.6c0-0.1,0-0.2,0-0.3l-2.8,2.6c0,0.1,0,0.2,0.1,0.3L13.9,7.6z"/>
						<path id="Path_1324" class="st18" d="M10.6,8.3c0,0.1,0.1,0.2,0.1,0.3L13.5,6c0-0.1-0.1-0.2-0.1-0.3L10.6,8.3z"/>
						<path id="Path_1325" class="st18" d="M12.8,4.5c0-0.1-0.1-0.2-0.1-0.2L9.9,6.9C10,7,10,7.1,10,7.1L12.8,4.5z"/>
					</g>
					<path id="Path_1326" class="st19" d="M8.8,2.3C6.7,2.1,4.6,2.8,3.1,4.2c1.5-1,3.2-1.5,5-1.3c4.7,0.4,8.3,4.3,8.4,9.1
						c0,2.3-0.9,4.5-2.7,6c2.1-1.5,3.4-4,3.3-6.6C17.1,6.6,13.5,2.7,8.8,2.3z"/>
					<g id="Group_416" transform="translate(4.803 5.547)">
						<path id="Path_1327" class="st15" d="M4.1,10.2l3.6-4.8L4.1,0L0.6,4.8L4.1,10.2z"/>
						<path id="Path_1328" class="st16" d="M3.6,10.4l3.6-4.8L3.6,0.2L0,5.1L3.6,10.4z"/>
						<g id="Group_415" transform="translate(0 0.241)">
							<path id="Path_1329" class="st15" d="M0,4.8l3.6,0.2V0L0,4.8z"/>
							<path id="Path_1330" class="st15" d="M7.1,5.3L3.6,5.1v5.1L7.1,5.3z"/>
						</g>
					</g>
				</g>
				<path id="Path_1331" class="st20" d="M17.1,30.2L0,28.8V15l17.1,1.4V30.2z"/>
				<path id="Path_1332" class="st14" d="M21.1,13.5l-4,16.8V16.5L21.1,13.5z"/>
				<path id="Path_1333" class="st21" d="M0,15l17.1,1.4l4-3l-4,2.7L0,15z"/>
			</g>
			<path id="Path_1334" class="st2" d="M116.8,81.3l-2-0.1v-5.8l-2-0.1l2-1.7l2,0.1V81.3z"/>
			<path id="Path_1335" class="st2" d="M47.9,94.2l-5.6-0.4V92l3.3-2.7c0.1-0.1,0.1-0.1,0.2-0.2c0.1-0.1,0.1-0.2,0.1-0.3
				c0-0.3-0.1-0.5-0.4-0.6c0,0-0.1,0-0.1,0L42.3,88l2-1.7l1.3,0.1c0.6,0,1.2,0.3,1.6,0.8c0.7,0.7,0.9,1.8,0.5,2.7
				c-0.1,0.3-0.3,0.6-0.6,0.8l-2,1.6l2.7,0.2L47.9,94.2z"/>
			<path id="Path_1336" class="st2" d="M77.4,111.5c0,0.6-0.2,1.2-0.6,1.6c-0.4,0.4-1,0.7-1.6,0.6l-3.1-0.2v-1.8l2.7,0.2
				c0.3,0,0.5-0.1,0.5-0.5c0-0.3-0.2-0.5-0.4-0.6c0,0-0.1,0-0.1,0l-2.7-0.2v-1.8l2.7,0.2c0.3,0,0.5-0.1,0.5-0.5
				c0-0.3-0.2-0.5-0.4-0.6c0,0,0,0-0.1,0l-2.7-0.2l2-1.7l1.1,0.1c0.6,0,1.2,0.3,1.6,0.8c0.4,0.5,0.6,1.1,0.6,1.7
				c0,0.6-0.3,1.2-0.9,1.4c0.3,0.1,0.5,0.3,0.7,0.6C77.3,110.9,77.4,111.2,77.4,111.5z"/>
		</g>
		<g id="Group_420" transform="translate(84.625 72.54)">
			
				<radialGradient id="Path_1337_00000152246986108555448360000011094332712827829177_" cx="-673.8708" cy="14.9847" r="0.517" gradientTransform="matrix(62.4623 0 0 -62.436 42121.7109 974.6125)" gradientUnits="userSpaceOnUse">
				<stop  offset="5.600001e-02" style="stop-color:#7F9BB0"/>
				<stop  offset="1" style="stop-color:#FFFFFF"/>
			</radialGradient>
			<path id="Path_1337" style="fill:url(#Path_1337_00000152246986108555448360000011094332712827829177_);" d="M1.5,19.6L25.5,72
				L68,27.4L48.3,9.6L25.5,48L14.8,22.2L1.5,19.6z"/>
			<path id="Path_1338" class="st24" d="M3.3,9.2l22.1,48.1l38.9-40.8L46.3,0L25.4,35.2l-9.9-23.7L3.3,9.2z"/>
			<path id="Path_1339" class="st25" d="M0,11.6l22.1,48.1L61,18.8L43,2.4L22.1,37.7L12.2,14L0,11.6z"/>
			<path id="Path_1340" class="st24" d="M64.3,16.4L61,18.8L22.1,59.6l3.3-2.4L64.3,16.4z"/>
			<path id="Path_1341" class="st26" d="M3.3,9.2L0,11.6L12.2,14l3.3-2.4L3.3,9.2z"/>
			<path id="Path_1342" class="st26" d="M61,18.8L43,2.4L46.3,0l18,16.4L61,18.8z"/>
			<path id="Path_1343" class="st2" d="M12.2,13.4L0,11.6L12.2,14l3.3-2.4L12.2,13.4z"/>
			<path id="Path_1344" class="st2" d="M61,18.8L43,2.4L61,18.1l3.2-1.8L61,18.8z"/>
		</g>
	</g>
	<g id="Group_422" transform="translate(822.385 3142.164)">
		<path id="Path_1345" class="st27" d="M39.4,17.4c-11,92.8-22,184.7-33,275.6c-0.6,3.8,2.1,7.4,5.9,8c0.1,0,0.2,0,0.3,0
			c44.2,4.2,88.3,8.5,132.5,12.8c7.9,0.4,12.2-4,12.7-8.4c11.3-98.1,22.6-197.3,33.9-297.5c0.5-4.5-3.3-8.4-11.2-8
			C136.2,3.2,91.8,6.3,47.5,9.4C43.5,9.7,39.8,13.3,39.4,17.4z"/>
		<path id="Path_1346" class="st28" d="M33.2,17.2C22.2,110.5,11.1,202.8,0.1,294.1c-0.6,3.9,2.1,7.5,6,8c0.1,0,0.2,0,0.3,0
			C52.2,306,98,310,143.9,314c4.4,0.2,8.1-3,8.5-7.4c11.4-98.6,22.8-198.2,34.1-298.9c0.5-4.5-2.5-8-6.7-7.7
			C133.7,3.1,87.5,6.2,41.4,9.2C37.4,9.4,33.7,13.1,33.2,17.2z"/>
		<path id="Path_1347" class="st2" d="M35.9,31.2c-10.2,86.4-20.5,172-30.7,256.7c-0.5,3.6,2,6.9,5.6,7.5c0.1,0,0.2,0,0.3,0
			c43.1,3.5,86.2,7.1,129.3,10.8c4.1,0.2,7.6-2.8,8-6.9c10.5-91.1,21-183,31.6-275.8c0.5-4.2-2.3-7.5-6.3-7.2
			c-43.4,2.5-86.8,5-130.2,7.5C39.5,24.2,36.4,27.3,35.9,31.2z"/>
		<path id="Path_1348" class="st29" d="M43.5,25c42.9-2.4,85.7-4.9,128.6-7.4c-1.4,8.4-4,16.6-7.5,24.4
			c-14.2,30.9-35.1,32.5-43.3,59.4c-8.4,27.7,10.6,36.4,1.3,61.4c-10.1,27.1-34.8,23.2-47.8,53c-11.2,25.7,3.2,37.4-8.4,53
			C53.6,285.8,30,280,5.6,285.8c10.1-83.6,20.2-168,30.3-253.3C36.4,28.6,39.5,25.5,43.5,25z"/>
		<path id="Path_1349" class="st2" d="M101.7,14.9c-0.2,1.2,0.5,2.3,1.7,2.5c0.2,0,0.4,0,0.6,0c1.5-0.2,2.7-1.4,2.9-2.9
			c0.2-1.2-0.5-2.3-1.7-2.5c-0.2,0-0.4,0-0.6,0C103,12.2,101.8,13.4,101.7,14.9z"/>
	</g>
	<g id="Group_423" transform="translate(847.52 3363.27)">
		<path id="Path_1350" class="st30" d="M109,35.1l-106.7-8C0.9,27-0.1,25.7,0,24.3c0,0,0-0.1,0-0.1L2.4,2.5C2.5,1.1,3.8-0.1,5.3,0
			L112,8c1.4,0.1,2.4,1.4,2.3,2.8c0,0,0,0.1,0,0.1l-2.4,21.7C111.8,34,110.5,35.1,109,35.1z"/>
		<g class="st31">
			<path class="st2" d="M20.6,18.8l0.1-1.2c0.1,0.1,0.2,0.2,0.4,0.3c0.1,0.1,0.3,0.2,0.5,0.2c0.2,0.1,0.3,0.1,0.5,0.2
				c0.2,0,0.3,0.1,0.5,0.1c0.5,0,0.9,0,1.1-0.2c0.3-0.1,0.4-0.4,0.4-0.7c0-0.2,0-0.3-0.1-0.4c-0.1-0.1-0.2-0.2-0.3-0.4
				c-0.1-0.1-0.3-0.2-0.5-0.3c-0.2-0.1-0.4-0.2-0.6-0.3c-0.2-0.1-0.4-0.3-0.6-0.4c-0.2-0.1-0.4-0.3-0.5-0.5
				c-0.1-0.2-0.2-0.4-0.3-0.6c-0.1-0.2-0.1-0.4-0.1-0.7c0-0.3,0.1-0.6,0.3-0.8c0.2-0.2,0.4-0.4,0.6-0.6c0.3-0.1,0.5-0.2,0.9-0.3
				c0.3-0.1,0.6-0.1,1,0c0.7,0.1,1.3,0.2,1.6,0.4l-0.1,1.1c-0.4-0.3-0.9-0.5-1.5-0.5c-0.2,0-0.3,0-0.5,0c-0.2,0-0.3,0.1-0.5,0.1
				c-0.1,0.1-0.3,0.2-0.3,0.3s-0.1,0.2-0.2,0.4c0,0.2,0,0.3,0.1,0.4c0.1,0.1,0.1,0.2,0.3,0.3c0.1,0.1,0.3,0.2,0.4,0.3
				c0.2,0.1,0.4,0.2,0.6,0.3c0.2,0.1,0.5,0.3,0.7,0.5c0.2,0.2,0.4,0.3,0.5,0.5c0.2,0.2,0.3,0.4,0.3,0.6c0.1,0.2,0.1,0.5,0.1,0.7
				c0,0.4-0.1,0.6-0.3,0.9s-0.4,0.4-0.6,0.6c-0.3,0.1-0.5,0.2-0.9,0.3c-0.3,0-0.7,0.1-1,0c-0.1,0-0.3,0-0.4-0.1
				c-0.2,0-0.3-0.1-0.5-0.1c-0.2,0-0.3-0.1-0.5-0.2C20.8,18.9,20.6,18.8,20.6,18.8z"/>
			<path class="st2" d="M30.5,17.6l-3.4-0.3c0,0.5,0.1,0.8,0.3,1.1c0.3,0.3,0.6,0.4,1.1,0.5c0.5,0,1-0.1,1.5-0.4L30,19.4
				c-0.5,0.3-1.1,0.4-1.8,0.3c-0.7-0.1-1.3-0.3-1.7-0.8c-0.4-0.5-0.5-1.1-0.5-2c0.1-0.8,0.3-1.4,0.8-1.8c0.5-0.5,1.1-0.7,1.8-0.6
				c0.7,0,1.2,0.3,1.5,0.8c0.3,0.5,0.5,1.1,0.4,1.9L30.5,17.6z M29.5,16.7c0-0.4,0-0.7-0.2-1c-0.2-0.2-0.4-0.4-0.8-0.4
				c-0.3,0-0.6,0.1-0.9,0.3c-0.2,0.2-0.4,0.5-0.5,0.9L29.5,16.7z"/>
			<path class="st2" d="M34.1,20c-0.2,0.1-0.5,0.1-0.9,0.1c-1-0.1-1.4-0.6-1.3-1.5l0.2-2.8l-0.8-0.1l0.1-0.9l0.8,0.1l0.1-1.2
				l1.2-0.2L33.3,15l1.2,0.1l-0.1,0.9l-1.2-0.1L33,18.3c0,0.3,0,0.5,0.1,0.6c0.1,0.1,0.3,0.2,0.5,0.2c0.2,0,0.4,0,0.5-0.1L34.1,20z"
				/>
			<path class="st2" d="M39.4,20.4l-1.1-0.1l0.1-0.8l0,0c-0.4,0.6-0.9,0.8-1.6,0.8c-1.2-0.1-1.7-0.8-1.6-2.3l0.2-3l1.1,0.1l-0.2,2.9
				c-0.1,0.9,0.2,1.4,0.9,1.4c0.3,0,0.6-0.1,0.9-0.3c0.2-0.2,0.4-0.5,0.4-0.9l0.2-2.9l1.1,0.1L39.4,20.4z"/>
			<path class="st2" d="M42.1,19.9L42.1,19.9l-0.2,3l-1.1-0.1l0.5-7.3l1.1,0.1l-0.1,0.9l0,0c0.4-0.6,1-0.9,1.8-0.9
				c0.6,0,1.1,0.3,1.4,0.8c0.3,0.5,0.5,1.1,0.4,1.8c-0.1,0.8-0.3,1.5-0.7,2c-0.4,0.5-1,0.7-1.7,0.6C42.9,20.8,42.4,20.5,42.1,19.9z
				 M42.2,17.9l0,0.6c0,0.4,0.1,0.7,0.3,1c0.2,0.3,0.5,0.4,0.9,0.4c0.4,0,0.8-0.1,1-0.4c0.3-0.3,0.4-0.8,0.5-1.3
				c0-0.5,0-0.9-0.2-1.2c-0.2-0.3-0.5-0.5-0.9-0.5c-0.4,0-0.7,0.1-1,0.4C42.4,17.1,42.2,17.5,42.2,17.9z"/>
			<path class="st2" d="M57.3,21.7l-1.1-0.1l0.3-4.5c0-0.4,0.1-0.8,0.2-1.4l0,0c-0.1,0.3-0.2,0.5-0.2,0.6l-2.5,5.1l-0.8-0.1
				l-1.7-5.3c0-0.2-0.1-0.4-0.1-0.7l0,0c0,0.3,0,0.7-0.1,1.4l-0.3,4.5l-1.1-0.1l0.5-7l1.6,0.1l1.5,4.8c0.1,0.4,0.2,0.6,0.2,0.8l0,0
				c0.1-0.4,0.3-0.6,0.4-0.8l2.2-4.5l1.6,0.1L57.3,21.7z"/>
			<path class="st2" d="M62.7,22.1l-1.1-0.1l0.1-0.8l0,0c-0.4,0.6-0.9,0.8-1.6,0.8c-0.5,0-0.9-0.2-1.1-0.5s-0.4-0.6-0.3-1.1
				c0.1-0.9,0.7-1.5,1.7-1.5l1.5-0.1c0.1-0.7-0.3-1.1-0.9-1.1c-0.6,0-1.1,0.1-1.7,0.5l0.1-1c0.5-0.3,1.2-0.4,1.9-0.3
				c1.3,0.1,1.8,0.8,1.8,2L62.7,22.1z M61.8,19.6l-1.1,0.1c-0.3,0-0.6,0.1-0.8,0.2c-0.2,0.1-0.3,0.3-0.3,0.6c0,0.2,0,0.4,0.2,0.5
				s0.3,0.2,0.6,0.2c0.3,0,0.6-0.1,0.9-0.3c0.2-0.2,0.4-0.5,0.4-0.9L61.8,19.6z"/>
			<path class="st2" d="M68.5,22.6l-1.1-0.1l0.2-2.8c0.1-0.9-0.2-1.4-0.9-1.5c-0.3,0-0.6,0.1-0.9,0.3c-0.2,0.2-0.4,0.6-0.4,1
				l-0.2,2.8l-1.1-0.1l0.4-5l1.1,0.1l-0.1,0.8l0,0c0.4-0.6,1-0.9,1.7-0.8c0.5,0,0.9,0.2,1.2,0.6c0.3,0.4,0.4,0.9,0.3,1.6L68.5,22.6z
				"/>
			<path class="st2" d="M74.4,23l-1.1-0.1l0.1-0.8l0,0c-0.4,0.6-1,0.9-1.8,0.8c-0.6,0-1.1-0.3-1.4-0.8c-0.3-0.5-0.5-1.1-0.4-1.9
				c0.1-0.8,0.3-1.5,0.8-1.9c0.4-0.5,1-0.7,1.7-0.6c0.7,0,1.1,0.4,1.4,0.9l0,0l0.2-3.1l1.1,0.1L74.4,23z M73.5,20.6l0-0.7
				c0-0.4-0.1-0.7-0.3-0.9c-0.2-0.3-0.5-0.4-0.9-0.4c-0.4,0-0.8,0.1-1,0.4c-0.3,0.3-0.4,0.7-0.5,1.3c0,0.5,0,0.9,0.3,1.2
				c0.2,0.3,0.5,0.5,0.9,0.5c0.4,0,0.7-0.1,1-0.4S73.4,21.1,73.5,20.6z"/>
			<path class="st2" d="M79.7,23.4l-1.1-0.1l0.1-0.8l0,0c-0.4,0.6-0.9,0.8-1.6,0.8c-0.5,0-0.9-0.2-1.1-0.5c-0.3-0.3-0.4-0.6-0.3-1.1
				c0.1-0.9,0.7-1.5,1.7-1.5l1.5-0.1c0.1-0.7-0.3-1.1-0.9-1.1c-0.6,0-1.1,0.1-1.7,0.5l0.1-1c0.5-0.3,1.2-0.4,1.9-0.3
				c1.3,0.1,1.8,0.8,1.8,2L79.7,23.4z M78.8,20.9l-1.1,0.1c-0.3,0-0.6,0.1-0.8,0.2c-0.2,0.1-0.3,0.3-0.3,0.6c0,0.2,0,0.4,0.2,0.5
				c0.1,0.1,0.3,0.2,0.6,0.2c0.3,0,0.6-0.1,0.9-0.3c0.2-0.2,0.4-0.5,0.4-0.9L78.8,20.9z"/>
			<path class="st2" d="M83.7,23.6c-0.2,0.1-0.5,0.1-0.9,0.1c-1-0.1-1.4-0.6-1.3-1.5l0.2-2.8l-0.8-0.1l0.1-0.9l0.8,0.1l0.1-1.2
				l1.2-0.2l-0.1,1.5l1.2,0.1L84,19.6l-1.2-0.1L82.6,22c0,0.3,0,0.5,0.1,0.6c0.1,0.1,0.3,0.2,0.5,0.2c0.2,0,0.4,0,0.5-0.1L83.7,23.6
				z"/>
			<path class="st2" d="M89,21.9l-3.4-0.3c0,0.5,0.1,0.8,0.3,1.1c0.3,0.3,0.6,0.4,1.1,0.5c0.5,0,1-0.1,1.5-0.4l-0.1,0.9
				C88,24,87.4,24.1,86.7,24c-0.7-0.1-1.3-0.3-1.7-0.8c-0.4-0.5-0.5-1.1-0.5-2c0.1-0.8,0.3-1.4,0.8-1.8c0.5-0.5,1.1-0.7,1.8-0.6
				s1.2,0.3,1.5,0.8c0.3,0.5,0.5,1.1,0.4,1.9L89,21.9z M88,21c0-0.4,0-0.7-0.2-1c-0.2-0.2-0.4-0.4-0.8-0.4c-0.3,0-0.6,0.1-0.9,0.3
				c-0.2,0.2-0.4,0.5-0.5,0.9L88,21z"/>
		</g>
	</g>
	<path id="Path_1351" class="st32" d="M972.4,3301.1L972.4,3301.1l-111.9-4.8c-2.3-0.1-4.1-2-4.1-4.3c0-2.2,1.9-4,4.1-4
		c0.1,0,0.1,0,0.2,0l111.8,4.8c2.3,0.1,4.1,2,4.1,4.3C976.6,3299.3,974.7,3301.1,972.4,3301.1
		C972.4,3301.1,972.4,3301.1,972.4,3301.1z"/>
	<path id="Path_1352" class="st32" d="M967,3321.7c-0.1,0-0.1,0-0.2,0l-109.7-6.7c-2.3-0.1-4.1-2.1-4-4.4c0.1-2.3,2-4,4.3-3.9
		c0,0,0.1,0,0.1,0l109.7,6.7c2.3,0.1,4.1,2.1,4,4.4C971.1,3320.1,969.2,3321.8,967,3321.7z"/>
	<path id="Path_1353" class="st32" d="M965.6,3342c-0.1,0-0.1,0-0.2,0l-112-7.5c-2.3-0.1-4.2-2.1-4.1-4.4c0.1-2.3,2.1-4,4.3-3.9
		c0,0,0.1,0,0.1,0l112,7.5c2.3,0.1,4.2,2.1,4.1,4.4C969.8,3340.4,967.9,3342.1,965.6,3342z"/>
	<g id="Group_426" transform="translate(871.773 3422.543)">
		<g id="Group_425">
			<g id="Group_424">
				<path id="Path_1354" class="st33" d="M14.4,3.5l3.1,0.3c0.3,0,0.7,0.1,1,0.2c0.2,0.1,0.4,0.3,0.6,0.5c0.1,0.1,0.2,0.3,0.2,0.4
					c0,0.2,0.1,0.4,0,0.6v0c0,0.3-0.2,0.6-0.4,0.8c-0.2,0.2-0.5,0.3-0.7,0.4c0.3,0.1,0.6,0.3,0.8,0.6c0.2,0.3,0.3,0.6,0.2,1v0
					c-0.1,0.5-0.4,0.9-0.8,1.2c-0.5,0.3-1.2,0.4-1.8,0.3l-3.1-0.3L14.4,3.5z M16.7,6.2c0.2,0,0.4,0,0.6-0.1c0.1-0.1,0.2-0.2,0.3-0.4
					v0c0-0.1,0-0.3-0.1-0.4c-0.2-0.1-0.4-0.2-0.6-0.2L15.8,5l-0.2,1.1L16.7,6.2z M16.6,8.5c0.2,0,0.4,0,0.6-0.1
					c0.1-0.1,0.3-0.2,0.3-0.4v0c0-0.2,0-0.3-0.1-0.4c-0.2-0.1-0.4-0.2-0.6-0.2l-1.3-0.1l-0.2,1.1L16.6,8.5z"/>
				<path id="Path_1355" class="st33" d="M22.8,4.1l1.7,0.2l-1,6.3l-1.7-0.2L22.8,4.1z"/>
				<path id="Path_1356" class="st33" d="M25.1,4.3l1.7,0.2l-1,6.3l-1.7-0.2L25.1,4.3z"/>
				<path id="Path_1357" class="st33" d="M27.5,4.8L29.9,5c0.5,0,1,0.2,1.4,0.4c0.4,0.2,0.7,0.4,1,0.7c0.2,0.3,0.4,0.6,0.5,1
					c0.1,0.4,0.1,0.8,0,1.2v0c-0.1,0.4-0.2,0.8-0.4,1.2c-0.2,0.4-0.5,0.7-0.8,0.9c-0.4,0.2-0.8,0.4-1.2,0.5c-0.5,0.1-1,0.1-1.5,0.1
					l-2.3-0.2L27.5,4.8z M29.2,9.5c0.4,0.1,0.9,0,1.3-0.3c0.4-0.2,0.6-0.6,0.6-1.1v0c0.1-0.4,0-0.8-0.3-1.2
					c-0.3-0.3-0.7-0.5-1.2-0.5L29,6.4l-0.5,3.1L29.2,9.5z"/>
				<path id="Path_1358" class="st33" d="M35.2,11.7c-0.3,0-0.7-0.1-1-0.3c-0.3-0.1-0.5-0.3-0.7-0.6c-0.2-0.2-0.3-0.5-0.4-0.8
					c-0.1-0.3-0.1-0.7,0-1v0c0.1-0.3,0.2-0.6,0.3-0.9c0.2-0.3,0.4-0.5,0.6-0.7c0.5-0.4,1.2-0.6,1.8-0.5c0.4,0,0.7,0.1,1,0.3
					c0.3,0.2,0.5,0.4,0.6,0.6c0.2,0.3,0.3,0.5,0.3,0.8c0,0.3,0,0.7,0,1l0,0.2c0,0.1,0,0.1,0,0.2l-3.1-0.3c0,0.2,0.1,0.4,0.3,0.6
					c0.2,0.2,0.4,0.2,0.6,0.3c0.2,0,0.4,0,0.6-0.1c0.2-0.1,0.4-0.2,0.6-0.3l0.8,0.8c-0.3,0.3-0.6,0.5-0.9,0.6
					C36.1,11.7,35.6,11.8,35.2,11.7 M36.3,9c0-0.2,0-0.5-0.2-0.6c-0.1-0.2-0.3-0.3-0.5-0.3c-0.2,0-0.4,0-0.6,0.2
					c-0.2,0.2-0.3,0.4-0.4,0.6L36.3,9z"/>
				<path id="Path_1359" class="st33" d="M39.8,12.2c-0.4,0-0.8-0.1-1.1-0.3c-0.4-0.1-0.7-0.4-1-0.6l0.8-0.9
					c0.2,0.2,0.5,0.4,0.8,0.5c0.2,0.1,0.5,0.2,0.8,0.2c0.3,0,0.4,0,0.5-0.2v0c0-0.1,0-0.2-0.2-0.2c-0.2-0.1-0.4-0.2-0.5-0.2
					c-0.2-0.1-0.4-0.2-0.6-0.3C39,10,38.8,9.9,38.6,9.7c-0.1-0.1-0.2-0.3-0.3-0.4c-0.1-0.2-0.1-0.4,0-0.6v0c0-0.2,0.1-0.4,0.2-0.6
					c0.1-0.2,0.3-0.3,0.5-0.4c0.2-0.1,0.4-0.2,0.6-0.2c0.3,0,0.5-0.1,0.8,0c0.3,0,0.7,0.1,1,0.2C41.8,7.7,42,7.8,42.3,8l-0.7,1
					c-0.2-0.2-0.4-0.3-0.7-0.4c-0.2-0.1-0.4-0.2-0.6-0.2c-0.1,0-0.2,0-0.3,0c-0.1,0-0.1,0.1-0.1,0.1v0c0,0.1,0,0.2,0.2,0.2
					s0.3,0.1,0.5,0.2c0.2,0.1,0.4,0.2,0.6,0.3c0.2,0.1,0.3,0.2,0.5,0.3c0.1,0.1,0.2,0.3,0.3,0.4c0.1,0.2,0.1,0.4,0,0.6v0
					c0,0.2-0.1,0.5-0.2,0.7c-0.1,0.2-0.3,0.3-0.5,0.4c-0.2,0.1-0.4,0.2-0.7,0.2C40.3,12.2,40.1,12.2,39.8,12.2"/>
				<path id="Path_1360" class="st33" d="M43.2,6l1.7,0.2l-0.5,3.2l1.5-1.4l1.9,0.2l-1.9,1.7l1.2,2.9l-1.8-0.2l-0.7-1.7L44,11.4
					l-0.2,1.1l-1.7-0.2L43.2,6z"/>
				<path id="Path_1361" class="st30" d="M21.9,4.7L22,4l-1.7-0.2l-0.3,1.6L21.9,4.7z"/>
				<path id="Path_1362" class="st33" d="M20,6.4l-0.6,3.7l1.7,0.2l0.8-5.2L20,6.4z"/>
				<path id="Path_1363" class="st30" d="M6.1,2L4.6,2.6L4.4,4.1l1.5-0.6l1.8,1.3L7.3,6.9L5.2,7.8L3.4,6.5l0.7-4.3l1.8-0.8L6.1,0
					L0.9,2.3L0,8l4.3,3.2l0.2-1.4L1.4,7.4l0.7-4.3l0.7-0.3L2,7.1l2.9,2.1l3.5-1.5L9,4.1L6.1,2z"/>
				<path id="Path_1364" class="st33" d="M6.7,0.1L6.5,1.5l3.2,2.3L9,8.2L5.2,9.8l-0.2,1.4L10.1,9L11,3.2L6.7,0.1z"/>
			</g>
		</g>
	</g>
	<g id="Group_427" transform="translate(884.297 3246.811)">
		<path id="Path_1365" d="M0.9,4.6l6.2,0c0-0.3-0.1-0.6-0.2-0.9C6.8,3.5,6.6,3.2,6.3,3.1C6,2.9,5.7,2.7,5.3,2.6
			c-0.5-0.1-1-0.2-1.5-0.2H1.2l0.3-2.2l12.4,0l-0.3,2.2h-4c0.2,0.3,0.4,0.6,0.5,1c0.1,0.4,0.2,0.8,0.2,1.2h3L13,6.8H9.9
			C9.6,7.8,9,8.7,8.2,9.3c-0.9,0.7-1.9,1.2-3,1.4l0,0.1c0.3,0.1,0.5,0.3,0.8,0.5c0.2,0.2,0.5,0.4,0.7,0.7c0.2,0.3,0.4,0.6,0.6,0.9
			c0.2,0.3,0.4,0.7,0.6,1.1l2.9,5.5H7.1l-2.4-4.9c-0.2-0.5-0.4-0.9-0.7-1.3c-0.2-0.3-0.4-0.6-0.7-0.9c-0.3-0.2-0.6-0.4-0.9-0.5
			c-0.4-0.1-0.8-0.2-1.2-0.2H0l0.3-2.3h2.5c0.4,0,0.9-0.1,1.3-0.2C4.5,9,4.9,8.8,5.3,8.6C5.6,8.4,6,8.1,6.2,7.8
			c0.3-0.3,0.5-0.6,0.6-1l-6.2,0L0.9,4.6z"/>
		<path id="Path_1366" d="M34.8,13.3c-0.1,0.9-0.4,1.8-0.8,2.6c-0.4,0.8-0.9,1.5-1.6,2c-1.3,1.2-3,1.8-4.7,1.8
			c-0.9,0-1.8-0.2-2.6-0.6c-0.8-0.4-1.4-1-1.9-1.7c-0.5-0.8-0.9-1.8-1-2.7c-0.2-1.3-0.2-2.5,0-3.8c0.2-1.6,0.6-3.2,1.3-4.7
			c0.5-1.3,1.3-2.4,2.2-3.4c0.8-0.9,1.8-1.6,2.9-2.1c1-0.5,2.2-0.7,3.3-0.7c0.6,0,1.3,0,1.9,0.1c0.5,0.1,0.9,0.2,1.4,0.4l-0.4,2.8
			c-0.4-0.2-0.9-0.4-1.4-0.6c-0.6-0.2-1.1-0.3-1.7-0.2c-0.7,0-1.5,0.2-2.1,0.4c-0.7,0.3-1.3,0.8-1.8,1.3c-0.6,0.6-1,1.4-1.4,2.2
			c-0.4,0.9-0.7,1.9-0.8,3h0.1c0.5-0.6,1.1-1.1,1.9-1.5c0.8-0.4,1.7-0.6,2.5-0.5c0.8,0,1.5,0.1,2.2,0.4c0.6,0.3,1.1,0.7,1.6,1.2
			c0.4,0.5,0.7,1.2,0.8,1.9C34.9,11.6,34.9,12.4,34.8,13.3z M31.6,13.5c0.1-0.5,0.1-1,0-1.5c-0.1-0.4-0.2-0.8-0.4-1.2
			c-0.2-0.3-0.5-0.6-0.9-0.8c-0.4-0.2-0.9-0.3-1.4-0.3c-0.5,0-1,0.1-1.4,0.3c-0.8,0.4-1.5,1-1.9,1.8c-0.2,0.4-0.3,0.8-0.4,1.2
			c-0.1,0.5-0.1,0.9,0,1.4c0.1,0.5,0.2,0.9,0.4,1.3c0.2,0.4,0.5,0.7,0.9,1c0.4,0.3,0.9,0.4,1.4,0.4c0.5,0,0.9-0.1,1.4-0.3
			c0.4-0.2,0.8-0.4,1.1-0.8c0.3-0.3,0.6-0.7,0.8-1.2C31.4,14.5,31.6,14,31.6,13.5z"/>
		<path id="Path_1367" d="M49.8,0.3l-1.6,12.3H51l-0.3,2.6h-2.8l-0.6,4.2h-3l0.6-4.2l-8.6,0l0.3-2.6c0.9-0.9,1.8-1.8,2.8-2.8
			c1-1,1.9-2.1,2.8-3.1c0.9-1.1,1.7-2.1,2.5-3.2c0.7-1,1.4-2,2-3.1L49.8,0.3z M45.2,12.6l1.1-8c-1.1,1.6-2.2,3.1-3.5,4.5
			c-1.1,1.3-2.2,2.4-3.1,3.5L45.2,12.6z"/>
		<path id="Path_1368" d="M66,8.9c-0.2,1.7-0.6,3.3-1.3,4.9c-0.5,1.2-1.2,2.4-2.2,3.4c-0.8,0.8-1.7,1.5-2.8,2
			c-1,0.4-2.1,0.6-3.2,0.6c-0.4,0-0.7,0-1.1-0.1c-0.4,0-0.7-0.1-1-0.2c-0.3-0.1-0.6-0.1-0.9-0.2c-0.2-0.1-0.4-0.2-0.6-0.2l0.4-2.8
			c0.2,0.1,0.4,0.3,0.6,0.4c0.3,0.1,0.6,0.2,0.9,0.3c0.3,0.1,0.6,0.2,1,0.2c0.3,0.1,0.7,0.1,1,0.1c1.5,0,2.9-0.6,3.9-1.7
			c0.5-0.6,1-1.4,1.3-2.1c0.4-1,0.6-2,0.7-3h-0.1c-0.2,0.3-0.5,0.6-0.7,0.8c-0.3,0.3-0.6,0.5-1,0.7c-0.4,0.2-0.8,0.3-1.2,0.5
			c-0.4,0.1-0.9,0.2-1.3,0.2c-0.7,0-1.5-0.1-2.2-0.4c-0.6-0.3-1.2-0.7-1.6-1.2c-0.5-0.5-0.8-1.2-0.9-1.9c-0.2-0.8-0.2-1.6-0.1-2.5
			c0.1-0.9,0.4-1.9,0.8-2.7c0.8-1.6,2.2-2.7,3.8-3.3C59,0.2,59.9,0,60.8,0c0.8,0,1.6,0.2,2.4,0.5c0.7,0.3,1.4,0.9,1.8,1.5
			c0.5,0.8,0.9,1.8,1,2.7C66.2,6.1,66.2,7.5,66,8.9z M63,6.8c0.1-0.6,0.1-1.2,0-1.7c-0.1-0.5-0.2-0.9-0.5-1.3
			c-0.2-0.4-0.5-0.7-0.9-0.9c-0.4-0.2-0.8-0.3-1.3-0.3c-0.4,0-0.9,0.1-1.2,0.3c-0.4,0.2-0.8,0.4-1.1,0.7c-0.3,0.3-0.6,0.7-0.8,1.2
			c-0.2,0.5-0.4,1-0.5,1.5c-0.1,0.5-0.1,1.1,0,1.6c0.1,0.4,0.3,0.8,0.5,1.2c0.3,0.3,0.6,0.6,1,0.7c0.4,0.2,0.9,0.3,1.3,0.2
			c0.4,0,0.9-0.1,1.3-0.2c0.4-0.2,0.8-0.4,1.1-0.7c0.3-0.3,0.6-0.6,0.8-1C62.8,7.7,63,7.2,63,6.8L63,6.8z"/>
	</g>
	<g id="Group_7168" transform="translate(780.598 3232.72)" class="st3">
		<path id="Ellipse_29" class="st4" d="M14.5,22.1c1.9-2.9,4.4-5.5,7.2-7.6c2.6-1.9,5.6-3.4,8.7-4.3c3-0.9,6.1-1.1,9.2-0.7
			c6.2,0.8,11.7,4.4,14.8,9.9c1.5,2.7,2.5,5.7,2.9,8.7c0.4,3.2,0.2,6.5-0.6,9.7c-1.7,6.8-5.8,12.8-11.5,17c-2.6,1.9-5.6,3.4-8.7,4.2
			c-3,0.8-6.1,1.1-9.1,0.7c-6.1-0.8-11.5-4.4-14.6-9.8c-1.5-2.7-2.5-5.6-2.9-8.7c-0.4-3.2-0.2-6.5,0.6-9.6
			C11.2,28.2,12.6,25,14.5,22.1z"/>
		<g id="Group_428" transform="translate(19.742 18.685)">
			<path id="Path_1369" class="st2" d="M17.6,7.8C17.6,7.8,17.6,7.8,17.6,7.8c0.1-0.1,0.1-0.1,0.1-0.2s0-0.1,0.1-0.1s0-0.1,0-0.1
				c0,0,0.1,0,0.1,0c0,0,0.1,0,0.1,0c0,0,0.1,0,0.1,0.1c0,0,0.1,0,0.1,0.1c0.1,0.1,0.2,0.1,0.3,0.1c0.1,0,0.2,0.1,0.3,0.1
				C19,8,19.1,8,19.2,8c0.1,0,0.2,0,0.3,0h0.1l0.1,0l0.1,0l0.1,0c0.1,0,0.3-0.1,0.4-0.1c0.3-0.1,0.5-0.2,0.7-0.4
				c0.1-0.1,0.2-0.2,0.3-0.3c0.1-0.1,0.1-0.1,0.2-0.2c0.1-0.1,0.1-0.1,0.2-0.1c0.1-0.1,0.3-0.1,0.5-0.2c0.1,0,0.2,0,0.2,0
				c0.1,0,0.2,0,0.2,0c0.1,0,0.1,0,0.2,0.1c0.1,0,0.1,0.1,0.2,0.1c0.1,0.1,0.2,0.1,0.3,0.2c0.1,0.1,0.2,0.1,0.4,0.1
				c0.1,0,0.3,0,0.4,0c0.1,0,0.3,0,0.4,0l-0.1-0.9c-0.1,0-0.2,0-0.2,0c-0.1,0-0.2,0-0.2,0c-0.1,0-0.1,0-0.2-0.1
				c-0.1,0-0.1-0.1-0.2-0.1c-0.2-0.1-0.5-0.3-0.7-0.3c-0.3-0.1-0.5-0.1-0.8,0c-0.6,0.1-1.1,0.4-1.5,0.8c-0.1,0.1-0.1,0.1-0.2,0.2
				c-0.1,0.1-0.1,0.1-0.2,0.1C20.2,7,20.1,7,20.1,7c-0.1,0-0.2,0-0.2,0.1c0,0-0.1,0-0.1,0c0,0-0.1,0-0.1,0c0,0-0.1,0-0.1,0
				c0,0-0.1,0-0.1,0c0.1,0,0.1,0,0.2-0.1c0.1,0,0.1-0.1,0.2-0.1c0.1,0,0.1-0.1,0.2-0.1c0.1,0,0.1-0.1,0.2-0.1
				c0.1-0.1,0.2-0.2,0.3-0.3c0.1-0.1,0.2-0.2,0.3-0.3C20.9,6,21,5.8,21,5.7c0.1-0.1,0.1-0.2,0.1-0.4c0-0.1,0-0.1,0.1-0.2
				c0-0.1,0.1-0.1,0.1-0.2c0-0.1,0.1-0.1,0.1-0.2c0.1-0.1,0.1-0.1,0.2-0.2c0.1,0,0.1-0.1,0.2-0.1c0.1,0,0.2-0.1,0.2-0.1
				c0.1,0,0.2,0,0.2,0c0.1,0,0.2,0,0.2,0c0.1,0,0.3,0,0.4,0c0.1,0,0.3,0,0.4-0.1c0.1,0,0.3-0.1,0.4-0.2C23.9,4,24.1,4,24.2,3.9
				l-0.6-0.7c-0.1,0-0.1,0.1-0.2,0.1c-0.1,0-0.2,0.1-0.2,0.1c-0.1,0-0.2,0-0.2,0c-0.1,0-0.2,0-0.2,0c-0.3,0-0.6,0-0.8,0.1
				c-0.3,0.1-0.5,0.2-0.7,0.4c-0.2,0.2-0.4,0.4-0.6,0.6c-0.2,0.2-0.3,0.5-0.3,0.7c0,0.1,0,0.1-0.1,0.2c0,0.1-0.1,0.1-0.1,0.2
				c0,0.1-0.1,0.1-0.1,0.2c-0.1,0.1-0.1,0.1-0.2,0.2c-0.1,0.1-0.3,0.2-0.4,0.2c-0.1,0-0.2,0-0.2,0c-0.1,0-0.2,0-0.2,0
				c-0.1,0-0.2,0-0.2,0c-0.1,0-0.2,0-0.2,0c-0.1,0-0.2,0-0.2,0s-0.2,0-0.2,0.1c0-0.1-0.1-0.1-0.1-0.2c0-0.1-0.1-0.1-0.1-0.1
				c0,0-0.1-0.1-0.1-0.1c-0.1,0-0.1-0.1-0.2-0.1l2.7-4.2c0,0,0-0.1,0.1-0.1c0,0,0-0.1,0-0.1c0,0,0-0.1,0-0.1c0-0.1-0.1-0.1-0.1-0.2
				C20,1,20,1,19.9,1c0,0-0.1,0-0.1,0c0,0-0.1,0-0.1,0c-0.1,0-0.2,0-0.3,0c-0.1,0-0.2,0-0.2-0.1c-0.1,0-0.1-0.1-0.2-0.1
				c-0.1,0-0.1-0.1-0.2-0.2c-0.2-0.2-0.4-0.3-0.7-0.4C17.9,0.1,17.6,0,17.3,0c-0.3,0-0.6,0-0.8,0.1c-0.3,0.1-0.6,0.2-0.8,0.4
				c-0.1,0.1-0.1,0.1-0.2,0.2c-0.1,0-0.2,0.1-0.2,0.1c-0.1,0-0.2,0.1-0.3,0.1c-0.1,0-0.2,0-0.3,0c-0.1,0-0.2,0-0.3,0
				c-0.1,0-0.2,0-0.2-0.1c-0.1,0-0.1-0.1-0.2-0.1c-0.1,0-0.1-0.1-0.2-0.2c-0.2-0.2-0.4-0.3-0.7-0.4C12.9,0.1,12.6,0,12.3,0
				c-0.3,0-0.6,0-0.8,0.1c-0.3,0.1-0.6,0.2-0.8,0.4c-0.1,0.1-0.1,0.1-0.2,0.2c-0.1,0-0.2,0.1-0.2,0.1c-0.1,0-0.2,0.1-0.3,0.1
				c-0.1,0-0.2,0-0.3,0c0,0-0.1,0-0.1,0C9.5,1,9.4,1,9.4,1.1c0,0-0.1,0.1-0.1,0.1c0,0,0,0.1-0.1,0.1c0,0,0,0.1,0,0.1
				c0,0,0,0.1,0,0.1c0,0,0,0.1,0,0.1l1.7,4.2c-0.1,0-0.2,0.1-0.3,0.2c-0.1,0.1-0.2,0.1-0.2,0.2c-0.1,0.1-0.1,0.2-0.2,0.2
				c-0.1,0.1-0.1,0.2-0.1,0.3C10,6.8,10,6.9,10,7c0,0.1,0,0.2,0,0.3c0,0.1,0,0.2,0.1,0.3c0,0.1,0.1,0.2,0.1,0.3
				c-2.3,0.6-4.4,1.8-6,3.5c-0.8,0.8-1.4,1.7-1.9,2.8c-0.5,1-0.8,2.1-1,3.2l-1,8.3c0,0.3,0,0.6,0.1,0.9c0.1,0.3,0.2,0.5,0.4,0.7
				c0.2,0.2,0.5,0.4,0.7,0.5c0.3,0.1,0.6,0.2,0.9,0.2l17.9,0c0.3,0,0.7-0.1,1-0.2c0.3-0.1,0.6-0.3,0.9-0.5c0.3-0.2,0.5-0.5,0.6-0.7
				c0.2-0.3,0.3-0.6,0.3-0.9l1-8.4c0.1-1.1,0.1-2.1-0.2-3.2c-0.2-1-0.7-1.9-1.3-2.8c-0.6-0.8-1.3-1.6-2.2-2.2
				C19.7,8.5,18.6,8.1,17.6,7.8z M11.2,1.3c0.1-0.1,0.1-0.1,0.2-0.2C11.6,1.1,11.8,1,11.9,1c0.1,0,0.2,0,0.3,0c0.1,0,0.2,0,0.3,0
				c0.1,0,0.2,0,0.2,0.1c0.1,0,0.1,0.1,0.2,0.1c0.1,0,0.1,0.1,0.2,0.2c0.2,0.2,0.4,0.3,0.7,0.4c0.3,0.1,0.5,0.1,0.8,0.1
				c0.3,0,0.6,0,0.8-0.1c0.3-0.1,0.6-0.2,0.8-0.4C16.4,1.1,16.7,1,16.9,1c0.1,0,0.2,0,0.3,0c0.1,0,0.2,0,0.3,0c0.1,0,0.2,0,0.2,0.1
				c0.1,0,0.1,0.1,0.2,0.1c0.1,0,0.1,0.1,0.2,0.2c0.1,0,0.1,0.1,0.2,0.1c0.1,0,0.1,0.1,0.2,0.1s0.1,0.1,0.2,0.1s0.1,0.1,0.2,0.1
				l-2.5,3.8h-4.4l-1.6-3.8c0.1,0,0.2-0.1,0.2-0.1c0.1,0,0.1-0.1,0.2-0.1S11,1.5,11,1.5S11.2,1.4,11.2,1.3L11.2,1.3z M11.4,7.5
				c-0.1,0-0.1,0-0.2,0c-0.1,0-0.1-0.1-0.1-0.1c0,0-0.1-0.1-0.1-0.1c0-0.1,0-0.1,0-0.2c0-0.1,0-0.1,0.1-0.2c0-0.1,0.1-0.1,0.1-0.1
				c0.1,0,0.1-0.1,0.2-0.1c0.1,0,0.1,0,0.2,0h5c0.1,0,0.1,0,0.2,0c0.1,0,0.1,0.1,0.1,0.1c0,0,0.1,0.1,0.1,0.1c0,0.1,0,0.1,0,0.2
				c0,0.1,0,0.1-0.1,0.2c0,0.1-0.1,0.1-0.1,0.1c-0.1,0-0.1,0.1-0.2,0.1c-0.1,0-0.1,0-0.2,0L11.4,7.5z M22.2,25.6
				c0,0.2-0.1,0.4-0.2,0.5c-0.1,0.2-0.2,0.3-0.4,0.4c-0.2,0.1-0.3,0.2-0.5,0.3c-0.2,0.1-0.4,0.1-0.6,0.1L2.6,27
				c-0.2,0-0.4,0-0.6-0.1c-0.2-0.1-0.3-0.2-0.4-0.3c-0.1-0.1-0.2-0.3-0.3-0.4c-0.1-0.2-0.1-0.4-0.1-0.5l1-8.3
				c0.2-1.2,0.5-2.4,1.2-3.4c0.6-1.1,1.4-2,2.4-2.8c1-0.8,2.1-1.5,3.2-1.9c1.2-0.5,2.5-0.7,3.8-0.7h2c1.2,0,2.5,0.2,3.6,0.7
				c1,0.4,2,1.1,2.8,1.9c0.8,0.8,1.3,1.8,1.7,2.8c0.4,1.1,0.5,2.3,0.3,3.4L22.2,25.6z"/>
			<path id="Path_1370" class="st2" d="M9,20.6l6.7-5.6l0.6,0.7l-6.7,5.6L9,20.6z"/>
			<path id="Path_1371" class="st2" d="M14.5,18.6c-0.2,0-0.4,0-0.6,0.1c-0.2,0.1-0.4,0.2-0.5,0.3c-0.1,0.1-0.3,0.3-0.4,0.4
				c-0.1,0.2-0.2,0.4-0.2,0.5c0,0.2,0,0.4,0.1,0.5c0.1,0.2,0.1,0.3,0.3,0.4c0.1,0.1,0.3,0.2,0.4,0.3c0.2,0.1,0.4,0.1,0.6,0.1
				c0.2,0,0.4,0,0.6-0.1c0.2-0.1,0.4-0.2,0.5-0.3c0.1-0.1,0.3-0.3,0.4-0.4c0.1-0.2,0.2-0.4,0.2-0.5c0-0.2,0-0.4-0.1-0.5
				c-0.1-0.2-0.1-0.3-0.3-0.4c-0.1-0.1-0.3-0.2-0.4-0.3C14.9,18.7,14.7,18.6,14.5,18.6z M14.3,20.5c-0.1,0-0.1,0-0.2,0
				c-0.1,0-0.1-0.1-0.1-0.1c0,0-0.1-0.1-0.1-0.1c0-0.1,0-0.1,0-0.2c0-0.1,0-0.1,0.1-0.2c0-0.1,0.1-0.1,0.1-0.1
				c0.1,0,0.1-0.1,0.2-0.1c0.1,0,0.1,0,0.2,0c0.1,0,0.1,0,0.2,0c0.1,0,0.1,0.1,0.1,0.1c0,0,0.1,0.1,0.1,0.1c0,0.1,0,0.1,0,0.2
				c0,0.1,0,0.1-0.1,0.2c0,0.1-0.1,0.1-0.1,0.1c-0.1,0-0.1,0.1-0.2,0.1C14.4,20.5,14.4,20.5,14.3,20.5z"/>
			<path id="Path_1372" class="st2" d="M10.7,17.7c0.2,0,0.4,0,0.6-0.1c0.2-0.1,0.4-0.2,0.5-0.3c0.1-0.1,0.3-0.3,0.4-0.4
				c0.1-0.2,0.2-0.4,0.2-0.5c0-0.2,0-0.4-0.1-0.5c-0.1-0.2-0.1-0.3-0.3-0.4c-0.1-0.1-0.3-0.2-0.4-0.3c-0.2-0.1-0.4-0.1-0.6-0.1
				c-0.2,0-0.4,0-0.6,0.1c-0.2,0.1-0.4,0.2-0.5,0.3c-0.1,0.1-0.3,0.3-0.4,0.4c-0.1,0.2-0.2,0.4-0.2,0.5c0,0.2,0,0.4,0.1,0.5
				c0.1,0.2,0.1,0.3,0.3,0.4c0.1,0.1,0.3,0.2,0.4,0.3C10.3,17.7,10.5,17.7,10.7,17.7z M10.9,15.8c0.1,0,0.1,0,0.2,0
				c0.1,0,0.1,0.1,0.1,0.1c0,0,0.1,0.1,0.1,0.1c0,0.1,0,0.1,0,0.2c0,0.1,0,0.1-0.1,0.2c0,0.1-0.1,0.1-0.1,0.1
				c-0.1,0-0.1,0.1-0.2,0.1c-0.1,0-0.1,0-0.2,0c-0.1,0-0.1,0-0.2,0c-0.1,0-0.1-0.1-0.1-0.1c0,0-0.1-0.1-0.1-0.1c0-0.1,0-0.1,0-0.2
				c0-0.1,0-0.1,0.1-0.2c0-0.1,0.1-0.1,0.1-0.1c0.1,0,0.1-0.1,0.2-0.1C10.8,15.8,10.8,15.8,10.9,15.8z"/>
			<path id="Path_1373" class="st2" d="M13.4,11.7c-0.9,0-1.9,0.2-2.8,0.5c-0.9,0.3-1.7,0.8-2.4,1.4c-0.7,0.6-1.3,1.3-1.7,2.1
				c-0.5,0.8-0.7,1.6-0.9,2.5c-0.1,0.8,0,1.7,0.2,2.5c0.3,0.8,0.7,1.5,1.2,2.1c0.6,0.6,1.3,1.1,2,1.4c0.8,0.3,1.7,0.5,2.6,0.5
				c0.9,0,1.9-0.2,2.8-0.5c0.9-0.3,1.7-0.8,2.4-1.4c0.7-0.6,1.3-1.3,1.8-2.1c0.5-0.8,0.7-1.6,0.9-2.5c0.1-0.9,0-1.7-0.2-2.5
				c-0.3-0.8-0.7-1.5-1.2-2.1c-0.6-0.6-1.3-1.1-2-1.4C15.2,11.8,14.3,11.6,13.4,11.7z M11.9,23.7c-0.8,0-1.6-0.1-2.3-0.4
				C9,23,8.4,22.6,7.9,22.1C7.4,21.6,7,21,6.8,20.3c-0.2-0.7-0.3-1.4-0.2-2.2C6.7,17.4,7,16.7,7.4,16c0.4-0.7,0.9-1.3,1.5-1.8
				c0.6-0.5,1.3-0.9,2-1.2c0.8-0.3,1.6-0.4,2.4-0.4c0.8,0,1.6,0.1,2.3,0.4c0.7,0.3,1.3,0.7,1.8,1.2c0.5,0.5,0.8,1.1,1.1,1.8
				c0.2,0.7,0.3,1.4,0.2,2.2c-0.1,0.8-0.3,1.5-0.7,2.2c-0.4,0.7-0.9,1.3-1.5,1.8c-0.6,0.5-1.3,0.9-2,1.2
				C13.5,23.6,12.7,23.7,11.9,23.7z"/>
		</g>
	</g>
	<g id="Group_430" transform="translate(715.484 3319.488)">
		<g id="Group_429">
			<path id="Path_1374" class="st34" d="M96.1,91.7C96.1,91.7,96.1,91.7,96.1,91.7C96.1,91.7,96.1,91.6,96.1,91.7L96.1,91.7z"/>
			<path id="Path_1375" class="st35" d="M133.8,111.3c-0.3-1.4-0.4-2.9-0.7-4.3c-0.5-1.8-0.6-3.7-0.3-5.6c0.2-1.5,0.2-2.9,0-4.4
				c-0.3-3.5-1.7-6.8-2.7-10.1c-1.4-4.5-3-9-4.3-13.5c-0.6-2.6-1.5-5.2-2.6-7.7c-0.5-1.1-1.5-1.9-2-3c-1.3-2.8-2.8-5.4-4-8.3
				c-1.8-4.3-3.6-8.6-6.5-12.4c-1.1-1.7-2.4-3.3-3.8-4.8c-3-2.8-6.8-4.1-10.7-5c-4.1-0.9-8.3-1.1-12.5-0.7c0.3,0.5,0.4,1,0.4,1.6
				c-0.2,2.2-0.3,4.3-0.1,6.5c0.1,2.6,0,5.2-0.3,7.8c-0.4,4.4-1.3,8.7-2,13c-0.1,1.2-0.5,2.4-1.3,3.4c-2.5,2.7-4.5,2.4-6.4-0.9
				C72.5,60,72.1,57,71.5,54c-0.3-1.5-0.6-3-0.9-4.4l0,0c-0.9-0.3-1.1-1.3-1.7-1.9c-0.9-0.9-2-1.8-3.1-2.4l-0.6,0.4l0,0
				c-0.6,1.7-1.4,3.3-2.4,4.8c-0.9,1.2-2.1,2.2-2.9,3.4c-1.7,2.7-3.2,5.6-4.5,8.5l0,0c2.5,0.8,4.9,2,7.3,3.1
				c7.2,3.1,14.3,6.7,21.9,8.8c2.3,0.6,2.3,0.7,3.1-1.6c0.7-2,1.5-4,2.2-6c0.3-0.9,1.1-0.8,1.7-0.9c5.1-0.6,10.2-0.7,15.3-1.1
				c0.1,0,0.2,0,0.3,0c3.6,0.4,3.3,0.6,2.4,3.5c-1.8,5-4,9.8-6.6,14.5c-1.2,2.3-1.9,4.8-3.5,6.9c-0.1,0.1-0.2,0.3-0.3,0.5
				c-0.7,1.2-1.5,2.2-3.1,1.5c0,0,0,0,0,0c1.9,1.3,3.8,2.6,5.8,3.7c3.5,2.1,7.2,3.8,10.4,6.4c1.3,1.1,2.6,2.2,3.9,3.4
				c0.5,0.4,1,0.7,1.6,1c1.3,0.7,2.5,1.5,3.6,2.5c3.1,2.6,6.1,5.4,8.9,8.3c0.3,0.3,0.6,0.5,0.7,0.9l0,0c0.5-0.4,1.3-0.1,1.6-0.8
				C133.3,115.3,134.1,113.4,133.8,111.3z"/>
			<path id="Path_1376" class="st20" d="M130,117.2c-3.1-3.3-6.5-6.1-9.8-9.1c-0.5-0.4-1-0.8-1.6-1.1c-1.9-0.9-3.7-2.2-5.2-3.8
				c-2.3-2-4.8-3.8-7.5-5.2c-3.1-1.7-6.1-3.6-9.2-5.5c-0.3-0.2-0.9-0.3-0.7-0.9l0,0c-2.7-1.5-5.4-2.9-8.5-3.2
				c-2-0.2-3.8-0.2-5.4,1.2c-0.5,0.5-1.3,0.7-1.9,0.4c-0.7-0.3-1.6-0.1-2.2,0.4c-0.4,0.3-0.8,0.5-1.3,0.7l0,0
				c-0.2,0.3,0,0.9-0.6,0.9c0.4,0.6,0,0.9-0.5,1.1c-1.3,0.3-2.3,1.4-2.6,2.7c-0.2,0.6-0.6,1-1.2,1.2c-2.2,1-4,2.6-5.5,4.5
				c-1,0.9-2.2,1.7-3.4,2.3c-0.3,0.2-0.4,0.8-1,0.4c-0.5,1.2-1.7,2.1-3.1,2.1c-1.5,0.3-2.8,1-3.8,2.1c-0.7,0.7-1.6,1.3-2.5,1.7l0,0
				c-0.8,1-1.9,1.6-3.2,1.6c-1,0-2,0.3-3,0.7c-0.3,0.2-0.7,0.3-1.1,0.3c-0.6,0.5-1.4,0.6-2,1.2c-0.8,1-1,2.4-0.6,3.7
				c0.3,1.4,0.4,2.8,0.2,4.3c-0.3,2.1,0.5,4.1,1.2,6c0.4,1.2,1,2.2,1.9,3.1c2,0.8,4.1,0.4,6.1,0.1c1.4-0.1,2.7-0.8,3.6-1.9
				c0.3-0.3,0.5-0.8,0.9-0.9c0.8-0.3,1.5-0.8,2-1.5c0.7-1,1.9-1.5,3.1-1.2c0.7,0.1,1.3,0.1,2,0.1c0.8-0.8,1.5-1.6,2.2-2.4
				c0.5-0.6,1-1.2,1.5-1.9c1.5-2,3.7-1.9,5.8-1.6c4.1,0.6,8.1,1.2,12.1,2c3.2,0.6,6.4,1.1,9.3,2.6c1.4,0.7,2.7,1.7,3.7,2.9
				c0.8,0.9,1.2,2.2,1,3.4c1.2,1.2,2.6,2.1,4.1,2.8c3.3,1.1,6.8,1.6,10.3,1.5c2.9-0.2,5.9-0.6,8.7-1.4c3.1-0.8,5.6-3.1,6.6-6.1
				c1.2-2.9,1.8-6,1.8-9.2l0,0C130.5,117.9,130.3,117.5,130,117.2z"/>
			<path id="Path_1377" class="st35" d="M130.2,117c-2.8-2.9-5.8-5.7-8.9-8.3c-1.1-1-2.3-1.8-3.6-2.5c-0.6-0.3-1.1-0.6-1.6-1
				c-1.3-1.2-2.6-2.3-3.9-3.4c-3.2-2.6-6.9-4.3-10.4-6.4c-2-1.1-3.9-2.4-5.8-3.7c-0.2,0.6,0.4,0.7,0.7,0.9c3,1.9,6.1,3.8,9.2,5.5
				c2.7,1.4,5.2,3.2,7.5,5.2c1.5,1.5,3.2,2.8,5.2,3.8c0.6,0.3,1.1,0.6,1.6,1.1c3.3,3,6.7,5.8,9.8,9.1c0.3,0.3,0.5,0.6,0.9,0.8
				C130.8,117.5,130.5,117.3,130.2,117z"/>
			<path id="Path_1378" class="st36" d="M23.4,69.4c0.7,0.6,0.8,2.1,2.2,1.9l0,0l7.6-1c-0.4,1.1-0.8,2-1.1,3
				c-0.5,1.6-0.1,2.3,1.4,2.9c2.6,0.8,5.3,1.2,7.9,1.1c1.2,0,2.3-0.6,2.8-1.7c0.4-0.6,0.9-1.2,1.3-1.7c0.5-0.6,0.6-1.4,0.1-2
				c-0.4-0.6-0.2-0.7,0.4-0.7c2.2-0.1,4.3,0,6.5,0.3l0,0c0.3,0.1,0.6,0.3,0.8,0.6c2,2.8,4.8,5,6.6,8l0,0c2.3,2.2,4.1,5,7.1,6.4
				c0.4,0.2,0.6,0.5,0.7,0.9c0.4-0.4,0.6,0,1,0.1c2.3,1,4.5,2.4,6.9,3.4c0.2,0.1,0.5,0.2,0.7,0.2c0.1-0.1,0.1-0.2,0.2-0.2
				c1-1,2.5-1.4,3.9-1c0.5,0.1,1-0.1,1.3-0.4c1.4-1.1,3.3-1.5,5-1.2c3.1,0.3,6.1,1.4,8.8,3.1c0.2,0.1,0.3,0.3,0.3,0.4c0,0,0,0,0,0
				c0,0,0-0.1,0.1-0.1c1.6,0.2,2.3-0.8,3.1-2c1.3-1.8,2.3-3.7,3-5.8c0.7-2,2.1-3.7,2.9-5.7c1.5-3.3,3.1-6.6,4.3-10.1
				c0.7-2.1,0.6-2.4-1.6-2.7c-1.4-0.1-2.8-0.1-4.2,0.2c-2.1,0.2-4.2,0.1-6.3,0.3c-1.9,0.2-3.9,0.5-5.8,0.6c-0.7,0-1.4,0.5-1.5,1.2
				c-0.8,2.2-1.6,4.3-2.4,6.4c-0.4,1.3-0.7,1.4-2,1.1c-4.7-1.2-9.2-2.9-13.6-4.9c-5.2-2.4-10.5-4.6-15.8-6.9c-0.4-0.2-0.8-0.2-1-0.6
				l0,0C54.2,62.2,53,62,51.7,62c-6.3-0.4-12.2,1.7-18.1,3.7c-3.3,1.1-6.5,2.7-10.1,3.2l0,0C23.4,68.9,23.3,69.3,23.4,69.4z"/>
			<path id="Path_1379" class="st36" d="M56.3,63.2c5.3,2.3,10.6,4.6,15.8,6.9c4.4,2,9,3.7,13.6,4.9c1.3,0.3,1.5,0.2,2-1.1
				c0.7-2.2,1.6-4.3,2.4-6.4c0.2-0.7,0.8-1.2,1.5-1.2c2-0.1,3.9-0.4,5.8-0.6c2.1-0.2,4.2-0.1,6.3-0.3c1.4-0.2,2.8-0.3,4.2-0.2
				c2.2,0.3,2.3,0.6,1.6,2.7c-1.2,3.5-2.8,6.7-4.3,10.1c-0.9,2-2.2,3.7-2.9,5.7c-0.8,2-1.8,4-3,5.8c-0.8,1.1-1.5,2.2-3.1,2
				c0,0,0,0.1-0.1,0.1c1.6,0.7,2.4-0.4,3.1-1.5c0.1-0.2,0.2-0.3,0.3-0.5c1.6-2.1,2.3-4.6,3.5-6.9c2.6-4.6,4.8-9.5,6.6-14.5
				c1-2.8,1.2-3.1-2.4-3.5c-0.1,0-0.2,0-0.3,0c-5.1,0.4-10.2,0.5-15.3,1.1c-0.6,0.1-1.4-0.1-1.7,0.9c-0.7,2-1.5,4-2.2,6
				c-0.8,2.3-0.8,2.2-3.1,1.6c-7.6-2.1-14.7-5.7-21.9-8.8c-2.4-1-4.8-2.2-7.3-3.1C55.5,63,56,63,56.3,63.2z"/>
			<path id="Path_1380" class="st36" d="M95.8,91.2c-2.6-1.7-5.6-2.8-8.8-3.1c-1.8-0.3-3.6,0.2-5,1.2c-0.3,0.3-0.8,0.5-1.3,0.4
				c-1.4-0.3-2.8,0.1-3.9,1c-0.1,0.1-0.2,0.2-0.2,0.2c0.1,0,0.1,0,0.2,0l0,0c0.5-0.1,0.9-0.4,1.3-0.7c0.6-0.5,1.4-0.7,2.2-0.4
				c0.7,0.3,1.4,0.1,1.9-0.4c1.6-1.4,3.5-1.4,5.4-1.2c3.1,0.3,5.8,1.7,8.5,3.2C96.1,91.5,96,91.3,95.8,91.2z"/>
			<path id="Path_1381" class="st36" d="M65.7,45.2C65.8,45.2,65.8,45.2,65.7,45.2c1.5-1.6,3.4-2.8,4.9-4.5c1.1-1.2,2.3-2.4,3.5-3.5
				c0.2-0.2,0.4-0.8,0.9-0.5c0.5,0.3,0.4,0.8,0.3,1.2C75.2,39,75,40,74.7,41c-0.5,1.7-1,3.5-1.7,5.1c-0.4,1-1.1,1.9-1.5,2.9
				c-0.1,0.3-0.5,0.4-0.8,0.5c0,0.1,0.1,0.1,0.1,0.2c0.6,2.5,1.1,5,1.6,7.5c0.4,2,1.1,4,2.1,5.8c0.5,0.8,1.1,1.5,2,1.9
				c0.4,0.2,0.9,0.3,1.4,0.1c1.4-0.4,2.5-1.4,2.9-2.8c1-3,1.2-6.1,1.8-9.1c0.6-3.2,0.9-6.5,1.1-9.8c0.1-2.6-0.2-5.2-0.1-7.8
				c0.1-1.4,0.2-2.7,0.1-4.1c-2.2-1.3-4.6-2.1-6.5-3.8c-0.6,0.3-1.4,0.2-2-0.3c-1-0.6-2.1-1.2-3.2-1.7c-1.2-0.6-2-1.7-2.3-2.9
				c-0.3-1-1-1.8-2-2.2c-1-0.6-2.3-0.3-2.9,0.7c-0.1,0.1-0.1,0.2-0.1,0.3c-0.6,1.1-0.8,2.5-0.5,3.7c0.6,2.3-0.5,3.7-2.9,3.6
				c-0.7,0-1.4-0.4-1.7-1c-0.2-0.5-0.4-0.9-0.6-1.4c-0.3-1.2-1.3-2-2.5-2.1c-1.4-0.1-2.7-0.8-3.6-1.9c-0.1-0.1-0.3-0.3-0.4-0.4
				c-2.4-2.5-2.4-2.5-5.3-0.7c-1.9,1.3-4.1,2.4-6.3,3.1l0,0c0.7,0,0.6,0.4,0.6,0.9c0.1,1.6,0.5,3.1,1.2,4.5c0.7,1.5,1.6,2.9,2.7,4.1
				c1.5,1.7,1.9,3.8,2.3,6c0.1,0.6,0.4,1.4,0.9,1.4c1.6-0.1,2.1,1.2,3,2c1.7,1.3,2.9,3.2,3.5,5.2c0.3,1.2,1.2,2.1,2.5,2.3
				c1.6,0.2,3.3-0.4,4.3-1.7c1-1.2,2.2-2.1,3.3-3.2l0,0C65.1,45.3,65.4,45.3,65.7,45.2z"/>
			<path id="Path_1382" class="st36" d="M65.7,45.3C65.7,45.3,65.8,45.3,65.7,45.3C65.8,45.2,65.8,45.2,65.7,45.3
				c-0.3,0-0.7,0-0.6,0.4l0,0L65.7,45.3z"/>
			<path id="Path_1383" class="st36" d="M83.6,35.5c-0.1,2.6,0.2,5.2,0.1,7.8c-0.1,3.3-0.5,6.5-1.1,9.8c-0.6,3-0.8,6.2-1.8,9.1
				c-0.5,1.4-1.6,2.4-2.9,2.8c-0.4,0.2-1,0.2-1.4-0.1c-0.8-0.4-1.5-1.1-2-1.9c-1-1.8-1.7-3.8-2.1-5.8c-0.4-2.5-1-5-1.6-7.5
				c0-0.1-0.1-0.1-0.1-0.2c-0.1,0-0.1,0-0.1,0l0,0c0.3,1.5,0.5,3,0.9,4.4c0.7,3,1,6,2.6,8.8c1.9,3.3,3.9,3.6,6.4,0.9
				c0.7-1,1.2-2.2,1.3-3.4c0.7-4.3,1.6-8.6,2-13c0.3-2.6,0.3-5.2,0.3-7.8c-0.2-2.2-0.1-4.3,0.1-6.5c0.1-0.6-0.1-1.1-0.4-1.6
				C83.7,32.8,83.7,34.1,83.6,35.5z"/>
			<path id="Path_1384" class="st36" d="M36.8,103.4c2.2,1.3,4.7,1.6,7.1,2.3c1.5,0.4,2.7,1.6,4,2.5c1.2,1.1,2.8,1.7,4.4,1.8
				c0,0,0.1-0.1,0.1-0.1c1.2-0.7,2.2-1.5,3.2-2.4c1.1-1,2.5-1.6,4-1.8c1.1-0.1,1.5-1.1,2.2-1.7c0.1-0.1,0.2-0.1,0.3-0.2
				c0.7-1.4,1.6-2.8,2.1-4.3c1.1-3.1,2-6.3,3.1-9.4c0.2-0.5,0.2-1,0.6-1.4l0,0c-0.2-0.5,0.1-0.9,0.1-1.4l0,0
				c-0.3-0.2-0.5-0.6-0.8-0.7c-3-1.5-4.8-4.2-7.1-6.5c0,0-0.1-0.1-0.1-0.1c-1,0.1-1.9,0-2.9-0.1c-1.4,0-2.8,0.2-4.2,0.6
				c-0.5,0.1-0.8,0.5-1.1,0.9c0.1,0.4,0,0.8-0.2,1.1c-0.5,4-1.3,7.9-2.4,11.7c-0.2,0.9-0.6,1.2-1.6,0.8c-2.9-0.9-5.9-1.6-8.8-2.4
				c-2.1-0.5-4-1.4-5.8-2.7c-0.3-0.2-0.6-0.4-0.7-0.8l0,0c-0.8-0.3-1.4-1-1.7-1.8c-2.3-5-5.9-9.1-9.6-13.1c-1.7-1.8-2.7-4.1-4.3-6
				c-0.6-0.6-1.1-1.3-1.6-1.9c-0.7-0.8-1.9-1-2.8-0.6c-0.7,0.3-1.6,0.2-2.2-0.3c-0.9-0.6-1.4-0.4-2,0.6l0,0c0,0.4,0.2,0.9,0.4,1.3
				c0.7,1.5,2,2.6,2.8,4.1c0.1,0.2,0.5,0.5,0,0.8c-1.2,0.7-1.3,1.1-0.2,2.1c2.3,2.1,4.2,4.7,5.5,7.6c1,2.2,1.9,4.3,3,6.4
				c0.7,1.5,1.7,2.8,3,3.8c2.9,2.2,5.6,4.5,8.3,7c1.8,1.6,3.8,3.1,5.9,4.4C36.5,103.4,36.7,103.4,36.8,103.4z"/>
			<path id="Path_1385" class="st36" d="M61.8,104c-0.7,0.6-1.1,1.6-2.2,1.7c-1.5,0.2-2.8,0.8-4,1.8c-1,0.9-2.1,1.7-3.2,2.4
				c0,0-0.1,0.1-0.1,0.1c0.1,0,0.2,0,0.3,0l0,0c0.9-0.4,1.8-1,2.5-1.7c1-1.1,2.3-1.8,3.8-2.1c1.3-0.1,2.5-0.9,3.1-2.1
				c0-0.1,0.1-0.2,0.1-0.2C62,103.9,61.9,103.9,61.8,104z"/>
			<path id="Path_1386" class="st37" d="M68,87.3c-0.1-0.4-0.3-0.8-0.7-0.9c-3-1.4-4.8-4.2-7.1-6.4l0,0c-0.1,0-0.2,0-0.3,0.1
				c0,0,0.1,0.1,0.1,0.1c2.3,2.3,4.1,5,7.1,6.5C67.5,86.8,67.6,87.1,68,87.3L68,87.3C68,87.3,68,87.3,68,87.3L68,87.3z"/>
			<path id="Path_1387" class="st38" d="M41.2,23.8c2.6-0.7,4.7-2.3,6.9-3.6c1.4-0.8,1.4-0.8,2.8,0.1c0.7,0.5,1.4,1.1,2,1.8
				c0.9,1.1,2.2,1.8,3.6,1.9c1.1,0.1,2.1,0.9,2.5,2c0.1,0.3,0.3,0.7,0.4,1c0.4,1.2,1.7,1.9,2.9,1.5c0.1,0,0.2-0.1,0.3-0.1
				c1.1-0.4,1.8-1.6,1.4-2.7c0-0.1,0-0.1-0.1-0.2c-0.3-1.1-0.2-2.3,0.2-3.4c0.4-1.1,1-2.1,2.3-2.2c1.2-0.1,2.4,0.5,3.1,1.6
				c0.1,0.2,0.3,0.4,0.3,0.6c0.6,1.9,2,3.4,3.9,4.1c1.2,0.5,2.2,1.4,3.5,1.5c0.5-1.6,0.8-3.3,0.8-5c0.3-4.9-0.8-9.9-3.2-14.2
				c-3-5.4-7.6-8.7-14-8.5c-9.5,0.3-18.4,4.5-24.5,11.7c-1.8,2-2.9,4.5-3.2,7.2c-0.4,2.8,1.6,5.4,4.4,5.7c0.5,0.1,0.9,0.1,1.4,0
				c0.6-0.1,1.2-0.3,1.8-0.4l0,0C40.7,23.9,41,23.9,41.2,23.8z"/>
			<path id="Path_1388" class="st36" d="M52.3,21.9c0.1,0.1,0.3,0.3,0.4,0.4c0.9,1.1,2.2,1.8,3.6,1.9c1.2,0.1,2.2,0.9,2.5,2.1
				c0.2,0.5,0.4,0.9,0.6,1.4c0.3,0.6,1,1.1,1.7,1c2.4,0.1,3.6-1.3,2.9-3.6c-0.3-1.3-0.1-2.6,0.5-3.7c0.5-1.1,1.7-1.6,2.8-1.1
				c0.1,0,0.2,0.1,0.3,0.1c1,0.4,1.7,1.2,2,2.2c0.3,1.3,1.2,2.3,2.3,2.9c1.1,0.5,2.2,1.1,3.2,1.7c0.5,0.5,1.3,0.6,2,0.3
				c-1.4-0.1-2.3-1-3.5-1.5c-1.9-0.6-3.3-2.2-3.9-4.1c-0.1-0.2-0.2-0.4-0.3-0.6c-0.7-1-1.9-1.6-3.1-1.6c-1.2,0.1-1.8,1.1-2.3,2.2
				c-0.4,1.1-0.5,2.3-0.2,3.4c0.4,1.1-0.1,2.4-1.2,2.8c-0.1,0-0.1,0-0.2,0.1c-1.1,0.5-2.5,0-3-1.1c0-0.1-0.1-0.2-0.1-0.3
				c-0.2-0.3-0.3-0.7-0.4-1c-0.4-1.1-1.3-1.8-2.5-2c-1.4-0.2-2.7-0.9-3.6-1.9c-0.6-0.7-1.2-1.3-2-1.8c-1.3-0.9-1.4-0.9-2.8-0.1
				c-2.3,1.3-4.4,2.9-6.9,3.6c-0.2,0.1-0.5,0.1-0.5,0.5c2.2-0.7,4.4-1.7,6.3-3.1C49.9,19.4,49.9,19.4,52.3,21.9z"/>
			<path id="Path_1389" class="st35" d="M95.2,124.9c-1.6-0.9-3.4-1.6-5.2-2c-5.6-1.3-11.2-2.1-16.9-2.9c-2.4-0.4-4.6,0-6,2.3
				c-0.2,0.4-0.6,0.7-1.1,0.8c0,0.9-0.5,1.6-0.5,2.5c0.4,3.8,1.6,7.1,5,9.5c4.8,3.3,9.6,4.5,15.1,2.2c1.9-1,4-1.5,6.1-1.5
				c4,0.1,6.2-1.5,7.6-5.2c-0.1-0.1-0.2-0.2-0.2-0.3C99,127.5,97.2,126.1,95.2,124.9z"/>
			<path id="Path_1390" class="st35" d="M98.4,127.1c-1-1.2-2.3-2.2-3.7-2.9c-2.9-1.5-6.1-2-9.3-2.6c-4-0.8-8.1-1.4-12.1-2
				c-2.1-0.3-4.2-0.4-5.8,1.6c-0.5,0.6-1,1.2-1.5,1.9c0.5-0.1,0.9-0.4,1.1-0.8c1.4-2.3,3.5-2.7,6-2.3c5.7,0.9,11.3,1.6,16.9,2.9
				c1.8,0.4,3.6,1.1,5.2,2c2,1.2,3.9,2.6,4,5.3c0,0.1,0.1,0.2,0.2,0.3C99.6,129.3,99.2,128,98.4,127.1z"/>
			<path id="Path_1391" class="st39" d="M44.8,129.8c-1.4-2.8-2.6-5.6-2.1-8.9c0.2-1,0.1-1.9-0.2-2.9c-0.2-0.9-0.3-1.8-0.2-2.6
				c0.1-0.7,0.2-1.3,1-1.6c-1.2-0.9-2.7-0.7-4-0.7c-0.6,0.1-1.2-0.1-1.7-0.4c-2.9-2.2-5.9-3.8-9.7-3.1c-2.3,0.4-4.6,0.6-6.6,2
				c-2.7,1.8-3.6,3.4-2.2,6.6c0.9,2.1,2.6,3.2,4.3,4.4c1.6,1.1,3.3,2,4.4,3.6c0.7,1,1.8,1.6,3.1,1.6c0.9,0,1.8,0,2.8,0
				c1.6-0.1,3.2,0.4,4.4,1.5c1.1,1,2.4,1.6,3.8,1.9c1.4,0.5,2.9,0.4,4.1-0.4C45.5,130.7,45,130.3,44.8,129.8z"/>
			<path id="Path_1392" class="st39" d="M44.2,127.8c-0.7-1.9-1.5-3.9-1.2-6c0.2-1.4,0.2-2.9-0.2-4.3c-0.4-1.2-0.2-2.6,0.6-3.7
				c-0.8,0.2-0.9,0.9-1,1.6c-0.1,0.9-0.1,1.8,0.2,2.6c0.3,0.9,0.3,1.9,0.2,2.9c-0.6,3.3,0.6,6.1,2.1,8.9c0.2,0.5,0.7,0.9,1.2,1
				C45.2,130,44.5,128.9,44.2,127.8z"/>
			<path id="Path_1393" class="st40" d="M9.7,65c0.8,0.5,1.8,0.6,2.7,0.3c1.1-0.3,2.3,0.1,3,1c1.4,1.5,2.6,3.1,3.6,4.9
				c0.5,1,1.2,1.8,2,2.6c2.8,3,5.4,6.1,7.8,9.4c0.6,0.9,1.1,1.9,1.5,2.9c0.5,1.1,1.2,2,2.1,2.8c0,0,0,0,0.1,0.1
				c1.3-0.1,2.6-0.1,3.8-0.2c1.9-0.2,2.6-1.4,1.5-3c-0.7-0.9-1.5-1.8-2.3-2.6c-0.3-0.3-0.7-0.5-0.8-1c-2.4-2.2-4.5-4.6-6.4-7.3
				c-0.9-1-1.7-2.1-2.5-3.3c0,0,0,0-0.1,0c-1.5,0.2-1.8-1.1-2.4-1.9c-0.2-0.3-0.2-0.7,0.3-0.8c-3.5-5-7.5-9.7-12-13.8
				c-0.8-0.9-2.1-1.4-3.3-1.2c-2.6,0.5-5.1,1.1-7.6,1.8c-0.6,0.2-0.8,0.5-0.6,1.2c0.3,1.1,1.2,1.6,1.8,2.4C3.6,61.7,5.6,64,7.8,66
				c0-0.6,0.4-1.2,1-1.2C9.2,64.7,9.5,64.8,9.7,65z"/>
			<path id="Path_1394" class="st40" d="M23.3,69.6c0.6,0.9,1,2.1,2.4,1.9c0,0,0,0,0.1,0c0-0.1-0.1-0.2-0.1-0.2l0,0
				c-1.4,0.1-1.5-1.3-2.2-1.9c-0.1-0.1,0-0.4,0.2-0.6l0,0C23.1,68.9,23.1,69.3,23.3,69.6z"/>
			<path id="Path_1395" class="st40" d="M9.8,65.4c0.6,0.5,1.5,0.6,2.2,0.3c1-0.4,2.1-0.1,2.8,0.6c0.6,0.6,1.1,1.3,1.6,1.9
				c1.6,1.9,2.6,4.2,4.3,6c3.8,3.9,7.3,8,9.6,13.1c0.3,0.8,1,1.4,1.7,1.8l0,0l0.2,0c0,0,0,0-0.1-0.1c-0.9-0.7-1.7-1.7-2.1-2.8
				c-0.4-1-0.9-2-1.5-2.9c-2.4-3.3-5-6.5-7.8-9.4c-0.8-0.8-1.5-1.6-2-2.6c-1-1.8-2.2-3.4-3.6-4.9c-0.7-0.9-1.9-1.3-3-1
				c-0.9,0.3-1.9,0.2-2.7-0.3c-0.5-0.4-1.2-0.3-1.6,0.2c-0.2,0.2-0.3,0.5-0.2,0.8l0,0C8.4,65,9,64.7,9.8,65.4z"/>
			<path id="Path_1396" class="st39" d="M62,125.8c-1.2-0.3-2.5,0.2-3.3,1.2c-0.5,0.6-1.1,1.3-2.1,1.2c0,0.1,0,0.3-0.1,0.4
				c-0.9,2.1,1.1,5.6,3.5,5.6c2.1-0.1,4.2-0.1,6.4,0c0,0,0.1-0.1,0.1-0.2c-2.3-4.3-2.8-5.7-2.8-8.5C63.2,126,62.6,125.9,62,125.8z"
				/>
			<path id="Path_1397" class="st39" d="M58.6,126.7c-0.5,0.7-1.2,1.2-2,1.5c1,0.2,1.6-0.6,2.1-1.2c0.8-1,2.1-1.5,3.3-1.2
				c0.6,0.1,1.2,0.3,1.7-0.2c-0.7,0-1.3,0-2-0.1C60.5,125.2,59.3,125.7,58.6,126.7z"/>
			<path id="Path_1398" class="st14" d="M51.9,110.3c-0.4,0-0.7-0.1-1-0.2c-1.4-0.5-2.8-1.2-3.9-2.2c-1.6-1.4-3.5-2.2-5.6-2.5
				c-1.8-0.3-3.5-1-5-2c0.5,0.6,1.1,1.2,1.6,1.9c2.1,2.8,4.9,4.9,7.3,7.4c1.1-0.8,2.4-1.3,3.8-1.3C50.1,111.3,51.1,110.9,51.9,110.3
				z"/>
			<path id="Path_1399" class="st14" d="M46.5,112.4c0.9-0.4,1.9-0.7,3-0.7c1.3,0,2.4-0.6,3.2-1.6l0,0c-0.2,0.2-0.4,0.3-0.7,0.3
				c-0.8,0.6-1.8,1-2.8,1.1c-1.4,0-2.7,0.5-3.8,1.3C45.8,112.7,46.2,112.6,46.5,112.4z"/>
			<path id="Path_1400" class="st14" d="M46.9,107.9c1.2,1,2.5,1.7,3.9,2.2c0.3,0.1,0.7,0.2,1,0.2c0.1-0.1,0.3-0.2,0.4-0.3
				c-1.6-0.1-3.2-0.7-4.4-1.8c-1.3-0.9-2.5-2.1-4-2.5c-2.4-0.7-4.9-1.1-7.1-2.3c-0.1-0.1-0.3,0-0.4,0c1.5,1,3.2,1.7,5,2
				C43.4,105.7,45.4,106.5,46.9,107.9z"/>
			<path id="Path_1401" class="st14" d="M52.3,110c-0.1,0.1-0.2,0.2-0.4,0.3c0.3,0,0.5-0.1,0.7-0.3C52.5,110,52.4,110,52.3,110z"/>
			<path id="Path_1402" class="st37" d="M72.8,46.1c1-2.6,1.8-5.2,2.3-7.9c0.1-0.3,0.2-0.7-0.1-0.9c-0.4-0.2-0.6,0.2-0.8,0.4
				c-2.4,2.5-4.9,4.9-7.5,7.1c-0.2,0.2-0.5,0.4-0.7,0.5c1.5,0.4,2.5,1.6,3.5,2.7c0.4,0.5,0.9,1,1.3,1.6
				C71.6,48.5,72.3,47.3,72.8,46.1z"/>
			<path id="Path_1403" class="st37" d="M69.4,47.9c-1-1.1-1.9-2.3-3.5-2.7c-0.1,0-0.1,0-0.2,0.1c1.2,0.6,2.2,1.4,3.1,2.4
				c0.7,0.6,0.8,1.6,1.7,1.9l0,0c0,0,0.1-0.1,0.1-0.1C70.3,49,69.8,48.4,69.4,47.9z"/>
			<path id="Path_1404" class="st37" d="M66.6,44.7c2.6-2.2,5.2-4.6,7.5-7.1c0.2-0.2,0.4-0.6,0.8-0.4c0.3,0.2,0.2,0.6,0.1,0.9
				c-0.5,2.7-1.3,5.4-2.3,7.9c-0.4,1.3-1.2,2.4-2.1,3.4l0.1,0.1c0.3-0.1,0.7-0.2,0.8-0.5c0.4-1,1.1-1.9,1.5-2.9
				c0.6-1.7,1.1-3.4,1.7-5.1c0.3-1,0.5-2.1,0.7-3.1c0.1-0.4,0.1-0.9-0.3-1.2c-0.5-0.3-0.7,0.3-0.9,0.5c-1.2,1.1-2.4,2.3-3.5,3.5
				c-1.5,1.6-3.4,2.8-4.9,4.5c0,0,0.1,0,0.1,0C66.2,45.1,66.4,44.9,66.6,44.7z"/>
			<path id="Path_1405" class="st37" d="M70.7,49.5C70.6,49.5,70.6,49.5,70.7,49.5C70.6,49.6,70.7,49.6,70.7,49.5L70.7,49.5z"/>
			<path id="Path_1406" class="st37" d="M65.8,45.2C65.8,45.3,65.7,45.3,65.8,45.2c0,0.1,0,0,0.1,0C65.9,45.3,65.8,45.2,65.8,45.2z"
				/>
			<path id="Path_1407" class="st14" d="M68,88.9c-0.9,2.6-1.7,5.2-2.5,7.8c-0.6,2.3-1.6,4.5-2.8,6.6c-0.1,0.1-0.1,0.2-0.2,0.3
				c1.7-0.8,3.2-1.9,4.5-3.3c1.1-1.5,2.6-2.6,4.3-3.4c0.9-0.4,1.5-1.1,1.8-2c0.3-0.9,1-1.7,1.9-2c0.5-0.1,1-0.5,1.1-1.1
				c-2.7-0.9-5.4-1.9-8-3.1C68,88.8,68,88.9,68,88.9z"/>
			<path id="Path_1408" class="st14" d="M75,93C74,93.3,73.3,94,73,95c-0.3,0.9-0.9,1.6-1.8,2c-1.7,0.8-3.2,1.9-4.3,3.4
				c-1.3,1.4-2.8,2.5-4.5,3.3c-0.1,0.2-0.3,0.4-0.5,0.5c0.5,0.4,0.7-0.2,1-0.4c1.2-0.6,2.4-1.4,3.4-2.3c1.5-1.9,3.4-3.4,5.5-4.5
				c0.6-0.2,1-0.6,1.2-1.2c0.2-1.3,1.3-2.4,2.6-2.7c0.5-0.1,0.9-0.4,0.5-1.1l-0.1,0C75.9,92.4,75.5,92.8,75,93z"/>
			<path id="Path_1409" class="st14" d="M62.7,103.3c1.2-2.1,2.2-4.3,2.8-6.6c0.8-2.6,1.6-5.2,2.5-7.8c0,0,0-0.1,0-0.1l-0.1-0.1l0,0
				c-0.5,0.3-0.5,0.9-0.6,1.4c-1,3.1-2,6.3-3.1,9.4c-0.5,1.5-1.5,2.9-2.1,4.3c0.1-0.1,0.3-0.2,0.4-0.2
				C62.5,103.5,62.6,103.4,62.7,103.3z"/>
			<path id="Path_1410" class="st14" d="M62.5,103.6c-0.1,0.1-0.3,0.2-0.4,0.2c0,0.1-0.1,0.2-0.1,0.2
				C62.2,104,62.3,103.8,62.5,103.6z"/>
			<path id="Path_1411" class="st41" d="M68,87.3L68,87.3C68,87.3,68,87.3,68,87.3L68,87.3C68,87.3,68,87.3,68,87.3z"/>
			<path id="Path_1412" class="st35" d="M53.1,71.8c0,0.3,0,0.6-0.1,0.8c-0.5,2.4-0.5,4.9-1.2,7.3c-0.1,0.4-0.1,0.7,0,1.1
				c0.8-1.3,2.3-1.1,3.5-1.3c1.5-0.3,3.1-0.2,4.6,0.1c-1.8-2.8-4.4-5.1-6.4-7.7C53.3,72,53.2,71.9,53.1,71.8z"/>
			<path id="Path_1413" class="st35" d="M53.4,72.1c2.1,2.6,4.6,4.9,6.4,7.7c0.1,0,0.3,0.1,0.4,0.1l0,0c-1.8-3-4.6-5.2-6.6-8
				c-0.2-0.3-0.4-0.5-0.8-0.6l0,0c0.1,0.1,0.2,0.3,0.2,0.4C53.2,71.9,53.3,72,53.4,72.1z"/>
			<path id="Path_1414" class="st35" d="M55.2,79.7c-1.2,0.2-2.7,0-3.5,1.3c0,0.1,0,0.2,0,0.3c0.3-0.4,0.6-0.8,1.1-0.9
				c1.4-0.3,2.8-0.5,4.2-0.6c1,0.1,1.9,0.2,2.9,0.1c0-0.1-0.1-0.1-0.1-0.2C58.3,79.5,56.8,79.4,55.2,79.7z"/>
			<path id="Path_1415" class="st42" d="M59.8,79.8c0,0.1,0.1,0.1,0.1,0.2c0.1,0,0.2,0,0.3-0.1C60.1,79.9,59.9,79.8,59.8,79.8z"/>
			<path id="Path_1416" class="st35" d="M51.7,79.9c0.7-2.4,0.7-4.9,1.2-7.3c0.1-0.3,0.1-0.5,0.1-0.8c-0.1-0.1-0.2-0.1-0.3-0.1
				c-0.6,2.7-0.6,5.6-1.4,8.3c-0.2,0.4-0.1,0.9,0.2,1.3c0,0,0,0,0-0.1c0,0,0.1-0.1,0.1-0.1C51.6,80.6,51.7,80.2,51.7,79.9z"/>
			<path id="Path_1417" class="st39" d="M53.1,71.8c0-0.2-0.1-0.3-0.2-0.4c0,0.1,0,0.2-0.1,0.3C52.9,71.7,53,71.7,53.1,71.8z"/>
			<path id="Path_1418" class="st39" d="M51.6,81.1C51.6,81.1,51.6,81.2,51.6,81.1c0,0.1,0.1,0.1,0.1,0.2c0-0.1,0-0.2,0-0.3
				C51.7,81,51.7,81.1,51.6,81.1z"/>
			<path id="Path_1419" class="st14" d="M50.3,82.3c-4.3-1.3-8.6-1.9-13.1-0.9c-0.7,0.3-1.5,0.5-2.3,0.7c0,0,0.1,0.1,0.1,0.1
				c0.6,0.7,1.2,1.3,1.8,1.9c0.4,0.4,0.8,0.8,1.1,1.2c0.7,0.7,0.8,1.8,0.4,2.7c-0.5,0.8-1.4,1.2-2.3,1c-0.8,0-1.7,0.3-2.5,0.2
				c-0.3,0-0.5,0-0.8-0.1c1.8,1.5,3.9,2.5,6.1,3c2.8,0.8,5.7,1.5,8.5,2.3c1.1,0.3,1.3,0.2,1.6-0.9c0.7-2.3,1.2-4.7,1.6-7.1
				c0.2-1.4,0.5-2.7,0.7-4.1C50.9,82.5,50.6,82.5,50.3,82.3z"/>
			<path id="Path_1420" class="st14" d="M50.5,86.6c-0.4,2.4-1,4.8-1.6,7.1c-0.3,1.1-0.5,1.2-1.6,0.9c-2.8-0.8-5.7-1.5-8.5-2.3
				c-2.3-0.5-4.4-1.5-6.1-3c-0.2,0-0.3-0.1-0.5-0.2c0.1,0.4,0.4,0.6,0.7,0.8c1.7,1.2,3.7,2.2,5.8,2.7c2.9,0.8,5.9,1.5,8.8,2.4
				c1,0.3,1.4,0.1,1.6-0.8c1.1-3.8,1.9-7.8,2.4-11.7c-0.1,0.1-0.2,0.1-0.3,0.1C51,83.9,50.8,85.2,50.5,86.6z"/>
			<path id="Path_1421" class="st14" d="M33.5,89.3c0.9,0.1,1.7-0.2,2.5-0.2c0.9,0.1,1.8-0.3,2.3-1c0.4-0.9,0.2-2-0.4-2.7
				c-0.3-0.4-0.7-0.9-1.1-1.2c-0.6-0.6-1.3-1.2-1.8-1.9c0,0-0.1-0.1-0.1-0.1c-0.1,0-0.2,0-0.2,0c0.1,0.5,0.5,0.7,0.8,1
				c0.8,0.8,1.6,1.7,2.3,2.6c1.1,1.6,0.5,2.9-1.5,3C35,88.9,33.8,89,32.5,89c0.1,0.1,0.1,0.1,0.2,0.2C33,89.3,33.2,89.3,33.5,89.3z"
				/>
			<path id="Path_1422" class="st14" d="M32.5,89l-0.2,0l0,0c0.1,0.1,0.3,0.2,0.5,0.2C32.6,89.2,32.6,89.1,32.5,89z"/>
			<path id="Path_1423" class="st14" d="M41.2,80.6c-2.2,0.1-4.4,0.2-6.4,1.4c0,0,0.1,0.1,0.1,0.1c0.8-0.2,1.5-0.4,2.3-0.7
				c4.5-1,8.8-0.4,13.1,0.9c0.3,0.2,0.7,0.2,1,0.2c0-0.1,0-0.1,0-0.2v0C48.1,81.1,44.6,80.6,41.2,80.6z"/>
			<path id="Path_1424" class="st43" d="M51.3,82.4c0,0.1,0,0.1,0,0.2c0.1,0,0.2-0.1,0.3-0.1L51.3,82.4L51.3,82.4z"/>
			<path id="Path_1425" class="st43" d="M34.9,82.1C34.9,82.1,34.8,82.1,34.9,82.1c-0.1-0.1-0.2,0-0.2,0
				C34.7,82.1,34.8,82.1,34.9,82.1z"/>
		</g>
	</g>
	<g id="Group_9008" transform="translate(903.105 3183.956)">
		<path id="Ellipse_722" d="M23.7,0.2c5.5,0,10.8,2.5,14.4,6.7c1.8,2.1,3.2,4.5,4,7.1c0.9,2.8,1.3,5.7,1.1,8.6
			c-0.4,5.9-2.8,11.4-7,15.6c-2,2-4.3,3.6-6.9,4.8c-2.6,1.2-5.4,1.8-8.2,1.8c-5.5,0.1-10.8-2.2-14.6-6.4c-1.9-2.1-3.3-4.5-4.2-7.1
			c-1-2.8-1.4-5.8-1.2-8.7c0.3-6,2.9-11.6,7.1-15.9c2-2,4.4-3.6,7-4.8C18,0.8,20.8,0.2,23.7,0.2z"/>
		<g id="ZEE5_logo" transform="translate(7.005 7.087)">
			<path id="Path_21148" class="st34" d="M1.7,0l14.6,0.1l-1.7,30.5L0,30.7L1.7,0z"/>
			<path id="Path_21149" class="st44" d="M16.2,1.1l0.1-1c-2,0-3.9,0.4-5.7,1.2C8.8,2,7.1,3.2,5.7,4.5c-2.9,2.9-4.7,6.7-4.9,10.8
				c-0.1,2,0.2,4,0.8,6c0.6,1.8,1.6,3.4,2.9,4.8c2.6,2.8,6.2,4.4,10,4.4l0.1-1c-1.3,0-2.6-0.2-3.8-0.6c-1.2-0.4-2.4-0.9-3.4-1.6
				c-1.1-0.7-2-1.6-2.8-2.7c-0.8-1.1-1.5-2.3-2-3.6c-0.6-1.8-0.9-3.7-0.9-5.5c0.2-3.8,1.7-7.3,4.3-10C7.4,4.2,9,3.1,10.7,2.3
				c0.4-0.2,0.9-0.4,1.4-0.5c0.5-0.1,0.9-0.3,1.4-0.4c0.5-0.1,0.9-0.2,1.4-0.2C15.3,1.1,15.8,1.1,16.2,1.1"/>
			<path id="Path_21150" class="st45" d="M11,3.2l-0.3-0.9C9,3.1,7.4,4.2,6.1,5.6c-2.6,2.7-4.1,6.3-4.3,10c-0.1,1.9,0.2,3.8,0.9,5.5
				c0.6,1.7,1.6,3.3,2.9,4.6c2.4,2.5,5.8,3.9,9.3,3.8c1.8,0,3.6-0.5,5.3-1.2l-0.3-0.9c-0.9,0.4-1.8,0.7-2.8,0.9
				c-1,0.2-1.9,0.3-2.9,0.2c-3.7-0.2-7.1-2.1-9.2-5.2C4,22,3.4,20.5,3,18.8c-0.3-1.7-0.4-3.4-0.1-5.1C3.4,11.3,4.5,8.9,6.1,7
				C6.5,6.5,7,6,7.6,5.5C8.1,5,8.6,4.6,9.2,4.2C9.8,3.9,10.4,3.5,11,3.2"/>
			<path id="Path_21151" class="st46" d="M21.8,4.8L22.4,4c-1.4-0.9-3-1.5-4.6-1.7c-1.6-0.2-3.3-0.1-4.8,0.3C11.3,3,9.7,3.8,8.4,4.8
				C7,5.9,5.8,7.2,4.9,8.7c-0.9,1.5-1.6,3.2-1.9,5c-0.3,1.7-0.3,3.4,0.1,5.1c0.3,1.6,1,3.2,1.9,4.6c0.9,1.4,2.1,2.6,3.6,3.5L9,26
				c-0.2-0.1-0.5-0.3-0.7-0.5c-0.2-0.2-0.4-0.3-0.6-0.5c-0.2-0.2-0.4-0.4-0.6-0.6S6.7,24,6.5,23.8c-1-1.2-1.8-2.6-2.2-4.1
				c-0.5-1.5-0.6-3.1-0.5-4.6c0.3-3.3,1.7-6.3,4.1-8.6c1-0.9,2.1-1.7,3.3-2.2c1.1-0.5,2.4-0.9,3.6-1c1.2-0.1,2.4-0.1,3.6,0.2
				C19.7,3.7,20.8,4.2,21.8,4.8"/>
			<path id="Path_21152" class="st47" d="M8.5,7.2L7.9,6.5C5.5,8.7,4,11.8,3.8,15.1c-0.1,1.6,0,3.1,0.5,4.6c0.5,1.5,1.2,2.9,2.2,4.1
				c2,2.3,4.9,3.7,7.9,3.7c1.5,0,3-0.2,4.4-0.8c1.5-0.6,2.9-1.5,4-2.6l-0.6-0.7c-0.6,0.6-1.4,1.1-2.1,1.6c-0.8,0.4-1.6,0.8-2.4,1
				c-0.8,0.3-1.7,0.4-2.6,0.4c-0.9,0-1.8,0-2.6-0.3c-1.4-0.3-2.7-0.9-3.8-1.8c-1.1-0.8-2-1.9-2.7-3.1c-0.7-1.2-1.1-2.6-1.3-4
				c-0.2-1.5-0.1-3,0.3-4.5c0.4-1.6,1.2-3.2,2.3-4.5C7.7,8,8.1,7.6,8.5,7.2"/>
			<path id="Path_21153" class="st48" d="M18.1,5.5l0.3-1c-1.4-0.3-2.8-0.4-4.2-0.1c-1.4,0.3-2.7,0.8-3.9,1.6C9,6.7,7.9,7.7,7.1,8.9
				c-0.9,1.2-1.6,2.6-2,4.1c-0.4,1.5-0.5,3-0.3,4.5c0.2,1.4,0.6,2.8,1.3,4c0.7,1.2,1.6,2.3,2.7,3.1c1.1,0.9,2.4,1.5,3.8,1.8l0.3-1
				l0,0c-1.2-0.3-2.4-0.8-3.4-1.6c-1-0.8-1.8-1.7-2.4-2.8c-0.6-1.1-1-2.4-1.2-3.6c-0.2-1.4-0.1-2.7,0.3-4.1c0.4-1.3,1-2.6,1.8-3.7
				c0.8-1.1,1.7-2,2.9-2.7c1.1-0.7,2.3-1.2,3.5-1.4C15.5,5.1,16.8,5.2,18.1,5.5L18.1,5.5"/>
			<path id="Path_21154" class="st49" d="M22.4,16.9h2.4c0-0.1,0-0.2,0.1-0.3c0-0.1,0-0.2,0-0.3c0-0.1,0-0.2,0-0.3s0-0.2,0-0.3
				l-2.5,0L22.4,16.9z M22.6,13.8l-0.1,1l2.5,0c0-0.1,0-0.2,0-0.3c0-0.1,0-0.2,0-0.3c0-0.1,0-0.2,0-0.3c0-0.1,0-0.2,0-0.3H22.6z"/>
			<path id="Path_21155" class="st49" d="M21.3,17.9l0.3-5.1h3.3c-0.2-1.1-0.6-2.1-1.1-3c-0.5-0.9-1.2-1.7-2-2.4
				c-0.8-0.7-1.7-1.2-2.7-1.6c-1-0.4-2.1-0.6-3.2-0.6c-1.3,0-2.6,0.3-3.8,0.8C11,6.5,9.9,7.3,9,8.2c-1.9,1.9-3.1,4.5-3.3,7.2
				c-0.1,1.3,0.1,2.7,0.5,4c0.4,1.2,1.1,2.3,1.9,3.2c1.7,1.9,4.1,3,6.7,2.9c1.1,0,2.2-0.2,3.2-0.6c1-0.4,2-0.9,2.8-1.6
				c0.9-0.7,1.6-1.5,2.2-2.4c0.6-0.9,1.1-1.9,1.4-3L21.3,17.9L21.3,17.9z M26.2,17.2l0.6-0.6c0.1,0.1,0.2,0.2,0.3,0.3
				c0.1,0.1,0.2,0.1,0.3,0.2c0.1,0.1,0.2,0.1,0.3,0.1c0.1,0,0.2,0,0.3,0c0.1,0,0.3,0,0.4-0.1c0.1,0,0.2-0.1,0.3-0.2
				c0.1-0.1,0.2-0.2,0.2-0.3c0.1-0.1,0.1-0.2,0.1-0.4v0c0-0.1,0-0.2-0.1-0.3c0-0.1-0.1-0.2-0.2-0.3c-0.1-0.1-0.2-0.1-0.3-0.2
				c-0.1,0-0.3-0.1-0.4-0.1c-0.1,0-0.2,0-0.2,0c-0.1,0-0.2,0-0.2,0c-0.1,0-0.1,0-0.2,0.1c-0.1,0-0.1,0.1-0.2,0.1l-0.5-0.4l0.3-2.5
				h2.9l0,0.8h-2.1l-0.1,1.2c0.1,0,0.1,0,0.2-0.1s0.1,0,0.2,0c0.1,0,0.1,0,0.2,0c0.1,0,0.1,0,0.2,0c0.2,0,0.4,0,0.6,0.1
				c0.2,0.1,0.4,0.2,0.5,0.3c0.1,0.1,0.3,0.3,0.3,0.5c0.1,0.2,0.1,0.5,0.1,0.7v0c0,0.2-0.1,0.5-0.2,0.7c-0.1,0.2-0.2,0.4-0.4,0.5
				c-0.2,0.2-0.4,0.3-0.6,0.3C28.4,18,28.1,18,27.9,18c-0.2,0-0.3,0-0.5-0.1c-0.2,0-0.3-0.1-0.5-0.2c-0.1-0.1-0.3-0.1-0.4-0.2
				C26.4,17.5,26.3,17.3,26.2,17.2"/>
			<path id="Path_21156" class="st50" d="M20.2,13.8h-2.6l-0.1,1h2.6l-0.1,1h-2.6l-0.1,1.1h2.6l-0.1,1h-3.7l0.3-5.1h3.7L20.2,13.8z
				 M15.4,13.7l-2.9,3.3h2.7l-0.1,1l-4.1,0l0-0.9l2.9-3.3l-2.6,0l0.1-1l4,0L15.4,13.7z M25.1,14.8L25.1,14.8l-2.5,0l0.1-1H25
				c0-0.1,0-0.2,0-0.3c0-0.1,0-0.2,0-0.3c0-0.1,0-0.2,0-0.2c0-0.1,0-0.2,0-0.2h-3.3l-0.3,5.1h3.3c0-0.1,0-0.2,0.1-0.2
				c0-0.1,0-0.2,0.1-0.2c0-0.1,0-0.2,0.1-0.3s0-0.2,0.1-0.3h-2.4l0.1-1.1l2.5,0h0c0-0.1,0-0.2,0-0.2c0-0.1,0-0.2,0-0.2
				c0-0.1,0-0.2,0-0.2C25.1,15,25.1,14.9,25.1,14.8"/>
		</g>
	</g>
	<path id="Insurance" class="st0" d="M908,3138.2l-1.1,0l-0.3-7.1l1.1,0L908,3138.2z M913.5,3137.9l-1,0l-0.1-2.8
		c0-0.9-0.4-1.4-1-1.4c-0.3,0-0.6,0.2-0.8,0.4c-0.2,0.3-0.3,0.6-0.3,1l0.1,2.9l-1,0l-0.2-5.1l1,0l0,0.8h0c0.3-0.7,0.8-1,1.4-1
		c0.5,0,0.9,0.1,1.2,0.5s0.4,0.9,0.5,1.5L913.5,3137.9z M914.4,3137.7l0-1.1c0.4,0.3,0.8,0.5,1.3,0.4c0.6,0,0.9-0.2,0.9-0.6
		c0-0.1,0-0.2-0.1-0.3c-0.1-0.1-0.1-0.1-0.2-0.2c-0.1-0.1-0.2-0.1-0.3-0.2c-0.1,0-0.3-0.1-0.4-0.2c-0.2-0.1-0.4-0.2-0.5-0.2
		c-0.2-0.1-0.3-0.2-0.4-0.3c-0.1-0.1-0.2-0.2-0.2-0.4c-0.1-0.1-0.1-0.3-0.1-0.5c0-0.2,0-0.5,0.1-0.6c0.1-0.2,0.2-0.4,0.4-0.5
		c0.2-0.1,0.4-0.2,0.6-0.3c0.2-0.1,0.4-0.1,0.7-0.1c0.4,0,0.8,0,1.1,0.2l0,1c-0.3-0.2-0.7-0.3-1.1-0.3c-0.1,0-0.2,0-0.3,0.1
		c-0.1,0-0.2,0.1-0.3,0.1c-0.1,0.1-0.1,0.1-0.2,0.2c0,0.1-0.1,0.2-0.1,0.2c0,0.1,0,0.2,0.1,0.3c0,0.1,0.1,0.1,0.2,0.2
		c0.1,0.1,0.2,0.1,0.3,0.1c0.1,0,0.2,0.1,0.4,0.1c0.2,0.1,0.4,0.2,0.5,0.2c0.2,0.1,0.3,0.2,0.4,0.3c0.1,0.1,0.2,0.2,0.3,0.4
		c0.1,0.1,0.1,0.3,0.1,0.5c0,0.3,0,0.5-0.1,0.7c-0.1,0.2-0.2,0.4-0.4,0.5c-0.2,0.1-0.4,0.2-0.6,0.3c-0.2,0.1-0.5,0.1-0.7,0.1
		C915.2,3138,914.8,3137.9,914.4,3137.7L914.4,3137.7z M922.6,3137.6l-1,0l0-0.8h0c-0.3,0.6-0.7,0.9-1.3,1c-1.1,0-1.6-0.6-1.7-2.1
		l-0.1-3l1,0l0.1,2.9c0,0.9,0.4,1.3,1,1.3c0.3,0,0.5-0.1,0.7-0.4c0.2-0.3,0.3-0.6,0.3-1l-0.1-2.9l1,0L922.6,3137.6z M926.3,3133.5
		c-0.1-0.1-0.3-0.1-0.5-0.1c-0.3,0-0.5,0.2-0.7,0.5s-0.3,0.7-0.3,1.2l0.1,2.4l-1,0l-0.2-5l1,0l0,1h0c0.1-0.4,0.2-0.6,0.4-0.8
		c0.2-0.2,0.4-0.3,0.7-0.3c0.2,0,0.3,0,0.4,0.1L926.3,3133.5z M930.6,3137.2l-1,0l0-0.8h0c-0.3,0.6-0.7,0.9-1.3,1
		c-0.4,0-0.8-0.1-1-0.4c-0.3-0.3-0.4-0.6-0.4-1c0-0.9,0.4-1.5,1.4-1.7l1.3-0.3c0-0.7-0.3-1.1-0.9-1c-0.5,0-1,0.2-1.4,0.7l0-1
		c0.5-0.3,1-0.5,1.6-0.5c1.1,0,1.7,0.6,1.8,1.8L930.6,3137.2z M929.5,3134.8l-0.9,0.2c-0.3,0.1-0.5,0.1-0.6,0.3
		c-0.1,0.1-0.2,0.3-0.2,0.6c0,0.2,0.1,0.4,0.2,0.5c0.1,0.1,0.3,0.2,0.5,0.2c0.3,0,0.6-0.1,0.7-0.4c0.2-0.2,0.3-0.6,0.3-0.9
		L929.5,3134.8z M935.8,3137l-1,0l-0.1-2.8c0-0.9-0.3-1.4-0.9-1.4c-0.3,0-0.6,0.2-0.7,0.4c-0.2,0.3-0.3,0.6-0.3,1l0.1,2.8l-1,0
		l-0.2-5l1,0l0,0.8h0c0.3-0.6,0.8-1,1.4-1c0.5,0,0.9,0.1,1.1,0.5c0.3,0.3,0.4,0.8,0.4,1.5L935.8,3137z M940.1,3136.6
		c-0.3,0.2-0.8,0.4-1.2,0.4c-0.7,0-1.2-0.2-1.6-0.6c-0.4-0.4-0.6-1-0.7-1.8c0-0.8,0.2-1.5,0.6-2c0.4-0.5,1-0.8,1.7-0.8
		c0.4,0,0.8,0.1,1.1,0.2l0,1c-0.3-0.2-0.6-0.4-1-0.3c-0.4,0-0.8,0.2-1,0.5s-0.4,0.8-0.4,1.3c0,0.5,0.2,0.9,0.4,1.2
		c0.3,0.3,0.6,0.4,1,0.4c0.4,0,0.7-0.2,1-0.5L940.1,3136.6z M944.8,3134.5l-3,0.1c0,0.5,0.2,0.8,0.4,1c0.2,0.2,0.6,0.3,1,0.3
		c0.5,0,0.9-0.2,1.3-0.5l0,0.9c-0.4,0.3-0.9,0.5-1.6,0.5c-0.6,0-1.2-0.2-1.5-0.6c-0.4-0.4-0.6-1.1-0.6-1.9c0-0.8,0.1-1.4,0.5-1.9
		c0.4-0.5,0.9-0.8,1.5-0.8c0.6,0,1.1,0.2,1.4,0.6s0.5,1,0.6,1.8L944.8,3134.5z M943.8,3133.7c0-0.4-0.1-0.7-0.3-0.9
		c-0.2-0.2-0.4-0.3-0.7-0.3c-0.3,0-0.5,0.1-0.7,0.4c-0.2,0.2-0.3,0.6-0.3,0.9L943.8,3133.7z"/>
</g>
</svg>
