<svg xmlns="http://www.w3.org/2000/svg" xmlns:xlink="http://www.w3.org/1999/xlink" width="109.456" height="91.661" viewBox="0 0 109.456 91.661">
  <defs>
    <linearGradient id="linear-gradient" x1="3.311" y1="-0.817" x2="-0.513" y2="0.923" gradientUnits="objectBoundingBox">
      <stop offset="0" stop-color="#ab316d"/>
      <stop offset="1" stop-color="#792d3d"/>
    </linearGradient>
  </defs>
  <g id="Group_209" data-name="Group 209" transform="translate(0 0)">
    <path id="Path_571" data-name="Path 571" d="M863.383,2098.74l6.11,71.336a6.144,6.144,0,0,1-1.574,4.806,6.047,6.047,0,0,1-3.925,1.918l-90,7.579a6.669,6.669,0,0,1-7.351-6.024l-5.655-75.894a6.431,6.431,0,0,1,6.358-6.8l89.443-2.909A6.556,6.556,0,0,1,863.383,2098.74Z" transform="translate(-760.97 -2092.745)" fill="#f90"/>
    <path id="Path_572" data-name="Path 572" d="M868.017,2175.1a6.138,6.138,0,0,1-3.961,1.917l-90.033,7.581a6.7,6.7,0,0,1-7.381-6.024l-5.655-75.895a6.431,6.431,0,0,1,6.358-6.8l1.041-.034c.378,1.959.884,4.159,1.368,6.269.068.293.136.611.2.892.562,2.436,1.043,4.439,1.129,4.7,2.806,8.4,6.773,18.06,15.156,22.758,12.809,7.184,29.028,5.894,42.5,9.828,8.871,2.59,17.978,6.092,25.035,11.952a41.213,41.213,0,0,1,12.054,15.74A43,43,0,0,1,868.017,2175.1Z" transform="translate(-760.97 -2092.959)" opacity="0.2" fill="url(#linear-gradient)" style="mix-blend-mode: multiply;isolation: isolate"/>
    <g id="Group_208" data-name="Group 208" transform="translate(4.302 4.592)" opacity="0.7">
      <path id="Path_573" data-name="Path 573" d="M857.116,2174.038h0l-3.1.191a.668.668,0,0,1-.694-.615.6.6,0,0,1,.584-.642l3.094-.2h0a5.04,5.04,0,0,0,1.542-.374.621.621,0,0,1,.805.375.684.684,0,0,1-.4.85A5.934,5.934,0,0,1,857.116,2174.038Zm-7.96.527-4.88.4a.642.642,0,1,1-.106-1.28l4.88-.4a.64.64,0,1,1,.106,1.276Zm-9.789.8-4.938.4a.646.646,0,1,1-.105-1.288l4.938-.4a.644.644,0,1,1,.105,1.284Zm-9.905.811-5,.409a.65.65,0,1,1-.1-1.3l5-.4a.648.648,0,1,1,.105,1.292Zm-10.025.821-5.057.414a.654.654,0,1,1-.1-1.3l5.057-.41a.652.652,0,1,1,.1,1.3Zm-10.146.83-5.119.42a.659.659,0,1,1-.1-1.312l5.119-.415a.656.656,0,1,1,.1,1.308Zm-10.27.841-5.182.424a.663.663,0,1,1-.1-1.32l5.182-.419a.669.669,0,0,1,.732.6A.675.675,0,0,1,799.019,2178.669Zm-10.4.851-5.245.429a.677.677,0,0,1-.746-.608.686.686,0,0,1,.644-.72l5.245-.426a.675.675,0,0,1,.74.606A.682.682,0,0,1,788.624,2179.52Zm-10.523.706a.713.713,0,0,1-.142,0,8.766,8.766,0,0,1-5.082-2.362.649.649,0,0,1,.011-.948.73.73,0,0,1,1,0,7.342,7.342,0,0,0,4.256,1.982.666.666,0,0,1,.6.742A.7.7,0,0,1,778.1,2180.226Zm84.436-9.526a.629.629,0,0,1-.4-.1.637.637,0,0,1-.182-.88,6.486,6.486,0,0,0,1.055-4.161.628.628,0,0,1,.577-.68.64.64,0,0,1,.683.583,7.736,7.736,0,0,1-1.256,4.962A.627.627,0,0,1,862.537,2170.7Zm-91.342,2.85a.688.688,0,0,1-.762-.575c-.011-.1-.031-.184-.038-.284l-.359-4.787a.645.645,0,0,1,.594-.723.631.631,0,0,1,.692.611l.359,4.782c.006.083.086.157.095.24a.644.644,0,0,1-.591.733C771.176,2173.547,771.2,2173.549,771.195,2173.549Zm92.364-9.823c-.348.026-.536-.234-.566-.583l-.406-4.783c-.03-.348.11-.651.458-.676s.534.235.564.583l.407,4.778C864.045,2163.394,863.906,2163.7,863.559,2163.726Zm-93.209-.264a.634.634,0,0,1-.693-.613l-.378-5.049a.645.645,0,1,1,1.285-.1l.379,5.044A.641.641,0,0,1,770.35,2163.462Zm92.4-9.294c-.347.024-.535-.237-.565-.584l-.406-4.773c-.029-.347.111-.649.458-.671s.535.239.565.586l.406,4.769C863.233,2153.841,863.093,2154.144,862.745,2154.168Zm-93.152-.8a.636.636,0,0,1-.693-.616l-.378-5.038a.631.631,0,0,1,.593-.71.639.639,0,0,1,.692.618l.378,5.033A.633.633,0,0,1,769.593,2153.372Zm92.342-8.742c-.348.022-.535-.241-.565-.588l-.4-4.763c-.03-.347.111-.645.458-.665s.534.242.564.589l.4,4.76C862.421,2144.308,862.282,2144.608,861.935,2144.63Zm-93.1-1.325a.641.641,0,0,1-.692-.62l-.377-5.028a.624.624,0,0,1,.593-.7.645.645,0,0,1,.691.622l.377,5.022A.628.628,0,0,1,768.838,2143.3Zm92.287-8.193c-.347.021-.535-.245-.564-.592l-.4-4.753c-.03-.346.11-.641.458-.66s.534.247.563.593l.4,4.748C861.612,2134.794,861.472,2135.091,861.125,2135.112Zm-93.04-1.853a.646.646,0,0,1-.692-.624l-.376-5.016a.618.618,0,0,1,.593-.7.648.648,0,0,1,.69.624l.376,5.012A.622.622,0,0,1,768.084,2133.259Zm92.233-7.646c-.347.017-.534-.249-.564-.595l-.4-4.744c-.03-.345.111-.637.458-.654s.534.25.563.6l.4,4.739C860.8,2125.3,860.664,2125.595,860.317,2125.614Zm-92.985-2.379a.65.65,0,0,1-.691-.626l-.375-5.006a.611.611,0,0,1,.592-.691.652.652,0,0,1,.691.628l.375,5A.615.615,0,0,1,767.332,2123.235Zm92.179-7.1c-.347.017-.534-.252-.564-.6l-.4-4.734c-.03-.344.111-.634.458-.649s.533.254.563.6l.4,4.729C860,2115.826,859.858,2116.117,859.511,2116.134Zm-92.929-2.9a.655.655,0,0,1-.691-.63l-.282-3.758a7.7,7.7,0,0,1,.029-1.343.678.678,0,0,1,.771-.574.643.643,0,0,1,.565.735,6.422,6.422,0,0,0-.082,1.127l.282,3.755A.61.61,0,0,1,766.582,2113.233Zm92.125-6.559c-.347.014-.534-.256-.564-.6l-.077-.915a6.819,6.819,0,0,0-1.292-3.272.579.579,0,1,1,.932-.677,7.924,7.924,0,0,1,1.38,3.9l.078.914C859.193,2106.372,859.053,2106.66,858.707,2106.674Zm-90.146-2.828a.741.741,0,0,1-.531-.195.629.629,0,0,1-.025-.93,8.554,8.554,0,0,1,5.015-2.285.723.723,0,0,1,.789.579.639.639,0,0,1-.589.723,7.17,7.17,0,0,0-4.2,1.918A.692.692,0,0,1,768.561,2103.846Zm84.852-4.533a.67.67,0,0,1-.231-.034,6.779,6.779,0,0,0-2.4-.347l-2.152.078a.67.67,0,0,1-.687-.6.6.6,0,0,1,.582-.648l2.152-.075a8.071,8.071,0,0,1,2.856.415.652.652,0,0,1,.43.793A.6.6,0,0,1,853.412,2099.313Zm-9.6-.13-4.853.174a.674.674,0,0,1-.7-.606.6.6,0,0,1,.59-.652l4.854-.172a.673.673,0,0,1,.691.6A.6.6,0,0,1,843.81,2099.184Zm-9.735.35-4.91.177a.681.681,0,0,1-.7-.611.608.608,0,0,1,.6-.656l4.909-.173a.677.677,0,0,1,.7.609A.605.605,0,0,1,834.075,2099.534Zm-9.85.354-4.969.178a.685.685,0,0,1-.709-.613.615.615,0,0,1,.606-.661l4.969-.174a.682.682,0,0,1,.705.611A.612.612,0,0,1,824.224,2099.887Zm-9.968.358-5.029.181a.69.69,0,0,1-.717-.618.622.622,0,0,1,.614-.665l5.029-.177a.688.688,0,0,1,.712.616A.617.617,0,0,1,814.257,2100.246Zm-10.088.363-5.089.183a.7.7,0,0,1-.724-.621.628.628,0,0,1,.623-.669l5.089-.178a.694.694,0,0,1,.72.619A.625.625,0,0,1,804.169,2100.609Zm-10.209.366-5.151.185a.7.7,0,0,1-.732-.624.634.634,0,0,1,.631-.673l5.151-.18a.7.7,0,0,1,.727.622A.63.63,0,0,1,793.96,2100.975Zm-10.333.371-5.214.188a.707.707,0,0,1-.74-.628.642.642,0,0,1,.64-.678l5.214-.183a.7.7,0,0,1,.735.626A.637.637,0,0,1,783.627,2101.347Z" transform="translate(-765.592 -2097.678)" fill="#fff"/>
    </g>
    <path id="Path_574" data-name="Path 574" d="M873.1,2120.274a1.926,1.926,0,0,0-1.778-.14l-18.3,7.83a6.785,6.785,0,0,0-4.18,6.653l.632,7.6a7.259,7.259,0,0,0,5.729,6.25l18.939,4.147a1.966,1.966,0,0,0,1.7-.425,1.934,1.934,0,0,0,.667-1.6l-2.474-28.776A1.989,1.989,0,0,0,873.1,2120.274Z" transform="translate(-767.06 -2094.633)" fill="#ed7d2b"/>
    <path id="Path_575" data-name="Path 575" d="M861.341,2138.6a3.727,3.727,0,0,1-3.518,4.043,3.96,3.96,0,0,1-4.178-3.592,3.726,3.726,0,0,1,3.537-4.04A3.96,3.96,0,0,1,861.341,2138.6Z" transform="translate(-767.393 -2095.674)" fill="#344154"/>
  </g>
</svg>
