<?xml version="1.0" encoding="utf-8"?>
<!-- Generator: Adobe Illustrator 25.4.1, SVG Export Plug-In . SVG Version: 6.00 Build 0)  -->
<svg version="1.1" id="Layer_1" xmlns="http://www.w3.org/2000/svg" xmlns:xlink="http://www.w3.org/1999/xlink" x="0px" y="0px"
	 width="486.2px" height="363.8px" viewBox="0 0 486.2 363.8" style="enable-background:new 0 0 486.2 363.8;" xml:space="preserve"
	>
<style type="text/css">
	.st0{enable-background:new    ;}
	.st1{fill:#344154;}
	.st2{opacity:0.8;}
	.st3{fill:#FFFFFF;}
	.st4{opacity:0.7;fill:#D8DEE8;enable-background:new    ;}
	.st5{fill:url(#Path_521_00000145034152068225279370000009734227687201724302_);}
	.st6{fill:#2B478B;}
	.st7{fill:#D8DEE8;}
	.st8{opacity:0.3;}
	.st9{fill:#F4F7FA;}
	.st10{fill:#FFB27D;}
	.st11{fill:#233862;}
	.st12{fill:#E8945B;}
	.st13{fill:#163560;}
	.st14{fill:#1C468A;}
	.st15{fill:#FF9900;}
	.st16{fill:#D86713;}
	.st17{fill:#D9935C;}
	.st18{fill:#466AA5;}
	.st19{fill:#EF7E29;}
	.st20{fill:#F99746;}
	.st21{fill:#A9CCED;}
	.st22{fill:none;stroke:#DCEAFF;stroke-width:2;stroke-linecap:round;stroke-miterlimit:10;stroke-dasharray:6;}
	.st23{fill:#DCEAFF;}
	.st24{fill:#B5D3F7;}
	.st25{fill:#A5BEDB;}
	.st26{fill:#192A3A;}
	.st27{fill:#53575A;}
	.st28{fill:#E04403;}
	.st29{filter:url(#Path_665);}
	.st30{fill:#7E95C4;}
	.st31{filter:url(#Path_667);}
	.st32{filter:url(#Path_669);}
	.st33{filter:url(#Path_671);}
	.st34{fill:#FFFFFF;stroke:#FFFFFF;stroke-width:0.3;}
</style>
<filter  filterUnits="userSpaceOnUse" height="20.207" id="Path_671" width="58.891" x="92.697" y="131.443">
	<feOffset  dx="-2" dy="2" input="SourceAlpha"></feOffset>
	<feGaussianBlur  result="blur-4" stdDeviation="0.5"></feGaussianBlur>
	<feFlood  flood-opacity="0.161"></feFlood>
	<feComposite  in2="blur-4" operator="in"></feComposite>
	<feComposite  in="SourceGraphic" operator="over"></feComposite>
</filter>
<filter  filterUnits="userSpaceOnUse" height="20.207" id="Path_669" width="58.891" x="31.691" y="131.443">
	<feOffset  dx="-2" dy="2" input="SourceAlpha"></feOffset>
	<feGaussianBlur  result="blur-3" stdDeviation="0.5"></feGaussianBlur>
	<feFlood  flood-opacity="0.161"></feFlood>
	<feComposite  in2="blur-3" operator="in"></feComposite>
	<feComposite  in="SourceGraphic" operator="over"></feComposite>
</filter>
<filter  filterUnits="userSpaceOnUse" height="20.208" id="Path_667" width="58.891" x="90.448" y="108.358">
	<feOffset  dx="-2" dy="2" input="SourceAlpha"></feOffset>
	<feGaussianBlur  result="blur-2" stdDeviation="0.5"></feGaussianBlur>
	<feFlood  flood-opacity="0.161"></feFlood>
	<feComposite  in2="blur-2" operator="in"></feComposite>
	<feComposite  in="SourceGraphic" operator="over"></feComposite>
</filter>
<filter  filterUnits="userSpaceOnUse" height="20.208" id="Path_665" width="58.891" x="29.441" y="108.358">
	<feOffset  dx="-2" dy="2" input="SourceAlpha"></feOffset>
	<feGaussianBlur  result="blur" stdDeviation="0.5"></feGaussianBlur>
	<feFlood  flood-opacity="0.161"></feFlood>
	<feComposite  in2="blur" operator="in"></feComposite>
	<feComposite  in="SourceGraphic" operator="over"></feComposite>
</filter>
<g id="Group_319" transform="translate(-697.528 -1858.891)">
	<g class="st0">
		<path class="st1" d="M1129.9,1951.3h-1.2v-4.5c0-0.4,0-0.8,0.1-1.4h0c-0.1,0.3-0.1,0.5-0.2,0.7l-2.1,5.2h-0.8l-2.1-5.2
			c-0.1-0.2-0.1-0.4-0.2-0.7h0c0,0.3,0,0.7,0,1.4v4.5h-1.1v-7h1.6l1.8,4.7c0.1,0.4,0.2,0.6,0.3,0.8h0c0.1-0.4,0.2-0.6,0.3-0.8
			l1.9-4.6h1.6V1951.3z"/>
		<path class="st1" d="M1135.9,1951.3h-1.1v-0.8h0c-0.3,0.6-0.8,0.9-1.5,0.9c-1.2,0-1.8-0.7-1.8-2.1v-3h1.1v2.9c0,0.9,0.3,1.3,1,1.3
			c0.3,0,0.6-0.1,0.8-0.4c0.2-0.2,0.3-0.6,0.3-1v-2.9h1.1V1951.3z"/>
		<path class="st1" d="M1140,1951.3c-0.2,0.1-0.5,0.2-0.9,0.2c-1,0-1.5-0.5-1.5-1.4v-2.8h-0.8v-0.9h0.8v-1.2l1.1-0.3v1.5h1.2v0.9
			h-1.2v2.5c0,0.3,0.1,0.5,0.2,0.6s0.3,0.2,0.5,0.2c0.2,0,0.4-0.1,0.5-0.2V1951.3z"/>
		<path class="st1" d="M1145.3,1951.3h-1.1v-0.8h0c-0.3,0.6-0.8,0.9-1.5,0.9c-1.2,0-1.8-0.7-1.8-2.1v-3h1.1v2.9c0,0.9,0.3,1.3,1,1.3
			c0.3,0,0.6-0.1,0.8-0.4c0.2-0.2,0.3-0.6,0.3-1v-2.9h1.1V1951.3z"/>
		<path class="st1" d="M1150.6,1951.3h-1.1v-0.8h0c-0.3,0.6-0.9,0.9-1.5,0.9c-0.5,0-0.9-0.1-1.2-0.4s-0.4-0.6-0.4-1.1
			c0-0.9,0.5-1.5,1.6-1.7l1.5-0.2c0-0.7-0.3-1.1-1-1.1c-0.6,0-1.1,0.2-1.6,0.6v-1c0.5-0.3,1.1-0.5,1.8-0.5c1.3,0,1.9,0.6,1.9,1.9
			V1951.3z M1149.5,1948.9l-1,0.1c-0.3,0-0.6,0.1-0.7,0.2c-0.2,0.1-0.2,0.3-0.2,0.6c0,0.2,0.1,0.4,0.2,0.5c0.2,0.1,0.4,0.2,0.6,0.2
			c0.3,0,0.6-0.1,0.9-0.4c0.2-0.2,0.3-0.5,0.3-0.9V1948.9z"/>
		<path class="st1" d="M1153.1,1951.3h-1.1v-7.4h1.1V1951.3z"/>
		<path class="st1" d="M1161.3,1945.3h-2.6v2.1h2.4v1h-2.4v2.9h-1.2v-7h3.8V1945.3z"/>
		<path class="st1" d="M1166.7,1951.3h-1.1v-0.8h0c-0.3,0.6-0.8,0.9-1.5,0.9c-1.2,0-1.8-0.7-1.8-2.1v-3h1.1v2.9c0,0.9,0.3,1.3,1,1.3
			c0.3,0,0.6-0.1,0.8-0.4c0.2-0.2,0.3-0.6,0.3-1v-2.9h1.1V1951.3z"/>
		<path class="st1" d="M1172.7,1951.3h-1.1v-2.8c0-0.9-0.3-1.4-1-1.4c-0.3,0-0.6,0.1-0.9,0.4c-0.2,0.3-0.3,0.6-0.3,1v2.9h-1.1v-5
			h1.1v0.8h0c0.4-0.6,0.9-0.9,1.6-0.9c0.5,0,1,0.2,1.2,0.5c0.3,0.4,0.4,0.9,0.4,1.5V1951.3z"/>
		<path class="st1" d="M1178.6,1951.3h-1.1v-0.8h0c-0.4,0.6-0.9,1-1.7,1c-0.6,0-1.1-0.2-1.5-0.7c-0.4-0.4-0.6-1.1-0.6-1.8
			c0-0.8,0.2-1.5,0.6-2c0.4-0.5,1-0.7,1.6-0.7c0.7,0,1.2,0.3,1.5,0.8h0v-3.1h1.1V1951.3z M1177.5,1949v-0.7c0-0.4-0.1-0.7-0.3-0.9
			c-0.2-0.2-0.5-0.4-0.9-0.4c-0.4,0-0.8,0.2-1,0.5c-0.2,0.3-0.4,0.8-0.4,1.3c0,0.5,0.1,0.9,0.3,1.2c0.2,0.3,0.5,0.4,0.9,0.4
			c0.4,0,0.7-0.1,0.9-0.4C1177.4,1949.8,1177.5,1949.5,1177.5,1949z"/>
		<path class="st1" d="M1179.8,1951.2v-1c0.4,0.3,0.9,0.5,1.4,0.5c0.7,0,1-0.2,1-0.6c0-0.1,0-0.2-0.1-0.3c-0.1-0.1-0.1-0.2-0.2-0.2
			c-0.1-0.1-0.2-0.1-0.4-0.2c-0.1,0-0.3-0.1-0.5-0.2c-0.2-0.1-0.4-0.2-0.6-0.3c-0.2-0.1-0.3-0.2-0.4-0.3c-0.1-0.1-0.2-0.2-0.2-0.4
			c-0.1-0.1-0.1-0.3-0.1-0.5c0-0.2,0.1-0.5,0.2-0.6c0.1-0.2,0.3-0.3,0.5-0.5c0.2-0.1,0.4-0.2,0.7-0.3c0.2-0.1,0.5-0.1,0.8-0.1
			c0.5,0,0.9,0.1,1.2,0.2v1c-0.4-0.2-0.8-0.4-1.2-0.4c-0.1,0-0.3,0-0.4,0c-0.1,0-0.2,0.1-0.3,0.1c-0.1,0.1-0.1,0.1-0.2,0.2
			c0,0.1-0.1,0.2-0.1,0.2c0,0.1,0,0.2,0.1,0.3c0,0.1,0.1,0.1,0.2,0.2c0.1,0.1,0.2,0.1,0.3,0.2c0.1,0,0.3,0.1,0.4,0.2
			c0.2,0.1,0.4,0.2,0.6,0.3s0.3,0.2,0.4,0.3c0.1,0.1,0.2,0.2,0.3,0.4c0.1,0.2,0.1,0.3,0.1,0.5c0,0.3-0.1,0.5-0.2,0.7
			s-0.3,0.3-0.5,0.5s-0.4,0.2-0.7,0.3c-0.3,0.1-0.5,0.1-0.8,0.1C1180.6,1951.4,1180.2,1951.3,1179.8,1951.2z"/>
	</g>
	<g class="st0">
		<path class="st1" d="M1062.2,1920.8h-2v6h-1.2v-6h-2v-1h5.2V1920.8z"/>
		<path class="st1" d="M1065.2,1922.9c-0.1-0.1-0.3-0.2-0.6-0.2c-0.3,0-0.6,0.2-0.8,0.5s-0.3,0.7-0.3,1.2v2.4h-1.1v-5h1.1v1h0
			c0.1-0.4,0.3-0.6,0.5-0.8c0.2-0.2,0.5-0.3,0.8-0.3c0.2,0,0.4,0,0.5,0.1V1922.9z"/>
		<path class="st1" d="M1069.8,1926.8h-1.1v-0.8h0c-0.3,0.6-0.9,0.9-1.5,0.9c-0.5,0-0.9-0.1-1.2-0.4s-0.4-0.6-0.4-1.1
			c0-0.9,0.5-1.5,1.6-1.7l1.5-0.2c0-0.7-0.3-1.1-1-1.1c-0.6,0-1.1,0.2-1.6,0.6v-1c0.5-0.3,1.1-0.5,1.8-0.5c1.3,0,1.9,0.6,1.9,1.9
			V1926.8z M1068.7,1924.3l-1,0.1c-0.3,0-0.6,0.1-0.7,0.2c-0.2,0.1-0.2,0.3-0.2,0.6c0,0.2,0.1,0.4,0.2,0.5c0.2,0.1,0.4,0.2,0.6,0.2
			c0.3,0,0.6-0.1,0.9-0.4c0.2-0.2,0.3-0.5,0.3-0.9V1924.3z"/>
		<path class="st1" d="M1075.5,1921.8l-1.9,5h-1.2l-1.8-5h1.2l1.1,3.5c0.1,0.3,0.1,0.5,0.2,0.7h0c0-0.2,0.1-0.5,0.1-0.7l1.2-3.5
			H1075.5z"/>
		<path class="st1" d="M1080.4,1924.6h-3.4c0,0.5,0.2,0.8,0.4,1.1c0.3,0.3,0.6,0.4,1.1,0.4c0.5,0,1-0.2,1.5-0.5v0.9
			c-0.5,0.3-1.1,0.4-1.8,0.4c-0.7,0-1.3-0.2-1.7-0.7c-0.4-0.5-0.6-1.1-0.6-1.9c0-0.8,0.2-1.4,0.7-1.9c0.5-0.5,1-0.7,1.7-0.7
			s1.2,0.2,1.6,0.7c0.4,0.4,0.6,1,0.6,1.8V1924.6z M1079.3,1923.8c0-0.4-0.1-0.7-0.3-1c-0.2-0.2-0.4-0.3-0.8-0.3
			c-0.3,0-0.6,0.1-0.8,0.4c-0.2,0.2-0.4,0.5-0.4,0.9H1079.3z"/>
		<path class="st1" d="M1082.6,1926.8h-1.1v-7.4h1.1V1926.8z"/>
		<path class="st1" d="M1083.8,1926.6v-1c0.4,0.3,0.9,0.5,1.4,0.5c0.7,0,1-0.2,1-0.6c0-0.1,0-0.2-0.1-0.3c-0.1-0.1-0.1-0.2-0.2-0.2
			c-0.1-0.1-0.2-0.1-0.4-0.2c-0.1,0-0.3-0.1-0.5-0.2c-0.2-0.1-0.4-0.2-0.6-0.3c-0.2-0.1-0.3-0.2-0.4-0.3c-0.1-0.1-0.2-0.2-0.2-0.4
			c-0.1-0.1-0.1-0.3-0.1-0.5c0-0.2,0.1-0.5,0.2-0.6c0.1-0.2,0.3-0.3,0.5-0.5c0.2-0.1,0.4-0.2,0.7-0.3c0.2-0.1,0.5-0.1,0.8-0.1
			c0.5,0,0.9,0.1,1.2,0.2v1c-0.4-0.2-0.8-0.4-1.2-0.4c-0.1,0-0.3,0-0.4,0c-0.1,0-0.2,0.1-0.3,0.1c-0.1,0.1-0.1,0.1-0.2,0.2
			c0,0.1-0.1,0.2-0.1,0.2c0,0.1,0,0.2,0.1,0.3c0,0.1,0.1,0.1,0.2,0.2c0.1,0.1,0.2,0.1,0.3,0.2c0.1,0,0.3,0.1,0.4,0.2
			c0.2,0.1,0.4,0.2,0.6,0.3s0.3,0.2,0.4,0.3c0.1,0.1,0.2,0.2,0.3,0.4c0.1,0.2,0.1,0.3,0.1,0.5c0,0.3-0.1,0.5-0.2,0.7
			s-0.3,0.3-0.5,0.5s-0.4,0.2-0.7,0.3c-0.3,0.1-0.5,0.1-0.8,0.1C1084.7,1926.9,1084.2,1926.8,1083.8,1926.6z"/>
	</g>
	<g class="st0">
		<path class="st1" d="M992,1985.8h-3.9v-7h3.8v1h-2.6v2h2.4v1h-2.4v2.1h2.8V1985.8z"/>
		<path class="st1" d="M995.8,1983.5h-2.7v-0.8h2.7V1983.5z"/>
		<path class="st1" d="M1000.7,1985.6c-0.4,0.2-0.9,0.3-1.4,0.3c-0.7,0-1.3-0.2-1.8-0.7c-0.5-0.5-0.7-1.1-0.7-1.8
			c0-0.8,0.2-1.5,0.7-2c0.5-0.5,1.1-0.8,2-0.8c0.5,0,0.9,0.1,1.2,0.2v1.1c-0.3-0.3-0.7-0.4-1.1-0.4c-0.5,0-0.9,0.2-1.2,0.5
			c-0.3,0.3-0.5,0.7-0.5,1.3c0,0.5,0.1,0.9,0.4,1.2s0.7,0.4,1.2,0.4c0.4,0,0.8-0.1,1.2-0.4V1985.6z"/>
		<path class="st1" d="M1004.1,1985.9c-0.8,0-1.4-0.2-1.8-0.7c-0.5-0.5-0.7-1.1-0.7-1.9c0-0.8,0.2-1.5,0.7-2
			c0.5-0.5,1.1-0.7,1.9-0.7c0.8,0,1.4,0.2,1.8,0.7c0.4,0.5,0.7,1.1,0.7,1.9c0,0.8-0.2,1.4-0.7,1.9
			C1005.5,1985.7,1004.9,1985.9,1004.1,1985.9z M1004.1,1981.6c-0.4,0-0.8,0.2-1,0.5c-0.3,0.3-0.4,0.7-0.4,1.3
			c0,0.5,0.1,0.9,0.4,1.2c0.3,0.3,0.6,0.5,1,0.5c0.4,0,0.8-0.1,1-0.4s0.4-0.7,0.4-1.3c0-0.5-0.1-1-0.4-1.3
			S1004.6,1981.6,1004.1,1981.6z"/>
		<path class="st1" d="M1015.3,1985.8h-1.1v-2.7c0-0.5-0.1-0.9-0.2-1.1c-0.1-0.2-0.4-0.4-0.7-0.4c-0.3,0-0.5,0.1-0.8,0.4
			c-0.2,0.3-0.3,0.7-0.3,1.1v2.7h-1.1v-2.8c0-0.9-0.3-1.4-1-1.4c-0.3,0-0.6,0.1-0.8,0.4c-0.2,0.3-0.3,0.6-0.3,1.1v2.7h-1.1v-5h1.1
			v0.8h0c0.4-0.6,0.9-0.9,1.6-0.9c0.3,0,0.6,0.1,0.9,0.3c0.3,0.2,0.4,0.4,0.5,0.8c0.4-0.7,0.9-1,1.7-1c1.1,0,1.7,0.7,1.7,2V1985.8z"
			/>
		<path class="st1" d="M1024.2,1985.8h-1.1v-2.7c0-0.5-0.1-0.9-0.2-1.1c-0.1-0.2-0.4-0.4-0.7-0.4c-0.3,0-0.5,0.1-0.8,0.4
			c-0.2,0.3-0.3,0.7-0.3,1.1v2.7h-1.1v-2.8c0-0.9-0.3-1.4-1-1.4c-0.3,0-0.6,0.1-0.8,0.4c-0.2,0.3-0.3,0.6-0.3,1.1v2.7h-1.1v-5h1.1
			v0.8h0c0.4-0.6,0.9-0.9,1.6-0.9c0.3,0,0.6,0.1,0.9,0.3c0.3,0.2,0.4,0.4,0.5,0.8c0.4-0.7,0.9-1,1.7-1c1.1,0,1.7,0.7,1.7,2V1985.8z"
			/>
		<path class="st1" d="M1029.8,1983.6h-3.4c0,0.5,0.2,0.8,0.4,1.1c0.3,0.3,0.6,0.4,1.1,0.4c0.5,0,1-0.2,1.5-0.5v0.9
			c-0.5,0.3-1.1,0.4-1.8,0.4c-0.7,0-1.3-0.2-1.7-0.7c-0.4-0.5-0.6-1.1-0.6-1.9c0-0.8,0.2-1.4,0.7-1.9c0.5-0.5,1-0.7,1.7-0.7
			s1.2,0.2,1.6,0.7c0.4,0.4,0.6,1,0.6,1.8V1983.6z M1028.7,1982.8c0-0.4-0.1-0.7-0.3-1c-0.2-0.2-0.4-0.3-0.8-0.3
			c-0.3,0-0.6,0.1-0.8,0.4c-0.2,0.2-0.4,0.5-0.4,0.9H1028.7z"/>
		<path class="st1" d="M1033.8,1981.9c-0.1-0.1-0.3-0.2-0.6-0.2c-0.3,0-0.6,0.2-0.8,0.5s-0.3,0.7-0.3,1.2v2.4h-1.1v-5h1.1v1h0
			c0.1-0.4,0.3-0.6,0.5-0.8c0.2-0.2,0.5-0.3,0.8-0.3c0.2,0,0.4,0,0.5,0.1V1981.9z"/>
		<path class="st1" d="M1038,1985.6c-0.4,0.2-0.9,0.3-1.4,0.3c-0.7,0-1.3-0.2-1.8-0.7c-0.5-0.5-0.7-1.1-0.7-1.8c0-0.8,0.2-1.5,0.7-2
			c0.5-0.5,1.1-0.8,2-0.8c0.5,0,0.9,0.1,1.2,0.2v1.1c-0.3-0.3-0.7-0.4-1.1-0.4c-0.5,0-0.9,0.2-1.2,0.5c-0.3,0.3-0.5,0.7-0.5,1.3
			c0,0.5,0.1,0.9,0.4,1.2s0.7,0.4,1.2,0.4c0.4,0,0.8-0.1,1.2-0.4V1985.6z"/>
		<path class="st1" d="M1043.4,1983.6h-3.4c0,0.5,0.2,0.8,0.4,1.1c0.3,0.3,0.6,0.4,1.1,0.4c0.5,0,1-0.2,1.5-0.5v0.9
			c-0.5,0.3-1.1,0.4-1.8,0.4c-0.7,0-1.3-0.2-1.7-0.7c-0.4-0.5-0.6-1.1-0.6-1.9c0-0.8,0.2-1.4,0.7-1.9c0.5-0.5,1-0.7,1.7-0.7
			s1.2,0.2,1.6,0.7c0.4,0.4,0.6,1,0.6,1.8V1983.6z M1042.3,1982.8c0-0.4-0.1-0.7-0.3-1c-0.2-0.2-0.4-0.3-0.8-0.3
			c-0.3,0-0.6,0.1-0.8,0.4c-0.2,0.2-0.4,0.5-0.4,0.9H1042.3z"/>
	</g>
	<g id="Group_181" transform="translate(715.531 2116.408)">
		<g id="Group_180" transform="translate(0 0)">
			<g id="Group_179" class="st2">
				<path id="Path_518" class="st3" d="M17.6,89.1c0.5-0.1,0.8-0.5,0.8-1c0-0.4,0.5-40.2-16.8-87.5C1.5,0.1,1-0.1,0.5,0
					C0.1,0.2-0.1,0.7,0,1.1c0,0,0,0,0,0c17.3,47,16.7,86.6,16.7,87C16.7,88.6,17.1,89,17.6,89.1L17.6,89.1z"/>
			</g>
		</g>
	</g>
	<path id="Path_519" class="st4" d="M971.9,2099.1l-8,0.5c-0.9-3.6-2.1-7-3.6-10.4l6.7-4.5c1.8-1.2,2.3-3.7,1.1-5.5c0,0,0,0,0,0
		l-7.8-11.5c-1.2-1.8-3.7-2.3-5.6-1.1l-6.8,4.5c-2.6-2.6-5.4-5-8.3-7.2l3.6-7.3c1-2,0.1-4.4-1.9-5.4l-12.5-6.2c-2-1-4.4-0.2-5.4,1.8
		c0,0,0,0,0,0l-3.6,7.3c-3.6-1-7.2-1.7-10.9-2.2l-0.6-8.2c-0.2-2.2-2.1-3.9-4.4-3.8l-14,0.8c-2.2,0.1-3.9,2-3.8,4.2c0,0,0,0.1,0,0.1
		l0.6,8.3c-3.6,0.8-7.1,2-10.5,3.5l-4.7-6.9c-1.3-1.9-3.8-2.4-5.7-1.1l-11.7,7.7c-1.8,1.2-2.4,3.7-1.2,5.5c0,0,0,0.1,0.1,0.1
		l4.7,6.9c-2.7,2.5-5.2,5.3-7.4,8.3l-7.6-3.7c-2-1-4.5-0.2-5.5,1.8l-6.2,12.6c-1,2-0.1,4.4,1.9,5.4c0,0,0,0,0.1,0l7.5,3.6
		c-1,3.6-1.7,7.2-2.1,10.9l-8.3,0.6c-2.2,0.1-4,2-3.8,4.3c0,0,0,0,0,0l1.1,14c0.2,2.3,2.2,3.9,4.4,3.8l8.3-0.6
		c0.9,3.6,2.2,7.2,3.7,10.6l-6.8,4.5c-1.9,1.2-2.4,3.7-1.2,5.6c0,0,0,0.1,0.1,0.1l8,11.6c1.3,1.9,3.9,2.3,5.7,1.1l6.8-4.5
		c2.7,2.7,5.5,5.1,8.6,7.3l-3.5,7.2c-1,2-0.1,4.4,1.8,5.4c0,0,0,0,0.1,0l12.8,6c2,1,4.5,0.1,5.5-1.9l3.5-7.2c3.6,1,7.4,1.7,11.1,2
		l0.6,7.9c0.2,2.2,2.1,3.9,4.4,3.7c0,0,0,0,0,0l14-1.1c2.2-0.2,3.9-2.1,3.7-4.3l-0.6-7.9c3.6-0.9,7.2-2.2,10.6-3.7l4.5,6.5
		c1.3,1.8,3.8,2.3,5.6,1l11.5-7.8c1.8-1.2,2.3-3.7,1.1-5.6c0,0,0,0,0,0l-4.5-6.5c2.7-2.6,5.1-5.4,7.2-8.4l7.2,3.4
		c2,1,4.4,0.1,5.3-1.9l6-12.4c0.9-2,0.1-4.4-1.9-5.3l-7.2-3.5c1-3.5,1.7-7.2,2-10.8l8-0.6c2.2-0.2,3.8-2,3.7-4.2c0,0,0,0,0,0
		l-1-13.7C976,2100.6,974.1,2098.9,971.9,2099.1z M899.3,2074.4c22.6-1.4,42.1,15.5,43.8,37.7c1.6,22.3-15.2,41.7-37.5,43.3
		c-0.1,0-0.1,0-0.2,0c-22.7,1.7-42.5-15.2-44.2-37.7c-1.6-22.3,15.2-41.7,37.5-43.3C898.9,2074.4,899.1,2074.4,899.3,2074.4z"/>
	<path id="Path_520" class="st4" d="M946.4,1977.3l-4.4,0.3c-0.5-2-1.2-3.9-2-5.7l3.7-2.5c1-0.7,1.3-2,0.6-3c0,0,0,0,0,0l-4.3-6.3
		c-0.7-1-2-1.3-3.1-0.6l-3.7,2.5c-1.4-1.5-2.9-2.8-4.6-4l2-4c0.5-1.1,0.1-2.4-1-2.9l-6.9-3.4c-1.1-0.5-2.4-0.1-3,1c0,0,0,0,0,0l-2,4
		c-2-0.6-4-1-6-1.2l-0.3-4.5c-0.1-1.2-1.2-2.1-2.4-2.1l-7.7,0.5c-1.2,0.1-2.1,1.1-2.1,2.3c0,0,0,0,0,0.1l0.3,4.5
		c-2,0.5-3.9,1.1-5.8,1.9l-2.6-3.8c-0.7-1-2.1-1.3-3.1-0.6l-6.4,4.2c-1,0.7-1.3,2-0.6,3c0,0,0,0,0,0.1l2.6,3.8
		c-1.5,1.4-2.8,2.9-4,4.6l-4.2-2c-1.1-0.5-2.5-0.1-3,1l-3.4,6.9c-0.5,1.1-0.1,2.4,1,3c0,0,0,0,0,0l4.1,2c-0.6,2-1,4-1.2,6l-4.6,0.3
		c-1.2,0.1-2.2,1.1-2.1,2.4c0,0,0,0,0,0l0.6,7.7c0.1,1.2,1.2,2.2,2.4,2.1l4.5-0.3c0.5,2,1.2,3.9,2,5.8l-3.7,2.5
		c-1,0.7-1.3,2-0.6,3.1c0,0,0,0,0,0l4.4,6.4c0.7,1,2.1,1.3,3.2,0.6l3.7-2.5c1.5,1.5,3,2.8,4.7,4l-1.9,4c-0.5,1.1-0.1,2.4,1,2.9
		c0,0,0,0,0,0l7,3.3c1.1,0.5,2.5,0.1,3-1.1l1.9-3.9c2,0.6,4.1,0.9,6.1,1.1l0.3,4.3c0.1,1.2,1.2,2.1,2.4,2c0,0,0,0,0,0l7.7-0.6
		c1.2-0.1,2.1-1.2,2.1-2.4l-0.3-4.3c2-0.5,4-1.2,5.8-2l2.5,3.6c0.7,1,2.1,1.3,3.1,0.6l6.3-4.3c1-0.7,1.3-2.1,0.6-3.1l0,0l-2.5-3.6
		c1.5-1.4,2.8-3,4-4.6l3.9,1.9c1.1,0.5,2.4,0.1,2.9-1l3.3-6.8c0.5-1.1,0.1-2.4-1-2.9l-3.9-1.9c0.5-1.9,0.9-3.9,1.1-5.9l4.4-0.3
		c1.2-0.1,2.1-1.1,2-2.3c0,0,0,0,0,0l-0.6-7.5C948.7,1978.2,947.7,1977.3,946.4,1977.3z M906.6,1963.8c12.3-0.8,23.1,8.4,24.1,20.7
		c0.9,12.3-8.3,22.9-20.6,23.8c0,0-0.1,0-0.1,0c-12.4,1-23.3-8.3-24.3-20.7c-0.9-12.3,8.3-22.9,20.6-23.8
		C906.3,1963.8,906.4,1963.8,906.6,1963.8L906.6,1963.8z"/>
	<g id="Group_186" transform="translate(697.528 1904.722)">
		<g id="Group_184" transform="translate(0)">
			<g id="Group_183">
				<g id="Group_182">
					
						<linearGradient id="Path_521_00000040535601528145719770000004075789668242351032_" gradientUnits="userSpaceOnUse" x1="-307.4699" y1="230.9395" x2="-306.4389" y2="230.9395" gradientTransform="matrix(188.2237 0 0 -317.83 59911.582 73558.4219)">
						<stop  offset="0" style="stop-color:#444B8C"/>
						<stop  offset="0.996" style="stop-color:#26264F"/>
					</linearGradient>
					<path id="Path_521" style="fill:url(#Path_521_00000040535601528145719770000004075789668242351032_);" d="M159.9,13.9
						l28.3,284.1c0.5,4-2.3,7.7-6.3,8.2c-0.1,0-0.1,0-0.2,0L44,317.8c-8.4,0.3-12.9-4.2-13.4-8.7L0,8.4C-0.4,3.8,3.8-0.2,12.2,0
						l139.5,5.9C155.8,6,159.5,9.7,159.9,13.9z"/>
					<path id="Path_522" class="st6" d="M166.2,13.6l28.4,285.6c0.5,4-2.3,7.7-6.3,8.2c-0.1,0-0.1,0-0.2,0L45.3,317.9
						c-4.5,0.3-8.5-3.1-8.9-7.6L5.6,8c-0.5-3.8,2.2-7.4,6-7.9C12.1,0,12.6,0,13,0l145,5.5C162.1,5.6,165.7,9.3,166.2,13.6z"/>
					<path id="Path_523" class="st7" d="M163.2,29.3L189.5,294c0.5,3.7-2.1,7.2-5.9,7.7c-0.1,0-0.2,0-0.2,0l-134.2,9.5
						c-4.2,0.2-7.9-2.9-8.3-7.1L12.5,24.9c-0.5-3.6,2-6.9,5.6-7.4c0.4-0.1,0.8-0.1,1.2,0l136.2,4.3
						C159.5,22.2,162.8,25.3,163.2,29.3z"/>
				</g>
				<path id="Path_524" class="st3" d="M91,11.8c0.2,1.3-0.7,2.5-1.9,2.7c-0.2,0-0.3,0-0.5,0c-1.6-0.1-2.8-1.3-3-2.9
					c-0.2-1.3,0.7-2.5,2-2.7c0.2,0,0.3,0,0.5,0C89.5,9.1,90.8,10.3,91,11.8z"/>
			</g>
		</g>
		<g id="Group_185" transform="translate(5.579)" class="st8">
			<path id="Path_525" class="st9" d="M72.2,151.2c-14.2-41.9,10.5-63-3.5-101.8C61.1,28.3,45.9,12.5,29.1,0.8L7.4,0
				C3.6-0.2,0.2,2.7,0,6.6C0,7,0,7.5,0,8l30.7,302.4c0.5,4.5,4.4,7.9,8.9,7.6l123.2-9c-0.4-31.6-8.4-54-17.3-70
				C121.1,195,86.9,194.6,72.2,151.2z"/>
		</g>
	</g>
	<g id="Group_215" transform="translate(1031.567 1940.639)">
		<g id="Group_214">
			<path id="Path_576" class="st10" d="M8.8,75.9c0-0.2,2.4-5.2,1.7-5.6S8.3,70,8.1,70.9C8.2,72.6,8.4,74.2,8.8,75.9z"/>
			<path id="Path_577" class="st11" d="M45,13.6c0,0,14.2-17.1,21.7-6.2c0,0,5.6,2.3,7.6,11.9c2.1,9.7-4.4,17.2-7.8,15.3
				c-2.2-1.2-3.8,2.6-3.8,2.6L45,13.6z"/>
			<path id="Path_578" class="st10" d="M27.4,104.5C16.1,100.3,5.2,81,5.2,81l3.6-2.5c3,4.3,16.3,12.7,16.3,12.7
				c0.3-3.7,0.7-7,1.3-10c3.7-20.4,12.2-26.5,14.5-27.8c0.2-0.1,0.4-0.2,0.6-0.3c0,0,0,0.2,0,0.4c0,0.6-0.1,1.9-0.2,3.6
				C40.2,69.8,36.8,108,27.4,104.5z"/>
			<path id="Path_579" class="st11" d="M65.2,5.7c0,0,1.9-7.6,13.1-5.3c0,0-5.4-0.7-6.8,1.4c0,0,4.3-2,6.9-0.3s3.1,7.1,2.7,8.8
				S77.7,17,75.8,17s-4.3-1.7-4.3-1.7L65.2,5.7z"/>
			<path id="Path_580" class="st10" d="M82,125.4c-5.6-12.5-8.3-16.1-8.3-20c-0.1-3.1,1.5-6.5,4.4-14.7c0.7-1.9,1.2-3.9,1.5-6
				c2.4-15.9-6.8-33.1-12.5-34.2c-1.6-0.4-4.3-6.2-4.2-15.4L62,35.2l-12,2.4c0,0,0.3,3.8,0.3,7.3c0,3-0.2,5.8-0.8,6.1
				c-0.9,0.1-1.4,0.1-1.4,0.1s-10,13.9-10.9,26.9s8,18.6-0.1,44.5C28.9,148.9,85,132.3,82,125.4z"/>
			<path id="Path_581" class="st12" d="M50,37.6c0,0,0.3,3.8,0.3,7.3c6.7-0.2,10.3-6.3,11.7-9.7L50,37.6z"/>
			<path id="Path_582" class="st11" d="M63.3,33.9c0,0,3.5-5.6,4.4-10.3c0.6-3.4-1.1-16-13.8-14.2c-2.6,0.4-5,1.3-7.1,2.7
				c-2.8,1.9-6.7,5.9-2.3,16.9l1.2,3.7L63.3,33.9z"/>
			<path id="Path_583" class="st10" d="M47.8,40.9c0,0,15.9,0.3,15.9-9.7s2.1-16.6-8.1-17.1s-12.1,3.2-13,6.5S43.6,40.6,47.8,40.9z"
				/>
			<path id="Path_584" class="st11" d="M48.4,13.9c0,0,4.4,11.6,11,13.4s9.6-0.1,9.6-0.1c-3.3-2.9-5.5-6.9-6.2-11.2
				C62.8,16,51.7,8.4,48.4,13.9z"/>
			<path id="Path_585" class="st11" d="M49.4,14.8c0,0-3.3,2.6-4,5.1s-1.2,7.7-2.7,7.5c0,0-3.3-7.9,0.4-12.4
				C47.1,10.4,49.4,14.8,49.4,14.8z"/>
			<path id="Path_586" class="st13" d="M67.9,245.5c-2.4,9.7-5.8,19.1-10,28.1l-5.2-0.4c1.7-9.5,2.6-19.1,2.4-28.8
				c-0.1-11.6-1.5-25.2-6.1-38.3c-15.7-44.9-13.2-77.5-13.2-77.5l29.5,3.5l1.4,0.2c0.1,13.6,0.5,32,0.8,46.4
				c0.3,13,0.5,22.7,0.5,22.7C73.6,213.6,71.6,230.8,67.9,245.5z"/>
			<path id="Path_587" class="st10" d="M102.7,138.7l-4.8,1.4c0,0-15.8-26.2-17.2-33c-0.5-2.2-1.6-6.7-3-11.6
				c-2.8-10.3-6.3-22.9-6.3-22.9l-1.2-5.1l-4-17.4c0,0,7.7,0.8,12.2,2.7c1.2,0.4,2.3,1.2,3,2.2c3.3,7.3,6.6,25.6,8.9,38.7
				c1.3,7.3,2.3,12.9,2.8,14.1C94.5,111.2,98.9,129.6,102.7,138.7z"/>
			<path id="Path_588" class="st14" d="M84.8,242.9c-1.7,18.1-9.2,29.8-9.2,29.8l-2.5,1.8c0,0-2.4-12.8-4.1-28
				c-1.6-14.4-3.8-29.7-6.3-34.4C52.9,193.8,50,123.9,50,123.9l29.9-1.5c3,5.1,4.3,13.4,4.6,22.8c0.8,23.8-4.8,54.9-5.7,59.4v0
				c0,0.3,0,0.7,0.2,1C85.1,217.5,85.9,231,84.8,242.9z"/>
			<path id="Path_589" class="st11" d="M48.8,15.2c0,0,3.1,12.2,11.5,16.1c0,0-8.4-7.5-9.2-15.5S48.8,15.2,48.8,15.2z"/>
			<path id="Path_590" class="st15" d="M85.7,134.4c0.1,0.8,0,1.6-0.2,2.4c-0.6,2-2.8,2.9-8.1,2.4c-3.2-0.3-4.7-5.8-5.3-10.4
				c-1.9,6.6-4.7,10.3-8.2,11.1c-5.1,1.1-31,4.3-32.7-8c-1.9-13.5,3.7-37.5,4-50.4c-0.7-4-1-8-0.9-12c0.2-9.2,2.9-14.4,5-16.4
				c0.6-0.4,1.2-0.7,3.5-1.1c1.2-0.2,2.9-0.4,5.2-0.8c0.3,0,0.6-0.1,0.9-0.1c-0.4,0.8-6.3,9.7-5.8,11.9c0.5,2.4,21.3,0.2,22.7-1.1
				s3.7-11.4,3.7-11.4s7.4,0.8,11,3.4l0,0c0.4,0.3,0.7,0.6,0.9,1c3.8,7.3,7.7,25.8,10.4,38.9c-4.2,2.5-9.3,3.2-14,2.1
				C80.1,111.2,85.4,127.5,85.7,134.4z"/>
			<path id="Path_591" class="st10" d="M8.7,78.5c0-0.5,0.4-7.6-0.9-9.1S4,65.8,3.2,65.8s-4,4.3-3,7.5s5,7.6,5,7.6L8.7,78.5z"/>
			<g id="Group_211" transform="translate(0.674 54.725)">
				<path id="Rectangle_90" class="st15" d="M2.1,2.3l7.3-2.2C9.6,0.1,9.9,0.2,10,0.5l4.2,14c0.1,0.3-0.1,0.5-0.3,0.6l-7.3,2.2
					c-0.3,0.1-0.5-0.1-0.6-0.3L1.7,3C1.6,2.7,1.8,2.4,2.1,2.3z"/>
				<path id="Rectangle_91" class="st16" d="M0.8,2.7l6.6-2c0.5-0.1,1,0.1,1.1,0.6l4,13.3c0.1,0.5-0.1,1-0.6,1.1l-6.6,2
					c-0.5,0.1-1-0.1-1.1-0.6l-4-13.3C0.1,3.3,0.4,2.8,0.8,2.7z"/>
			</g>
			<path id="Path_592" class="st10" d="M84.8,242.9c-1.7,18.1-9.2,29.8-9.2,29.8l-2.6,2.3c0,0-2.3-13.3-4-28.5
				C70.8,246.8,78.6,247.1,84.8,242.9z"/>
			<path id="Path_593" class="st17" d="M67.9,245.5c-2.4,9.7-5.8,19.1-10,28.1l-5.2-0.4c1.7-9.5,2.6-19.1,2.4-28.8
				C56.8,245.4,60.5,246.3,67.9,245.5z"/>
			<g id="Group_212" transform="translate(37.268 265.89)">
				<path id="Path_594" class="st11" d="M23.6,12.1h-3.4c-1.1-0.2-2-0.5-3.1-0.7c-1-0.2-2,0-2.7,0.7c0,0,0,0,0,0H0.2
					c-0.4-0.5,0-1.7,0.3-2.6c0.2-0.6,0.7-1,1.3-1.2C3.3,8,6.3,7.6,9,5.1C10.6,3.7,16.4,0,16.4,0l0,0c0.1,0,0.7,0.2,3.4,2.4
					c1.4,1.2,3.7-1.6,3.7-1.6c0.3,0.3,0.6,0.7,0.8,1c0.3,0.7,0.4,1.4,0.3,2.2c-0.2,1.3,0.5,3.7,1,5.3c0.3,1,0.6,1.7,0.6,1.7
					S26.5,11.8,23.6,12.1z"/>
				<path id="Path_595" class="st18" d="M24.4,1.8c-1.1,0.8-2.3,1.5-3.6,1.8C19.3,3.9,16.4,0,16.4,0l0,0c0.1,0,0.7,0.2,3.4,2.4
					c1.4,1.2,3.7-1.6,3.7-1.6C23.9,1.1,24.2,1.5,24.4,1.8z"/>
				<path id="Path_596" class="st18" d="M23.6,12.2h-3.4c-1.1-0.2-2-0.5-3.1-0.7c-1-0.2-2,0-2.7,0.7c0,0,0,0,0,0H0.2
					c-0.4-0.5,0-1.7,0.3-2.6c0.4-0.4,0.6,1.7,0.8,2s11.6,0.1,12.3-0.4c1.6-0.9,3.6-1.2,5.4-0.7c2.4,0.6,5.9-0.9,6.8-1.3
					c0.3,1,0.6,1.7,0.6,1.7S26.5,11.8,23.6,12.2z"/>
			</g>
			<g id="Group_213" transform="translate(55.153 265.89)">
				<path id="Path_597" class="st11" d="M23.6,12.1h-3.4c-1.1-0.2-2-0.5-3.1-0.7c-1-0.2-2,0-2.7,0.7c0,0,0,0,0,0H0.2
					c-0.4-0.5,0-1.7,0.3-2.6c0.2-0.6,0.7-1,1.3-1.2C3.3,8,6.3,7.6,9,5.1C10.6,3.7,16.4,0,16.4,0l0,0c0.1,0,0.7,0.2,3.4,2.4
					c1.4,1.2,3.7-1.6,3.7-1.6c0.3,0.3,0.6,0.7,0.8,1c0.3,0.7,0.4,1.4,0.3,2.2c-0.2,1.3,0.5,3.7,1,5.3c0.3,1,0.6,1.7,0.6,1.7
					S26.5,11.8,23.6,12.1z"/>
				<path id="Path_598" class="st18" d="M24.4,1.8c-1.1,0.8-2.3,1.5-3.6,1.8C19.3,3.9,16.4,0,16.4,0l0,0c0.1,0,0.7,0.2,3.4,2.4
					c1.4,1.2,3.7-1.6,3.7-1.6C23.9,1.1,24.2,1.5,24.4,1.8z"/>
				<path id="Path_599" class="st18" d="M23.6,12.2h-3.4c-1.1-0.2-2-0.5-3.1-0.7c-1-0.2-2,0-2.7,0.7c0,0,0,0,0,0H0.2
					c-0.4-0.5,0-1.7,0.3-2.6c0.4-0.4,0.6,1.7,0.8,2s11.6,0.1,12.3-0.4c1.6-0.9,3.6-1.2,5.4-0.7c2.4,0.6,5.9-0.9,6.8-1.3
					c0.3,1,0.6,1.7,0.6,1.7S26.5,11.8,23.6,12.2z"/>
			</g>
			<path id="Path_600" class="st19" d="M85.7,134.4c-3.6-1.2-8.1-4.3-13.6-11.4c-14.5-18.7-1.2-40.8,0.5-41.2S77.8,96,77.8,96
				C80.1,111.2,85.4,127.5,85.7,134.4z"/>
			<path id="Path_601" class="st20" d="M40.2,52.7c0,0-9.9,5-13.2,25.2c0,0,3.3,4.5,7.8,5.8c0.7,0.2,1.3,0.3,2,0.3
				C42.4,84.2,40.2,52.7,40.2,52.7z"/>
			<path id="Path_602" class="st10" d="M2.5,66.4c0,0,3.1-4.7,3.8-4.5c1.1,0.4-2.8,6.4-2.8,6.4s2.9-4.5,3.3-4.1
				c1,0.8-0.6,3.6-2.2,5.7c0,0,2.9-2.6,3-2.2c0.3,1.7-3.2,5.7-3.2,5.7L2.5,69L2.5,66.4z"/>
			<path id="Path_603" class="st10" d="M0.2,70.8C0.3,70.2,1.1,58.9,1.4,60s1.1,7,1.1,7L0.2,70.8z"/>
		</g>
		<path id="Path_604" class="st3" d="M50.9,35.1c0,0-0.3,1.2-3.2,1c0,0-2.4-0.2-2.4-1.4C47.2,34.1,49.2,34.2,50.9,35.1z"/>
		<path id="Path_605" class="st10" d="M102.7,138.7c0,0,5.8,3.8,6.6,5.4s2.9,7.6,2.9,7.6s-1.5,0.2-2.9-2.4s-6.3-2.4-7.9-3.7
			s-3.5-5.5-3.5-5.5L102.7,138.7z"/>
		<path id="Path_606" class="st10" d="M98.5,141.4c0,0,1,4.5,2.1,5.8s2.8,3.5,3.5,2.9s-0.7-5.5-0.7-5.5L98.5,141.4z"/>
	</g>
	<circle id="Ellipse_12" class="st21" cx="1159.4" cy="1999.1" r="24.3"/>
	<circle id="Ellipse_13" class="st21" cx="1152.7" cy="1916.7" r="23.1"/>
	<circle id="Ellipse_14" class="st21" cx="1008.2" cy="2043" r="21.5"/>
	<circle id="Ellipse_15" class="st21" cx="1014.2" cy="1952.7" r="22.9"/>
	<circle id="Ellipse_16" class="st21" cx="1074" cy="1893.1" r="22.9"/>
	<g class="st0">
		<path class="st1" d="M1142,2034.5h-1.2v-7h1.2V2034.5z"/>
		<path class="st1" d="M1148.1,2034.5h-1.1v-2.8c0-0.9-0.3-1.4-1-1.4c-0.3,0-0.6,0.1-0.9,0.4c-0.2,0.3-0.3,0.6-0.3,1v2.9h-1.1v-5
			h1.1v0.8h0c0.4-0.6,0.9-0.9,1.6-0.9c0.5,0,1,0.2,1.2,0.5c0.3,0.4,0.4,0.9,0.4,1.5V2034.5z"/>
		<path class="st1" d="M1149.2,2034.3v-1c0.4,0.3,0.9,0.5,1.4,0.5c0.7,0,1-0.2,1-0.6c0-0.1,0-0.2-0.1-0.3c-0.1-0.1-0.1-0.2-0.2-0.2
			c-0.1-0.1-0.2-0.1-0.4-0.2c-0.1,0-0.3-0.1-0.5-0.2c-0.2-0.1-0.4-0.2-0.6-0.3c-0.2-0.1-0.3-0.2-0.4-0.3c-0.1-0.1-0.2-0.2-0.2-0.4
			c-0.1-0.1-0.1-0.3-0.1-0.5c0-0.2,0.1-0.5,0.2-0.6c0.1-0.2,0.3-0.3,0.5-0.5c0.2-0.1,0.4-0.2,0.7-0.3c0.2-0.1,0.5-0.1,0.8-0.1
			c0.5,0,0.9,0.1,1.2,0.2v1c-0.4-0.2-0.8-0.4-1.2-0.4c-0.1,0-0.3,0-0.4,0c-0.1,0-0.2,0.1-0.3,0.1c-0.1,0.1-0.1,0.1-0.2,0.2
			c0,0.1-0.1,0.2-0.1,0.2c0,0.1,0,0.2,0.1,0.3c0,0.1,0.1,0.1,0.2,0.2c0.1,0.1,0.2,0.1,0.3,0.2c0.1,0,0.3,0.1,0.4,0.2
			c0.2,0.1,0.4,0.2,0.6,0.3s0.3,0.2,0.4,0.3c0.1,0.1,0.2,0.2,0.3,0.4c0.1,0.2,0.1,0.3,0.1,0.5c0,0.3-0.1,0.5-0.2,0.7
			s-0.3,0.3-0.5,0.5s-0.4,0.2-0.7,0.3c-0.3,0.1-0.5,0.1-0.8,0.1C1150,2034.6,1149.6,2034.5,1149.2,2034.3z"/>
		<path class="st1" d="M1158.1,2034.5h-1.1v-0.8h0c-0.3,0.6-0.8,0.9-1.5,0.9c-1.2,0-1.8-0.7-1.8-2.1v-3h1.1v2.9c0,0.9,0.3,1.3,1,1.3
			c0.3,0,0.6-0.1,0.8-0.4c0.2-0.2,0.3-0.6,0.3-1v-2.9h1.1V2034.5z"/>
		<path class="st1" d="M1162.5,2030.6c-0.1-0.1-0.3-0.2-0.6-0.2c-0.3,0-0.6,0.2-0.8,0.5s-0.3,0.7-0.3,1.2v2.4h-1.1v-5h1.1v1h0
			c0.1-0.4,0.3-0.6,0.5-0.8c0.2-0.2,0.5-0.3,0.8-0.3c0.2,0,0.4,0,0.5,0.1V2030.6z"/>
		<path class="st1" d="M1167.2,2034.5h-1.1v-0.8h0c-0.3,0.6-0.9,0.9-1.5,0.9c-0.5,0-0.9-0.1-1.2-0.4s-0.4-0.6-0.4-1.1
			c0-0.9,0.5-1.5,1.6-1.7l1.5-0.2c0-0.7-0.3-1.1-1-1.1c-0.6,0-1.1,0.2-1.6,0.6v-1c0.5-0.3,1.1-0.5,1.8-0.5c1.3,0,1.9,0.6,1.9,1.9
			V2034.5z M1166.1,2032l-1,0.1c-0.3,0-0.6,0.1-0.7,0.2c-0.2,0.1-0.2,0.3-0.2,0.6c0,0.2,0.1,0.4,0.2,0.5c0.2,0.1,0.4,0.2,0.6,0.2
			c0.3,0,0.6-0.1,0.9-0.4c0.2-0.2,0.3-0.5,0.3-0.9V2032z"/>
		<path class="st1" d="M1173,2034.5h-1.1v-2.8c0-0.9-0.3-1.4-1-1.4c-0.3,0-0.6,0.1-0.9,0.4c-0.2,0.3-0.3,0.6-0.3,1v2.9h-1.1v-5h1.1
			v0.8h0c0.4-0.6,0.9-0.9,1.6-0.9c0.5,0,1,0.2,1.2,0.5c0.3,0.4,0.4,0.9,0.4,1.5V2034.5z"/>
		<path class="st1" d="M1178,2034.3c-0.4,0.2-0.9,0.3-1.4,0.3c-0.7,0-1.3-0.2-1.8-0.7c-0.5-0.5-0.7-1.1-0.7-1.8c0-0.8,0.2-1.5,0.7-2
			c0.5-0.5,1.1-0.8,2-0.8c0.5,0,0.9,0.1,1.2,0.2v1.1c-0.3-0.3-0.7-0.4-1.1-0.4c-0.5,0-0.9,0.2-1.2,0.5c-0.3,0.3-0.5,0.7-0.5,1.3
			c0,0.5,0.1,0.9,0.4,1.2s0.7,0.4,1.2,0.4c0.4,0,0.8-0.1,1.2-0.4V2034.3z"/>
		<path class="st1" d="M1183.3,2032.3h-3.4c0,0.5,0.2,0.8,0.4,1.1c0.3,0.3,0.6,0.4,1.1,0.4c0.5,0,1-0.2,1.5-0.5v0.9
			c-0.5,0.3-1.1,0.4-1.8,0.4c-0.7,0-1.3-0.2-1.7-0.7c-0.4-0.5-0.6-1.1-0.6-1.9c0-0.8,0.2-1.4,0.7-1.9c0.5-0.5,1-0.7,1.7-0.7
			s1.2,0.2,1.6,0.7c0.4,0.4,0.6,1,0.6,1.8V2032.3z M1182.2,2031.5c0-0.4-0.1-0.7-0.3-1c-0.2-0.2-0.4-0.3-0.8-0.3
			c-0.3,0-0.6,0.1-0.8,0.4c-0.2,0.2-0.4,0.5-0.4,0.9H1182.2z"/>
	</g>
	<g id="Group_224" transform="translate(1146.379 1984.445)">
		<g id="Group_217" transform="translate(2.595 12.064)">
			<g id="Group_216">
				<path id="Path_607" class="st3" d="M0.6,0C0.3,0,0,0.3,0,0.6s0.3,0.6,0.6,0.6S1.3,1,1.3,0.6S1,0,0.6,0L0.6,0z"/>
			</g>
		</g>
		<g id="Group_219" transform="translate(6.486 9.47)">
			<g id="Group_218">
				<path id="Path_608" class="st3" d="M12.3,3.9H9.1V0.6C9.1,0.3,8.8,0,8.4,0h0H4.5C4.2,0,3.9,0.3,3.9,0.6v0v3.2H0.6
					C0.3,3.9,0,4.2,0,4.5v0v3.9c0,0.4,0.3,0.6,0.6,0.6h0h3.2v3.2c0,0.4,0.3,0.6,0.6,0.6h0h3.9c0.4,0,0.6-0.3,0.6-0.6v0V9.1h3.2
					c0.4,0,0.6-0.3,0.6-0.6v0V4.5C13,4.2,12.7,3.9,12.3,3.9L12.3,3.9z M11.7,7.8H8.4c-0.4,0-0.6,0.3-0.6,0.6v0v3.2H5.2V8.4
					c0-0.4-0.3-0.6-0.6-0.6h0H1.3V5.2h3.2c0.4,0,0.6-0.3,0.6-0.6v0V1.3h2.6v3.2c0,0.4,0.3,0.6,0.6,0.6h0h3.2L11.7,7.8z"/>
			</g>
		</g>
		<g id="Group_221" transform="translate(0 0)">
			<g id="Group_220">
				<path id="Path_609" class="st3" d="M23,2c-2.7,1.8-6.4,1.2-8.5-1.3l0,0c-0.7-0.8-1.9-1-2.8-0.3c-0.1,0.1-0.2,0.2-0.3,0.3
					C9.4,3.2,5.7,3.8,3,2C2.1,1.4,0.9,1.7,0.3,2.6C0.1,2.9,0,3.3,0,3.7v13.2c0,2.9,0.9,5.8,2.7,8.1c2.7,3.5,6.1,6.3,10.1,8.2
					c0.2,0.1,0.3,0.1,0.5,0c4-1.9,7.4-4.7,10.1-8.2c1.7-2.3,2.7-5.2,2.7-8.1V3.7c0-1.1-0.9-1.9-1.9-2C23.7,1.7,23.3,1.8,23,2z
					 M22.3,24.2c-2.5,3.2-5.6,5.8-9.3,7.6c-3.6-1.8-6.8-4.4-9.3-7.6c-1.6-2.1-2.4-4.7-2.4-7.3V3.7C1.3,3.3,1.6,3,1.9,3
					C2,3,2.2,3,2.3,3.1c3.3,2.1,7.7,1.5,10.2-1.5c0.2-0.3,0.6-0.3,0.9-0.1c0,0,0.1,0.1,0.1,0.1c2.5,3,6.9,3.7,10.2,1.5
					C24,2.9,24.4,3,24.6,3.3c0.1,0.1,0.1,0.2,0.1,0.3v13.2l0,0C24.7,19.5,23.8,22.1,22.3,24.2L22.3,24.2z"/>
			</g>
		</g>
		<g id="Group_223" transform="translate(2.595 3.148)">
			<g id="Group_222">
				<path id="Path_610" class="st3" d="M20.5,2c-0.2-0.1-0.4-0.2-0.6-0.1c-3.1,1.1-6.6,0.4-9.1-1.8c-0.2-0.2-0.6-0.2-0.9,0
					C7.5,2.4,4,3.1,0.9,2C0.5,1.8,0.2,2,0,2.4c0,0.1,0,0.1,0,0.2V7c0,0.4,0.3,0.7,0.7,0.7S1.3,7.3,1.3,7V3.5c3.2,0.8,6.5,0.1,9.1-2
					c2.5,2,5.9,2.8,9.1,2v10.3c0,2.1-0.6,4.1-1.9,5.8c-2,2.6-4.4,4.7-7.2,6.3c-2.8-1.6-5.2-3.7-7.2-6.3c-1.2-1.7-1.9-3.7-1.9-5.8
					v-1.6c0-0.4-0.3-0.7-0.7-0.7S0,11.8,0,12.2l0,0v1.6c0,2.4,0.7,4.6,2.1,6.5c2.1,2.8,4.8,5.1,7.9,6.8c0.2,0.1,0.4,0.1,0.6,0
					c3.1-1.7,5.8-4,7.9-6.8c1.4-1.9,2.1-4.2,2.1-6.5V2.6C20.8,2.4,20.7,2.2,20.5,2z"/>
			</g>
		</g>
	</g>
	<g id="Group_225" transform="translate(1140.026 1903.717)">
		<path id="Path_611" class="st3" d="M19.5,10.6h-0.8v0.8c-0.7,0-1.2,0.6-1.2,1.3c0,0.6,0.5,1.2,1.2,1.2h0.8c0.2,0,0.4,0.2,0.4,0.4
			s-0.2,0.4-0.4,0.4c0,0,0,0,0,0h-1.2v-0.4h-0.8v1.2h1.2v0.8h0.8v-0.8c0.7,0,1.2-0.5,1.3-1.2c0-0.7-0.5-1.2-1.2-1.3c0,0,0,0-0.1,0
			h-0.8c-0.2,0-0.4-0.2-0.4-0.4c0-0.2,0.2-0.4,0.4-0.4H20v0.4h0.8v-1.2h-1.2V10.6z"/>
		<path id="Path_612" class="st3" d="M24,22h-6.5c-0.2,0-0.4,0-0.5,0.1c0.1-0.2,0.1-0.4,0.1-0.5v-0.8c0-0.7-0.5-1.2-1.2-1.2H9.4
			c-0.2,0-0.4,0-0.5,0.1C8.9,19.5,9,19.3,9,19.1v-0.8c0-0.7-0.5-1.2-1.2-1.2H1.2c-0.7,0-1.2,0.5-1.2,1.2v0.8c0.4,0.5,0.4,1.2,0,1.6
			v0.8c0.4,0.5,0.4,1.2,0,1.6V24c0,0.7,0.5,1.2,1.2,1.2h6.5c0.5-0.4,1.2-0.4,1.6,0h6.5c0.5-0.4,1.2-0.4,1.6,0H24
			c0.7,0,1.2-0.5,1.2-1.2v-0.8C25.2,22.5,24.7,22,24,22z M9.4,20.4h0.4v0.8h0.8v-0.8h0.8v0.8h0.8v-0.8H13v0.8h0.8v-0.8h0.8v0.8h0.8
			v-0.8h0.4c0.2,0,0.4,0.2,0.4,0.4v0.8c0,0.2-0.2,0.4-0.4,0.4H9.4C9.1,22,9,21.8,9,21.6c0,0,0,0,0,0v-0.8C9,20.5,9.1,20.4,9.4,20.4
			C9.4,20.4,9.4,20.4,9.4,20.4L9.4,20.4z M1.2,22c-0.2,0-0.4-0.2-0.4-0.4c0,0,0,0,0,0v-0.8c0-0.2,0.2-0.4,0.4-0.4h0.4v0.8h0.8v-0.8
			h0.8v0.8h0.8v-0.8h0.8v0.8h0.8v-0.8h0.8v0.8h0.8v-0.8h0.4c0.2,0,0.4,0.2,0.4,0.4v0.8C8.1,21.8,8,22,7.7,22H1.2z M0.8,18.3
			c0-0.2,0.2-0.4,0.4-0.4c0,0,0,0,0,0h0.4v0.8h0.8v-0.8h0.8v0.8h0.8v-0.8h0.8v0.8h0.8v-0.8h0.8v0.8h0.8v-0.8h0.4
			c0.2,0,0.4,0.2,0.4,0.4v0.8c0,0.2-0.2,0.4-0.4,0.4H1.2c-0.2,0-0.4-0.2-0.4-0.4c0,0,0,0,0,0L0.8,18.3z M7.7,24.4H1.2
			c-0.2,0-0.4-0.2-0.4-0.4v-0.8c0-0.2,0.2-0.4,0.4-0.4c0,0,0,0,0,0h0.4v0.8h0.8v-0.8h0.8v0.8h0.8v-0.8h0.8v0.8h0.8v-0.8h0.8v0.8h0.8
			v-0.8h0.4c0.2,0,0.4,0.2,0.4,0.4V24C8.1,24.2,8,24.4,7.7,24.4z M15.9,24.4H9.4C9.1,24.4,9,24.3,9,24v-0.8c0-0.2,0.2-0.4,0.4-0.4
			c0,0,0,0,0,0h0.4v0.8h0.8v-0.8h0.8v0.8h0.8v-0.8H13v0.8h0.8v-0.8h0.8v0.8h0.8v-0.8h0.4c0.2,0,0.4,0.2,0.4,0.4V24
			C16.3,24.2,16.1,24.4,15.9,24.4z M24.4,24c0,0.2-0.2,0.4-0.4,0.4h-6.5c-0.2,0-0.4-0.2-0.4-0.4c0,0,0,0,0,0v-0.8
			c0-0.2,0.2-0.4,0.4-0.4h0.4v0.8h0.8v-0.8h0.8v0.8h0.8v-0.8h0.8v0.8H22v-0.8h0.8v0.8h0.8v-0.8H24c0.2,0,0.4,0.2,0.4,0.4L24.4,24z"
			/>
		<path id="Path_613" class="st3" d="M25.2,5.7V1.2h-4.5V2h3.1l-4,4l-2.5-1.6L12.2,10v4.6H6.5v-3.3h2c2,0,3.7-1.6,3.7-3.7V7.3H9.4
			c-1.1,0-2.2,0.5-2.8,1.4v-3h2c2,0,3.7-1.6,3.7-3.7V1.6H9.4C8.1,3.2,5.8,3.5,4.2,2.3C3.5,1.8,3,0.9,2.9,0H0v0.4
			c0,2,1.6,3.7,3.7,3.7h2v6.3C5,9.5,4,9,2.8,9H0v0.4c0,2,1.6,3.7,3.7,3.7h2v1.6H0v0.8h15.2c1.1,2.2,3.8,3.1,6,2c0.8-0.4,1.5-1.1,2-2
			h2.1v-0.8h-1.8c0.4-1.3,0.1-2.7-0.6-3.8V4.2l1.6-1.6v3.1L25.2,5.7z M9.4,8.1h2c-0.2,1.4-1.4,2.4-2.8,2.4h-2
			C6.7,9.2,7.9,8.1,9.4,8.1z M9.4,2.4h2C11.2,3.8,10,4.9,8.6,4.9h-2C6.7,3.5,7.9,2.4,9.4,2.4L9.4,2.4z M3.7,3.3
			c-1.4,0-2.6-1-2.8-2.4h2c1.4,0,2.6,1,2.8,2.4H3.7z M3.7,12.2c-1.4,0-2.6-1-2.8-2.4h2c1.4,0,2.6,1,2.8,2.4H3.7z M19.1,9
			c-0.4,0-0.8,0.1-1.2,0.2V5.6l1.6,1.1V9C19.4,9,19.3,9,19.1,9L19.1,9z M17.1,9.5c-0.6,0.3-1.2,0.8-1.6,1.4V7.7l1.6-1.8V9.5z
			 M13,14.7v-4.3l1.6-1.8v4.9c0,0.4,0.1,0.8,0.2,1.2L13,14.7z M19.1,17.1c-2,0-3.7-1.6-3.7-3.7c0-2,1.6-3.7,3.7-3.7
			c2,0,3.7,1.6,3.7,3.7C22.8,15.5,21.2,17.1,19.1,17.1L19.1,17.1z M22,10c-0.5-0.4-1-0.7-1.6-0.9V6.7L22,5.1V10z"/>
	</g>
	<g id="Group_246" transform="translate(1058.715 1877.502)">
		<g id="Group_227" transform="translate(0 0)">
			<g id="Group_226">
				<path id="Path_614" class="st3" d="M29.9,10.7C27.3,2.7,18.6-1.7,10.6,1c-7.9,2.6-12.2,11-9.9,18.9l1-0.3C-0.7,12,3.5,4,11,1.7
					S26.6,3.5,28.9,11c2.4,7.5-1.8,15.5-9.4,17.9c-6.1,1.9-12.7-0.5-16.2-5.9l-0.9,0.6c2.8,4.3,7.7,7,12.9,7
					c8.4,0,15.3-6.9,15.3-15.3C30.6,13.7,30.4,12.2,29.9,10.7L29.9,10.7z"/>
			</g>
		</g>
		<g id="Group_229" transform="translate(5.708 4.685)">
			<g id="Group_228">
				<path id="Path_615" class="st3" d="M6.6,2.6l0.3-1L1.7,0C1.5,0,1.3,0,1.2,0.2l-1,1C0,1.4,0,1.7,0.2,1.9C0.2,2,0.3,2,0.3,2L5,4.1
					l0.4-0.9l-4-1.8l0.3-0.3L6.6,2.6z"/>
			</g>
		</g>
		<g id="Group_231" transform="translate(5.708 3.65)">
			<g id="Group_230">
				<path id="Path_616" class="st3" d="M11.4,0.5c0-0.3-0.2-0.5-0.5-0.5l0,0c-1.1,0-2.2,0.4-3,1.2L3.5,5.6L1.7,5.2
					c-0.2,0-0.4,0-0.5,0.1l-1,1C0,6.6,0,6.9,0.2,7.1c0,0,0.1,0.1,0.1,0.1l2.5,1.5l1.5,2.5c0.1,0.1,0.2,0.2,0.4,0.2c0,0,0,0,0.1,0
					c0.1,0,0.3-0.1,0.4-0.2l1-1c0.1-0.1,0.2-0.3,0.1-0.5L5.8,7.9l4.5-4.4C11,2.7,11.4,1.6,11.4,0.5z M4.8,7.4
					C4.7,7.5,4.6,7.7,4.7,7.9l0.4,1.8L4.8,10L3.6,8c0-0.1-0.1-0.1-0.2-0.2l-2-1.2l0.4-0.4l1.8,0.4c0.2,0,0.4,0,0.5-0.1L8.6,2
					C8.5,1.4,8.8,0.9,9.4,0.8s1.1,0.2,1.2,0.8s-0.2,1.1-0.8,1.2c-0.1,0-0.2,0-0.3,0L4.8,7.4z"/>
			</g>
		</g>
		<g id="Group_233" transform="translate(11.968 8.166)">
			<g id="Group_232">
				<path id="Path_617" class="st3" d="M4.1,5.2L2.5,0l-1,0.3L3,5.2L2.7,5.5L1,1.5L0,1.9l2,4.7C2.1,6.8,2.4,7,2.7,6.8
					c0,0,0.1-0.1,0.1-0.1l1.1-1C4.1,5.7,4.1,5.4,4.1,5.2z"/>
			</g>
		</g>
		<g id="Group_235" transform="translate(0.025 12.64)">
			<g id="Group_234">
				<path id="Path_618" class="st3" d="M9.8,15.9c-3.7,1.7-6.6,2-7.9,0.6c-2.3-2.3,0.2-9.2,5.9-15.9L7,0C0.8,7.4-1.7,14.5,1.2,17.3
					c0.9,0.8,2.1,1.2,3.3,1.2c2-0.1,4-0.7,5.8-1.6L9.8,15.9z"/>
			</g>
		</g>
		<g id="Group_237" transform="translate(17.626 14.531)">
			<g id="Group_236">
				<path id="Path_619" class="st3" d="M9.8,3.4C9.7,3.2,9.5,3.1,9.3,3.1H7.6L6.2,0.3C6.1,0.1,5.9,0,5.7,0H0.5C0.2,0,0,0.2,0,0.5
					v4.1c0,0.3,0.2,0.5,0.5,0.5c0,0,0,0,0,0h1.6v5.7c0,0.3,0.2,0.5,0.5,0.5c0,0,0,0,0,0h2.6c0.1,0,0.3-0.1,0.4-0.2l2.1-2.1
					c0.1-0.1,0.2-0.2,0.2-0.4V6.9l2-3C9.9,3.8,9.9,3.6,9.8,3.4z M6.8,6.5C6.8,6.5,6.7,6.6,6.7,6.7v1.9L5,10.4H3.1V4.7
					c0-0.3-0.2-0.5-0.5-0.5c0,0,0,0,0,0H1V1h4.3l1.4,2.8C6.9,4,7.1,4.1,7.3,4.1h1.1L6.8,6.5z"/>
			</g>
		</g>
		<g id="Group_239" transform="translate(18.663 5.722)">
			<g id="Group_238">
				<path id="Path_620" class="st3" d="M9.1,7.8L7.2,4.4C7.1,4.2,6.9,4.1,6.7,4.1H3.6c-0.2,0-0.3,0.1-0.4,0.2L2.3,5.7H1V3.1h2.6
					C3.8,3.1,3.9,3.1,4,3L5.9,1h2.4V0H5.7C5.6,0,5.4,0.1,5.3,0.2L3.4,2.1H0.5C0.2,2.1,0,2.3,0,2.6v3.6c0,0.3,0.2,0.5,0.5,0.5h2.1
					c0.2,0,0.3-0.1,0.4-0.2l0.9-1.3h2.5l1.9,3.4c0.1,0.2,0.3,0.3,0.4,0.3h2.1v-1H9.1z"/>
			</g>
		</g>
		<g id="Group_241" transform="translate(7.263 17.122)">
			<g id="Group_240">
				<path id="Path_621" class="st3" d="M7.8,1.6H4.9L3.5,0.2C3.4,0.1,3.2,0,3.1,0H0.5C0.2,0,0,0.2,0,0.5c0,0,0,0,0,0v3.6
					c0,0.3,0.2,0.5,0.5,0.5h2.1v5.2c0,0.3,0.2,0.5,0.5,0.5c0,0,0,0,0,0c0.1,0,0.2,0,0.3-0.1l2.1-1.6c0.1-0.1,0.2-0.3,0.2-0.4V7
					l2.4-1.9C8.2,5,8.3,4.8,8.3,4.7V2.1C8.3,1.8,8.1,1.6,7.8,1.6C7.8,1.6,7.8,1.6,7.8,1.6z M7.3,4.4L4.9,6.3
					C4.7,6.4,4.7,6.6,4.7,6.7V8l-1,0.8V4.1c0-0.3-0.2-0.5-0.5-0.5H1V1h1.9l1.4,1.4c0.1,0.1,0.2,0.2,0.4,0.2h2.6L7.3,4.4L7.3,4.4z"/>
			</g>
		</g>
		<g id="Group_243" transform="translate(0.526 8.313)">
			<g id="Group_242">
				<path id="Path_622" class="st3" d="M4.1,2.8L2.5,0.3C2.4,0.1,2.3,0,2.1,0H1.6v1h0.2L3,3L1.7,4.3C1.6,4.4,1.6,4.5,1.6,4.7v1.6H0
					v1h2.1c0.3,0,0.5-0.2,0.5-0.5V4.9L4,3.5C4.2,3.3,4.2,3,4.1,2.8z"/>
			</g>
		</g>
		<g id="Group_245" transform="translate(9.622 0.54)">
			<g id="Group_244">
				<path id="Path_623" class="st3" d="M6.5,0v0.6L4.8,1.1c-0.1,0-0.1,0-0.2,0.1L3.3,2L0.5,0.6L0,1.5l3.1,1.6c0.1,0,0.2,0.1,0.2,0.1
					c0.1,0,0.2,0,0.3-0.1l1.5-1l2-0.5C7.3,1.5,7.5,1.3,7.5,1V0L6.5,0z"/>
			</g>
		</g>
	</g>
	<g id="Group_249" transform="translate(998.507 1940.764)">
		<g id="Group_248" transform="translate(0 0)">
			<g id="Group_247">
				<path id="Path_624" class="st3" d="M27.2,0h-9.5c-0.3,0-0.6,0.2-0.6,0.6c0,0.3,0.2,0.6,0.6,0.6c0,0,0,0,0,0h9.5
					c1,0,1.8,0.8,1.8,1.8v13.6H1.2V2.9c0-1,0.8-1.8,1.8-1.8h9.5c0.3,0,0.6-0.2,0.6-0.6c0-0.3-0.2-0.6-0.6-0.6c0,0,0,0,0,0H2.9
					C1.3,0,0,1.3,0,2.9v16.5c0,1.6,1.3,2.9,2.9,2.9h8.3v1.8c0,1-0.8,1.8-1.8,1.8H8c-0.3,0-0.6,0.3-0.6,0.6c0,0.3,0.3,0.6,0.6,0.6
					h14.2c0.3,0,0.6-0.3,0.6-0.6c0-0.3-0.3-0.6-0.6-0.6h-1.4c-1,0-1.8-0.8-1.8-1.8v-1.8h8.3c1.6,0,2.9-1.3,2.9-2.9V2.9
					C30.2,1.3,28.9,0,27.2,0z M18.4,25.9h-6.6c0.4-0.5,0.6-1.1,0.6-1.8v-1.8h5.4v1.8C17.8,24.8,18,25.4,18.4,25.9L18.4,25.9z
					 M27.2,21.2H2.9c-1,0-1.8-0.8-1.8-1.8v-1.8H29v1.8C29,20.4,28.2,21.2,27.2,21.2z"/>
				<path id="Path_625" class="st3" d="M15.1,18.9c-0.3,0-0.6,0.3-0.6,0.6c0,0.3,0.3,0.6,0.6,0.6c0.3,0,0.6-0.3,0.6-0.6
					c0-0.2-0.1-0.3-0.2-0.4C15.4,18.9,15.2,18.9,15.1,18.9z"/>
				<path id="Path_626" class="st3" d="M15.1,1.2c0.3,0,0.6-0.3,0.6-0.6c0-0.3-0.3-0.6-0.6-0.6c-0.3,0-0.6,0.3-0.6,0.6
					c0,0.2,0.1,0.3,0.2,0.4C14.8,1.1,14.9,1.2,15.1,1.2z"/>
				<path id="Path_627" class="st3" d="M20.5,11.7L21.8,5c0.1-0.3-0.1-0.6-0.5-0.7c0,0-0.1,0-0.1,0H10L9.7,2.9
					C9.7,2.6,9.4,2.4,9.1,2.4H6.9C6.6,2.4,6.4,2.7,6.4,3c0,0.3,0.3,0.6,0.6,0.6h1.7l1.8,8.1c0.1,0.2,0.3,0.4,0.5,0.5
					c-0.6,0.9-0.3,2.2,0.6,2.8c0.9,0.6,2.2,0.3,2.8-0.6c0.4-0.6,0.4-1.5,0-2.1h2.3c-0.6,0.9-0.3,2.2,0.6,2.8
					c0.9,0.6,2.2,0.3,2.8-0.6c0.4-0.6,0.4-1.5,0-2.1C20.3,12.2,20.5,12,20.5,11.7L20.5,11.7z M10.3,5.5h10.2l-1,5.5h-7.9L10.3,5.5z
					 M12.7,14.1c-0.5,0-0.8-0.4-0.8-0.8s0.4-0.8,0.8-0.8c0.5,0,0.8,0.4,0.8,0.8C13.5,13.7,13.1,14.1,12.7,14.1z M18.3,14.1
					c-0.5,0-0.8-0.4-0.8-0.8s0.4-0.8,0.8-0.8c0.5,0,0.8,0.4,0.8,0.8C19.2,13.7,18.8,14.1,18.3,14.1L18.3,14.1z"/>
			</g>
		</g>
	</g>
	<g id="Group_290" transform="translate(993.011 2026.336)">
		<g id="Group_251">
			<g id="Group_250">
				<path id="Path_628" class="st3" d="M29.9,12.8h-6.7v-1.3c0-0.2-0.1-0.4-0.3-0.5l-7.2-4V5h1.4v0.8c0,0.3,0.2,0.5,0.5,0.5l0,0H22
					c0.3,0,0.5-0.2,0.5-0.5c0-0.1,0-0.1,0-0.2L22,4.4l0.4-1.2c0.1-0.3,0-0.6-0.3-0.7c-0.1,0-0.1,0-0.2,0h-2V1.7
					c0-0.3-0.2-0.5-0.5-0.5l0,0h-3.8V0.5c0-0.3-0.2-0.5-0.5-0.5s-0.5,0.2-0.5,0.5V7l-7.2,4c-0.2,0.1-0.3,0.3-0.3,0.5v1.3H0.5
					c-0.3,0-0.5,0.2-0.5,0.5v13.7c0,0.3,0.2,0.5,0.5,0.5h0h29.4c0.3,0,0.5-0.2,0.5-0.5l0,0V13.3C30.4,13.1,30.2,12.8,29.9,12.8z
					 M20,4.4L20,4.4l0-0.9h1.2L21,4.2c0,0.1,0,0.2,0,0.4l0.2,0.7h-3V5h1.3C19.8,5,20,4.7,20,4.4C20,4.4,20,4.4,20,4.4L20,4.4z
					 M15.7,2.2H19v1.7h-3.2V2.2z M7.2,26.6H1V13.9h6.2V26.6z M14.7,26.6h-2.8v-6h2.8V26.6z M18.5,26.6h-2.8v-6h2.8V26.6z M22.2,26.6
					h-2.6V20c0-0.3-0.2-0.5-0.5-0.5l0,0h-7.6c-0.3,0-0.5,0.2-0.5,0.5v6.5H8.3V11.9l7-3.9l6.9,3.9l0,1.5L22.2,26.6z M29.4,26.6h-6.2
					V13.9h6.2V26.6z"/>
			</g>
		</g>
		<g id="Group_253" transform="translate(13.022 9.542)">
			<g id="Group_252">
				<path id="Path_629" class="st3" d="M2.2,0C1,0,0,1,0,2.2c0,1.2,1,2.2,2.2,2.2c1.2,0,2.2-1,2.2-2.2c0,0,0,0,0,0
					C4.4,1,3.4,0,2.2,0z M2.2,3.3C1.6,3.3,1,2.8,1,2.2C1,1.6,1.6,1,2.2,1c0.6,0,1.2,0.5,1.2,1.1c0,0,0,0,0,0h0
					C3.4,2.8,2.8,3.4,2.2,3.3C2.2,3.3,2.2,3.3,2.2,3.3z"/>
			</g>
		</g>
		<g id="Group_255" transform="translate(2.315 15.028)">
			<g id="Group_254">
				<rect id="Rectangle_92" x="0" y="0" class="st3" width="1" height="2.1"/>
			</g>
		</g>
		<g id="Group_257" transform="translate(4.903 15.028)">
			<g id="Group_256">
				<rect id="Rectangle_93" x="0" y="0" class="st3" width="1" height="2.1"/>
			</g>
		</g>
		<g id="Group_259" transform="translate(9.863 15.028)">
			<g id="Group_258">
				<rect id="Rectangle_94" x="0" y="0" class="st3" width="2.1" height="1"/>
			</g>
		</g>
		<g id="Group_261" transform="translate(14.172 15.028)">
			<g id="Group_260">
				<rect id="Rectangle_95" x="0" y="0" class="st3" width="2.1" height="1"/>
			</g>
		</g>
		<g id="Group_263" transform="translate(18.481 15.028)">
			<g id="Group_262">
				<rect id="Rectangle_96" x="0" y="0" class="st3" width="2.1" height="1"/>
			</g>
		</g>
		<g id="Group_265" transform="translate(9.863 17.473)">
			<g id="Group_264">
				<rect id="Rectangle_97" x="0" y="0" class="st3" width="2.1" height="1"/>
			</g>
		</g>
		<g id="Group_267" transform="translate(14.172 17.473)">
			<g id="Group_266">
				<rect id="Rectangle_98" x="0" y="0" class="st3" width="2.1" height="1"/>
			</g>
		</g>
		<g id="Group_269" transform="translate(18.481 17.473)">
			<g id="Group_268">
				<rect id="Rectangle_99" x="0" y="0" class="st3" width="2.1" height="1"/>
			</g>
		</g>
		<g id="Group_271" transform="translate(2.315 19.158)">
			<g id="Group_270">
				<rect id="Rectangle_100" x="0" y="0" class="st3" width="1" height="2.1"/>
			</g>
		</g>
		<g id="Group_273" transform="translate(4.903 19.158)">
			<g id="Group_272">
				<rect id="Rectangle_101" x="0" y="0" class="st3" width="1" height="2.1"/>
			</g>
		</g>
		<g id="Group_275" transform="translate(2.315 23.294)">
			<g id="Group_274">
				<rect id="Rectangle_102" x="0" y="0" class="st3" width="1" height="2.1"/>
			</g>
		</g>
		<g id="Group_277" transform="translate(4.903 23.294)">
			<g id="Group_276">
				<rect id="Rectangle_103" x="0" y="0" class="st3" width="1" height="2.1"/>
			</g>
		</g>
		<g id="Group_279" transform="translate(24.491 15.028)">
			<g id="Group_278">
				<rect id="Rectangle_104" x="0" y="0" class="st3" width="1" height="2.1"/>
			</g>
		</g>
		<g id="Group_281" transform="translate(27.078 15.028)">
			<g id="Group_280">
				<rect id="Rectangle_105" x="0" y="0" class="st3" width="1" height="2.1"/>
			</g>
		</g>
		<g id="Group_283" transform="translate(24.491 19.158)">
			<g id="Group_282">
				<rect id="Rectangle_106" x="0" y="0" class="st3" width="1" height="2.1"/>
			</g>
		</g>
		<g id="Group_285" transform="translate(27.078 19.158)">
			<g id="Group_284">
				<rect id="Rectangle_107" x="0" y="0" class="st3" width="1" height="2.1"/>
			</g>
		</g>
		<g id="Group_287" transform="translate(24.491 23.294)">
			<g id="Group_286">
				<rect id="Rectangle_108" x="0" y="0" class="st3" width="1" height="2.1"/>
			</g>
		</g>
		<g id="Group_289" transform="translate(27.078 23.294)">
			<g id="Group_288">
				<rect id="Rectangle_109" x="0" y="0" class="st3" width="1" height="2.1"/>
			</g>
		</g>
	</g>
	<g class="st0">
		<path class="st1" d="M994,2075.2v-1.2c0.1,0.1,0.2,0.2,0.4,0.3c0.1,0.1,0.3,0.1,0.5,0.2c0.2,0.1,0.3,0.1,0.5,0.1s0.3,0,0.5,0
			c0.5,0,0.9-0.1,1.1-0.2c0.2-0.2,0.4-0.4,0.4-0.7c0-0.2,0-0.3-0.1-0.4c-0.1-0.1-0.2-0.2-0.3-0.3s-0.3-0.2-0.5-0.3
			c-0.2-0.1-0.4-0.2-0.6-0.3c-0.2-0.1-0.5-0.3-0.7-0.4s-0.4-0.3-0.5-0.4c-0.2-0.2-0.3-0.3-0.4-0.5c-0.1-0.2-0.1-0.4-0.1-0.7
			c0-0.3,0.1-0.6,0.2-0.9c0.1-0.2,0.3-0.4,0.6-0.6c0.2-0.2,0.5-0.3,0.8-0.4c0.3-0.1,0.6-0.1,0.9-0.1c0.7,0,1.3,0.1,1.6,0.2v1.1
			c-0.4-0.3-0.9-0.4-1.5-0.4c-0.2,0-0.3,0-0.5,0c-0.2,0-0.3,0.1-0.5,0.2c-0.1,0.1-0.2,0.2-0.3,0.3s-0.1,0.3-0.1,0.4
			c0,0.2,0,0.3,0.1,0.4s0.2,0.2,0.3,0.3c0.1,0.1,0.3,0.2,0.5,0.3c0.2,0.1,0.4,0.2,0.6,0.3c0.2,0.1,0.5,0.3,0.7,0.4
			c0.2,0.1,0.4,0.3,0.6,0.5c0.2,0.2,0.3,0.4,0.4,0.6c0.1,0.2,0.1,0.4,0.1,0.7c0,0.4-0.1,0.7-0.2,0.9s-0.3,0.4-0.6,0.6
			c-0.2,0.2-0.5,0.3-0.8,0.3s-0.6,0.1-1,0.1c-0.1,0-0.3,0-0.4,0c-0.2,0-0.3,0-0.5-0.1c-0.2,0-0.3-0.1-0.5-0.1
			S994.1,2075.3,994,2075.2z"/>
		<path class="st1" d="M1003.2,2075.3c-0.4,0.2-0.9,0.3-1.4,0.3c-0.7,0-1.3-0.2-1.8-0.7c-0.5-0.5-0.7-1.1-0.7-1.8
			c0-0.8,0.2-1.5,0.7-2c0.5-0.5,1.1-0.8,2-0.8c0.5,0,0.9,0.1,1.2,0.2v1.1c-0.3-0.3-0.7-0.4-1.1-0.4c-0.5,0-0.9,0.2-1.2,0.5
			c-0.3,0.3-0.5,0.7-0.5,1.3c0,0.5,0.1,0.9,0.4,1.2c0.3,0.3,0.7,0.4,1.2,0.4c0.4,0,0.8-0.1,1.2-0.4V2075.3z"/>
		<path class="st1" d="M1008.8,2075.5h-1.1v-2.7c0-1-0.3-1.5-1-1.5c-0.3,0-0.6,0.1-0.8,0.4s-0.3,0.7-0.3,1.1v2.7h-1.1v-7.4h1.1v3.2
			h0c0.4-0.6,0.9-0.9,1.6-0.9c1.1,0,1.7,0.7,1.7,2V2075.5z"/>
		<path class="st1" d="M1012.4,2075.6c-0.8,0-1.4-0.2-1.8-0.7c-0.5-0.5-0.7-1.1-0.7-1.9c0-0.8,0.2-1.5,0.7-2
			c0.5-0.5,1.1-0.7,1.9-0.7c0.8,0,1.4,0.2,1.8,0.7s0.7,1.1,0.7,1.9c0,0.8-0.2,1.4-0.7,1.9
			C1013.8,2075.4,1013.2,2075.6,1012.4,2075.6z M1012.5,2071.3c-0.4,0-0.8,0.2-1,0.5s-0.4,0.7-0.4,1.3c0,0.5,0.1,0.9,0.4,1.2
			c0.3,0.3,0.6,0.5,1,0.5c0.4,0,0.8-0.1,1-0.4c0.2-0.3,0.4-0.7,0.4-1.3c0-0.5-0.1-1-0.4-1.3
			C1013.3,2071.5,1012.9,2071.3,1012.5,2071.3z"/>
		<path class="st1" d="M1018.4,2075.6c-0.8,0-1.4-0.2-1.8-0.7c-0.5-0.5-0.7-1.1-0.7-1.9c0-0.8,0.2-1.5,0.7-2
			c0.5-0.5,1.1-0.7,1.9-0.7c0.8,0,1.4,0.2,1.8,0.7s0.7,1.1,0.7,1.9c0,0.8-0.2,1.4-0.7,1.9
			C1019.8,2075.4,1019.2,2075.6,1018.4,2075.6z M1018.4,2071.3c-0.4,0-0.8,0.2-1,0.5s-0.4,0.7-0.4,1.3c0,0.5,0.1,0.9,0.4,1.2
			c0.3,0.3,0.6,0.5,1,0.5c0.4,0,0.8-0.1,1-0.4c0.2-0.3,0.4-0.7,0.4-1.3c0-0.5-0.1-1-0.4-1.3
			C1019.2,2071.5,1018.9,2071.3,1018.4,2071.3z"/>
		<path class="st1" d="M1023.3,2075.5h-1.1v-7.4h1.1V2075.5z"/>
	</g>
	<path id="Path_630" class="st22" d="M907.4,1929.8c94.7,27.1,125.5-52.3,76.5-67.6c-71-22.3-48.5,135.7,27.6,143.3"/>
	<g id="Group_292" transform="translate(867.782 1913.684)">
		<g id="Group_291" transform="translate(0 0)">
			<path id="Path_631" class="st23" d="M0,7l34-7l-6.5,9.1L0,7z"/>
			<path id="Path_632" class="st24" d="M27.5,9.1l5.4,11.1L0,7L27.5,9.1z"/>
			<path id="Path_633" class="st25" d="M32.9,20.2l-7.8-6.4L0,7L32.9,20.2z"/>
			<path id="Path_634" class="st23" d="M0,7L22.3,26l2.8-12.2L0,7z"/>
		</g>
	</g>
	<g id="Group_293" transform="translate(742.862 1952.251)">
		<path id="Path_635" class="st26" d="M1.8,0h0.6l2.9,6H4.8L3.9,4.1H1.2L0.6,6H0L1.8,0z M1.3,3.6h2.4L2.2,0.6L1.3,3.6z"/>
		<path id="Path_636" class="st26" d="M8.6,3C8.5,2.4,7.9,2,7.3,2c-1,0-1.4,0.9-1.3,1.8c0,1,0.7,1.8,1.7,1.8c0.6,0,1.1-0.5,1.1-1.2
			c0,0,0-0.1,0-0.1h0.5c0.1,0.9-0.6,1.6-1.5,1.7c-0.1,0-0.1,0-0.2,0c-1.2,0-2.2-1-2.3-2.3C5.3,2.6,5.9,1.5,7.2,1.5
			C8.2,1.5,9,2.1,9.1,3L8.6,3z"/>
		<path id="Path_637" class="st26" d="M12.9,3c-0.1-0.6-0.7-1.1-1.3-1c-1,0-1.4,0.9-1.3,1.8c0,1,0.7,1.8,1.7,1.8
			c0.6,0,1.1-0.5,1.1-1.2c0,0,0-0.1,0-0.1h0.5c0.1,0.9-0.6,1.6-1.5,1.7c-0.1,0-0.1,0-0.2,0c-1.2,0-2.2-1-2.3-2.3
			c-0.1-1.2,0.5-2.3,1.8-2.3c0.9-0.1,1.7,0.6,1.9,1.5L12.9,3z"/>
		<path id="Path_638" class="st26" d="M14.6,4c0,0.9,0.7,1.6,1.6,1.7c0.6,0,1.2-0.4,1.2-1.1c0,0,0,0,0,0H18c0,0.9-0.7,1.6-1.6,1.6
			c0,0-0.1,0-0.1,0c-1.2,0-2.2-1-2.2-2.3c0,0,0,0,0,0c-0.1-1.1,0.4-2.3,1.7-2.3c1.4,0,2.1,1.2,2.1,2.4L14.6,4z M17.4,3.5
			c0-0.8-0.7-1.5-1.5-1.5c-0.9,0-1.3,0.8-1.3,1.5H17.4z"/>
		<path id="Path_639" class="st26" d="M18.5,1.7h0.5L19,2.5h0c0.2-0.6,0.8-1,1.4-0.9c1.2,0.1,2.2,1.1,2.2,2.3
			c0.1,1.2-0.4,2.3-1.7,2.3c-0.7,0-1.3-0.4-1.6-0.9h0l0.2,2.4H19L18.5,1.7z M20.5,2c-1.2,0-1.4,0.9-1.3,1.8c0.1,0.9,0.6,1.8,1.7,1.8
			c1,0,1.3-0.9,1.2-1.8S21.5,2,20.5,2z"/>
		<path id="Path_640" class="st26" d="M24.1,1.7H25l0,0.4h-0.9L24.4,5c0,0.3,0.1,0.5,0.5,0.6c0.2,0,0.3,0,0.5,0l0,0.5
			c-0.2,0-0.3,0-0.5,0c-0.7,0-1-0.2-1-1l-0.3-3h-0.8l0-0.4h0.8l-0.1-1.3H24L24.1,1.7z"/>
		<path id="Path_641" class="st26" d="M28,0h2.7c1-0.1,1.9,0.7,1.9,1.7c0,0,0,0,0,0c0.2,0.8-0.4,1.5-1.1,1.7c-0.2,0-0.3,0-0.5,0
			h-2.1L29.2,6h-0.6L28,0z M28.9,2.9h2c0.8,0,1.3-0.4,1.2-1.2c0-0.7-0.7-1.3-1.4-1.2c0,0,0,0-0.1,0h-2L28.9,2.9z"/>
		<path id="Path_642" class="st26" d="M33.4,3c0-1,0.6-1.5,1.6-1.5c0.8-0.1,1.6,0.4,1.7,1.3c0,0,0,0.1,0,0.1L37,5.2
			c0,0.2,0.1,0.3,0.3,0.3c0,0,0,0,0,0c0.1,0,0.1,0,0.2,0l0,0.4c-0.1,0-0.2,0-0.3,0c-0.5,0-0.6-0.3-0.7-0.8h0
			c-0.3,0.6-0.9,0.9-1.5,0.9c-0.8,0.1-1.5-0.5-1.6-1.2c0,0,0,0,0,0c-0.1-1.2,1.1-1.3,2.2-1.4c0.4-0.1,0.7-0.1,0.6-0.6
			C36.2,2.2,35.6,2,35,2c-0.7,0-1.1,0.3-1.1,1L33.4,3z M36.3,3.6L36.3,3.6c-0.1,0.1-0.3,0.2-0.4,0.2C35,4,33.9,4,34,4.8
			c0.1,0.5,0.5,0.9,1,0.9c0.7,0.1,1.3-0.4,1.4-1.1c0-0.1,0-0.2,0-0.3L36.3,3.6z"/>
		<path id="Path_643" class="st26" d="M37.2,1.7h0.6l1.8,3.7l1-3.7h0.5l-1.4,5c-0.2,0.7-0.4,0.9-1,0.9c-0.1,0-0.3,0-0.4,0l0-0.4
			c0.1,0,0.2,0,0.4,0c0.5,0,0.6-0.3,0.7-0.7L39.4,6L37.2,1.7z"/>
		<path id="Path_644" class="st26" d="M41.6,1.7h0.5l0.1,0.7h0c0.3-0.7,1.2-1.1,1.9-0.7c0.3,0.1,0.6,0.4,0.7,0.7
			c0.2-0.5,0.7-0.9,1.3-0.8c0.8-0.1,1.5,0.5,1.6,1.3c0,0.1,0,0.1,0,0.2L48,6h-0.5l-0.3-2.9C47.1,2.4,46.8,2,46,2
			c-0.9,0-1.1,0.8-1,1.6L45.2,6h-0.5l-0.3-2.9c0-0.6-0.3-1.1-1-1.1c-0.9,0-1.2,0.7-1.1,1.6L42.5,6H42L41.6,1.7z"/>
		<path id="Path_645" class="st26" d="M49.1,4c0,0.9,0.7,1.6,1.6,1.7c0.6,0,1.2-0.4,1.2-1.1c0,0,0,0,0,0h0.5c0,0.9-0.7,1.6-1.6,1.6
			c0,0-0.1,0-0.1,0c-1.2,0-2.2-1-2.2-2.3c0,0,0,0,0,0c-0.1-1.1,0.4-2.3,1.7-2.3s2.1,1.2,2.1,2.4L49.1,4z M51.8,3.5
			c0-0.8-0.7-1.5-1.5-1.5c-0.9,0-1.3,0.8-1.3,1.5H51.8z"/>
		<path id="Path_646" class="st26" d="M52.9,1.7h0.5l0.1,0.7h0c0.2-0.5,0.7-0.9,1.3-0.9c1.2,0,1.6,0.6,1.7,1.7L56.8,6h-0.5L56,3.3
			C56,2.5,55.7,2,54.8,2c-0.7,0-1.2,0.5-1.2,1.2c0,0.1,0,0.2,0,0.3L53.8,6h-0.5L52.9,1.7z"/>
		<path id="Path_647" class="st26" d="M58.2,1.7h0.9l0,0.4h-0.9L58.6,5c0,0.3,0.1,0.5,0.5,0.6c0.2,0,0.3,0,0.5,0l0,0.5
			c-0.2,0-0.3,0-0.5,0c-0.7,0-1-0.2-1-1l-0.3-3H57l0-0.4h0.8l-0.1-1.3h0.5L58.2,1.7z"/>
		<path id="Path_648" class="st26" d="M62.6,2.9c-0.1-0.6-0.6-1-1.2-0.9c-0.5,0-1,0.2-0.9,0.7c0,0.5,0.6,0.6,1,0.7l0.7,0.2
			c0.7,0,1.2,0.5,1.3,1.2c0.1,0.9-0.8,1.3-1.6,1.3c-1,0.1-1.8-0.6-1.9-1.5h0.5c0.1,0.7,0.7,1.1,1.4,1.1c0.5,0,1.2-0.2,1.1-0.8
			c0-0.5-0.5-0.7-1-0.8l-0.7-0.2c-0.7-0.2-1.2-0.4-1.3-1.2c-0.1-0.9,0.7-1.2,1.5-1.2c0.9-0.1,1.6,0.5,1.7,1.4L62.6,2.9z"/>
		<path id="Path_649" class="st26" d="M66.1,0h0.6l0.4,3.7c0.1,1.4,0.8,1.9,1.9,1.9s1.7-0.5,1.6-1.9L70.2,0h0.6l0.4,3.8
			c0.2,1-0.4,2-1.5,2.3c-0.2,0-0.4,0.1-0.7,0c-1.3,0.1-2.4-0.9-2.5-2.2c0,0,0-0.1,0-0.1L66.1,0z"/>
		<path id="Path_650" class="st26" d="M74.7,2.9c-0.1-0.6-0.6-1-1.2-0.9c-0.5,0-1,0.2-0.9,0.7c0,0.5,0.6,0.6,1,0.7l0.7,0.2
			c0.7,0,1.2,0.5,1.3,1.2c0.1,0.9-0.8,1.3-1.6,1.3c-1,0.1-1.8-0.6-1.9-1.5h0.5c0.1,0.7,0.7,1.1,1.4,1.1c0.5,0,1.2-0.2,1.1-0.8
			c0-0.5-0.5-0.7-1-0.8l-0.7-0.2c-0.7-0.2-1.2-0.4-1.3-1.2c-0.1-0.9,0.7-1.2,1.5-1.2c0.9-0.1,1.6,0.5,1.7,1.4L74.7,2.9z"/>
		<path id="Path_651" class="st26" d="M75.9,0h0.5l0.1,0.8h-0.5L75.9,0z M76,1.7h0.5L77,6h-0.5L76,1.7z"/>
		<path id="Path_652" class="st26" d="M77.5,1.7h0.5l0.1,0.7h0c0.2-0.5,0.7-0.9,1.3-0.9c1.2,0,1.6,0.6,1.7,1.7L81.5,6H81l-0.3-2.7
			C80.6,2.5,80.3,2,79.5,2c-0.7,0-1.2,0.5-1.2,1.2c0,0.1,0,0.2,0,0.3L78.5,6H78L77.5,1.7z"/>
		<path id="Path_653" class="st26" d="M86.1,5.6c0.1,1.3-0.3,2.1-1.7,2.1c-0.9,0.1-1.7-0.5-1.9-1.3H83c0.2,0.6,0.8,0.9,1.3,0.9
			c1,0,1.3-0.6,1.2-1.6l-0.1-0.6h0c-0.2,0.5-0.7,0.9-1.3,0.9C83,6,82,5,82,3.8c0,0,0-0.1,0-0.1c-0.2-1,0.4-1.9,1.3-2.1
			c0.1,0,0.3,0,0.4,0c0.6,0,1.2,0.3,1.5,0.9h0l-0.1-0.7h0.5L86.1,5.6z M85.4,3.8C85.3,2.9,84.8,2,83.8,2s-1.3,0.9-1.2,1.8
			c0,0.9,0.7,1.7,1.6,1.7C85.1,5.5,85.5,4.7,85.4,3.8L85.4,3.8z"/>
	</g>
	<g id="Group_298" transform="translate(762.841 1934.3)">
		<g id="Group_296" transform="translate(12.288 2.232)">
			<g id="Group_294">
				<path id="Path_654" class="st27" d="M0,0.2h2.8c0.3,0,0.6,0,0.9,0.1C4,0.4,4.2,0.6,4.4,0.7C4.5,0.8,4.6,1,4.7,1.1
					c0.1,0.2,0.1,0.3,0.1,0.5v0c0,0.3,0,0.6-0.2,0.8C4.5,2.6,4.3,2.8,4.1,2.9C4.4,3,4.7,3.1,5,3.4c0.2,0.2,0.4,0.5,0.4,0.9v0
					c0.1,0.4-0.1,0.9-0.4,1.1c-0.4,0.3-1,0.4-1.5,0.4H0.5L0,0.2z M2.7,2.5c0.2,0,0.4,0,0.5-0.1C3.3,2.3,3.4,2.1,3.4,2v0
					c0-0.1-0.1-0.3-0.2-0.4C3,1.5,2.8,1.5,2.6,1.5h-1l0.1,1L2.7,2.5z M3.1,4.6c0.2,0,0.4,0,0.5-0.1C3.8,4.3,3.8,4.2,3.8,4v0
					c0-0.1-0.1-0.3-0.2-0.4C3.4,3.6,3.2,3.5,3,3.5H1.8l0.1,1L3.1,4.6z"/>
				<path id="Path_655" class="st27" d="M7.6,0h1.5l0.6,5.8H8.1L7.6,0z"/>
				<path id="Path_656" class="st27" d="M9.7,0h1.5l0.6,5.8h-1.5L9.7,0z"/>
				<path id="Path_657" class="st27" d="M12,0.2h2.1c0.5,0,0.9,0.1,1.3,0.2c0.4,0.1,0.7,0.3,1,0.6c0.3,0.2,0.5,0.5,0.7,0.9
					c0.2,0.3,0.3,0.7,0.3,1.1v0c0,0.4,0,0.8-0.1,1.1c-0.1,0.3-0.3,0.6-0.5,0.9c-0.3,0.3-0.6,0.5-0.9,0.6c-0.4,0.1-0.9,0.2-1.3,0.2
					h-2.1L12,0.2z M14.6,4.4c0.4,0,0.8-0.1,1.1-0.4C15.9,3.8,16,3.4,16,3v0c0-0.4-0.2-0.8-0.5-1c-0.3-0.3-0.7-0.4-1.1-0.4h-0.6
					l0.3,2.8L14.6,4.4z"/>
				<path id="Path_658" class="st27" d="M20.4,5.9c-0.3,0-0.6-0.1-0.9-0.2c-0.3-0.1-0.5-0.3-0.8-0.5c-0.2-0.2-0.4-0.4-0.5-0.7
					C18,4.3,17.9,4,17.9,3.7v0c0-0.3,0-0.6,0.1-0.9c0.1-0.3,0.2-0.5,0.4-0.7c0.2-0.2,0.4-0.4,0.6-0.5c0.3-0.1,0.6-0.2,0.9-0.2
					c0.3,0,0.7,0.1,1,0.2c0.3,0.1,0.5,0.3,0.7,0.5c0.2,0.2,0.4,0.5,0.5,0.7c0.1,0.3,0.2,0.6,0.2,0.9l0,0.2c0,0.1,0,0.1,0,0.2h-2.9
					c0.1,0.2,0.2,0.4,0.4,0.5c0.2,0.1,0.4,0.2,0.6,0.2c0.2,0,0.3,0,0.5-0.1c0.2-0.1,0.3-0.2,0.4-0.3L22.2,5
					c-0.2,0.3-0.4,0.5-0.7,0.6C21.2,5.8,20.8,5.9,20.4,5.9z M20.8,3.3c0-0.2-0.1-0.4-0.3-0.6c-0.1-0.1-0.3-0.2-0.5-0.2
					c-0.2,0-0.4,0.1-0.5,0.2c-0.1,0.2-0.2,0.4-0.2,0.6H20.8z"/>
				<path id="Path_659" class="st27" d="M24.6,5.9c-0.4,0-0.7-0.1-1.1-0.2c-0.4-0.1-0.7-0.3-1-0.5L23,4.3c0.2,0.2,0.5,0.3,0.8,0.4
					c0.2,0.1,0.5,0.1,0.7,0.1c0.3,0,0.4-0.1,0.4-0.2v0c0-0.1-0.1-0.2-0.2-0.2s-0.3-0.1-0.5-0.2c-0.2,0-0.4-0.1-0.6-0.2
					C23.3,4,23.2,3.9,23,3.8c-0.1-0.1-0.3-0.2-0.4-0.4c-0.1-0.2-0.2-0.4-0.2-0.5v0c0-0.2,0-0.4,0.1-0.6c0.1-0.2,0.2-0.3,0.3-0.4
					c0.2-0.1,0.3-0.2,0.5-0.3c0.2-0.1,0.4-0.1,0.7-0.1c0.3,0,0.6,0,0.9,0.1c0.3,0.1,0.6,0.2,0.9,0.4l-0.4,1
					c-0.2-0.1-0.5-0.2-0.7-0.3c-0.2-0.1-0.4-0.1-0.6-0.1c-0.1,0-0.2,0-0.3,0.1c0,0-0.1,0.1-0.1,0.1v0c0,0.1,0.1,0.2,0.2,0.2
					s0.3,0.1,0.5,0.2c0.2,0.1,0.4,0.1,0.6,0.2c0.2,0.1,0.4,0.2,0.5,0.3c0.1,0.1,0.3,0.2,0.4,0.4c0.1,0.2,0.2,0.3,0.2,0.5v0
					c0,0.2,0,0.4-0.1,0.6c-0.1,0.2-0.2,0.3-0.3,0.4c-0.2,0.1-0.3,0.2-0.5,0.3C25.1,5.9,24.8,5.9,24.6,5.9z"/>
				<path id="Path_660" class="st27" d="M26.2,0h1.5L28,2.9l1-1.4h1.7l-1.3,1.7l1.8,2.6h-1.7l-1-1.5l-0.3,0.5l0.1,1h-1.5L26.2,0z"/>
			</g>
			<g id="Group_295" transform="translate(5.382 0)">
				<path id="Path_661" class="st28" d="M1.6,0.7L1.5,0H0l0.1,1.5L1.6,0.7z"/>
				<path id="Path_662" class="st27" d="M0.2,2.4l0.3,3.4h1.5L1.6,1L0.2,2.4z"/>
			</g>
		</g>
		<g id="Group_297">
			<path id="Path_663" class="st28" d="M4.5,1.8L3.4,2.5l0.1,1.3l1.2-0.7l1.9,1l0.2,2l-1.7,1l-1.9-1l-0.4-4l1.4-0.9L4.1,0L0,2.5
				l0.5,5.3l4.6,2.5L5,9L1.6,7.2l-0.4-4l0.5-0.3l0.4,4l3.1,1.7l2.8-1.7L7.6,3.5L4.5,1.8z"/>
			<path id="Path_664" class="st27" d="M4.6,0l0.1,1.3l3.4,1.8l0.4,4L5.5,9l0.1,1.3l4.1-2.5L9.2,2.5L4.6,0z"/>
		</g>
	</g>
	<g transform="matrix(1, 0, 0, 1, 697.53, 1858.89)" class="st29">
		<path id="Path_665-2_00000029034830059123390890000008469851785568621455_" class="st30" d="M86.1,125.1H36.8
			c-1.4,0-2.6-1.1-2.7-2.5L33,110.8c-0.2-1.2,0.7-2.3,1.9-2.5c0.1,0,0.2,0,0.3,0h49.3c1.4,0,2.6,1.1,2.7,2.5l1.1,11.8
			c0.2,1.2-0.7,2.3-1.9,2.5C86.3,125.1,86.2,125.1,86.1,125.1z"/>
	</g>
	<g transform="matrix(1, 0, 0, 1, 697.53, 1858.89)" class="st31">
		<path id="Path_667-2_00000081605664806484129880000008018028410067438475_" class="st30" d="M147.1,125.1H97.8
			c-1.4,0-2.6-1.1-2.7-2.5L94,110.8c-0.2-1.2,0.7-2.3,1.9-2.5c0.1,0,0.2,0,0.3,0h49.3c1.4,0,2.6,1.1,2.7,2.5l1.1,11.8
			c0.2,1.2-0.7,2.3-1.9,2.5C147.3,125.1,147.2,125.1,147.1,125.1z"/>
	</g>
	<g transform="matrix(1, 0, 0, 1, 697.53, 1858.89)" class="st32">
		<path id="Path_669-2_00000060007300440853373870000002593220494266670005_" class="st30" d="M88.3,148.1H39.1
			c-1.4,0-2.6-1.1-2.7-2.5l-1.1-11.8c-0.2-1.2,0.7-2.3,1.9-2.5c0.1,0,0.2,0,0.3,0h49.3c1.4,0,2.6,1.1,2.7,2.5l1.1,11.8
			c0.2,1.2-0.7,2.3-1.9,2.5C88.6,148.1,88.4,148.2,88.3,148.1z"/>
	</g>
	<g transform="matrix(1, 0, 0, 1, 697.53, 1858.89)" class="st33">
		<path id="Path_671-2_00000069369592902271800030000000879487980244960137_" class="st30" d="M149.4,148.1h-49.3
			c-1.4,0-2.6-1.1-2.7-2.5l-1.1-11.8c-0.2-1.2,0.7-2.3,1.9-2.5c0.1,0,0.2,0,0.3,0h49.3c1.4,0,2.6,1.1,2.7,2.5l1.1,11.8
			c0.2,1.2-0.7,2.3-1.9,2.5C149.6,148.1,149.5,148.2,149.4,148.1z"/>
	</g>
	<g id="Group_313" transform="translate(748.006 1972.609)">
		<g id="Group_312" transform="translate(0)">
			<path id="Path_719" class="st34" d="M4.4,1.9C4.1,1,3.3,0.5,2.5,0.5C1,0.5,0.4,1.7,0.6,3c0,1.4,1.1,2.5,2.4,2.5
				c0.9,0,1.7-0.8,1.7-1.7c0-0.1,0-0.1,0-0.2h0.5C5.3,4.8,4.5,5.9,3.3,6C3.2,6,3.1,6,3,6C1.4,6,0,4.6,0,3c-0.2-1.6,0.6-3,2.4-3
				c1.2,0,2.2,0.7,2.5,1.9L4.4,1.9z"/>
			<path id="Path_720" class="st34" d="M5.8,3c0-1,0.6-1.4,1.5-1.4C8.1,1.5,8.9,2,9,2.8c0,0,0,0.1,0,0.1l0.2,2.2
				c0,0.2,0.1,0.3,0.3,0.3c0,0,0,0,0,0c0.1,0,0.1,0,0.2,0l0,0.4c-0.1,0-0.2,0-0.3,0c-0.5,0-0.6-0.3-0.7-0.7h0C8.5,5.7,7.9,6,7.3,6
				C6.6,6.1,5.9,5.5,5.8,4.8c0,0,0,0,0,0c-0.1-1.2,1-1.2,2.1-1.3c0.4,0,0.6-0.1,0.6-0.6C8.4,2.2,7.9,2,7.3,2c-0.6,0-1.1,0.3-1,1
				L5.8,3z M8.6,3.6L8.6,3.6C8.5,3.7,8.3,3.8,8.1,3.8c-0.8,0.2-1.9,0.1-1.8,1c0.1,0.5,0.5,0.8,1,0.8C8,5.6,8.5,5.2,8.6,4.5
				c0-0.1,0-0.2,0-0.2L8.6,3.6z"/>
			<path id="Path_721" class="st34" d="M9.9,1.7h0.5l0.1,1h0c0.2-0.7,0.8-1.1,1.5-1l0,0.5c-0.7-0.1-1.3,0.4-1.4,1.1
				c0,0.1,0,0.2,0,0.4l0.2,2.2h-0.5L9.9,1.7z"/>
			<path id="Path_722" class="st34" d="M16.3,5.9h-0.5l-0.1-0.8h0C15.5,5.6,15,6,14.4,6c-1.2,0-2.1-1-2.1-2.2
				c-0.1-1.2,0.4-2.2,1.6-2.2c0.6,0,1.2,0.3,1.5,0.9h0l-0.2-2.4h0.5L16.3,5.9z M14.3,5.6c1.1,0,1.4-0.9,1.3-1.8S15.1,2,14,2
				c-1,0-1.3,0.9-1.2,1.8S13.4,5.6,14.3,5.6L14.3,5.6z"/>
			<path id="Path_723" class="st34" d="M19.5,2.9c-0.1-0.6-0.6-1-1.2-0.9c-0.5,0-1,0.2-0.9,0.7c0,0.5,0.6,0.6,0.9,0.7L19,3.6
				c0.6,0,1.2,0.5,1.3,1.2C20.4,5.6,19.5,6,18.8,6c-0.9,0.1-1.7-0.6-1.8-1.5h0.5c0.1,0.6,0.7,1.1,1.3,1c0.5,0,1.1-0.2,1.1-0.8
				c0-0.5-0.5-0.6-1-0.8l-0.7-0.1c-0.7-0.2-1.2-0.4-1.3-1.1c-0.1-0.8,0.7-1.2,1.4-1.2c0.8-0.1,1.5,0.5,1.6,1.3L19.5,2.9z"/>
		</g>
	</g>
	<g id="Group_314" transform="translate(738.975 1995.685)">
		<path id="Path_724" class="st34" d="M0,0h0.6l3.9,5h0L4,0h0.6l0.6,5.9H4.6l-3.9-5h0l0.5,5H0.6L0,0z"/>
		<path id="Path_725" class="st34" d="M6.4,3.9c0,0.9,0.7,1.6,1.6,1.7c0.6,0,1.2-0.4,1.2-1.1c0,0,0,0,0,0h0.5C9.6,5.3,9,6,8.1,6
			C8.1,6,8,6,8,6C6.8,6,5.8,5,5.8,3.8c0,0,0,0,0,0C5.7,2.6,6.2,1.5,7.5,1.5c1.4,0,2,1.2,2.1,2.4H6.4z M9.1,3.4C9,2.6,8.4,2,7.6,1.9
			c-0.8,0-1.2,0.7-1.2,1.5H9.1z"/>
		<path id="Path_726" class="st34" d="M10.9,1.6h0.9l0,0.4h-0.9l0.3,2.9c0,0.3,0.1,0.5,0.5,0.6c0.1,0,0.3,0,0.4,0l0,0.4
			c-0.2,0-0.3,0-0.5,0c-0.7,0-0.9-0.2-1-1l-0.3-2.9H9.7l0-0.4h0.7l-0.1-1.3h0.5L10.9,1.6z"/>
		<path id="Path_727" class="st34" d="M14.7,0h2.5c1,0,1.9,0.3,2,1.4c0.1,0.6-0.3,1.2-0.9,1.3v0c0.7,0.1,1.3,0.7,1.4,1.4
			c0.1,0.6,0,1.7-1.9,1.7h-2.5L14.7,0z M15.5,2.6h1.9c0.9,0,1.3-0.4,1.2-1c-0.1-0.7-0.6-1.1-1.4-1.1h-1.9L15.5,2.6z M15.8,5.4h1.9
			c0.8,0,1.5-0.3,1.4-1.2C19.1,3.4,18.5,3,17.5,3h-1.9L15.8,5.4z"/>
		<path id="Path_728" class="st34" d="M20.3,2.9c0-1,0.6-1.4,1.6-1.4c0.8-0.1,1.5,0.4,1.7,1.2c0,0,0,0.1,0,0.1l0.2,2.3
			c0,0.2,0.1,0.3,0.3,0.3c0,0,0,0,0,0c0.1,0,0.1,0,0.2,0l0,0.4c-0.1,0-0.2,0-0.3,0c-0.5,0-0.6-0.3-0.7-0.7h0C23.1,5.7,22.5,6,21.9,6
			c-0.8,0.1-1.4-0.5-1.5-1.2c0,0,0,0,0,0c-0.1-1.2,1-1.2,2.1-1.4c0.4,0,0.7-0.1,0.6-0.6c-0.1-0.7-0.6-0.9-1.2-0.9
			c-0.6,0-1.1,0.3-1,1L20.3,2.9z M23.1,3.5L23.1,3.5c-0.1,0.1-0.3,0.2-0.4,0.2c-0.9,0.2-2,0.1-1.9,1c0.1,0.5,0.5,0.9,1,0.8
			c0.7,0.1,1.3-0.4,1.3-1.1c0-0.1,0-0.2,0-0.3L23.1,3.5z"/>
		<path id="Path_729" class="st34" d="M24.5,1.6H25l0.1,0.7h0c0.2-0.5,0.7-0.9,1.3-0.9c1.2,0,1.6,0.6,1.7,1.6l0.3,2.7h-0.5l-0.3-2.6
			c-0.1-0.7-0.4-1.3-1.2-1.3c-0.7,0-1.2,0.5-1.2,1.2c0,0.1,0,0.2,0,0.3l0.2,2.5h-0.5L24.5,1.6z"/>
		<path id="Path_730" class="st34" d="M28.7,0h0.5l0.4,3.7l2.1-2.1h0.7l-1.6,1.6L33,5.9h-0.6l-1.9-2.3l-0.8,0.7l0.2,1.6h-0.5L28.7,0
			z"/>
		<path id="Path_731" class="st34" d="M32.8,0h0.5l0.1,0.8h-0.5L32.8,0z M33,1.6h0.5l0.4,4.2h-0.5L33,1.6z"/>
		<path id="Path_732" class="st34" d="M34.5,1.6H35l0.1,0.7h0c0.2-0.5,0.7-0.9,1.3-0.9c1.2,0,1.6,0.6,1.7,1.6l0.3,2.7h-0.5l-0.3-2.6
			c-0.1-0.7-0.4-1.3-1.2-1.3c-0.7,0-1.2,0.5-1.2,1.2c0,0.1,0,0.2,0,0.3l0.2,2.5h-0.5L34.5,1.6z"/>
		<path id="Path_733" class="st34" d="M42.9,5.5c0.1,1.3-0.3,2-1.7,2c-0.9,0.1-1.7-0.4-1.9-1.3h0.5c0.2,0.6,0.7,0.9,1.3,0.8
			c1,0,1.3-0.6,1.2-1.6l-0.1-0.6h0c-0.2,0.5-0.7,0.9-1.3,0.9c-1.2,0-2.1-0.9-2.1-2.1c0,0,0-0.1,0-0.1c-0.2-0.9,0.4-1.9,1.3-2.1
			c0.1,0,0.3,0,0.4,0c0.6,0,1.1,0.3,1.4,0.9h0L42,1.6h0.5L42.9,5.5z M42.2,3.7c-0.1-0.8-0.6-1.8-1.5-1.8s-1.3,0.9-1.2,1.8
			c0,0.9,0.7,1.6,1.6,1.7C41.9,5.4,42.3,4.6,42.2,3.7L42.2,3.7z"/>
	</g>
	<g id="Group_316" transform="translate(801.27 1973.599)">
		<g id="Group_315">
			<path id="Path_734" class="st34" d="M0,0.1h0.5l0.3,3.2C0.9,4.5,1.5,5,2.5,5s1.5-0.5,1.3-1.7L3.5,0.1H4l0.3,3.3
				C4.5,4.3,4,5.2,3.1,5.3c-0.2,0-0.4,0-0.6,0C1.4,5.5,0.4,4.6,0.3,3.5c0,0,0-0.1,0-0.1L0,0.1z"/>
			<path id="Path_735" class="st34" d="M5,0.1h2.3C8.1,0,8.9,0.7,8.9,1.5c0,0,0,0,0,0c0.1,0.7-0.3,1.3-1,1.5c-0.1,0-0.3,0-0.4,0H5.8
				L6,5.3H5.5L5,0.1z M5.7,2.6h1.7c0.7,0,1.1-0.3,1-1.1c0-0.6-0.6-1.1-1.2-1.1c0,0,0,0-0.1,0H5.5L5.7,2.6z"/>
			<path id="Path_736" class="st34" d="M9.6,0.1H10l0.5,5.2h-0.5L9.6,0.1z"/>
			<path id="Path_737" class="st34" d="M13,5.4L14.7,0h0.4l-1.7,5.4H13z"/>
			<path id="Path_738" class="st34" d="M17,0.1h0.5l1.6,4.5h0l0.8-4.5h0.6l1.7,4.5h0L23,0.1h0.5l-0.9,5.2h-0.5l-1.8-4.6h0l-0.8,4.6
				h-0.5L17,0.1z"/>
			<path id="Path_739" class="st34" d="M23.9,2.7c0-0.9,0.5-1.2,1.4-1.2c0.7-0.1,1.4,0.4,1.5,1.1c0,0,0,0.1,0,0.1l0.2,2
				c0,0.1,0.1,0.3,0.3,0.3c0,0,0,0,0,0c0,0,0.1,0,0.1,0l0,0.4c-0.1,0-0.2,0-0.3,0c-0.5,0-0.6-0.3-0.6-0.7h0
				c-0.2,0.5-0.7,0.8-1.3,0.8C24.6,5.4,24,5,23.9,4.3c0,0,0,0,0,0c-0.1-1,0.9-1.1,1.9-1.2c0.4,0,0.6-0.1,0.5-0.5
				c-0.1-0.6-0.5-0.8-1-0.8c-0.6,0-1,0.3-0.9,0.9L23.9,2.7z M26.4,3.2L26.4,3.2c-0.1,0.1-0.3,0.1-0.4,0.2c-0.8,0.1-1.7,0.1-1.6,0.9
				C24.4,4.7,24.8,5,25.2,5c0.6,0.1,1.1-0.4,1.2-0.9c0-0.1,0-0.1,0-0.2L26.4,3.2z"/>
			<path id="Path_740" class="st34" d="M27.4,0.1h0.5l0.5,5.2h-0.5L27.4,0.1z"/>
			<path id="Path_741" class="st34" d="M28.8,0.1h0.5l0.5,5.2h-0.5L28.8,0.1z"/>
			<path id="Path_742" class="st34" d="M30.7,3.5c0,0.8,0.6,1.4,1.4,1.5c0.6,0,1-0.4,1.1-0.9c0,0,0,0,0,0h0.5c0,0.7-0.6,1.3-1.4,1.3
				c0,0-0.1,0-0.1,0c-1.1,0-1.9-0.9-1.9-1.9c0,0,0,0,0,0c-0.1-1,0.3-2,1.5-2s1.8,1,1.8,2.1L30.7,3.5z M33.1,3.1
				c0-0.7-0.6-1.3-1.3-1.3c-0.7,0-1.1,0.6-1.1,1.3H33.1z"/>
			<path id="Path_743" class="st34" d="M34.7,1.5h0.8l0,0.4h-0.8L35,4.4c0,0.3,0.1,0.5,0.4,0.5c0.1,0,0.3,0,0.4,0l0,0.4
				c-0.1,0-0.3,0-0.4,0c-0.6,0-0.8-0.2-0.9-0.8l-0.2-2.5h-0.6l0-0.4h0.6l-0.1-1.1h0.5L34.7,1.5z"/>
		</g>
	</g>
	<g id="Group_318" transform="translate(810.715 1995.684)">
		<g id="Group_317" transform="translate(0)">
			<path id="Path_744" class="st34" d="M0,0h0.6l0.5,5.4h3.3l0,0.5H0.6L0,0z"/>
			<path id="Path_745" class="st34" d="M8.5,3.8C8.6,5,8,6,6.7,6C5.5,6,4.5,5,4.5,3.8C4.3,2.5,5,1.5,6.2,1.5
				C7.5,1.5,8.5,2.5,8.5,3.8z M5,3.8c0,0.9,0.7,1.7,1.7,1.8c1,0,1.4-0.9,1.3-1.8C8,2.8,7.2,2,6.3,1.9C5.3,1.9,4.9,2.8,5,3.8z"/>
			<path id="Path_746" class="st34" d="M9.1,2.9c0-1,0.6-1.4,1.6-1.4c0.7,0,1.6,0.2,1.7,1.4l0.2,2.3c0,0.2,0.1,0.3,0.3,0.3
				c0,0,0,0,0,0c0.1,0,0.1,0,0.2,0l0,0.4c-0.1,0-0.2,0-0.3,0c-0.5,0-0.6-0.3-0.7-0.7h0c-0.2,0.6-0.8,0.9-1.5,0.9
				C9.9,6.1,9.2,5.5,9.1,4.8c0,0,0,0,0,0c-0.1-1.2,1-1.2,2.1-1.4c0.4-0.1,0.7-0.1,0.6-0.6c-0.1-0.7-0.6-0.9-1.2-0.9
				c-0.6,0-1.1,0.3-1,1L9.1,2.9z M11.9,3.6L11.9,3.6c-0.1,0.1-0.3,0.2-0.4,0.2c-0.9,0.2-2,0.1-1.9,1c0.1,0.5,0.5,0.9,1,0.8
				c0.7,0.1,1.3-0.4,1.3-1.1c0-0.1,0-0.2,0-0.3L11.9,3.6z"/>
			<path id="Path_747" class="st34" d="M13.3,1.6h0.5l0.1,0.7h0c0.2-0.5,0.7-0.9,1.3-0.9c1.2,0,1.6,0.6,1.7,1.6l0.3,2.7h-0.5
				l-0.3-2.7c-0.1-0.7-0.4-1.3-1.2-1.3c-0.7,0-1.2,0.5-1.2,1.2c0,0.1,0,0.2,0,0.3l0.2,2.5h-0.5L13.3,1.6z"/>
			<path id="Path_748" class="st34" d="M20.4,2.9c-0.1-0.6-0.6-1-1.2-0.9c-0.5,0-1,0.2-0.9,0.7c0,0.5,0.6,0.6,0.9,0.7l0.7,0.2
				c0.7,0,1.2,0.5,1.3,1.2C21.3,5.7,20.4,6,19.6,6c-0.9,0.1-1.8-0.6-1.9-1.5h0.5c0.1,0.7,0.7,1.1,1.4,1.1c0.5,0,1.1-0.2,1.1-0.8
				c0-0.5-0.5-0.7-1-0.8L19,3.8c-0.7-0.2-1.2-0.4-1.3-1.1c-0.1-0.9,0.7-1.2,1.5-1.2C20,1.4,20.8,2,20.9,2.9L20.4,2.9z"/>
		</g>
	</g>
</g>
</svg>
