<svg xmlns="http://www.w3.org/2000/svg" width="29.539" height="24" viewBox="0 0 29.539 24">
  <path id="Path_1645" data-name="Path 1645" d="M1119.73,5379.2a12.632,12.632,0,0,1-3.49.956,6.015,6.015,0,0,0,2.664-3.347,12.089,12.089,0,0,1-3.84,1.466,6.055,6.055,0,0,0-10.475,4.141,6.221,6.221,0,0,0,.141,1.381,17.14,17.14,0,0,1-12.482-6.334,6.056,6.056,0,0,0,1.861,8.093,5.974,5.974,0,0,1-2.736-.746v.067a6.083,6.083,0,0,0,4.851,5.95,6.043,6.043,0,0,1-1.587.2,5.373,5.373,0,0,1-1.147-.1,6.115,6.115,0,0,0,5.659,4.219,12.176,12.176,0,0,1-7.509,2.582,11.321,11.321,0,0,1-1.449-.083,17.05,17.05,0,0,0,9.29,2.718c11.143,0,17.236-9.231,17.236-17.232,0-.268-.01-.526-.023-.783A12.089,12.089,0,0,0,1119.73,5379.2Z" transform="translate(-1090.191 -5376.362)" fill="#ffb74d"/>
</svg>
