<svg id="logo" xmlns="http://www.w3.org/2000/svg" width="147.124" height="21.959" viewBox="0 0 147.124 21.959">
  <path id="Path_13744" data-name="Path 13744" d="M34.73,11.935c0,2.787,1.06,4.759,4.215,4.759A5.033,5.033,0,0,0,42.48,15.3l.19.684c.082.263.19.447.489.447h.517a.526.526,0,0,0,.517-.5V6.414a.526.526,0,0,0-.517-.5h-.843a.526.526,0,0,0-.517.5v7.021a4.342,4.342,0,0,1-3.236,1.5c-1.523,0-2.447-.973-2.447-2.971V6.414a.526.526,0,0,0-.517-.5h-.87a.526.526,0,0,0-.517.5Z" transform="translate(-2.954 -0.503)" fill="#08bd80"/>
  <path id="Path_13745" data-name="Path 13745" d="M65.6,9.729c-2.8,0-4.351,1.5-4.351,3.5a3.243,3.243,0,0,0,3.345,3.445A4.789,4.789,0,0,0,67.963,15.3l.218.71c.082.237.163.394.462.394h.517a.526.526,0,0,0,.517-.5V10.071c0-3.076-.68-4.444-3.453-4.444a10.519,10.519,0,0,0-3.78.684c-.245.105-.408.263-.3.578l.218.657a.36.36,0,0,0,.517.263,9.849,9.849,0,0,1,3.263-.578c1.55,0,1.795.894,1.768,2.84A9.214,9.214,0,0,0,65.6,9.729Zm-.707,5.364a1.8,1.8,0,0,1-1.9-1.867c0-1.367,1.088-2.1,2.61-2.1a5.008,5.008,0,0,1,2.284.421V13.62A3.9,3.9,0,0,1,64.889,15.093Z" transform="translate(-5.209 -0.479)" fill="#2d81f7" fill-rule="evenodd"/>
  <path id="Path_13746" data-name="Path 13746" d="M73.227,11.175a5.5,5.5,0,0,0,5.574,5.5,4.914,4.914,0,0,0,4.16-2.209.52.52,0,0,0-.19-.736l-.3-.21a.523.523,0,0,0-.816.053,3.634,3.634,0,0,1-6.472-2.419A3.624,3.624,0,0,1,78.8,7.415a3.4,3.4,0,0,1,2.5,1.1c.245.21.381.473.789.105l.517-.421a.5.5,0,0,0,.109-.736,4.752,4.752,0,0,0-3.888-1.841A5.634,5.634,0,0,0,73.227,11.175Z" transform="translate(-6.228 -0.479)" fill="#2d81f7"/>
  <path id="Path_13747" data-name="Path 13747" d="M91.075,9.729c-2.8,0-4.351,1.5-4.351,3.5a3.244,3.244,0,0,0,3.345,3.445A4.789,4.789,0,0,0,93.441,15.3l.218.71c.082.237.163.394.462.394h.517a.526.526,0,0,0,.517-.5V10.071c0-3.076-.68-4.444-3.453-4.444a10.519,10.519,0,0,0-3.78.684c-.245.105-.408.263-.3.578l.217.657a.36.36,0,0,0,.517.263,9.849,9.849,0,0,1,3.263-.578c1.55,0,1.795.894,1.767,2.84A9.214,9.214,0,0,0,91.075,9.729Zm-.708,5.364a1.8,1.8,0,0,1-1.9-1.867c0-1.367,1.088-2.1,2.61-2.1a5.008,5.008,0,0,1,2.284.421V13.62A3.9,3.9,0,0,1,90.367,15.093Z" transform="translate(-7.376 -0.479)" fill="#2d81f7" fill-rule="evenodd"/>
  <path id="Path_13748" data-name="Path 13748" d="M103.926,5.148c-3.263,0-5.221,2.419-5.221,5.5,0,3.024,2.176,5.548,4.949,5.548A4.932,4.932,0,0,0,107,14.8l.163.71a.486.486,0,0,0,.462.421h.571a.526.526,0,0,0,.517-.5V.5a.526.526,0,0,0-.517-.5h-.843a.527.527,0,0,0-.517.5V5.832A5.97,5.97,0,0,0,103.926,5.148Zm-.082,9.387c-1.985,0-3.235-1.814-3.235-3.865,0-2.1,1.2-3.76,3.562-3.76a6,6,0,0,1,2.638.631V12.8A3.675,3.675,0,0,1,103.843,14.535Z" transform="translate(-8.395)" fill="#2d81f7" fill-rule="evenodd"/>
  <path id="Path_13749" data-name="Path 13749" d="M117.738,5.627a5.261,5.261,0,0,0-5.33,5.522,5.232,5.232,0,0,0,5.33,5.522,6.912,6.912,0,0,0,4-1.21c.408-.289.3-.447.109-.684-.081-.105-.156-.2-.231-.3s-.149-.2-.231-.3c-.2-.264-.352-.178-.666,0l-.1.053a5.3,5.3,0,0,1-2.693.789,3.761,3.761,0,0,1-3.643-3.418h7.831a.493.493,0,0,0,.49-.447,6.185,6.185,0,0,0,.055-.71A4.722,4.722,0,0,0,117.738,5.627Zm3.044,4.5H114.31a3.345,3.345,0,0,1,3.426-2.892A3.092,3.092,0,0,1,120.782,10.123Z" transform="translate(-9.56 -0.479)" fill="#2d81f7" fill-rule="evenodd"/>
  <path id="Path_13750" data-name="Path 13750" d="M126.381,15.908a.526.526,0,0,0,.517.5h.843a.527.527,0,0,0,.517-.5V8.887a4.234,4.234,0,0,1,3.1-1.5c1.658,0,2.583.973,2.583,2.971v5.548a.526.526,0,0,0,.517.5h.87a.526.526,0,0,0,.516-.5V10.36a8.334,8.334,0,0,0-.135-1.5,4.927,4.927,0,0,1,3.318-1.472c1.576,0,2.447,1,2.447,2.971v5.548a.527.527,0,0,0,.517.5h.87a.527.527,0,0,0,.517-.5V10.36c0-2.735-1.06-4.733-4.215-4.733a6.738,6.738,0,0,0-4.051,1.709,3.863,3.863,0,0,0-3.48-1.709,5.034,5.034,0,0,0-3.535,1.394l-.244-.815a.394.394,0,0,0-.436-.316H126.9a.526.526,0,0,0-.517.5Z" transform="translate(-10.749 -0.479)" fill="#2d81f7"/>
  <path id="Path_13751" data-name="Path 13751" d="M152.843,16.405l-2.2,5.4c-.19.368.027.657.435.657h1.006a.58.58,0,0,0,.462-.316l7.07-15.628c.19-.342,0-.6-.408-.6h-1.033a.553.553,0,0,0-.462.289L153.9,14.249,149.852,6.2a.52.52,0,0,0-.463-.289h-1.2c-.408,0-.571.237-.408.578Z" transform="translate(-12.564 -0.503)" fill="#2d81f7"/>
  <path id="Path_13752" data-name="Path 13752" d="M47.838,15.908a.526.526,0,0,0,.517.5H49.2a.526.526,0,0,0,.517-.5V8.887a5.426,5.426,0,0,1,3.508-1.5c1.523,0,2.447.973,2.447,2.971v5.548a.526.526,0,0,0,.517.5h.87a.526.526,0,0,0,.517-.5V10.36c0-2.735-1.061-4.733-4.215-4.733a6.172,6.172,0,0,0-3.807,1.394l-.245-.815a.394.394,0,0,0-.435-.316h-.517a.526.526,0,0,0-.517.5Z" transform="translate(-4.069 -0.479)" fill="#08bd80"/>
  <path id="Path_13753" data-name="Path 13753" d="M.139,2.042A13.3,13.3,0,0,0,13.4,12.982,13.309,13.309,0,0,0,26.637,2.23a5.112,5.112,0,0,0,.18-1.424.778.778,0,0,0-.8-.8H.8a.778.778,0,0,0-.8.8H0l0,.03A4.834,4.834,0,0,0,.139,2.042Z" transform="translate(0 -0.001)" fill="#2d81f7"/>
  <path id="Path_13754" data-name="Path 13754" d="M20.616,22.358a6.65,6.65,0,0,0-6.632-5.47,6.655,6.655,0,0,0-6.617,5.376,2.557,2.557,0,0,0-.09.712.389.389,0,0,0,.4.4H20.286a.389.389,0,0,0,.4-.4h0v-.015A2.418,2.418,0,0,0,20.616,22.358Z" transform="translate(-0.619 -1.436)" fill="#08bd80"/>
</svg>
