<svg xmlns="http://www.w3.org/2000/svg" width="55.93" height="45.671" viewBox="0 0 55.93 45.671">
  <g id="Group_499" data-name="Group 499" transform="translate(0 0)">
    <path id="Path_1833" data-name="Path 1833" d="M1956.819-817.9h10.657v-29.95h-10.655v29.95Zm-14.137-29.95-6.9,27.91-6.9-27.911h-10.656l7.4,29.952h20.305l7.4-29.952h-10.656Z" transform="translate(-1918.227 848.485)" fill="#ed303b" fill-rule="evenodd"/>
    <path id="Path_1834" data-name="Path 1834" d="M3633.393,652.037a5.8,5.8,0,1,1-5.8-5.8,5.8,5.8,0,0,1,5.8,5.8" transform="translate(-3583.67 -612.168)" fill="#ffd300" fill-rule="evenodd"/>
    <path id="Path_1835" data-name="Path 1835" d="M4189.547-873.527v-2.406h-.9v-.322h2.163v.322h-.9v2.406Zm1.622,0v-2.728h.544l.645,1.932c.059.18.1.315.129.4.032-.1.08-.245.146-.437l.653-1.9h.486v2.728h-.348v-2.283l-.793,2.283h-.326l-.79-2.322v2.322Z" transform="translate(-4137.843 876.255)" fill="#ed303b"/>
  </g>
</svg>
