<svg xmlns="http://www.w3.org/2000/svg" width="65.354" height="64.918" viewBox="0 0 65.354 64.918">
  <g id="ZEE5_logo" transform="translate(0 -0.561)">
    <path id="Path_21148" data-name="Path 21148" d="M0,.561H32.675V65.479H0Z" transform="translate(0 0)" fill="none" fill-rule="evenodd"/>
    <path id="Path_21149" data-name="Path 21149" d="M32.675,2.717V.561a32.46,32.46,0,1,0,0,64.918V63.322A30.275,30.275,0,0,1,20.4,5.291,30.565,30.565,0,0,1,32.675,2.717" transform="translate(0 0)" fill="#22bbbe" fill-rule="evenodd"/>
    <path id="Path_21150" data-name="Path 21150" d="M22.278,9.468,21.4,7.489A30.216,30.216,0,0,0,5.77,47.419a30.577,30.577,0,0,0,40.2,15.528l-.877-1.979a28.446,28.446,0,0,1-25.565-1.388A28.063,28.063,0,0,1,22.279,9.468" transform="translate(-1.007 -2.194)" fill="#7dad41" fill-rule="evenodd"/>
    <path id="Path_21151" data-name="Path 21151" d="M47.77,12.526l1.083-1.864a28.423,28.423,0,0,0-38.685,10.3A28.03,28.03,0,0,0,20.534,59.386l1.086-1.869A26.107,26.107,0,0,1,15.743,52.9a25.846,25.846,0,0,1,.967-36.711A26.286,26.286,0,0,1,47.77,12.526" transform="translate(-2.018 -2.004)" fill="#f4b719" fill-rule="evenodd"/>
    <path id="Path_21152" data-name="Path 21152" d="M19.21,22.07l-1.493-1.563a25.839,25.839,0,0,0-.972,36.705,26.262,26.262,0,0,0,36.955.961l-1.5-1.568A24.044,24.044,0,0,1,30.52,62.576,23.745,23.745,0,0,1,19.21,22.07" transform="translate(-3.031 -6.318)" fill="#e55824" fill-rule="evenodd"/>
    <path id="Path_21153" data-name="Path 21153" d="M41.428,15.905l.471-2.114A23.811,23.811,0,1,0,31.526,60.269L32,58.158h0A21.647,21.647,0,1,1,41.423,15.9h0" transform="translate(-4.037 -4.01)" fill="#b52c80" fill-rule="evenodd"/>
    <path id="Path_21154" data-name="Path 21154" d="M71.242,49.8h5.516a21.723,21.723,0,0,0,.23-2.326l-5.746.028v2.3Zm0-6.66v2.221l5.735-.029a21.657,21.657,0,0,0-.23-2.192Z" transform="translate(-22.565 -13.487)" fill="#fefefe" fill-rule="evenodd"/>
    <path id="Path_21155" data-name="Path 21155" d="M51.31,43.472V32.529h7.463a21.641,21.641,0,1,0,.018,10.943H51.309Zm10.993-1.5L63.5,40.59A4.2,4.2,0,0,0,66.318,41.9a1.926,1.926,0,0,0,2.18-1.885v-.031c0-1.106-.941-1.807-2.274-1.807a4.719,4.719,0,0,0-2.022.483l-1.162-.764.314-5.343h6.555v1.7H65.017L64.844,36.8a4.693,4.693,0,0,1,1.741-.312c2.132,0,3.811,1.122,3.811,3.427v.031c0,2.227-1.631,3.692-4.061,3.692A5.646,5.646,0,0,1,62.3,41.976" transform="translate(-5.042 -5.016)" fill="#fefefe" fill-rule="evenodd"/>
    <path id="Path_21156" data-name="Path 21156" d="M54.131,42.149H48.15V44.37h5.981v2.141H48.15v2.3h5.981v2.141H45.742V40.008H54.13Zm-10.922-.312-6.06,7h6.06v2.111H34.033v-1.83l6.059-7H34.223V40.008h8.986Zm21.984,2.5h-.08l-5.657.028v-2.22h5.508a21.371,21.371,0,0,0-.451-2.142H57.049V50.951h7.482a21.273,21.273,0,0,0,.443-2.141H59.457v-2.3l5.669-.027H65.2q.048-1.07-.01-2.141" transform="translate(-10.78 -12.494)" fill="#020303" fill-rule="evenodd"/>
  </g>
</svg>
